<?xml version="1.0" encoding="UTF-8" standalone="no"?>
<!DOCTYPE svg PUBLIC "-//W3C//DTD SVG 1.1//EN"
 "http://www.w3.org/Graphics/SVG/1.1/DTD/svg11.dtd">
<!-- Generated by graphviz version 2.38.0 (20140413.2041)
 -->
<!-- Title: snakemake_dag Pages: 1 -->
<svg width="1139pt" height="620pt"
 viewBox="0.00 0.00 1138.50 620.00" xmlns="http://www.w3.org/2000/svg" xmlns:xlink="http://www.w3.org/1999/xlink">
<g id="graph0" class="graph" transform="scale(1 1) rotate(0) translate(4 616)">
<title>snakemake_dag</title>
<polygon fill="white" stroke="none" points="-4,4 -4,-616 1134.5,-616 1134.5,4 -4,4"/>
<!-- 0 -->
<g id="node1" class="node"><title>0</title>
<path fill="none" stroke="#c6d856" stroke-width="2" d="M607,-36C607,-36 535,-36 535,-36 529,-36 523,-30 523,-24 523,-24 523,-12 523,-12 523,-6 529,-0 535,-0 535,-0 607,-0 607,-0 613,-0 619,-6 619,-12 619,-12 619,-24 619,-24 619,-30 613,-36 607,-36"/>
<text text-anchor="middle" x="571" y="-15.5" font-family="sans" font-size="10.00">make_summary</text>
</g>
<!-- 1 -->
<g id="node2" class="node"><title>1</title>
<path fill="none" stroke="#d85656" stroke-width="2" d="M84,-108C84,-108 12,-108 12,-108 6,-108 0,-102 0,-96 0,-96 0,-84 0,-84 0,-78 6,-72 12,-72 12,-72 84,-72 84,-72 90,-72 96,-78 96,-84 96,-84 96,-96 96,-96 96,-102 90,-108 84,-108"/>
<text text-anchor="middle" x="48" y="-87.5" font-family="sans" font-size="10.00">make_rulegraph</text>
</g>
<!-- 1&#45;&gt;0 -->
<g id="edge3" class="edge"><title>1&#45;&gt;0</title>
<path fill="none" stroke="grey" stroke-width="2" d="M96.2316,-75.0071C100.863,-73.8955 105.507,-72.8689 110,-72 253.418,-44.2631 424.943,-29.2291 512.811,-22.8181"/>
<polygon fill="grey" stroke="grey" stroke-width="2" points="513.125,-26.3047 522.848,-22.0969 512.623,-19.3227 513.125,-26.3047"/>
</g>
<!-- 2 -->
<g id="node3" class="node"><title>2</title>
<path fill="none" stroke="#56d87b" stroke-width="2" d="M253.5,-612C253.5,-612 140.5,-612 140.5,-612 134.5,-612 128.5,-606 128.5,-600 128.5,-600 128.5,-588 128.5,-588 128.5,-582 134.5,-576 140.5,-576 140.5,-576 253.5,-576 253.5,-576 259.5,-576 265.5,-582 265.5,-588 265.5,-588 265.5,-600 265.5,-600 265.5,-606 259.5,-612 253.5,-612"/>
<text text-anchor="middle" x="197" y="-591.5" font-family="sans" font-size="10.00">get_codon_variant_table</text>
</g>
<!-- 2&#45;&gt;0 -->
<g id="edge1" class="edge"><title>2&#45;&gt;0</title>
<path fill="none" stroke="grey" stroke-width="2" d="M174.174,-575.949C163.138,-566.532 150.656,-553.929 143,-540 123.519,-504.554 124,-491.447 124,-451 124,-451 124,-451 124,-161 124,-91.7108 187.812,-98.0932 252,-72 338.392,-36.8805 446.982,-25.0223 512.586,-21.0247"/>
<polygon fill="grey" stroke="grey" stroke-width="2" points="512.951,-24.5097 522.737,-20.4482 512.554,-17.521 512.951,-24.5097"/>
</g>
<!-- 3 -->
<g id="node4" class="node"><title>3</title>
<path fill="none" stroke="#5673d8" stroke-width="2" d="M329.5,-468C329.5,-468 210.5,-468 210.5,-468 204.5,-468 198.5,-462 198.5,-456 198.5,-456 198.5,-444 198.5,-444 198.5,-438 204.5,-432 210.5,-432 210.5,-432 329.5,-432 329.5,-432 335.5,-432 341.5,-438 341.5,-444 341.5,-444 341.5,-456 341.5,-456 341.5,-462 335.5,-468 329.5,-468"/>
<text text-anchor="middle" x="270" y="-447.5" font-family="sans" font-size="10.00">aggregate_variant_counts</text>
</g>
<!-- 2&#45;&gt;3 -->
<g id="edge17" class="edge"><title>2&#45;&gt;3</title>
<path fill="none" stroke="grey" stroke-width="2" d="M219.337,-575.836C230.151,-566.388 242.407,-553.793 250,-540 260.534,-520.864 265.523,-496.513 267.884,-478.121"/>
<polygon fill="grey" stroke="grey" stroke-width="2" points="271.375,-478.388 268.992,-468.065 264.417,-477.621 271.375,-478.388"/>
</g>
<!-- 17 -->
<g id="node18" class="node"><title>17</title>
<path fill="none" stroke="#d86e56" stroke-width="2" d="M229.5,-540C229.5,-540 164.5,-540 164.5,-540 158.5,-540 152.5,-534 152.5,-528 152.5,-528 152.5,-516 152.5,-516 152.5,-510 158.5,-504 164.5,-504 164.5,-504 229.5,-504 229.5,-504 235.5,-504 241.5,-510 241.5,-516 241.5,-516 241.5,-528 241.5,-528 241.5,-534 235.5,-540 229.5,-540"/>
<text text-anchor="middle" x="197" y="-519.5" font-family="sans" font-size="10.00">count_variants</text>
</g>
<!-- 2&#45;&gt;17 -->
<g id="edge38" class="edge"><title>2&#45;&gt;17</title>
<path fill="none" stroke="grey" stroke-width="2" d="M197,-575.697C197,-567.983 197,-558.712 197,-550.112"/>
<polygon fill="grey" stroke="grey" stroke-width="2" points="200.5,-550.104 197,-540.104 193.5,-550.104 200.5,-550.104"/>
</g>
<!-- 3&#45;&gt;0 -->
<g id="edge14" class="edge"><title>3&#45;&gt;0</title>
<path fill="none" stroke="grey" stroke-width="2" d="M276.071,-431.76C284.837,-405.283 300,-352.858 300,-307 300,-307 300,-307 300,-161 300,-118.656 301.97,-99.6955 334,-72 360.397,-49.1754 451.75,-33.7083 513.019,-25.627"/>
<polygon fill="grey" stroke="grey" stroke-width="2" points="513.484,-29.096 522.955,-24.346 512.589,-22.1534 513.484,-29.096"/>
</g>
<!-- 4 -->
<g id="node5" class="node"><title>4</title>
<path fill="none" stroke="#56d8c9" stroke-width="2" d="M259.5,-324C259.5,-324 164.5,-324 164.5,-324 158.5,-324 152.5,-318 152.5,-312 152.5,-312 152.5,-300 152.5,-300 152.5,-294 158.5,-288 164.5,-288 164.5,-288 259.5,-288 259.5,-288 265.5,-288 271.5,-294 271.5,-300 271.5,-300 271.5,-312 271.5,-312 271.5,-318 265.5,-324 259.5,-324"/>
<text text-anchor="middle" x="212" y="-303.5" font-family="sans" font-size="10.00">counts_to_cells_ratio</text>
</g>
<!-- 3&#45;&gt;4 -->
<g id="edge19" class="edge"><title>3&#45;&gt;4</title>
<path fill="none" stroke="grey" stroke-width="2" d="M263.004,-431.871C253.032,-407.457 234.639,-362.426 222.879,-333.635"/>
<polygon fill="grey" stroke="grey" stroke-width="2" points="226.042,-332.123 219.021,-324.189 219.562,-334.77 226.042,-332.123"/>
</g>
<!-- 5 -->
<g id="node6" class="node"><title>5</title>
<path fill="none" stroke="#d8bc56" stroke-width="2" d="M507.5,-396C507.5,-396 430.5,-396 430.5,-396 424.5,-396 418.5,-390 418.5,-384 418.5,-384 418.5,-372 418.5,-372 418.5,-366 424.5,-360 430.5,-360 430.5,-360 507.5,-360 507.5,-360 513.5,-360 519.5,-366 519.5,-372 519.5,-372 519.5,-384 519.5,-384 519.5,-390 513.5,-396 507.5,-396"/>
<text text-anchor="middle" x="469" y="-375.5" font-family="sans" font-size="10.00">counts_to_scores</text>
</g>
<!-- 3&#45;&gt;5 -->
<g id="edge20" class="edge"><title>3&#45;&gt;5</title>
<path fill="none" stroke="grey" stroke-width="2" d="M318.426,-431.966C346.231,-422.185 381.336,-409.836 410.654,-399.524"/>
<polygon fill="grey" stroke="grey" stroke-width="2" points="412.084,-402.731 420.356,-396.111 409.762,-396.127 412.084,-402.731"/>
</g>
<!-- 4&#45;&gt;0 -->
<g id="edge9" class="edge"><title>4&#45;&gt;0</title>
<path fill="none" stroke="grey" stroke-width="2" d="M211.877,-287.801C212.566,-244.363 220.793,-129.604 286,-72 318.916,-42.9215 439.43,-28.8574 512.793,-22.8511"/>
<polygon fill="grey" stroke="grey" stroke-width="2" points="513.125,-26.3358 522.817,-22.0564 512.572,-19.3577 513.125,-26.3358"/>
</g>
<!-- 5&#45;&gt;0 -->
<g id="edge10" class="edge"><title>5&#45;&gt;0</title>
<path fill="none" stroke="grey" stroke-width="2" d="M435.943,-359.801C397.135,-336.961 338,-292.691 338,-235 338,-235 338,-235 338,-161 338,-120.553 328.868,-101.061 357,-72 378.365,-49.9297 457.066,-34.6999 512.806,-26.409"/>
<polygon fill="grey" stroke="grey" stroke-width="2" points="513.533,-29.8402 522.927,-24.9416 512.529,-22.9127 513.533,-29.8402"/>
</g>
<!-- 6 -->
<g id="node7" class="node"><title>6</title>
<path fill="none" stroke="#56d8a9" stroke-width="2" d="M611.5,-324C611.5,-324 508.5,-324 508.5,-324 502.5,-324 496.5,-318 496.5,-312 496.5,-312 496.5,-300 496.5,-300 496.5,-294 502.5,-288 508.5,-288 508.5,-288 611.5,-288 611.5,-288 617.5,-288 623.5,-294 623.5,-300 623.5,-300 623.5,-312 623.5,-312 623.5,-318 617.5,-324 611.5,-324"/>
<text text-anchor="middle" x="560" y="-303.5" font-family="sans" font-size="10.00">scores_to_frac_escape</text>
</g>
<!-- 5&#45;&gt;6 -->
<g id="edge24" class="edge"><title>5&#45;&gt;6</title>
<path fill="none" stroke="grey" stroke-width="2" d="M491.494,-359.697C502.955,-350.881 517.058,-340.032 529.484,-330.474"/>
<polygon fill="grey" stroke="grey" stroke-width="2" points="531.972,-332.976 537.764,-324.104 527.704,-327.427 531.972,-332.976"/>
</g>
<!-- 6&#45;&gt;0 -->
<g id="edge8" class="edge"><title>6&#45;&gt;0</title>
<path fill="none" stroke="grey" stroke-width="2" d="M556.811,-287.864C550.137,-249.058 536.472,-151.649 551,-72 552.606,-63.1957 555.597,-53.9537 558.786,-45.6977"/>
<polygon fill="grey" stroke="grey" stroke-width="2" points="562.121,-46.7912 562.694,-36.2119 555.649,-44.1248 562.121,-46.7912"/>
</g>
<!-- 7 -->
<g id="node8" class="node"><title>7</title>
<path fill="none" stroke="#78d856" stroke-width="2" d="M806,-252C806,-252 692,-252 692,-252 686,-252 680,-246 680,-240 680,-240 680,-228 680,-228 680,-222 686,-216 692,-216 692,-216 806,-216 806,-216 812,-216 818,-222 818,-228 818,-228 818,-240 818,-240 818,-246 812,-252 806,-252"/>
<text text-anchor="middle" x="749" y="-231.5" font-family="sans" font-size="10.00">call_strong_escape_sites</text>
</g>
<!-- 6&#45;&gt;7 -->
<g id="edge25" class="edge"><title>6&#45;&gt;7</title>
<path fill="none" stroke="grey" stroke-width="2" d="M606.235,-287.876C632.531,-278.137 665.644,-265.872 693.358,-255.608"/>
<polygon fill="grey" stroke="grey" stroke-width="2" points="694.754,-258.824 702.916,-252.068 692.322,-252.259 694.754,-258.824"/>
</g>
<!-- 8 -->
<g id="node9" class="node"><title>8</title>
<path fill="none" stroke="#56d892" stroke-width="2" d="M686,-180C686,-180 618,-180 618,-180 612,-180 606,-174 606,-168 606,-168 606,-156 606,-156 606,-150 612,-144 618,-144 618,-144 686,-144 686,-144 692,-144 698,-150 698,-156 698,-156 698,-168 698,-168 698,-174 692,-180 686,-180"/>
<text text-anchor="middle" x="652" y="-159.5" font-family="sans" font-size="10.00">escape_profiles</text>
</g>
<!-- 6&#45;&gt;8 -->
<g id="edge26" class="edge"><title>6&#45;&gt;8</title>
<path fill="none" stroke="grey" stroke-width="2" d="M571.097,-287.871C587.053,-263.244 616.601,-217.638 635.23,-188.885"/>
<polygon fill="grey" stroke="grey" stroke-width="2" points="638.363,-190.485 640.863,-180.189 632.488,-186.679 638.363,-190.485"/>
</g>
<!-- 9 -->
<g id="node10" class="node"><title>9</title>
<path fill="none" stroke="#d88556" stroke-width="2" d="M1023.5,-180C1023.5,-180 928.5,-180 928.5,-180 922.5,-180 916.5,-174 916.5,-168 916.5,-168 916.5,-156 916.5,-156 916.5,-150 922.5,-144 928.5,-144 928.5,-144 1023.5,-144 1023.5,-144 1029.5,-144 1035.5,-150 1035.5,-156 1035.5,-156 1035.5,-168 1035.5,-168 1035.5,-174 1029.5,-180 1023.5,-180"/>
<text text-anchor="middle" x="976" y="-159.5" font-family="sans" font-size="10.00">mds_escape_profiles</text>
</g>
<!-- 6&#45;&gt;9 -->
<g id="edge29" class="edge"><title>6&#45;&gt;9</title>
<path fill="none" stroke="grey" stroke-width="2" d="M623.512,-302.027C740.427,-295.899 980.107,-280.034 1005,-252 1020.72,-234.297 1009.16,-207.919 996.27,-188.473"/>
<polygon fill="grey" stroke="grey" stroke-width="2" points="998.975,-186.236 990.351,-180.083 993.256,-190.271 998.975,-186.236"/>
</g>
<!-- 10 -->
<g id="node11" class="node"><title>10</title>
<path fill="none" stroke="#61d856" stroke-width="2" d="M1118.5,-180C1118.5,-180 1065.5,-180 1065.5,-180 1059.5,-180 1053.5,-174 1053.5,-168 1053.5,-168 1053.5,-156 1053.5,-156 1053.5,-150 1059.5,-144 1065.5,-144 1065.5,-144 1118.5,-144 1118.5,-144 1124.5,-144 1130.5,-150 1130.5,-156 1130.5,-156 1130.5,-168 1130.5,-168 1130.5,-174 1124.5,-180 1118.5,-180"/>
<text text-anchor="middle" x="1092" y="-159.5" font-family="sans" font-size="10.00">output_pdbs</text>
</g>
<!-- 6&#45;&gt;10 -->
<g id="edge30" class="edge"><title>6&#45;&gt;10</title>
<path fill="none" stroke="grey" stroke-width="2" d="M623.535,-303.753C734.008,-300.604 956.107,-289.65 1023,-252 1048.41,-237.697 1067.64,-209.848 1079.26,-189.093"/>
<polygon fill="grey" stroke="grey" stroke-width="2" points="1082.42,-190.599 1084.05,-180.131 1076.25,-187.295 1082.42,-190.599"/>
</g>
<!-- 12 -->
<g id="node13" class="node"><title>12</title>
<path fill="none" stroke="#afd856" stroke-width="2" d="M848,-180C848,-180 766,-180 766,-180 760,-180 754,-174 754,-168 754,-168 754,-156 754,-156 754,-150 760,-144 766,-144 766,-144 848,-144 848,-144 854,-144 860,-150 860,-156 860,-156 860,-168 860,-168 860,-174 854,-180 848,-180"/>
<text text-anchor="middle" x="807" y="-159.5" font-family="sans" font-size="10.00">natural_mutations</text>
</g>
<!-- 6&#45;&gt;12 -->
<g id="edge31" class="edge"><title>6&#45;&gt;12</title>
<path fill="none" stroke="grey" stroke-width="2" d="M623.714,-301.418C694.376,-295.958 801.773,-282.727 827,-252 841.508,-234.329 833.291,-208.282 823.367,-188.928"/>
<polygon fill="grey" stroke="grey" stroke-width="2" points="826.35,-187.09 818.45,-180.03 820.223,-190.476 826.35,-187.09"/>
</g>
<!-- 13 -->
<g id="node14" class="node"><title>13</title>
<path fill="none" stroke="#56a2d8" stroke-width="2" d="M453.5,-108C453.5,-108 378.5,-108 378.5,-108 372.5,-108 366.5,-102 366.5,-96 366.5,-96 366.5,-84 366.5,-84 366.5,-78 372.5,-72 378.5,-72 378.5,-72 453.5,-72 453.5,-72 459.5,-72 465.5,-78 465.5,-84 465.5,-84 465.5,-96 465.5,-96 465.5,-102 459.5,-108 453.5,-108"/>
<text text-anchor="middle" x="416" y="-87.5" font-family="sans" font-size="10.00">homolog_escape</text>
</g>
<!-- 6&#45;&gt;13 -->
<g id="edge34" class="edge"><title>6&#45;&gt;13</title>
<path fill="none" stroke="grey" stroke-width="2" d="M496.18,-302.09C460.233,-296.778 418.043,-283.605 395,-252 366.055,-212.301 386.258,-152.029 402.103,-117.6"/>
<polygon fill="grey" stroke="grey" stroke-width="2" points="405.441,-118.734 406.616,-108.204 399.131,-115.703 405.441,-118.734"/>
</g>
<!-- 14 -->
<g id="node15" class="node"><title>14</title>
<path fill="none" stroke="#d8d356" stroke-width="2" d="M498,-252C498,-252 416,-252 416,-252 410,-252 404,-246 404,-240 404,-240 404,-228 404,-228 404,-222 410,-216 416,-216 416,-216 498,-216 498,-216 504,-216 510,-222 510,-228 510,-228 510,-240 510,-240 510,-246 504,-252 498,-252"/>
<text text-anchor="middle" x="457" y="-231.5" font-family="sans" font-size="10.00">escape_selections</text>
</g>
<!-- 6&#45;&gt;14 -->
<g id="edge35" class="edge"><title>6&#45;&gt;14</title>
<path fill="none" stroke="grey" stroke-width="2" d="M534.803,-287.876C521.586,-278.893 505.208,-267.763 490.893,-258.034"/>
<polygon fill="grey" stroke="grey" stroke-width="2" points="492.532,-254.916 482.293,-252.19 488.597,-260.705 492.532,-254.916"/>
</g>
<!-- 15 -->
<g id="node16" class="node"><title>15</title>
<path fill="none" stroke="#d8a456" stroke-width="2" d="M648,-108C648,-108 572,-108 572,-108 566,-108 560,-102 560,-96 560,-96 560,-84 560,-84 560,-78 566,-72 572,-72 572,-72 648,-72 648,-72 654,-72 660,-78 660,-84 660,-84 660,-96 660,-96 660,-102 654,-108 648,-108"/>
<text text-anchor="middle" x="610" y="-87.5" font-family="sans" font-size="10.00">make_supp_data</text>
</g>
<!-- 6&#45;&gt;15 -->
<g id="edge37" class="edge"><title>6&#45;&gt;15</title>
<path fill="none" stroke="grey" stroke-width="2" d="M563.914,-287.589C570.576,-258.035 584.605,-196.18 597,-144 599.001,-135.574 601.231,-126.409 603.27,-118.106"/>
<polygon fill="grey" stroke="grey" stroke-width="2" points="606.724,-118.718 605.721,-108.17 599.928,-117.041 606.724,-118.718"/>
</g>
<!-- 7&#45;&gt;0 -->
<g id="edge12" class="edge"><title>7&#45;&gt;0</title>
<path fill="none" stroke="grey" stroke-width="2" d="M746.701,-215.697C741.578,-183.505 726.406,-113.885 687,-72 671.212,-55.2185 649.092,-43.3226 628.396,-35.1133"/>
<polygon fill="grey" stroke="grey" stroke-width="2" points="629.608,-31.8297 619.016,-31.5965 627.151,-38.3842 629.608,-31.8297"/>
</g>
<!-- 7&#45;&gt;8 -->
<g id="edge28" class="edge"><title>7&#45;&gt;8</title>
<path fill="none" stroke="grey" stroke-width="2" d="M725.022,-215.697C712.689,-206.796 697.484,-195.823 684.147,-186.199"/>
<polygon fill="grey" stroke="grey" stroke-width="2" points="685.859,-183.118 675.702,-180.104 681.763,-188.794 685.859,-183.118"/>
</g>
<!-- 7&#45;&gt;12 -->
<g id="edge32" class="edge"><title>7&#45;&gt;12</title>
<path fill="none" stroke="grey" stroke-width="2" d="M763.337,-215.697C770.291,-207.305 778.77,-197.07 786.401,-187.861"/>
<polygon fill="grey" stroke="grey" stroke-width="2" points="789.143,-190.038 792.828,-180.104 783.753,-185.571 789.143,-190.038"/>
</g>
<!-- 8&#45;&gt;0 -->
<g id="edge4" class="edge"><title>8&#45;&gt;0</title>
<path fill="none" stroke="grey" stroke-width="2" d="M661.955,-143.709C671.386,-124.823 682.289,-94.2955 669,-72 659.811,-56.5831 644.408,-45.3792 628.503,-37.3597"/>
<polygon fill="grey" stroke="grey" stroke-width="2" points="629.668,-34.0412 619.124,-32.9982 626.716,-40.3885 629.668,-34.0412"/>
</g>
<!-- 8&#45;&gt;15 -->
<g id="edge36" class="edge"><title>8&#45;&gt;15</title>
<path fill="none" stroke="grey" stroke-width="2" d="M641.618,-143.697C636.735,-135.559 630.813,-125.689 625.421,-116.701"/>
<polygon fill="grey" stroke="grey" stroke-width="2" points="628.409,-114.879 620.263,-108.104 622.406,-118.48 628.409,-114.879"/>
</g>
<!-- 9&#45;&gt;0 -->
<g id="edge6" class="edge"><title>9&#45;&gt;0</title>
<path fill="none" stroke="grey" stroke-width="2" d="M966.817,-143.707C954.843,-123.008 931.855,-89.0131 902,-72 856.541,-46.0945 711.646,-30.4331 629.425,-23.4054"/>
<polygon fill="grey" stroke="grey" stroke-width="2" points="629.49,-19.8987 619.232,-22.551 628.905,-26.8742 629.49,-19.8987"/>
</g>
<!-- 10&#45;&gt;0 -->
<g id="edge15" class="edge"><title>10&#45;&gt;0</title>
<path fill="none" stroke="grey" stroke-width="2" d="M1053.42,-144.539C1032.11,-134.881 1005.47,-121.873 983,-108 960.611,-94.1772 960.246,-82.2203 936,-72 833.999,-29.0047 703.318,-19.9088 629.202,-18.5353"/>
<polygon fill="grey" stroke="grey" stroke-width="2" points="629.178,-15.0346 619.128,-18.39 629.077,-22.0339 629.178,-15.0346"/>
</g>
<!-- 11 -->
<g id="node12" class="node"><title>11</title>
<path fill="none" stroke="#56d0d8" stroke-width="2" d="M984,-252C984,-252 886,-252 886,-252 880,-252 874,-246 874,-240 874,-240 874,-228 874,-228 874,-222 880,-216 886,-216 886,-216 984,-216 984,-216 990,-216 996,-222 996,-228 996,-228 996,-240 996,-240 996,-246 990,-252 984,-252"/>
<text text-anchor="middle" x="935" y="-231.5" font-family="sans" font-size="10.00">gisaid_rbd_mutations</text>
</g>
<!-- 11&#45;&gt;0 -->
<g id="edge13" class="edge"><title>11&#45;&gt;0</title>
<path fill="none" stroke="grey" stroke-width="2" d="M924.416,-215.767C912.37,-196.932 891.439,-166.449 869,-144 831.044,-106.027 820.387,-95.2648 772,-72 726.329,-50.0409 670.284,-36.2255 628.988,-28.2267"/>
<polygon fill="grey" stroke="grey" stroke-width="2" points="629.563,-24.7735 619.088,-26.3655 628.27,-31.6529 629.563,-24.7735"/>
</g>
<!-- 11&#45;&gt;12 -->
<g id="edge33" class="edge"><title>11&#45;&gt;12</title>
<path fill="none" stroke="grey" stroke-width="2" d="M903.688,-215.876C886.797,-206.639 865.753,-195.131 847.615,-185.212"/>
<polygon fill="grey" stroke="grey" stroke-width="2" points="848.886,-181.917 838.433,-180.19 845.527,-188.059 848.886,-181.917"/>
</g>
<!-- 12&#45;&gt;0 -->
<g id="edge7" class="edge"><title>12&#45;&gt;0</title>
<path fill="none" stroke="grey" stroke-width="2" d="M798.297,-143.681C787.348,-123.599 766.702,-90.8499 740,-72 707.191,-48.8388 663.87,-35.5153 629.304,-28.02"/>
<polygon fill="grey" stroke="grey" stroke-width="2" points="629.842,-24.5575 619.342,-25.9669 628.429,-31.4134 629.842,-24.5575"/>
</g>
<!-- 13&#45;&gt;0 -->
<g id="edge5" class="edge"><title>13&#45;&gt;0</title>
<path fill="none" stroke="grey" stroke-width="2" d="M453.917,-71.8761C475.013,-62.3492 501.456,-50.4068 523.873,-40.2833"/>
<polygon fill="grey" stroke="grey" stroke-width="2" points="525.533,-43.374 533.206,-36.0683 522.652,-36.9944 525.533,-43.374"/>
</g>
<!-- 14&#45;&gt;0 -->
<g id="edge16" class="edge"><title>14&#45;&gt;0</title>
<path fill="none" stroke="grey" stroke-width="2" d="M460.926,-215.925C468.503,-185.279 487.173,-119.697 518,-72 524.72,-61.6031 533.764,-51.6144 542.478,-43.1662"/>
<polygon fill="grey" stroke="grey" stroke-width="2" points="545.057,-45.547 549.983,-36.1671 540.283,-40.4276 545.057,-45.547"/>
</g>
<!-- 15&#45;&gt;0 -->
<g id="edge11" class="edge"><title>15&#45;&gt;0</title>
<path fill="none" stroke="grey" stroke-width="2" d="M600.36,-71.6966C595.873,-63.6436 590.441,-53.8945 585.476,-44.9824"/>
<polygon fill="grey" stroke="grey" stroke-width="2" points="588.454,-43.1366 580.53,-36.1043 582.339,-46.5435 588.454,-43.1366"/>
</g>
<!-- 16 -->
<g id="node17" class="node"><title>16</title>
<path fill="none" stroke="#56d863" stroke-width="2" d="M1090,-108C1090,-108 1004,-108 1004,-108 998,-108 992,-102 992,-96 992,-96 992,-84 992,-84 992,-78 998,-72 1004,-72 1004,-72 1090,-72 1090,-72 1096,-72 1102,-78 1102,-84 1102,-84 1102,-96 1102,-96 1102,-102 1096,-108 1090,-108"/>
<text text-anchor="middle" x="1047" y="-87.5" font-family="sans" font-size="10.00">structural_contacts</text>
</g>
<!-- 16&#45;&gt;0 -->
<g id="edge2" class="edge"><title>16&#45;&gt;0</title>
<path fill="none" stroke="grey" stroke-width="2" d="M991.757,-74.8114C987.117,-73.7958 982.486,-72.8421 978,-72 854.843,-48.885 708.834,-32.5175 629.483,-24.5347"/>
<polygon fill="grey" stroke="grey" stroke-width="2" points="629.504,-21.0195 619.206,-23.5103 628.809,-27.985 629.504,-21.0195"/>
</g>
<!-- 17&#45;&gt;3 -->
<g id="edge18" class="edge"><title>17&#45;&gt;3</title>
<path fill="none" stroke="grey" stroke-width="2" d="M215.045,-503.697C224.062,-495.05 235.118,-484.449 244.943,-475.027"/>
<polygon fill="grey" stroke="grey" stroke-width="2" points="247.367,-477.552 252.163,-468.104 242.522,-472.499 247.367,-477.552"/>
</g>
<!-- 18 -->
<g id="node19" class="node"><title>18</title>
<path fill="none" stroke="#568ad8" stroke-width="2" d="M694,-468C694,-468 608,-468 608,-468 602,-468 596,-462 596,-456 596,-456 596,-444 596,-444 596,-438 602,-432 608,-432 608,-432 694,-432 694,-432 700,-432 706,-438 706,-444 706,-444 706,-456 706,-456 706,-462 700,-468 694,-468"/>
<text text-anchor="middle" x="651" y="-447.5" font-family="sans" font-size="10.00">get_mut_bind_expr</text>
</g>
<!-- 18&#45;&gt;5 -->
<g id="edge22" class="edge"><title>18&#45;&gt;5</title>
<path fill="none" stroke="grey" stroke-width="2" d="M606.478,-431.876C581.266,-422.179 549.547,-409.98 522.931,-399.743"/>
<polygon fill="grey" stroke="grey" stroke-width="2" points="523.968,-396.391 513.378,-396.068 521.455,-402.925 523.968,-396.391"/>
</g>
<!-- 18&#45;&gt;8 -->
<g id="edge27" class="edge"><title>18&#45;&gt;8</title>
<path fill="none" stroke="grey" stroke-width="2" d="M651.06,-431.966C651.226,-384.291 651.699,-249.185 651.903,-190.63"/>
<polygon fill="grey" stroke="grey" stroke-width="2" points="655.404,-190.319 651.939,-180.306 648.404,-190.294 655.404,-190.319"/>
</g>
<!-- 19 -->
<g id="node20" class="node"><title>19</title>
<path fill="none" stroke="#97d856" stroke-width="2" d="M564.5,-468C564.5,-468 489.5,-468 489.5,-468 483.5,-468 477.5,-462 477.5,-456 477.5,-456 477.5,-444 477.5,-444 477.5,-438 483.5,-432 489.5,-432 489.5,-432 564.5,-432 564.5,-432 570.5,-432 576.5,-438 576.5,-444 576.5,-444 576.5,-456 576.5,-456 576.5,-462 570.5,-468 564.5,-468"/>
<text text-anchor="middle" x="527" y="-447.5" font-family="sans" font-size="10.00">get_variant_expr</text>
</g>
<!-- 19&#45;&gt;5 -->
<g id="edge21" class="edge"><title>19&#45;&gt;5</title>
<path fill="none" stroke="grey" stroke-width="2" d="M512.663,-431.697C505.709,-423.305 497.23,-413.07 489.599,-403.861"/>
<polygon fill="grey" stroke="grey" stroke-width="2" points="492.247,-401.571 483.172,-396.104 486.857,-406.038 492.247,-401.571"/>
</g>
<!-- 20 -->
<g id="node21" class="node"><title>20</title>
<path fill="none" stroke="#56b9d8" stroke-width="2" d="M447,-468C447,-468 373,-468 373,-468 367,-468 361,-462 361,-456 361,-456 361,-444 361,-444 361,-438 367,-432 373,-432 373,-432 447,-432 447,-432 453,-432 459,-438 459,-444 459,-444 459,-456 459,-456 459,-462 453,-468 447,-468"/>
<text text-anchor="middle" x="410" y="-447.5" font-family="sans" font-size="10.00">get_variant_bind</text>
</g>
<!-- 20&#45;&gt;5 -->
<g id="edge23" class="edge"><title>20&#45;&gt;5</title>
<path fill="none" stroke="grey" stroke-width="2" d="M424.584,-431.697C431.658,-423.305 440.283,-413.07 448.045,-403.861"/>
<polygon fill="grey" stroke="grey" stroke-width="2" points="450.815,-406.006 454.583,-396.104 445.463,-401.495 450.815,-406.006"/>
</g>
</g>
</svg>
