<?xml version="1.0" encoding="utf-8" standalone="no"?>
<!DOCTYPE svg PUBLIC "-//W3C//DTD SVG 1.1//EN"
  "http://www.w3.org/Graphics/SVG/1.1/DTD/svg11.dtd">
<!-- Created with matplotlib (https://matplotlib.org/) -->
<svg height="244.191014pt" version="1.1" viewBox="0 0 415.081781 244.191014" width="415.081781pt" xmlns="http://www.w3.org/2000/svg" xmlns:xlink="http://www.w3.org/1999/xlink">
 <metadata>
  <rdf:RDF xmlns:cc="http://creativecommons.org/ns#" xmlns:dc="http://purl.org/dc/elements/1.1/" xmlns:rdf="http://www.w3.org/1999/02/22-rdf-syntax-ns#">
   <cc:Work>
    <dc:type rdf:resource="http://purl.org/dc/dcmitype/StillImage"/>
    <dc:date>2020-12-21T14:11:34.731648</dc:date>
    <dc:format>image/svg+xml</dc:format>
    <dc:creator>
     <cc:Agent>
      <dc:title>Matplotlib v3.3.2, https://matplotlib.org/</dc:title>
     </cc:Agent>
    </dc:creator>
   </cc:Work>
  </rdf:RDF>
 </metadata>
 <defs>
  <style type="text/css">*{stroke-linecap:butt;stroke-linejoin:round;}</style>
 </defs>
 <g id="figure_1">
  <g id="patch_1">
   <path d="M 0 244.191014 
L 415.081781 244.191014 
L 415.081781 0 
L 0 0 
z
" style="fill:#ffffff;"/>
  </g>
  <g id="axes_1">
   <g id="patch_2">
    <path d="M 69.618969 161.737576 
L 177.618969 161.737576 
L 177.618969 50.857576 
L 69.618969 50.857576 
z
" style="fill:#ffffff;"/>
   </g>
   <g id="matplotlib.axis_1">
    <g id="xtick_1">
     <g id="line2d_1">
      <defs>
       <path d="M 0 0 
L 0 9 
" id="me1554687c9" style="stroke:#262626;stroke-width:1.875;"/>
      </defs>
      <g>
       <use style="fill:#262626;stroke:#262626;stroke-width:1.875;" x="85.306538" xlink:href="#me1554687c9" y="161.737576"/>
      </g>
     </g>
     <g id="text_1">
      <!-- 1e-04 -->
      <g style="fill:#262626;" transform="translate(89.523062 214.944451)rotate(-90)scale(0.165 -0.165)">
       <defs>
        <path d="M 25.90625 50.5 
L 10.203125 50.5 
L 10.203125 56.796875 
Q 20.40625 58.09375 23.5 60.390625 
Q 26.59375 62.703125 28.90625 70.90625 
L 34.703125 70.90625 
L 34.703125 0 
L 25.90625 0 
z
" id="FreeSans-49"/>
        <path d="M 50.296875 23.40625 
L 11.703125 23.40625 
Q 11.90625 15.203125 15.953125 10.296875 
Q 20 5.40625 27.09375 5.40625 
Q 37.296875 5.40625 40.796875 15.90625 
L 49.203125 15.90625 
Q 47.59375 7.296875 41.6875 2.5 
Q 35.796875 -2.296875 26.796875 -2.296875 
Q 15.796875 -2.296875 9.390625 5.140625 
Q 3 12.59375 3 25.5 
Q 3 38.40625 9.546875 46.15625 
Q 16.09375 53.90625 27 53.90625 
Q 50.296875 53.90625 50.296875 23.40625 
z
M 11.90625 30.203125 
L 41.40625 30.203125 
Q 41.40625 37 37.296875 41.59375 
Q 33.203125 46.203125 26.890625 46.203125 
Q 20.59375 46.203125 16.5 41.84375 
Q 12.40625 37.5 11.90625 30.203125 
z
" id="FreeSans-101"/>
        <path d="M 28.703125 31.203125 
L 28.703125 24 
L 4.59375 24 
L 4.59375 31.203125 
z
" id="FreeSans-45"/>
        <path d="M 4.296875 34.296875 
Q 4.296875 43.203125 5.796875 50 
Q 7.296875 56.796875 9.59375 60.640625 
Q 11.90625 64.5 15.09375 66.890625 
Q 18.296875 69.296875 21.25 70.09375 
Q 24.203125 70.90625 27.5 70.90625 
Q 50.703125 70.90625 50.703125 33.703125 
Q 50.703125 16.203125 44.75 6.953125 
Q 38.796875 -2.296875 27.5 -2.296875 
Q 16.09375 -2.296875 10.1875 7.046875 
Q 4.296875 16.40625 4.296875 34.296875 
z
M 41.703125 34.5 
Q 41.703125 63.09375 27.5 63.09375 
Q 13.296875 63.09375 13.296875 34.203125 
Q 13.296875 5 27.296875 5 
Q 34.703125 5 38.203125 12.203125 
Q 41.703125 19.40625 41.703125 34.5 
z
" id="FreeSans-48"/>
        <path d="M 32.703125 17 
L 2.796875 17 
L 2.796875 26.296875 
L 35 70.90625 
L 41.5 70.90625 
L 41.5 24.90625 
L 52 24.90625 
L 52 17 
L 41.5 17 
L 41.5 0 
L 32.703125 0 
z
M 32.703125 24.90625 
L 32.703125 55.90625 
L 10.5 24.90625 
z
" id="FreeSans-52"/>
       </defs>
       <use xlink:href="#FreeSans-49"/>
       <use x="55.599991" xlink:href="#FreeSans-101"/>
       <use x="108.899979" xlink:href="#FreeSans-45"/>
       <use x="142.199966" xlink:href="#FreeSans-48"/>
       <use x="197.799957" xlink:href="#FreeSans-52"/>
      </g>
     </g>
    </g>
    <g id="xtick_2">
     <g id="line2d_2">
      <g>
       <use style="fill:#262626;stroke:#262626;stroke-width:1.875;" x="109.851993" xlink:href="#me1554687c9" y="161.737576"/>
      </g>
     </g>
     <g id="text_2">
      <!-- 3e-04 -->
      <g style="fill:#262626;" transform="translate(114.068516 214.944451)rotate(-90)scale(0.165 -0.165)">
       <defs>
        <path d="M 27 63.203125 
Q 19.40625 63.203125 16.546875 59.046875 
Q 13.703125 54.90625 13.5 48 
L 4.703125 48 
Q 5.203125 70.90625 26.90625 70.90625 
Q 37 70.90625 42.75 65.703125 
Q 48.5 60.5 48.5 51.40625 
Q 48.5 40.59375 38.59375 36.703125 
Q 45 34.5 47.796875 30.546875 
Q 50.59375 26.59375 50.59375 19.796875 
Q 50.59375 9.703125 44.046875 3.703125 
Q 37.5 -2.296875 26.59375 -2.296875 
Q 4.796875 -2.296875 3.203125 20.59375 
L 12 20.59375 
Q 12.5 12.90625 16.09375 9.203125 
Q 19.703125 5.5 26.90625 5.5 
Q 33.796875 5.5 37.6875 9.25 
Q 41.59375 13 41.59375 19.703125 
Q 41.59375 32.59375 26.90625 32.59375 
L 23.203125 32.5 
L 22.09375 32.5 
L 22.09375 40 
Q 31.59375 40.203125 35.546875 42.390625 
Q 39.5 44.59375 39.5 51.09375 
Q 39.5 56.703125 36.140625 59.953125 
Q 32.796875 63.203125 27 63.203125 
z
" id="FreeSans-51"/>
       </defs>
       <use xlink:href="#FreeSans-51"/>
       <use x="55.599991" xlink:href="#FreeSans-101"/>
       <use x="108.899979" xlink:href="#FreeSans-45"/>
       <use x="142.199966" xlink:href="#FreeSans-48"/>
       <use x="197.799957" xlink:href="#FreeSans-52"/>
      </g>
     </g>
    </g>
    <g id="xtick_3">
     <g id="line2d_3">
      <g>
       <use style="fill:#262626;stroke:#262626;stroke-width:1.875;" x="136.751437" xlink:href="#me1554687c9" y="161.737576"/>
      </g>
     </g>
     <g id="text_3">
      <!-- 1e-03 -->
      <g style="fill:#262626;" transform="translate(140.96796 214.944451)rotate(-90)scale(0.165 -0.165)">
       <use xlink:href="#FreeSans-49"/>
       <use x="55.599991" xlink:href="#FreeSans-101"/>
       <use x="108.899979" xlink:href="#FreeSans-45"/>
       <use x="142.199966" xlink:href="#FreeSans-48"/>
       <use x="197.799957" xlink:href="#FreeSans-51"/>
      </g>
     </g>
    </g>
    <g id="xtick_4">
     <g id="line2d_4">
      <g>
       <use style="fill:#262626;stroke:#262626;stroke-width:1.875;" x="161.296891" xlink:href="#me1554687c9" y="161.737576"/>
      </g>
     </g>
     <g id="text_4">
      <!-- 3e-03 -->
      <g style="fill:#262626;" transform="translate(165.513415 214.944451)rotate(-90)scale(0.165 -0.165)">
       <use xlink:href="#FreeSans-51"/>
       <use x="55.599991" xlink:href="#FreeSans-101"/>
       <use x="108.899979" xlink:href="#FreeSans-45"/>
       <use x="142.199966" xlink:href="#FreeSans-48"/>
       <use x="197.799957" xlink:href="#FreeSans-51"/>
      </g>
     </g>
    </g>
    <g id="xtick_5">
     <g id="line2d_5">
      <defs>
       <path d="M 0 0 
L 0 6 
" id="mdf7cf5967e" style="stroke:#262626;stroke-width:1.5;"/>
      </defs>
      <g>
       <use style="fill:#262626;stroke:#262626;stroke-width:1.5;" x="71.262016" xlink:href="#mdf7cf5967e" y="161.737576"/>
      </g>
     </g>
    </g>
    <g id="xtick_6">
     <g id="line2d_6">
      <g>
       <use style="fill:#262626;stroke:#262626;stroke-width:1.5;" x="74.303513" xlink:href="#mdf7cf5967e" y="161.737576"/>
      </g>
     </g>
    </g>
    <g id="xtick_7">
     <g id="line2d_7">
      <g>
       <use style="fill:#262626;stroke:#262626;stroke-width:1.5;" x="76.980139" xlink:href="#mdf7cf5967e" y="161.737576"/>
      </g>
     </g>
    </g>
    <g id="xtick_8">
     <g id="line2d_8">
      <g>
       <use style="fill:#262626;stroke:#262626;stroke-width:1.5;" x="79.370136" xlink:href="#mdf7cf5967e" y="161.737576"/>
      </g>
     </g>
    </g>
    <g id="xtick_9">
     <g id="line2d_9">
      <g>
       <use style="fill:#262626;stroke:#262626;stroke-width:1.5;" x="81.528995" xlink:href="#mdf7cf5967e" y="161.737576"/>
      </g>
     </g>
    </g>
    <g id="xtick_10">
     <g id="line2d_10">
      <g>
       <use style="fill:#262626;stroke:#262626;stroke-width:1.5;" x="83.497508" xlink:href="#mdf7cf5967e" y="161.737576"/>
      </g>
     </g>
    </g>
    <g id="xtick_11">
     <g id="line2d_11">
      <g>
       <use style="fill:#262626;stroke:#262626;stroke-width:1.5;" x="89.78997" xlink:href="#mdf7cf5967e" y="161.737576"/>
      </g>
     </g>
    </g>
    <g id="xtick_12">
     <g id="line2d_12">
      <g>
       <use style="fill:#262626;stroke:#262626;stroke-width:1.5;" x="93.522332" xlink:href="#mdf7cf5967e" y="161.737576"/>
      </g>
     </g>
    </g>
    <g id="xtick_13">
     <g id="line2d_13">
      <g>
       <use style="fill:#262626;stroke:#262626;stroke-width:1.5;" x="96.719525" xlink:href="#mdf7cf5967e" y="161.737576"/>
      </g>
     </g>
    </g>
    <g id="xtick_14">
     <g id="line2d_14">
      <g>
       <use style="fill:#262626;stroke:#262626;stroke-width:1.5;" x="99.515949" xlink:href="#mdf7cf5967e" y="161.737576"/>
      </g>
     </g>
    </g>
    <g id="xtick_15">
     <g id="line2d_15">
      <g>
       <use style="fill:#262626;stroke:#262626;stroke-width:1.5;" x="102.000979" xlink:href="#mdf7cf5967e" y="161.737576"/>
      </g>
     </g>
    </g>
    <g id="xtick_16">
     <g id="line2d_16">
      <g>
       <use style="fill:#262626;stroke:#262626;stroke-width:1.5;" x="104.237067" xlink:href="#mdf7cf5967e" y="161.737576"/>
      </g>
     </g>
    </g>
    <g id="xtick_17">
     <g id="line2d_17">
      <g>
       <use style="fill:#262626;stroke:#262626;stroke-width:1.5;" x="106.26958" xlink:href="#mdf7cf5967e" y="161.737576"/>
      </g>
     </g>
    </g>
    <g id="xtick_18">
     <g id="line2d_18">
      <g>
       <use style="fill:#262626;stroke:#262626;stroke-width:1.5;" x="108.132511" xlink:href="#mdf7cf5967e" y="161.737576"/>
      </g>
     </g>
    </g>
    <g id="xtick_19">
     <g id="line2d_19">
      <g>
       <use style="fill:#262626;stroke:#262626;stroke-width:1.5;" x="115.002407" xlink:href="#mdf7cf5967e" y="161.737576"/>
      </g>
     </g>
    </g>
    <g id="xtick_20">
     <g id="line2d_20">
      <g>
       <use style="fill:#262626;stroke:#262626;stroke-width:1.5;" x="119.185131" xlink:href="#mdf7cf5967e" y="161.737576"/>
      </g>
     </g>
    </g>
    <g id="xtick_21">
     <g id="line2d_21">
      <g>
       <use style="fill:#262626;stroke:#262626;stroke-width:1.5;" x="122.706914" xlink:href="#mdf7cf5967e" y="161.737576"/>
      </g>
     </g>
    </g>
    <g id="xtick_22">
     <g id="line2d_22">
      <g>
       <use style="fill:#262626;stroke:#262626;stroke-width:1.5;" x="125.748411" xlink:href="#mdf7cf5967e" y="161.737576"/>
      </g>
     </g>
    </g>
    <g id="xtick_23">
     <g id="line2d_23">
      <g>
       <use style="fill:#262626;stroke:#262626;stroke-width:1.5;" x="128.425038" xlink:href="#mdf7cf5967e" y="161.737576"/>
      </g>
     </g>
    </g>
    <g id="xtick_24">
     <g id="line2d_24">
      <g>
       <use style="fill:#262626;stroke:#262626;stroke-width:1.5;" x="130.815034" xlink:href="#mdf7cf5967e" y="161.737576"/>
      </g>
     </g>
    </g>
    <g id="xtick_25">
     <g id="line2d_25">
      <g>
       <use style="fill:#262626;stroke:#262626;stroke-width:1.5;" x="132.973894" xlink:href="#mdf7cf5967e" y="161.737576"/>
      </g>
     </g>
    </g>
    <g id="xtick_26">
     <g id="line2d_26">
      <g>
       <use style="fill:#262626;stroke:#262626;stroke-width:1.5;" x="134.942407" xlink:href="#mdf7cf5967e" y="161.737576"/>
      </g>
     </g>
    </g>
    <g id="xtick_27">
     <g id="line2d_27">
      <g>
       <use style="fill:#262626;stroke:#262626;stroke-width:1.5;" x="141.234869" xlink:href="#mdf7cf5967e" y="161.737576"/>
      </g>
     </g>
    </g>
    <g id="xtick_28">
     <g id="line2d_28">
      <g>
       <use style="fill:#262626;stroke:#262626;stroke-width:1.5;" x="144.967231" xlink:href="#mdf7cf5967e" y="161.737576"/>
      </g>
     </g>
    </g>
    <g id="xtick_29">
     <g id="line2d_29">
      <g>
       <use style="fill:#262626;stroke:#262626;stroke-width:1.5;" x="148.164423" xlink:href="#mdf7cf5967e" y="161.737576"/>
      </g>
     </g>
    </g>
    <g id="xtick_30">
     <g id="line2d_30">
      <g>
       <use style="fill:#262626;stroke:#262626;stroke-width:1.5;" x="150.960848" xlink:href="#mdf7cf5967e" y="161.737576"/>
      </g>
     </g>
    </g>
    <g id="xtick_31">
     <g id="line2d_31">
      <g>
       <use style="fill:#262626;stroke:#262626;stroke-width:1.5;" x="153.445877" xlink:href="#mdf7cf5967e" y="161.737576"/>
      </g>
     </g>
    </g>
    <g id="xtick_32">
     <g id="line2d_32">
      <g>
       <use style="fill:#262626;stroke:#262626;stroke-width:1.5;" x="155.681965" xlink:href="#mdf7cf5967e" y="161.737576"/>
      </g>
     </g>
    </g>
    <g id="xtick_33">
     <g id="line2d_33">
      <g>
       <use style="fill:#262626;stroke:#262626;stroke-width:1.5;" x="157.714478" xlink:href="#mdf7cf5967e" y="161.737576"/>
      </g>
     </g>
    </g>
    <g id="xtick_34">
     <g id="line2d_34">
      <g>
       <use style="fill:#262626;stroke:#262626;stroke-width:1.5;" x="159.57741" xlink:href="#mdf7cf5967e" y="161.737576"/>
      </g>
     </g>
    </g>
    <g id="xtick_35">
     <g id="line2d_35">
      <g>
       <use style="fill:#262626;stroke:#262626;stroke-width:1.5;" x="166.447305" xlink:href="#mdf7cf5967e" y="161.737576"/>
      </g>
     </g>
    </g>
    <g id="xtick_36">
     <g id="line2d_36">
      <g>
       <use style="fill:#262626;stroke:#262626;stroke-width:1.5;" x="170.63003" xlink:href="#mdf7cf5967e" y="161.737576"/>
      </g>
     </g>
    </g>
    <g id="xtick_37">
     <g id="line2d_37">
      <g>
       <use style="fill:#262626;stroke:#262626;stroke-width:1.5;" x="174.151813" xlink:href="#mdf7cf5967e" y="161.737576"/>
      </g>
     </g>
    </g>
    <g id="xtick_38">
     <g id="line2d_38">
      <g>
       <use style="fill:#262626;stroke:#262626;stroke-width:1.5;" x="177.19331" xlink:href="#mdf7cf5967e" y="161.737576"/>
      </g>
     </g>
    </g>
   </g>
   <g id="matplotlib.axis_2">
    <g id="ytick_1">
     <g id="line2d_39">
      <defs>
       <path d="M 0 0 
L -9 0 
" id="m8b52124777" style="stroke:#262626;stroke-width:1.875;"/>
      </defs>
      <g>
       <use style="fill:#262626;stroke:#262626;stroke-width:1.875;" x="69.618969" xlink:href="#m8b52124777" y="156.700096"/>
      </g>
     </g>
     <g id="text_5">
      <!-- 0 -->
      <g style="fill:#262626;" transform="translate(49.046 162.714862)scale(0.165 -0.165)">
       <use xlink:href="#FreeSans-48"/>
      </g>
     </g>
    </g>
    <g id="ytick_2">
     <g id="line2d_40">
      <g>
       <use style="fill:#262626;stroke:#262626;stroke-width:1.875;" x="69.618969" xlink:href="#m8b52124777" y="131.499466"/>
      </g>
     </g>
     <g id="text_6">
      <!-- 1 -->
      <g style="fill:#262626;" transform="translate(49.046 137.514232)scale(0.165 -0.165)">
       <use xlink:href="#FreeSans-49"/>
      </g>
     </g>
    </g>
    <g id="ytick_3">
     <g id="line2d_41">
      <g>
       <use style="fill:#262626;stroke:#262626;stroke-width:1.875;" x="69.618969" xlink:href="#m8b52124777" y="106.298836"/>
      </g>
     </g>
     <g id="text_7">
      <!-- 2 -->
      <g style="fill:#262626;" transform="translate(49.046 112.313602)scale(0.165 -0.165)">
       <defs>
        <path d="M 5 46.296875 
Q 5.703125 70.90625 28.40625 70.90625 
Q 38.5 70.90625 44.796875 65.09375 
Q 51.09375 59.296875 51.09375 50.09375 
Q 51.09375 36.90625 36.09375 28.703125 
L 26.09375 23.296875 
Q 19.59375 19.796875 16.796875 16.5 
Q 14 13.203125 13.296875 8.703125 
L 50.59375 8.703125 
L 50.59375 0 
L 3.40625 0 
Q 4 11.703125 8.09375 18.046875 
Q 12.203125 24.40625 23.296875 30.703125 
L 32.5 35.90625 
Q 42.09375 41.40625 42.09375 49.90625 
Q 42.09375 55.59375 38.09375 59.390625 
Q 34.09375 63.203125 28.09375 63.203125 
Q 14.796875 63.203125 13.796875 46.296875 
z
" id="FreeSans-50"/>
       </defs>
       <use xlink:href="#FreeSans-50"/>
      </g>
     </g>
    </g>
    <g id="ytick_4">
     <g id="line2d_42">
      <g>
       <use style="fill:#262626;stroke:#262626;stroke-width:1.875;" x="69.618969" xlink:href="#m8b52124777" y="81.098206"/>
      </g>
     </g>
     <g id="text_8">
      <!-- 3 -->
      <g style="fill:#262626;" transform="translate(49.046 87.112972)scale(0.165 -0.165)">
       <use xlink:href="#FreeSans-51"/>
      </g>
     </g>
    </g>
    <g id="ytick_5">
     <g id="line2d_43">
      <g>
       <use style="fill:#262626;stroke:#262626;stroke-width:1.875;" x="69.618969" xlink:href="#m8b52124777" y="55.897576"/>
      </g>
     </g>
     <g id="text_9">
      <!-- 4 -->
      <g style="fill:#262626;" transform="translate(49.046 61.912342)scale(0.165 -0.165)">
       <use xlink:href="#FreeSans-52"/>
      </g>
     </g>
    </g>
    <g id="ytick_6">
     <g id="line2d_44">
      <defs>
       <path d="M 0 0 
L -6 0 
" id="m291ac3703b" style="stroke:#262626;stroke-width:1.5;"/>
      </defs>
      <g>
       <use style="fill:#262626;stroke:#262626;stroke-width:1.5;" x="69.618969" xlink:href="#m291ac3703b" y="144.099781"/>
      </g>
     </g>
    </g>
    <g id="ytick_7">
     <g id="line2d_45">
      <g>
       <use style="fill:#262626;stroke:#262626;stroke-width:1.5;" x="69.618969" xlink:href="#m291ac3703b" y="118.899151"/>
      </g>
     </g>
    </g>
    <g id="ytick_8">
     <g id="line2d_46">
      <g>
       <use style="fill:#262626;stroke:#262626;stroke-width:1.5;" x="69.618969" xlink:href="#m291ac3703b" y="93.698521"/>
      </g>
     </g>
    </g>
    <g id="ytick_9">
     <g id="line2d_47">
      <g>
       <use style="fill:#262626;stroke:#262626;stroke-width:1.5;" x="69.618969" xlink:href="#m291ac3703b" y="68.497891"/>
      </g>
     </g>
    </g>
    <g id="text_10">
     <!-- arbitrary binding -->
     <g style="fill:#262626;" transform="translate(20.323125 169.09367)rotate(-90)scale(0.18 -0.18)">
      <defs>
       <path d="M 5.296875 36.90625 
Q 5.90625 53.90625 26.296875 53.90625 
Q 36 53.90625 41 50.25 
Q 46 46.59375 46 39.59375 
L 46 8.796875 
Q 46 4.703125 50.5 4.703125 
Q 51.40625 4.703125 52.296875 4.90625 
L 52.296875 -1.40625 
Q 48.796875 -2.296875 46.59375 -2.296875 
Q 42.59375 -2.296875 40.546875 -0.4375 
Q 38.5 1.40625 38 5.40625 
Q 29.59375 -2.296875 20.203125 -2.296875 
Q 12.296875 -2.296875 7.640625 1.890625 
Q 3 6.09375 3 13.203125 
Q 3 15.5 3.453125 17.390625 
Q 3.90625 19.296875 4.453125 20.75 
Q 5 22.203125 6.390625 23.453125 
Q 7.796875 24.703125 8.75 25.5 
Q 9.703125 26.296875 11.953125 27.046875 
Q 14.203125 27.796875 15.390625 28.140625 
Q 16.59375 28.5 19.59375 29 
Q 22.59375 29.5 24 29.703125 
Q 25.40625 29.90625 29 30.40625 
Q 33.90625 31 35.796875 32.296875 
Q 37.703125 33.59375 37.703125 36.203125 
L 37.703125 38.40625 
Q 37.703125 42.203125 34.640625 44.203125 
Q 31.59375 46.203125 26 46.203125 
Q 20.203125 46.203125 17.203125 43.953125 
Q 14.203125 41.703125 13.703125 36.90625 
z
M 22 5 
Q 28.90625 5 33.296875 8.640625 
Q 37.703125 12.296875 37.703125 16.5 
L 37.703125 25.90625 
Q 35.203125 24.703125 30.140625 23.890625 
Q 25.09375 23.09375 21.390625 22.5 
Q 17.703125 21.90625 14.703125 19.65625 
Q 11.703125 17.40625 11.703125 13.40625 
Q 11.703125 9.40625 14.390625 7.203125 
Q 17.09375 5 22 5 
z
" id="FreeSans-97"/>
       <path d="M 31.203125 45.09375 
Q 22.796875 44.90625 18.59375 41.203125 
Q 14.40625 37.5 14.40625 27.203125 
L 14.40625 0 
L 6 0 
L 6 52.40625 
L 13.703125 52.40625 
L 13.703125 42.90625 
Q 17.296875 48.796875 20.640625 51.34375 
Q 24 53.90625 28 53.90625 
Q 29.09375 53.90625 31.203125 53.59375 
z
" id="FreeSans-114"/>
       <path d="M 6 72.90625 
L 14.296875 72.90625 
L 14.296875 45.296875 
Q 20 53.90625 30.5 53.90625 
Q 40.90625 53.90625 46.90625 46.5 
Q 52.90625 39.09375 52.90625 26.40625 
Q 52.90625 13.40625 46.703125 5.546875 
Q 40.5 -2.296875 30.09375 -2.296875 
Q 19.40625 -2.296875 13.5 6.703125 
L 13.5 0 
L 6 0 
z
M 28.90625 46.09375 
Q 22.296875 46.09375 18.296875 40.546875 
Q 14.296875 35 14.296875 25.796875 
Q 14.296875 16.59375 18.296875 11.046875 
Q 22.296875 5.5 28.90625 5.5 
Q 35.703125 5.5 39.953125 11.046875 
Q 44.203125 16.59375 44.203125 25.5 
Q 44.203125 34.90625 40.046875 40.5 
Q 35.90625 46.09375 28.90625 46.09375 
z
" id="FreeSans-98"/>
       <path d="M 15 52.40625 
L 15 0 
L 6.703125 0 
L 6.703125 52.40625 
z
M 15 72.90625 
L 15 62.40625 
L 6.59375 62.40625 
L 6.59375 72.90625 
z
" id="FreeSans-105"/>
       <path d="M 26 52.40625 
L 26 45.59375 
L 17.40625 45.59375 
L 17.40625 9.703125 
Q 17.40625 6.90625 18.34375 5.953125 
Q 19.296875 5 22 5 
Q 24.5 5 26 5.40625 
L 26 -1.59375 
Q 22.09375 -2.296875 19.203125 -2.296875 
Q 14.296875 -2.296875 11.6875 -0.140625 
Q 9.09375 2 9.09375 6 
L 9.09375 45.59375 
L 2 45.59375 
L 2 52.40625 
L 9.09375 52.40625 
L 9.09375 66.796875 
L 17.40625 66.796875 
L 17.40625 52.40625 
z
" id="FreeSans-116"/>
       <path d="M 37.796875 52.40625 
L 46.796875 52.40625 
L 23.5 -11 
Q 19.40625 -21.796875 10 -21.796875 
Q 6.90625 -21.796875 4.40625 -20.5 
L 4.40625 -13 
Q 7.09375 -13.59375 8.796875 -13.59375 
Q 11.40625 -13.59375 12.90625 -12.4375 
Q 14.40625 -11.296875 15.5 -8.5 
L 18.703125 -0.203125 
L 1 52.40625 
L 9.90625 52.40625 
L 23.296875 11.59375 
z
" id="FreeSans-121"/>
       <path id="FreeSans-32"/>
       <path d="M 6 52.40625 
L 13.703125 52.40625 
L 13.703125 43.59375 
Q 17.203125 49.09375 21.25 51.5 
Q 25.296875 53.90625 31.09375 53.90625 
Q 38.703125 53.90625 43.203125 50 
Q 47.703125 46.09375 47.703125 39.59375 
L 47.703125 0 
L 39.40625 0 
L 39.40625 36.296875 
Q 39.40625 41 36.5 43.796875 
Q 33.59375 46.59375 28.59375 46.59375 
Q 22.203125 46.59375 18.296875 41.75 
Q 14.40625 36.90625 14.40625 28.90625 
L 14.40625 0 
L 6 0 
z
" id="FreeSans-110"/>
       <path d="M 49.90625 72.90625 
L 49.90625 0 
L 42.5 0 
L 42.5 6.90625 
Q 39.09375 2 35.140625 -0.140625 
Q 31.203125 -2.296875 25.796875 -2.296875 
Q 15.203125 -2.296875 9.09375 5.34375 
Q 3 13 3 26.296875 
Q 3 38.796875 9.140625 46.34375 
Q 15.296875 53.90625 25.5 53.90625 
Q 36.296875 53.90625 41.59375 45.796875 
L 41.59375 72.90625 
z
M 26.90625 46.09375 
Q 20.09375 46.09375 15.890625 40.5 
Q 11.703125 34.90625 11.703125 25.796875 
Q 11.703125 16.59375 15.890625 11.046875 
Q 20.09375 5.5 27 5.5 
Q 33.59375 5.5 37.59375 11 
Q 41.59375 16.5 41.59375 25.59375 
Q 41.59375 35 37.59375 40.546875 
Q 33.59375 46.09375 26.90625 46.09375 
z
" id="FreeSans-100"/>
       <path d="M 24.59375 -2.296875 
Q 15.40625 -2.296875 9.203125 5.25 
Q 3 12.796875 3 25.296875 
Q 3 38.09375 9.140625 46 
Q 15.296875 53.90625 25.296875 53.90625 
Q 35.09375 53.90625 41.296875 44.796875 
L 40.296875 52.40625 
L 49 52.40625 
L 49 8.59375 
Q 49 1.09375 48.09375 -3.953125 
Q 47.203125 -9 44.796875 -13.296875 
Q 42.40625 -17.59375 37.65625 -19.6875 
Q 32.90625 -21.796875 25.59375 -21.796875 
Q 16.40625 -21.796875 10.90625 -17.59375 
Q 5.40625 -13.40625 4.703125 -6 
L 13.203125 -6 
Q 14.59375 -14.796875 25.90625 -14.796875 
Q 34.296875 -14.796875 37.390625 -10.046875 
Q 40.5 -5.296875 40.5 4.40625 
L 40.5 7.09375 
Q 37 2.09375 33.25 -0.09375 
Q 29.5 -2.296875 24.59375 -2.296875 
z
M 26.203125 46.203125 
Q 19.5 46.203125 15.59375 40.703125 
Q 11.703125 35.203125 11.703125 25.796875 
Q 11.703125 16.296875 15.59375 10.84375 
Q 19.5 5.40625 26.296875 5.40625 
Q 32.90625 5.40625 36.703125 10.75 
Q 40.5 16.09375 40.5 25.5 
Q 40.5 35.296875 36.75 40.75 
Q 33 46.203125 26.203125 46.203125 
z
" id="FreeSans-103"/>
      </defs>
      <use xlink:href="#FreeSans-97"/>
      <use x="54.299988" xlink:href="#FreeSans-114"/>
      <use x="87.499985" xlink:href="#FreeSans-98"/>
      <use x="143.399979" xlink:href="#FreeSans-105"/>
      <use x="165.599976" xlink:href="#FreeSans-116"/>
      <use x="193.59996" xlink:href="#FreeSans-114"/>
      <use x="226.799957" xlink:href="#FreeSans-97"/>
      <use x="281.099945" xlink:href="#FreeSans-114"/>
      <use x="314.299942" xlink:href="#FreeSans-121"/>
      <use x="362.09993" xlink:href="#FreeSans-32"/>
      <use x="387.099915" xlink:href="#FreeSans-98"/>
      <use x="442.999908" xlink:href="#FreeSans-105"/>
      <use x="465.199905" xlink:href="#FreeSans-110"/>
      <use x="518.899902" xlink:href="#FreeSans-100"/>
      <use x="574.799896" xlink:href="#FreeSans-105"/>
      <use x="596.999893" xlink:href="#FreeSans-110"/>
      <use x="650.69989" xlink:href="#FreeSans-103"/>
     </g>
     <!-- units (OD450) -->
     <g style="fill:#262626;" transform="translate(40.122562 160.79117)rotate(-90)scale(0.18 -0.18)">
      <defs>
       <path d="M 47.703125 0 
L 40.203125 0 
L 40.203125 7.296875 
Q 36.5 2.09375 32.5 -0.09375 
Q 28.5 -2.296875 22.703125 -2.296875 
Q 15.09375 -2.296875 10.546875 1.59375 
Q 6 5.5 6 12 
L 6 52.40625 
L 14.296875 52.40625 
L 14.296875 15.296875 
Q 14.296875 10.59375 17.1875 7.796875 
Q 20.09375 5 25.09375 5 
Q 31.59375 5 35.5 9.84375 
Q 39.40625 14.703125 39.40625 22.703125 
L 39.40625 52.40625 
L 47.703125 52.40625 
z
" id="FreeSans-117"/>
       <path d="M 12.203125 15.59375 
Q 12.796875 10.90625 15.4375 8.15625 
Q 18.09375 5.40625 25 5.40625 
Q 30.5 5.40625 33.84375 7.65625 
Q 37.203125 9.90625 37.203125 13.59375 
Q 37.203125 16.5 35.296875 18.203125 
Q 33.40625 19.90625 29.09375 20.90625 
L 21.296875 22.796875 
Q 12 25 8.34375 28.34375 
Q 4.703125 31.703125 4.703125 37.90625 
Q 4.703125 45.203125 10.203125 49.546875 
Q 15.703125 53.90625 24.796875 53.90625 
Q 33.90625 53.90625 38.796875 49.703125 
Q 43.703125 45.5 43.796875 37.796875 
L 35 37.796875 
Q 34.703125 46.203125 24.5 46.203125 
Q 19.40625 46.203125 16.40625 44.046875 
Q 13.40625 41.90625 13.40625 38.296875 
Q 13.40625 35.5 15.703125 33.75 
Q 18 32 23.09375 30.796875 
L 31.09375 28.90625 
Q 38.90625 27 42.40625 23.546875 
Q 45.90625 20.09375 45.90625 14.296875 
Q 45.90625 6.703125 40.046875 2.203125 
Q 34.203125 -2.296875 24.296875 -2.296875 
Q 4 -2.296875 3.40625 15.59375 
z
" id="FreeSans-115"/>
       <path d="M 23.59375 72.90625 
L 29.09375 72.90625 
Q 15.40625 50.796875 15.40625 25.90625 
Q 15.40625 1.09375 29.09375 -21.203125 
L 23.59375 -21.203125 
Q 16.09375 -11.40625 11.6875 1.34375 
Q 7.296875 14.09375 7.296875 25.890625 
Q 7.296875 37.703125 11.6875 50.390625 
Q 16.09375 63.09375 23.59375 72.90625 
z
" id="FreeSans-40"/>
       <path d="M 74.40625 35.296875 
Q 74.40625 19.09375 64.796875 8.390625 
Q 55.203125 -2.296875 39.203125 -2.296875 
Q 23.40625 -2.296875 13.703125 8.25 
Q 4 18.796875 4 35.890625 
Q 4 53 13.703125 63.546875 
Q 23.40625 74.09375 39.09375 74.09375 
Q 55.09375 74.09375 64.75 63.5 
Q 74.40625 52.90625 74.40625 35.296875 
z
M 39.09375 65.90625 
Q 27.5 65.90625 20.390625 57.65625 
Q 13.296875 49.40625 13.296875 35.90625 
Q 13.296875 22.40625 20.4375 14.15625 
Q 27.59375 5.90625 39.1875 5.90625 
Q 50.796875 5.90625 57.9375 14.09375 
Q 65.09375 22.296875 65.09375 35.5 
Q 65.09375 49.296875 58 57.59375 
Q 50.90625 65.90625 39.09375 65.90625 
z
" id="FreeSans-79"/>
       <path d="M 8 0 
L 8 72.90625 
L 36.09375 72.90625 
Q 50 72.90625 57.890625 63.203125 
Q 65.796875 53.5 65.796875 36.5 
Q 65.796875 19.5 57.84375 9.75 
Q 49.90625 0 36.09375 0 
z
M 17.296875 8.203125 
L 34.5 8.203125 
Q 45.296875 8.203125 50.890625 15.390625 
Q 56.5 22.59375 56.5 36.40625 
Q 56.5 50.296875 50.890625 57.5 
Q 45.296875 64.703125 34.5 64.703125 
L 17.296875 64.703125 
z
" id="FreeSans-68"/>
       <path d="M 47.59375 70.90625 
L 47.59375 62.203125 
L 18.09375 62.203125 
L 15.296875 42.40625 
Q 21.203125 46.703125 28.40625 46.703125 
Q 38.59375 46.703125 44.9375 40.140625 
Q 51.296875 33.59375 51.296875 23.09375 
Q 51.296875 11.90625 44.5 4.796875 
Q 37.703125 -2.296875 27 -2.296875 
Q 22.90625 -2.296875 19.453125 -1.390625 
Q 16 -0.5 13.75 0.75 
Q 11.5 2 9.640625 4.046875 
Q 7.796875 6.09375 6.84375 7.640625 
Q 5.90625 9.203125 5.046875 11.546875 
Q 4.203125 13.90625 4 14.796875 
Q 3.796875 15.703125 3.5 17.40625 
L 12.296875 17.40625 
Q 15.40625 5.5 26.796875 5.5 
Q 34 5.5 38.140625 9.890625 
Q 42.296875 14.296875 42.296875 21.90625 
Q 42.296875 29.796875 38.09375 34.34375 
Q 33.90625 38.90625 26.796875 38.90625 
Q 22.703125 38.90625 19.796875 37.453125 
Q 16.90625 36 13.796875 32.296875 
L 5.703125 32.296875 
L 11 70.90625 
z
" id="FreeSans-53"/>
       <path d="M 9.296875 -21.203125 
L 3.796875 -21.203125 
Q 17.5 0.90625 17.5 25.796875 
Q 17.5 50.59375 3.796875 72.90625 
L 9.296875 72.90625 
Q 16.796875 63.09375 21.1875 50.34375 
Q 25.59375 37.59375 25.59375 25.796875 
Q 25.59375 14 21.1875 1.296875 
Q 16.796875 -11.40625 9.296875 -21.203125 
z
" id="FreeSans-41"/>
      </defs>
      <use xlink:href="#FreeSans-117"/>
      <use x="53.699997" xlink:href="#FreeSans-110"/>
      <use x="107.399994" xlink:href="#FreeSans-105"/>
      <use x="129.599991" xlink:href="#FreeSans-116"/>
      <use x="157.599976" xlink:href="#FreeSans-115"/>
      <use x="206.899963" xlink:href="#FreeSans-32"/>
      <use x="231.899948" xlink:href="#FreeSans-40"/>
      <use x="265.199936" xlink:href="#FreeSans-79"/>
      <use x="343.59993" xlink:href="#FreeSans-68"/>
      <use x="413.399918" xlink:href="#FreeSans-52"/>
      <use x="468.999908" xlink:href="#FreeSans-53"/>
      <use x="524.599899" xlink:href="#FreeSans-48"/>
      <use x="580.19989" xlink:href="#FreeSans-41"/>
     </g>
    </g>
   </g>
   <g id="PathCollection_1">
    <path clip-path="url(#p61882ce954)" d="M 172.709878 159.476802 
C 173.532483 159.476802 174.321508 159.149978 174.903178 158.568308 
C 175.484847 157.986638 175.811672 157.197614 175.811672 156.375008 
C 175.811672 155.552403 175.484847 154.763378 174.903178 154.181708 
C 174.321508 153.600039 173.532483 153.273214 172.709878 153.273214 
C 171.887272 153.273214 171.098248 153.600039 170.516578 154.181708 
C 169.934908 154.763378 169.608084 155.552403 169.608084 156.375008 
C 169.608084 157.197614 169.934908 157.986638 170.516578 158.568308 
C 171.098248 159.149978 171.887272 159.476802 172.709878 159.476802 
z
" style="fill:#e69f00;stroke:#e69f00;stroke-width:0.886227;"/>
    <path clip-path="url(#p61882ce954)" d="M 148.164423 159.622966 
C 148.987029 159.622966 149.776053 159.296141 150.357723 158.714472 
C 150.939393 158.132802 151.266218 157.343777 151.266218 156.521172 
C 151.266218 155.698566 150.939393 154.909542 150.357723 154.327872 
C 149.776053 153.746202 148.987029 153.419378 148.164423 153.419378 
C 147.341818 153.419378 146.552793 153.746202 145.971124 154.327872 
C 145.389454 154.909542 145.062629 155.698566 145.062629 156.521172 
C 145.062629 157.343777 145.389454 158.132802 145.971124 158.714472 
C 146.552793 159.296141 147.341818 159.622966 148.164423 159.622966 
z
" style="fill:#e69f00;stroke:#e69f00;stroke-width:0.886227;"/>
    <path clip-path="url(#p61882ce954)" d="M 123.618969 159.748969 
C 124.441574 159.748969 125.230599 159.422145 125.812268 158.840475 
C 126.393938 158.258805 126.720763 157.46978 126.720763 156.647175 
C 126.720763 155.82457 126.393938 155.035545 125.812268 154.453875 
C 125.230599 153.872205 124.441574 153.545381 123.618969 153.545381 
C 122.796363 153.545381 122.007339 153.872205 121.425669 154.453875 
C 120.843999 155.035545 120.517175 155.82457 120.517175 156.647175 
C 120.517175 157.46978 120.843999 158.258805 121.425669 158.840475 
C 122.007339 159.422145 122.796363 159.748969 123.618969 159.748969 
z
" style="fill:#e69f00;stroke:#e69f00;stroke-width:0.886227;"/>
    <path clip-path="url(#p61882ce954)" d="M 99.073514 159.77921 
C 99.89612 159.77921 100.685144 159.452385 101.266814 158.870715 
C 101.848484 158.289046 102.175308 157.500021 102.175308 156.677416 
C 102.175308 155.85481 101.848484 155.065786 101.266814 154.484116 
C 100.685144 153.902446 99.89612 153.575622 99.073514 153.575622 
C 98.250909 153.575622 97.461884 153.902446 96.880214 154.484116 
C 96.298545 155.065786 95.97172 155.85481 95.97172 156.677416 
C 95.97172 157.500021 96.298545 158.289046 96.880214 158.870715 
C 97.461884 159.452385 98.250909 159.77921 99.073514 159.77921 
z
" style="fill:#e69f00;stroke:#e69f00;stroke-width:0.886227;"/>
    <path clip-path="url(#p61882ce954)" d="M 74.52806 159.799371 
C 75.350665 159.799371 76.13969 159.472546 76.721359 158.890876 
C 77.303029 158.309206 77.629854 157.520182 77.629854 156.697576 
C 77.629854 155.874971 77.303029 155.085946 76.721359 154.504277 
C 76.13969 153.922607 75.350665 153.595782 74.52806 153.595782 
C 73.705454 153.595782 72.91643 153.922607 72.33476 154.504277 
C 71.75309 155.085946 71.426265 155.874971 71.426265 156.697576 
C 71.426265 157.520182 71.75309 158.309206 72.33476 158.890876 
C 72.91643 159.472546 73.705454 159.799371 74.52806 159.799371 
z
" style="fill:#e69f00;stroke:#e69f00;stroke-width:0.886227;"/>
    <path clip-path="url(#p61882ce954)" d="M 172.709878 95.036274 
C 173.532483 95.036274 174.321508 94.709449 174.903178 94.127779 
C 175.484847 93.546109 175.811672 92.757085 175.811672 91.93448 
C 175.811672 91.111874 175.484847 90.32285 174.903178 89.74118 
C 174.321508 89.15951 173.532483 88.832685 172.709878 88.832685 
C 171.887272 88.832685 171.098248 89.15951 170.516578 89.74118 
C 169.934908 90.32285 169.608084 91.111874 169.608084 91.93448 
C 169.608084 92.757085 169.934908 93.546109 170.516578 94.127779 
C 171.098248 94.709449 171.887272 95.036274 172.709878 95.036274 
z
" style="fill:#56b4e9;stroke:#56b4e9;stroke-width:0.886227;"/>
    <path clip-path="url(#p61882ce954)" d="M 148.164423 112.525508 
C 148.987029 112.525508 149.776053 112.198684 150.357723 111.617014 
C 150.939393 111.035344 151.266218 110.246319 151.266218 109.423714 
C 151.266218 108.601108 150.939393 107.812084 150.357723 107.230414 
C 149.776053 106.648744 148.987029 106.32192 148.164423 106.32192 
C 147.341818 106.32192 146.552793 106.648744 145.971124 107.230414 
C 145.389454 107.812084 145.062629 108.601108 145.062629 109.423714 
C 145.062629 110.246319 145.389454 111.035344 145.971124 111.617014 
C 146.552793 112.198684 147.341818 112.525508 148.164423 112.525508 
z
" style="fill:#56b4e9;stroke:#56b4e9;stroke-width:0.886227;"/>
    <path clip-path="url(#p61882ce954)" d="M 123.618969 120.756036 
C 124.441574 120.756036 125.230599 120.429211 125.812268 119.847541 
C 126.393938 119.265871 126.720763 118.476847 126.720763 117.654242 
C 126.720763 116.831636 126.393938 116.042612 125.812268 115.460942 
C 125.230599 114.879272 124.441574 114.552447 123.618969 114.552447 
C 122.796363 114.552447 122.007339 114.879272 121.425669 115.460942 
C 120.843999 116.042612 120.517175 116.831636 120.517175 117.654242 
C 120.517175 118.476847 120.843999 119.265871 121.425669 119.847541 
C 122.007339 120.429211 122.796363 120.756036 123.618969 120.756036 
z
" style="fill:#56b4e9;stroke:#56b4e9;stroke-width:0.886227;"/>
    <path clip-path="url(#p61882ce954)" d="M 99.073514 140.072317 
C 99.89612 140.072317 100.685144 139.745493 101.266814 139.163823 
C 101.848484 138.582153 102.175308 137.793128 102.175308 136.970523 
C 102.175308 136.147917 101.848484 135.358893 101.266814 134.777223 
C 100.685144 134.195553 99.89612 133.868729 99.073514 133.868729 
C 98.250909 133.868729 97.461884 134.195553 96.880214 134.777223 
C 96.298545 135.358893 95.97172 136.147917 95.97172 136.970523 
C 95.97172 137.793128 96.298545 138.582153 96.880214 139.163823 
C 97.461884 139.745493 98.250909 140.072317 99.073514 140.072317 
z
" style="fill:#56b4e9;stroke:#56b4e9;stroke-width:0.886227;"/>
    <path clip-path="url(#p61882ce954)" d="M 74.52806 151.634367 
C 75.350665 151.634367 76.13969 151.307542 76.721359 150.725872 
C 77.303029 150.144202 77.629854 149.355178 77.629854 148.532572 
C 77.629854 147.709967 77.303029 146.920943 76.721359 146.339273 
C 76.13969 145.757603 75.350665 145.430778 74.52806 145.430778 
C 73.705454 145.430778 72.91643 145.757603 72.33476 146.339273 
C 71.75309 146.920943 71.426265 147.709967 71.426265 148.532572 
C 71.426265 149.355178 71.75309 150.144202 72.33476 150.725872 
C 72.91643 151.307542 73.705454 151.634367 74.52806 151.634367 
z
" style="fill:#56b4e9;stroke:#56b4e9;stroke-width:0.886227;"/>
   </g>
   <g id="PathCollection_2">
    <path clip-path="url(#p61882ce954)" d="M 169.608084 159.444042 
L 175.811672 153.240453 
M 169.608084 153.240453 
L 175.811672 159.444042 
" style="fill:#e69f00;stroke:#e69f00;stroke-width:0.886227;"/>
    <path clip-path="url(#p61882ce954)" d="M 145.062629 159.645647 
L 151.266218 153.442058 
M 145.062629 153.442058 
L 151.266218 159.645647 
" style="fill:#e69f00;stroke:#e69f00;stroke-width:0.886227;"/>
    <path clip-path="url(#p61882ce954)" d="M 120.517175 159.733849 
L 126.720763 153.53026 
M 120.517175 153.53026 
L 126.720763 159.733849 
" style="fill:#e69f00;stroke:#e69f00;stroke-width:0.886227;"/>
    <path clip-path="url(#p61882ce954)" d="M 95.97172 159.78929 
L 102.175308 153.585702 
M 95.97172 153.585702 
L 102.175308 159.78929 
" style="fill:#e69f00;stroke:#e69f00;stroke-width:0.886227;"/>
    <path clip-path="url(#p61882ce954)" d="M 71.426265 159.756529 
L 77.629854 153.552941 
M 71.426265 153.552941 
L 77.629854 159.756529 
" style="fill:#e69f00;stroke:#e69f00;stroke-width:0.886227;"/>
    <path clip-path="url(#p61882ce954)" d="M 169.608084 99.199418 
L 175.811672 92.995829 
M 169.608084 92.995829 
L 175.811672 99.199418 
" style="fill:#56b4e9;stroke:#56b4e9;stroke-width:0.886227;"/>
    <path clip-path="url(#p61882ce954)" d="M 145.062629 107.969232 
L 151.266218 101.765644 
M 145.062629 101.765644 
L 151.266218 107.969232 
" style="fill:#56b4e9;stroke:#56b4e9;stroke-width:0.886227;"/>
    <path clip-path="url(#p61882ce954)" d="M 120.517175 127.194796 
L 126.720763 120.991207 
M 120.517175 120.991207 
L 126.720763 127.194796 
" style="fill:#56b4e9;stroke:#56b4e9;stroke-width:0.886227;"/>
    <path clip-path="url(#p61882ce954)" d="M 95.97172 144.658831 
L 102.175308 138.455243 
M 95.97172 138.455243 
L 102.175308 144.658831 
" style="fill:#56b4e9;stroke:#56b4e9;stroke-width:0.886227;"/>
    <path clip-path="url(#p61882ce954)" d="M 71.426265 152.269422 
L 77.629854 146.065834 
M 71.426265 146.065834 
L 77.629854 152.269422 
" style="fill:#56b4e9;stroke:#56b4e9;stroke-width:0.886227;"/>
   </g>
   <g id="line2d_48">
    <path clip-path="url(#p61882ce954)" d="M 172.709878 156.375008 
L 148.164423 156.521172 
L 123.618969 156.647175 
L 99.073514 156.677416 
L 74.52806 156.697576 
" style="fill:none;stroke:#e69f00;stroke-width:1.32934;"/>
   </g>
   <g id="line2d_49">
    <path clip-path="url(#p61882ce954)" d="M 172.709878 156.342247 
L 148.164423 156.543852 
L 123.618969 156.632055 
L 99.073514 156.687496 
L 74.52806 156.654735 
" style="fill:none;stroke:#e69f00;stroke-dasharray:4.918559,2.126945;stroke-dashoffset:0;stroke-width:1.32934;"/>
   </g>
   <g id="line2d_50">
    <path clip-path="url(#p61882ce954)" d="M 172.709878 91.93448 
L 148.164423 109.423714 
L 123.618969 117.654242 
L 99.073514 136.970523 
L 74.52806 148.532572 
" style="fill:none;stroke:#56b4e9;stroke-width:1.32934;"/>
   </g>
   <g id="line2d_51">
    <path clip-path="url(#p61882ce954)" d="M 172.709878 96.097624 
L 148.164423 104.867438 
L 123.618969 124.093002 
L 99.073514 141.557037 
L 74.52806 149.167628 
" style="fill:none;stroke:#56b4e9;stroke-dasharray:4.918559,2.126945;stroke-dashoffset:0;stroke-width:1.32934;"/>
   </g>
   <g id="patch_3">
    <path d="M 69.618969 38.857576 
L 177.618969 38.857576 
L 177.618969 14.857576 
L 69.618969 14.857576 
z
" style="fill:none;"/>
   </g>
   <g id="patch_4">
    <path d="M 69.618969 161.737576 
L 69.618969 50.857576 
" style="fill:none;stroke:#262626;stroke-linecap:square;stroke-linejoin:miter;stroke-width:1.875;"/>
   </g>
   <g id="patch_5">
    <path d="M 177.618969 161.737576 
L 177.618969 50.857576 
" style="fill:none;stroke:#262626;stroke-linecap:square;stroke-linejoin:miter;stroke-width:1.875;"/>
   </g>
   <g id="patch_6">
    <path d="M 69.618969 161.737576 
L 177.618969 161.737576 
" style="fill:none;stroke:#262626;stroke-linecap:square;stroke-linejoin:miter;stroke-width:1.875;"/>
   </g>
   <g id="patch_7">
    <path d="M 69.618969 50.857576 
L 177.618969 50.857576 
" style="fill:none;stroke:#262626;stroke-linecap:square;stroke-linejoin:miter;stroke-width:1.875;"/>
   </g>
   <g id="text_11">
    <!-- r4A8 -->
    <g style="fill:#262626;" transform="translate(104.630375 20.323125)scale(0.18 -0.18)">
     <defs>
      <path d="M 47.203125 21.90625 
L 19.09375 21.90625 
L 11.40625 0 
L 1.5 0 
L 27.5 72.90625 
L 39.5 72.90625 
L 65.09375 0 
L 54.703125 0 
z
M 44.59375 29.703125 
L 33.40625 62.90625 
L 21.40625 29.703125 
z
" id="FreeSans-65"/>
      <path d="M 39.09375 37.296875 
Q 51.296875 31.5 51.296875 19.59375 
Q 51.296875 9.90625 44.640625 3.796875 
Q 38 -2.296875 27.5 -2.296875 
Q 17 -2.296875 10.34375 3.84375 
Q 3.703125 10 3.703125 19.703125 
Q 3.703125 31.5 15.796875 37.296875 
Q 10.40625 40.703125 8.296875 43.890625 
Q 6.203125 47.09375 6.203125 52 
Q 6.203125 60.296875 12.140625 65.59375 
Q 18.09375 70.90625 27.5 70.90625 
Q 36.90625 70.90625 42.84375 65.59375 
Q 48.796875 60.296875 48.796875 52 
Q 48.796875 47 46.6875 43.796875 
Q 44.59375 40.59375 39.09375 37.296875 
z
M 39.796875 57 
Q 33.09375 63.09375 27.5 63.09375 
Q 21.90625 63.09375 18.546875 60.046875 
Q 15.203125 57 15.203125 51.90625 
Q 15.203125 46.90625 18.546875 43.84375 
Q 21.90625 40.796875 27.5 40.796875 
Q 33 40.796875 36.390625 43.796875 
Q 39.796875 46.796875 39.796875 51.796875 
Q 39.796875 57 33.09375 63.09375 
z
M 42.296875 25.703125 
Q 34.09375 33.40625 27.5 33.40625 
Q 20.90625 33.40625 16.796875 29.546875 
Q 12.703125 25.703125 12.703125 19.5 
Q 12.703125 13.296875 16.75 9.390625 
Q 20.796875 5.5 27.296875 5.5 
Q 34 5.5 38.140625 9.34375 
Q 42.296875 13.203125 42.296875 19.5 
Q 42.296875 25.703125 34.09375 33.40625 
z
" id="FreeSans-56"/>
     </defs>
     <use xlink:href="#FreeSans-114"/>
     <use x="33.199997" xlink:href="#FreeSans-52"/>
     <use x="88.799988" xlink:href="#FreeSans-65"/>
     <use x="155.399979" xlink:href="#FreeSans-56"/>
    </g>
    <!-- (50ug/mL) -->
    <g style="fill:#262626;" transform="translate(82.958656 39.994313)scale(0.18 -0.18)">
     <defs>
      <path d="M 22.90625 72.90625 
L 28.40625 72.90625 
L 4.703125 -2 
L -0.796875 -2 
z
" id="FreeSans-47"/>
      <path d="M 6 52.40625 
L 13.703125 52.40625 
L 13.703125 45 
Q 17.09375 49.703125 20.84375 51.796875 
Q 24.59375 53.90625 29.796875 53.90625 
Q 39.5 53.90625 43.90625 45.90625 
Q 47.59375 50.296875 51.1875 52.09375 
Q 54.796875 53.90625 60 53.90625 
Q 67.296875 53.90625 71.25 50.15625 
Q 75.203125 46.40625 75.203125 39.296875 
L 75.203125 0 
L 66.796875 0 
L 66.796875 36.09375 
Q 66.796875 41.09375 64.25 43.84375 
Q 61.703125 46.59375 57.09375 46.59375 
Q 52 46.59375 48.390625 42.59375 
Q 44.796875 38.59375 44.796875 32.90625 
L 44.796875 0 
L 36.40625 0 
L 36.40625 36.09375 
Q 36.40625 41.09375 33.84375 43.84375 
Q 31.296875 46.59375 26.703125 46.59375 
Q 21.59375 46.59375 18 42.59375 
Q 14.40625 38.59375 14.40625 32.90625 
L 14.40625 0 
L 6 0 
z
" id="FreeSans-109"/>
      <path d="M 17.296875 72.90625 
L 17.296875 8.203125 
L 53.296875 8.203125 
L 53.296875 0 
L 8 0 
L 8 72.90625 
z
" id="FreeSans-76"/>
     </defs>
     <use xlink:href="#FreeSans-40"/>
     <use x="33.299988" xlink:href="#FreeSans-53"/>
     <use x="88.899979" xlink:href="#FreeSans-48"/>
     <use x="144.499969" xlink:href="#FreeSans-117"/>
     <use x="198.199966" xlink:href="#FreeSans-103"/>
     <use x="253.199951" xlink:href="#FreeSans-47"/>
     <use x="280.999939" xlink:href="#FreeSans-109"/>
     <use x="362.199921" xlink:href="#FreeSans-76"/>
     <use x="418.499908" xlink:href="#FreeSans-41"/>
    </g>
   </g>
   <g id="text_12">
    <!-- ligand -->
    <g transform="translate(320.018969 40.654139)scale(0.18 -0.18)">
     <defs>
      <path d="M 14.40625 72.90625 
L 14.40625 0 
L 6 0 
L 6 72.90625 
z
" id="FreeSans-108"/>
     </defs>
     <use xlink:href="#FreeSans-108"/>
     <use x="21.399994" xlink:href="#FreeSans-105"/>
     <use x="43.599991" xlink:href="#FreeSans-103"/>
     <use x="98.599976" xlink:href="#FreeSans-97"/>
     <use x="152.899963" xlink:href="#FreeSans-110"/>
     <use x="206.59996" xlink:href="#FreeSans-100"/>
    </g>
   </g>
   <g id="patch_8">
    <path clip-path="url(#p829d8341d2)" d="M 320.018969 70.577576 
L 338.018969 70.577576 
L 338.018969 52.577576 
L 320.018969 52.577576 
z
" style="fill:#ffffff;"/>
   </g>
   <g id="line2d_52">
    <path clip-path="url(#p829d8341d2)" d="M 329.018969 61.577576 
" style="fill:none;stroke:#1f77b4;stroke-linecap:round;stroke-width:2.25;"/>
    <defs>
     <path d="M 0 3.101794 
C 0.822605 3.101794 1.61163 2.77497 2.1933 2.1933 
C 2.77497 1.61163 3.101794 0.822605 3.101794 0 
C 3.101794 -0.822605 2.77497 -1.61163 2.1933 -2.1933 
C 1.61163 -2.77497 0.822605 -3.101794 0 -3.101794 
C -0.822605 -3.101794 -1.61163 -2.77497 -2.1933 -2.1933 
C -2.77497 -1.61163 -3.101794 -0.822605 -3.101794 0 
C -3.101794 0.822605 -2.77497 1.61163 -2.1933 2.1933 
C -1.61163 2.77497 -0.822605 3.101794 0 3.101794 
z
" id="mb5a96cf82c" style="stroke:#e69f00;stroke-width:0.886227;"/>
    </defs>
    <g clip-path="url(#p829d8341d2)">
     <use style="fill:#e69f00;stroke:#e69f00;stroke-width:0.886227;" x="329.018969" xlink:href="#mb5a96cf82c" y="61.577576"/>
    </g>
   </g>
   <g id="line2d_53">
    <path clip-path="url(#p829d8341d2)" d="M 320.018969 61.577576 
L 338.018969 61.577576 
" style="fill:none;stroke:#e69f00;stroke-width:1.32934;"/>
   </g>
   <g id="text_13">
    <!-- RBD -->
    <g transform="translate(341.018969 66.17742)scale(0.18 -0.18)">
     <defs>
      <path d="M 52.296875 36 
Q 55.5 34.59375 57.640625 32.6875 
Q 59.796875 30.796875 60.75 28.390625 
Q 61.703125 26 62 23.890625 
Q 62.296875 21.796875 62.296875 18.90625 
Q 62.296875 18 62.25 16.296875 
Q 62.203125 14.59375 62.203125 13.796875 
Q 62.203125 9.703125 63.09375 6.890625 
Q 64 4.09375 66.59375 2.296875 
L 66.59375 0 
L 55.296875 0 
Q 53.296875 4.59375 53.296875 11.90625 
L 53.296875 18.40625 
Q 53.296875 25.09375 50.390625 28.25 
Q 47.5 31.40625 41.296875 31.40625 
L 17.296875 31.40625 
L 17.296875 0 
L 8 0 
L 8 72.90625 
L 41.59375 72.90625 
Q 52.296875 72.90625 58.046875 67.84375 
Q 63.796875 62.796875 63.796875 53.40625 
Q 63.796875 47.203125 61.09375 43.09375 
Q 58.40625 39 52.296875 36 
z
M 54.09375 52.09375 
Q 54.09375 59.296875 50.296875 62 
Q 46.5 64.703125 39.796875 64.703125 
L 17.296875 64.703125 
L 17.296875 39.59375 
L 39.796875 39.59375 
Q 47.203125 39.59375 50.640625 42.59375 
Q 54.09375 45.59375 54.09375 52.09375 
z
" id="FreeSans-82"/>
      <path d="M 62.40625 20.796875 
Q 62.40625 11.40625 56.5 5.703125 
Q 50.59375 0 40.90625 0 
L 8 0 
L 8 72.90625 
L 37.59375 72.90625 
Q 43.703125 72.90625 48.203125 71.09375 
Q 52.703125 69.296875 54.953125 66.34375 
Q 57.203125 63.40625 58.203125 60.453125 
Q 59.203125 57.5 59.203125 54.40625 
Q 59.203125 43.203125 49.09375 38.5 
Q 56.09375 35.796875 59.25 31.59375 
Q 62.40625 27.40625 62.40625 20.796875 
z
M 35.296875 41.5 
Q 49.90625 41.5 49.90625 53.09375 
Q 49.90625 64.703125 35.296875 64.703125 
L 17.296875 64.703125 
L 17.296875 41.5 
L 35.296875 41.5 
z
M 40 8.203125 
Q 44.90625 8.203125 48 10.34375 
Q 51.09375 12.5 52.09375 15.09375 
Q 53.09375 17.703125 53.09375 20.703125 
Q 53.09375 26.40625 49.6875 29.84375 
Q 46.296875 33.296875 40 33.296875 
L 17.296875 33.296875 
L 17.296875 8.203125 
z
" id="FreeSans-66"/>
     </defs>
     <use xlink:href="#FreeSans-82"/>
     <use x="70.899994" xlink:href="#FreeSans-66"/>
     <use x="137.299988" xlink:href="#FreeSans-68"/>
    </g>
   </g>
   <g id="patch_9">
    <path clip-path="url(#p1a98e82edd)" d="M 320.018969 90.577576 
L 338.018969 90.577576 
L 338.018969 72.577576 
L 320.018969 72.577576 
z
" style="fill:#ffffff;"/>
   </g>
   <g id="line2d_54">
    <path clip-path="url(#p1a98e82edd)" d="M 329.018969 81.577576 
" style="fill:none;stroke:#1f77b4;stroke-linecap:round;stroke-width:2.25;"/>
    <defs>
     <path d="M 0 3.101794 
C 0.822605 3.101794 1.61163 2.77497 2.1933 2.1933 
C 2.77497 1.61163 3.101794 0.822605 3.101794 0 
C 3.101794 -0.822605 2.77497 -1.61163 2.1933 -2.1933 
C 1.61163 -2.77497 0.822605 -3.101794 0 -3.101794 
C -0.822605 -3.101794 -1.61163 -2.77497 -2.1933 -2.1933 
C -2.77497 -1.61163 -3.101794 -0.822605 -3.101794 0 
C -3.101794 0.822605 -2.77497 1.61163 -2.1933 2.1933 
C -1.61163 2.77497 -0.822605 3.101794 0 3.101794 
z
" id="m7379f68787" style="stroke:#56b4e9;stroke-width:0.886227;"/>
    </defs>
    <g clip-path="url(#p1a98e82edd)">
     <use style="fill:#56b4e9;stroke:#56b4e9;stroke-width:0.886227;" x="329.018969" xlink:href="#m7379f68787" y="81.577576"/>
    </g>
   </g>
   <g id="line2d_55">
    <path clip-path="url(#p1a98e82edd)" d="M 320.018969 81.577576 
L 338.018969 81.577576 
" style="fill:none;stroke:#56b4e9;stroke-width:1.32934;"/>
   </g>
   <g id="text_14">
    <!-- spike -->
    <g transform="translate(341.018969 86.17742)scale(0.18 -0.18)">
     <defs>
      <path d="M 6 -21.796875 
L 6 52.40625 
L 13.703125 52.40625 
L 13.703125 44.5 
Q 19.59375 53.90625 30.40625 53.90625 
Q 40.796875 53.90625 46.84375 46.203125 
Q 52.90625 38.5 52.90625 25.296875 
Q 52.90625 12.796875 46.75 5.25 
Q 40.59375 -2.296875 30.5 -2.296875 
Q 20.796875 -2.296875 14.40625 5.5 
L 14.40625 -21.796875 
z
M 29 46.09375 
Q 22.40625 46.09375 18.40625 40.546875 
Q 14.40625 35 14.40625 25.796875 
Q 14.40625 16.59375 18.40625 11.046875 
Q 22.40625 5.5 29 5.5 
Q 35.796875 5.5 40 11.046875 
Q 44.203125 16.59375 44.203125 25.5 
Q 44.203125 34.90625 40.046875 40.5 
Q 35.90625 46.09375 29 46.09375 
z
" id="FreeSans-112"/>
      <path d="M 14.296875 72.90625 
L 14.296875 30.203125 
L 36.5 52.40625 
L 47.203125 52.40625 
L 29 34.296875 
L 50.40625 0 
L 40.09375 0 
L 22.40625 28.40625 
L 14.296875 20.40625 
L 14.296875 0 
L 6 0 
L 6 72.90625 
z
" id="FreeSans-107"/>
     </defs>
     <use xlink:href="#FreeSans-115"/>
     <use x="49.299988" xlink:href="#FreeSans-112"/>
     <use x="105.199982" xlink:href="#FreeSans-105"/>
     <use x="127.399979" xlink:href="#FreeSans-107"/>
     <use x="178.799973" xlink:href="#FreeSans-101"/>
    </g>
   </g>
   <g id="text_15">
    <!-- depleted -->
    <g transform="translate(320.018969 133.700701)scale(0.18 -0.18)">
     <use xlink:href="#FreeSans-100"/>
     <use x="55.899994" xlink:href="#FreeSans-101"/>
     <use x="109.199982" xlink:href="#FreeSans-112"/>
     <use x="165.099976" xlink:href="#FreeSans-108"/>
     <use x="186.499969" xlink:href="#FreeSans-101"/>
     <use x="239.799957" xlink:href="#FreeSans-116"/>
     <use x="267.799942" xlink:href="#FreeSans-101"/>
     <use x="321.09993" xlink:href="#FreeSans-100"/>
    </g>
   </g>
   <g id="patch_10">
    <path clip-path="url(#pbf673dcb71)" d="M 320.018969 163.624139 
L 338.018969 163.624139 
L 338.018969 145.624139 
L 320.018969 145.624139 
z
" style="fill:#ffffff;"/>
   </g>
   <g id="line2d_56">
    <path clip-path="url(#pbf673dcb71)" d="M 329.018969 154.624139 
" style="fill:none;stroke:#1f77b4;stroke-linecap:round;stroke-width:2.25;"/>
    <defs>
     <path d="M 0 3.101794 
C 0.822605 3.101794 1.61163 2.77497 2.1933 2.1933 
C 2.77497 1.61163 3.101794 0.822605 3.101794 0 
C 3.101794 -0.822605 2.77497 -1.61163 2.1933 -2.1933 
C 1.61163 -2.77497 0.822605 -3.101794 0 -3.101794 
C -0.822605 -3.101794 -1.61163 -2.77497 -2.1933 -2.1933 
C -2.77497 -1.61163 -3.101794 -0.822605 -3.101794 0 
C -3.101794 0.822605 -2.77497 1.61163 -2.1933 2.1933 
C -1.61163 2.77497 -0.822605 3.101794 0 3.101794 
z
" id="m721c3b3c26" style="stroke:#000000;stroke-width:0.886227;"/>
    </defs>
    <g clip-path="url(#pbf673dcb71)">
     <use style="stroke:#000000;stroke-width:0.886227;" x="329.018969" xlink:href="#m721c3b3c26" y="154.624139"/>
    </g>
   </g>
   <g id="line2d_57">
    <path clip-path="url(#pbf673dcb71)" d="M 320.018969 154.624139 
L 338.018969 154.624139 
" style="fill:none;stroke:#000000;stroke-width:1.32934;"/>
   </g>
   <g id="text_16">
    <!-- pre -->
    <g transform="translate(341.018969 159.223983)scale(0.18 -0.18)">
     <use xlink:href="#FreeSans-112"/>
     <use x="55.899994" xlink:href="#FreeSans-114"/>
     <use x="89.099991" xlink:href="#FreeSans-101"/>
    </g>
   </g>
   <g id="patch_11">
    <path clip-path="url(#pfc45759898)" d="M 320.018969 183.624139 
L 338.018969 183.624139 
L 338.018969 165.624139 
L 320.018969 165.624139 
z
" style="fill:#ffffff;"/>
   </g>
   <g id="line2d_58">
    <path clip-path="url(#pfc45759898)" d="M 329.018969 174.624139 
" style="fill:none;stroke:#1f77b4;stroke-linecap:round;stroke-width:2.25;"/>
    <defs>
     <path d="M -3.101794 3.101794 
L 3.101794 -3.101794 
M -3.101794 -3.101794 
L 3.101794 3.101794 
" id="m3613bfda49" style="stroke:#000000;stroke-width:0.886227;"/>
    </defs>
    <g clip-path="url(#pfc45759898)">
     <use style="stroke:#000000;stroke-width:0.886227;" x="329.018969" xlink:href="#m3613bfda49" y="174.624139"/>
    </g>
   </g>
   <g id="line2d_59">
    <path clip-path="url(#pfc45759898)" d="M 320.018969 174.624139 
L 338.018969 174.624139 
" style="fill:none;stroke:#000000;stroke-dasharray:4.918559,2.126945;stroke-dashoffset:0;stroke-width:1.32934;"/>
   </g>
   <g id="text_17">
    <!-- post -->
    <g transform="translate(341.018969 179.223983)scale(0.18 -0.18)">
     <defs>
      <path d="M 26.59375 53.90625 
Q 37.90625 53.90625 44.15625 46.453125 
Q 50.40625 39 50.40625 25.40625 
Q 50.40625 12.5 44.046875 5.09375 
Q 37.703125 -2.296875 26.703125 -2.296875 
Q 15.5 -2.296875 9.25 5.140625 
Q 3 12.59375 3 25.796875 
Q 3 39 9.296875 46.453125 
Q 15.59375 53.90625 26.59375 53.90625 
z
M 26.703125 46.203125 
Q 19.703125 46.203125 15.703125 40.75 
Q 11.703125 35.296875 11.703125 25.796875 
Q 11.703125 16.296875 15.703125 10.84375 
Q 19.703125 5.40625 26.703125 5.40625 
Q 33.59375 5.40625 37.640625 10.84375 
Q 41.703125 16.296875 41.703125 25.5 
Q 41.703125 35.203125 37.75 40.703125 
Q 33.796875 46.203125 26.703125 46.203125 
z
" id="FreeSans-111"/>
     </defs>
     <use xlink:href="#FreeSans-112"/>
     <use x="55.899994" xlink:href="#FreeSans-111"/>
     <use x="109.299988" xlink:href="#FreeSans-115"/>
     <use x="158.599976" xlink:href="#FreeSans-116"/>
    </g>
   </g>
  </g>
  <g id="axes_2">
   <g id="patch_12">
    <path d="M 184.818969 161.737576 
L 292.818969 161.737576 
L 292.818969 50.857576 
L 184.818969 50.857576 
z
" style="fill:#ffffff;"/>
   </g>
   <g id="matplotlib.axis_3">
    <g id="xtick_39">
     <g id="line2d_60">
      <g>
       <use style="fill:#262626;stroke:#262626;stroke-width:1.875;" x="200.506538" xlink:href="#me1554687c9" y="161.737576"/>
      </g>
     </g>
     <g id="text_18">
      <!-- 1e-04 -->
      <g style="fill:#262626;" transform="translate(204.723062 214.944451)rotate(-90)scale(0.165 -0.165)">
       <use xlink:href="#FreeSans-49"/>
       <use x="55.599991" xlink:href="#FreeSans-101"/>
       <use x="108.899979" xlink:href="#FreeSans-45"/>
       <use x="142.199966" xlink:href="#FreeSans-48"/>
       <use x="197.799957" xlink:href="#FreeSans-52"/>
      </g>
     </g>
    </g>
    <g id="xtick_40">
     <g id="line2d_61">
      <g>
       <use style="fill:#262626;stroke:#262626;stroke-width:1.875;" x="225.051993" xlink:href="#me1554687c9" y="161.737576"/>
      </g>
     </g>
     <g id="text_19">
      <!-- 3e-04 -->
      <g style="fill:#262626;" transform="translate(229.268516 214.944451)rotate(-90)scale(0.165 -0.165)">
       <use xlink:href="#FreeSans-51"/>
       <use x="55.599991" xlink:href="#FreeSans-101"/>
       <use x="108.899979" xlink:href="#FreeSans-45"/>
       <use x="142.199966" xlink:href="#FreeSans-48"/>
       <use x="197.799957" xlink:href="#FreeSans-52"/>
      </g>
     </g>
    </g>
    <g id="xtick_41">
     <g id="line2d_62">
      <g>
       <use style="fill:#262626;stroke:#262626;stroke-width:1.875;" x="251.951437" xlink:href="#me1554687c9" y="161.737576"/>
      </g>
     </g>
     <g id="text_20">
      <!-- 1e-03 -->
      <g style="fill:#262626;" transform="translate(256.16796 214.944451)rotate(-90)scale(0.165 -0.165)">
       <use xlink:href="#FreeSans-49"/>
       <use x="55.599991" xlink:href="#FreeSans-101"/>
       <use x="108.899979" xlink:href="#FreeSans-45"/>
       <use x="142.199966" xlink:href="#FreeSans-48"/>
       <use x="197.799957" xlink:href="#FreeSans-51"/>
      </g>
     </g>
    </g>
    <g id="xtick_42">
     <g id="line2d_63">
      <g>
       <use style="fill:#262626;stroke:#262626;stroke-width:1.875;" x="276.496891" xlink:href="#me1554687c9" y="161.737576"/>
      </g>
     </g>
     <g id="text_21">
      <!-- 3e-03 -->
      <g style="fill:#262626;" transform="translate(280.713415 214.944451)rotate(-90)scale(0.165 -0.165)">
       <use xlink:href="#FreeSans-51"/>
       <use x="55.599991" xlink:href="#FreeSans-101"/>
       <use x="108.899979" xlink:href="#FreeSans-45"/>
       <use x="142.199966" xlink:href="#FreeSans-48"/>
       <use x="197.799957" xlink:href="#FreeSans-51"/>
      </g>
     </g>
    </g>
    <g id="xtick_43">
     <g id="line2d_64">
      <g>
       <use style="fill:#262626;stroke:#262626;stroke-width:1.5;" x="186.462016" xlink:href="#mdf7cf5967e" y="161.737576"/>
      </g>
     </g>
    </g>
    <g id="xtick_44">
     <g id="line2d_65">
      <g>
       <use style="fill:#262626;stroke:#262626;stroke-width:1.5;" x="189.503513" xlink:href="#mdf7cf5967e" y="161.737576"/>
      </g>
     </g>
    </g>
    <g id="xtick_45">
     <g id="line2d_66">
      <g>
       <use style="fill:#262626;stroke:#262626;stroke-width:1.5;" x="192.180139" xlink:href="#mdf7cf5967e" y="161.737576"/>
      </g>
     </g>
    </g>
    <g id="xtick_46">
     <g id="line2d_67">
      <g>
       <use style="fill:#262626;stroke:#262626;stroke-width:1.5;" x="194.570136" xlink:href="#mdf7cf5967e" y="161.737576"/>
      </g>
     </g>
    </g>
    <g id="xtick_47">
     <g id="line2d_68">
      <g>
       <use style="fill:#262626;stroke:#262626;stroke-width:1.5;" x="196.728995" xlink:href="#mdf7cf5967e" y="161.737576"/>
      </g>
     </g>
    </g>
    <g id="xtick_48">
     <g id="line2d_69">
      <g>
       <use style="fill:#262626;stroke:#262626;stroke-width:1.5;" x="198.697508" xlink:href="#mdf7cf5967e" y="161.737576"/>
      </g>
     </g>
    </g>
    <g id="xtick_49">
     <g id="line2d_70">
      <g>
       <use style="fill:#262626;stroke:#262626;stroke-width:1.5;" x="204.98997" xlink:href="#mdf7cf5967e" y="161.737576"/>
      </g>
     </g>
    </g>
    <g id="xtick_50">
     <g id="line2d_71">
      <g>
       <use style="fill:#262626;stroke:#262626;stroke-width:1.5;" x="208.722332" xlink:href="#mdf7cf5967e" y="161.737576"/>
      </g>
     </g>
    </g>
    <g id="xtick_51">
     <g id="line2d_72">
      <g>
       <use style="fill:#262626;stroke:#262626;stroke-width:1.5;" x="211.919525" xlink:href="#mdf7cf5967e" y="161.737576"/>
      </g>
     </g>
    </g>
    <g id="xtick_52">
     <g id="line2d_73">
      <g>
       <use style="fill:#262626;stroke:#262626;stroke-width:1.5;" x="214.715949" xlink:href="#mdf7cf5967e" y="161.737576"/>
      </g>
     </g>
    </g>
    <g id="xtick_53">
     <g id="line2d_74">
      <g>
       <use style="fill:#262626;stroke:#262626;stroke-width:1.5;" x="217.200979" xlink:href="#mdf7cf5967e" y="161.737576"/>
      </g>
     </g>
    </g>
    <g id="xtick_54">
     <g id="line2d_75">
      <g>
       <use style="fill:#262626;stroke:#262626;stroke-width:1.5;" x="219.437067" xlink:href="#mdf7cf5967e" y="161.737576"/>
      </g>
     </g>
    </g>
    <g id="xtick_55">
     <g id="line2d_76">
      <g>
       <use style="fill:#262626;stroke:#262626;stroke-width:1.5;" x="221.46958" xlink:href="#mdf7cf5967e" y="161.737576"/>
      </g>
     </g>
    </g>
    <g id="xtick_56">
     <g id="line2d_77">
      <g>
       <use style="fill:#262626;stroke:#262626;stroke-width:1.5;" x="223.332511" xlink:href="#mdf7cf5967e" y="161.737576"/>
      </g>
     </g>
    </g>
    <g id="xtick_57">
     <g id="line2d_78">
      <g>
       <use style="fill:#262626;stroke:#262626;stroke-width:1.5;" x="230.202407" xlink:href="#mdf7cf5967e" y="161.737576"/>
      </g>
     </g>
    </g>
    <g id="xtick_58">
     <g id="line2d_79">
      <g>
       <use style="fill:#262626;stroke:#262626;stroke-width:1.5;" x="234.385131" xlink:href="#mdf7cf5967e" y="161.737576"/>
      </g>
     </g>
    </g>
    <g id="xtick_59">
     <g id="line2d_80">
      <g>
       <use style="fill:#262626;stroke:#262626;stroke-width:1.5;" x="237.906914" xlink:href="#mdf7cf5967e" y="161.737576"/>
      </g>
     </g>
    </g>
    <g id="xtick_60">
     <g id="line2d_81">
      <g>
       <use style="fill:#262626;stroke:#262626;stroke-width:1.5;" x="240.948411" xlink:href="#mdf7cf5967e" y="161.737576"/>
      </g>
     </g>
    </g>
    <g id="xtick_61">
     <g id="line2d_82">
      <g>
       <use style="fill:#262626;stroke:#262626;stroke-width:1.5;" x="243.625038" xlink:href="#mdf7cf5967e" y="161.737576"/>
      </g>
     </g>
    </g>
    <g id="xtick_62">
     <g id="line2d_83">
      <g>
       <use style="fill:#262626;stroke:#262626;stroke-width:1.5;" x="246.015034" xlink:href="#mdf7cf5967e" y="161.737576"/>
      </g>
     </g>
    </g>
    <g id="xtick_63">
     <g id="line2d_84">
      <g>
       <use style="fill:#262626;stroke:#262626;stroke-width:1.5;" x="248.173894" xlink:href="#mdf7cf5967e" y="161.737576"/>
      </g>
     </g>
    </g>
    <g id="xtick_64">
     <g id="line2d_85">
      <g>
       <use style="fill:#262626;stroke:#262626;stroke-width:1.5;" x="250.142407" xlink:href="#mdf7cf5967e" y="161.737576"/>
      </g>
     </g>
    </g>
    <g id="xtick_65">
     <g id="line2d_86">
      <g>
       <use style="fill:#262626;stroke:#262626;stroke-width:1.5;" x="256.434869" xlink:href="#mdf7cf5967e" y="161.737576"/>
      </g>
     </g>
    </g>
    <g id="xtick_66">
     <g id="line2d_87">
      <g>
       <use style="fill:#262626;stroke:#262626;stroke-width:1.5;" x="260.167231" xlink:href="#mdf7cf5967e" y="161.737576"/>
      </g>
     </g>
    </g>
    <g id="xtick_67">
     <g id="line2d_88">
      <g>
       <use style="fill:#262626;stroke:#262626;stroke-width:1.5;" x="263.364423" xlink:href="#mdf7cf5967e" y="161.737576"/>
      </g>
     </g>
    </g>
    <g id="xtick_68">
     <g id="line2d_89">
      <g>
       <use style="fill:#262626;stroke:#262626;stroke-width:1.5;" x="266.160848" xlink:href="#mdf7cf5967e" y="161.737576"/>
      </g>
     </g>
    </g>
    <g id="xtick_69">
     <g id="line2d_90">
      <g>
       <use style="fill:#262626;stroke:#262626;stroke-width:1.5;" x="268.645877" xlink:href="#mdf7cf5967e" y="161.737576"/>
      </g>
     </g>
    </g>
    <g id="xtick_70">
     <g id="line2d_91">
      <g>
       <use style="fill:#262626;stroke:#262626;stroke-width:1.5;" x="270.881965" xlink:href="#mdf7cf5967e" y="161.737576"/>
      </g>
     </g>
    </g>
    <g id="xtick_71">
     <g id="line2d_92">
      <g>
       <use style="fill:#262626;stroke:#262626;stroke-width:1.5;" x="272.914478" xlink:href="#mdf7cf5967e" y="161.737576"/>
      </g>
     </g>
    </g>
    <g id="xtick_72">
     <g id="line2d_93">
      <g>
       <use style="fill:#262626;stroke:#262626;stroke-width:1.5;" x="274.77741" xlink:href="#mdf7cf5967e" y="161.737576"/>
      </g>
     </g>
    </g>
    <g id="xtick_73">
     <g id="line2d_94">
      <g>
       <use style="fill:#262626;stroke:#262626;stroke-width:1.5;" x="281.647305" xlink:href="#mdf7cf5967e" y="161.737576"/>
      </g>
     </g>
    </g>
    <g id="xtick_74">
     <g id="line2d_95">
      <g>
       <use style="fill:#262626;stroke:#262626;stroke-width:1.5;" x="285.83003" xlink:href="#mdf7cf5967e" y="161.737576"/>
      </g>
     </g>
    </g>
    <g id="xtick_75">
     <g id="line2d_96">
      <g>
       <use style="fill:#262626;stroke:#262626;stroke-width:1.5;" x="289.351813" xlink:href="#mdf7cf5967e" y="161.737576"/>
      </g>
     </g>
    </g>
    <g id="xtick_76">
     <g id="line2d_97">
      <g>
       <use style="fill:#262626;stroke:#262626;stroke-width:1.5;" x="292.39331" xlink:href="#mdf7cf5967e" y="161.737576"/>
      </g>
     </g>
    </g>
    <g id="text_22">
     <!-- serum dilution -->
     <g style="fill:#262626;" transform="translate(123.057875 233.067576)scale(0.18 -0.18)">
      <use xlink:href="#FreeSans-115"/>
      <use x="49.299988" xlink:href="#FreeSans-101"/>
      <use x="102.599976" xlink:href="#FreeSans-114"/>
      <use x="135.799973" xlink:href="#FreeSans-117"/>
      <use x="189.499969" xlink:href="#FreeSans-109"/>
      <use x="270.699951" xlink:href="#FreeSans-32"/>
      <use x="295.699936" xlink:href="#FreeSans-100"/>
      <use x="351.59993" xlink:href="#FreeSans-105"/>
      <use x="373.799927" xlink:href="#FreeSans-108"/>
      <use x="395.199921" xlink:href="#FreeSans-117"/>
      <use x="448.899918" xlink:href="#FreeSans-116"/>
      <use x="476.899902" xlink:href="#FreeSans-105"/>
      <use x="499.099899" xlink:href="#FreeSans-111"/>
      <use x="552.499893" xlink:href="#FreeSans-110"/>
     </g>
    </g>
   </g>
   <g id="matplotlib.axis_4">
    <g id="ytick_10"/>
    <g id="ytick_11"/>
    <g id="ytick_12"/>
    <g id="ytick_13"/>
    <g id="ytick_14"/>
    <g id="ytick_15"/>
    <g id="ytick_16"/>
    <g id="ytick_17"/>
    <g id="ytick_18"/>
   </g>
   <g id="PathCollection_3">
    <path clip-path="url(#pade4e7bc5d)" d="M 287.909878 70.531177 
C 288.732483 70.531177 289.521508 70.204353 290.103178 69.622683 
C 290.684847 69.041013 291.011672 68.251988 291.011672 67.429383 
C 291.011672 66.606777 290.684847 65.817753 290.103178 65.236083 
C 289.521508 64.654413 288.732483 64.327589 287.909878 64.327589 
C 287.087272 64.327589 286.298248 64.654413 285.716578 65.236083 
C 285.134908 65.817753 284.808084 66.606777 284.808084 67.429383 
C 284.808084 68.251988 285.134908 69.041013 285.716578 69.622683 
C 286.298248 70.204353 287.087272 70.531177 287.909878 70.531177 
z
" style="fill:#e69f00;stroke:#e69f00;stroke-width:0.886227;"/>
    <path clip-path="url(#pade4e7bc5d)" d="M 263.364423 75.241178 
C 264.187029 75.241178 264.976053 74.914354 265.557723 74.332684 
C 266.139393 73.751014 266.466218 72.96199 266.466218 72.139384 
C 266.466218 71.316779 266.139393 70.527754 265.557723 69.946084 
C 264.976053 69.364415 264.187029 69.03759 263.364423 69.03759 
C 262.541818 69.03759 261.752793 69.364415 261.171124 69.946084 
C 260.589454 70.527754 260.262629 71.316779 260.262629 72.139384 
C 260.262629 72.96199 260.589454 73.751014 261.171124 74.332684 
C 261.752793 74.914354 262.541818 75.241178 263.364423 75.241178 
z
" style="fill:#e69f00;stroke:#e69f00;stroke-width:0.886227;"/>
    <path clip-path="url(#pade4e7bc5d)" d="M 238.818969 92.279325 
C 239.641574 92.279325 240.430599 91.9525 241.012268 91.37083 
C 241.593938 90.78916 241.920763 90.000136 241.920763 89.177531 
C 241.920763 88.354925 241.593938 87.565901 241.012268 86.984231 
C 240.430599 86.402561 239.641574 86.075736 238.818969 86.075736 
C 237.996363 86.075736 237.207339 86.402561 236.625669 86.984231 
C 236.043999 87.565901 235.717175 88.354925 235.717175 89.177531 
C 235.717175 90.000136 236.043999 90.78916 236.625669 91.37083 
C 237.207339 91.9525 237.996363 92.279325 238.818969 92.279325 
z
" style="fill:#e69f00;stroke:#e69f00;stroke-width:0.886227;"/>
    <path clip-path="url(#pade4e7bc5d)" d="M 214.273514 112.306263 
C 215.09612 112.306263 215.885144 111.979439 216.466814 111.397769 
C 217.048484 110.816099 217.375308 110.027074 217.375308 109.204469 
C 217.375308 108.381863 217.048484 107.592839 216.466814 107.011169 
C 215.885144 106.429499 215.09612 106.102675 214.273514 106.102675 
C 213.450909 106.102675 212.661884 106.429499 212.080214 107.011169 
C 211.498545 107.592839 211.17172 108.381863 211.17172 109.204469 
C 211.17172 110.027074 211.498545 110.816099 212.080214 111.397769 
C 212.661884 111.979439 213.450909 112.306263 214.273514 112.306263 
z
" style="fill:#e69f00;stroke:#e69f00;stroke-width:0.886227;"/>
    <path clip-path="url(#pade4e7bc5d)" d="M 189.72806 131.791391 
C 190.550665 131.791391 191.33969 131.464567 191.921359 130.882897 
C 192.503029 130.301227 192.829854 129.512202 192.829854 128.689597 
C 192.829854 127.866991 192.503029 127.077967 191.921359 126.496297 
C 191.33969 125.914627 190.550665 125.587803 189.72806 125.587803 
C 188.905454 125.587803 188.11643 125.914627 187.53476 126.496297 
C 186.95309 127.077967 186.626265 127.866991 186.626265 128.689597 
C 186.626265 129.512202 186.95309 130.301227 187.53476 130.882897 
C 188.11643 131.464567 188.905454 131.791391 189.72806 131.791391 
z
" style="fill:#e69f00;stroke:#e69f00;stroke-width:0.886227;"/>
    <path clip-path="url(#pade4e7bc5d)" d="M 287.909878 58.999371 
C 288.732483 58.999371 289.521508 58.672546 290.103178 58.090876 
C 290.684847 57.509206 291.011672 56.720182 291.011672 55.897576 
C 291.011672 55.074971 290.684847 54.285946 290.103178 53.704277 
C 289.521508 53.122607 288.732483 52.795782 287.909878 52.795782 
C 287.087272 52.795782 286.298248 53.122607 285.716578 53.704277 
C 285.134908 54.285946 284.808084 55.074971 284.808084 55.897576 
C 284.808084 56.720182 285.134908 57.509206 285.716578 58.090876 
C 286.298248 58.672546 287.087272 58.999371 287.909878 58.999371 
z
" style="fill:#56b4e9;stroke:#56b4e9;stroke-width:0.886227;"/>
    <path clip-path="url(#pade4e7bc5d)" d="M 263.364423 73.639679 
C 264.187029 73.639679 264.976053 73.312854 265.557723 72.731184 
C 266.139393 72.149514 266.466218 71.36049 266.466218 70.537884 
C 266.466218 69.715279 266.139393 68.926255 265.557723 68.344585 
C 264.976053 67.762915 264.187029 67.43609 263.364423 67.43609 
C 262.541818 67.43609 261.752793 67.762915 261.171124 68.344585 
C 260.589454 68.926255 260.262629 69.715279 260.262629 70.537884 
C 260.262629 71.36049 260.589454 72.149514 261.171124 72.731184 
C 261.752793 73.312854 262.541818 73.639679 263.364423 73.639679 
z
" style="fill:#56b4e9;stroke:#56b4e9;stroke-width:0.886227;"/>
    <path clip-path="url(#pade4e7bc5d)" d="M 238.818969 92.771993 
C 239.641574 92.771993 240.430599 92.445169 241.012268 91.863499 
C 241.593938 91.281829 241.920763 90.492805 241.920763 89.670199 
C 241.920763 88.847594 241.593938 88.058569 241.012268 87.476899 
C 240.430599 86.89523 239.641574 86.568405 238.818969 86.568405 
C 237.996363 86.568405 237.207339 86.89523 236.625669 87.476899 
C 236.043999 88.058569 235.717175 88.847594 235.717175 89.670199 
C 235.717175 90.492805 236.043999 91.281829 236.625669 91.863499 
C 237.207339 92.445169 237.996363 92.771993 238.818969 92.771993 
z
" style="fill:#56b4e9;stroke:#56b4e9;stroke-width:0.886227;"/>
    <path clip-path="url(#pade4e7bc5d)" d="M 214.273514 109.563175 
C 215.09612 109.563175 215.885144 109.23635 216.466814 108.65468 
C 217.048484 108.07301 217.375308 107.283986 217.375308 106.46138 
C 217.375308 105.638775 217.048484 104.849751 216.466814 104.268081 
C 215.885144 103.686411 215.09612 103.359586 214.273514 103.359586 
C 213.450909 103.359586 212.661884 103.686411 212.080214 104.268081 
C 211.498545 104.849751 211.17172 105.638775 211.17172 106.46138 
C 211.17172 107.283986 211.498545 108.07301 212.080214 108.65468 
C 212.661884 109.23635 213.450909 109.563175 214.273514 109.563175 
z
" style="fill:#56b4e9;stroke:#56b4e9;stroke-width:0.886227;"/>
    <path clip-path="url(#pade4e7bc5d)" d="M 189.72806 133.231607 
C 190.550665 133.231607 191.33969 132.904783 191.921359 132.323113 
C 192.503029 131.741443 192.829854 130.952419 192.829854 130.129813 
C 192.829854 129.307208 192.503029 128.518183 191.921359 127.936513 
C 191.33969 127.354844 190.550665 127.028019 189.72806 127.028019 
C 188.905454 127.028019 188.11643 127.354844 187.53476 127.936513 
C 186.95309 128.518183 186.626265 129.307208 186.626265 130.129813 
C 186.626265 130.952419 186.95309 131.741443 187.53476 132.323113 
C 188.11643 132.904783 188.905454 133.231607 189.72806 133.231607 
z
" style="fill:#56b4e9;stroke:#56b4e9;stroke-width:0.886227;"/>
   </g>
   <g id="PathCollection_4">
    <path clip-path="url(#pade4e7bc5d)" d="M 284.808084 157.79592 
L 291.011672 151.592332 
M 284.808084 151.592332 
L 291.011672 157.79592 
" style="fill:#e69f00;stroke:#e69f00;stroke-width:0.886227;"/>
    <path clip-path="url(#pade4e7bc5d)" d="M 260.262629 159.068552 
L 266.466218 152.864964 
M 260.262629 152.864964 
L 266.466218 159.068552 
" style="fill:#e69f00;stroke:#e69f00;stroke-width:0.886227;"/>
    <path clip-path="url(#pade4e7bc5d)" d="M 235.717175 159.534764 
L 241.920763 153.331175 
M 235.717175 153.331175 
L 241.920763 159.534764 
" style="fill:#e69f00;stroke:#e69f00;stroke-width:0.886227;"/>
    <path clip-path="url(#pade4e7bc5d)" d="M 211.17172 159.708648 
L 217.375308 153.50506 
M 211.17172 153.50506 
L 217.375308 159.708648 
" style="fill:#e69f00;stroke:#e69f00;stroke-width:0.886227;"/>
    <path clip-path="url(#pade4e7bc5d)" d="M 186.626265 159.78425 
L 192.829854 153.580662 
M 186.626265 153.580662 
L 192.829854 159.78425 
" style="fill:#e69f00;stroke:#e69f00;stroke-width:0.886227;"/>
    <path clip-path="url(#pade4e7bc5d)" d="M 284.808084 155.823971 
L 291.011672 149.620383 
M 284.808084 149.620383 
L 291.011672 155.823971 
" style="fill:#56b4e9;stroke:#56b4e9;stroke-width:0.886227;"/>
    <path clip-path="url(#pade4e7bc5d)" d="M 260.262629 158.291113 
L 266.466218 152.087524 
M 260.262629 152.087524 
L 266.466218 158.291113 
" style="fill:#56b4e9;stroke:#56b4e9;stroke-width:0.886227;"/>
    <path clip-path="url(#pade4e7bc5d)" d="M 235.717175 159.281498 
L 241.920763 153.077909 
M 235.717175 153.077909 
L 241.920763 159.281498 
" style="fill:#56b4e9;stroke:#56b4e9;stroke-width:0.886227;"/>
    <path clip-path="url(#pade4e7bc5d)" d="M 211.17172 159.619186 
L 217.375308 153.415598 
M 211.17172 153.415598 
L 217.375308 159.619186 
" style="fill:#56b4e9;stroke:#56b4e9;stroke-width:0.886227;"/>
    <path clip-path="url(#pade4e7bc5d)" d="M 186.626265 159.576345 
L 192.829854 153.372756 
M 186.626265 153.372756 
L 192.829854 159.576345 
" style="fill:#56b4e9;stroke:#56b4e9;stroke-width:0.886227;"/>
   </g>
   <g id="line2d_98">
    <path clip-path="url(#pade4e7bc5d)" d="M 287.909878 67.429383 
L 263.364423 72.139384 
L 238.818969 89.177531 
L 214.273514 109.204469 
L 189.72806 128.689597 
" style="fill:none;stroke:#e69f00;stroke-width:1.32934;"/>
   </g>
   <g id="line2d_99">
    <path clip-path="url(#pade4e7bc5d)" d="M 287.909878 154.694126 
L 263.364423 155.966758 
L 238.818969 156.43297 
L 214.273514 156.606854 
L 189.72806 156.682456 
" style="fill:none;stroke:#e69f00;stroke-dasharray:4.918559,2.126945;stroke-dashoffset:0;stroke-width:1.32934;"/>
   </g>
   <g id="line2d_100">
    <path clip-path="url(#pade4e7bc5d)" d="M 287.909878 55.897576 
L 263.364423 70.537884 
L 238.818969 89.670199 
L 214.273514 106.46138 
L 189.72806 130.129813 
" style="fill:none;stroke:#56b4e9;stroke-width:1.32934;"/>
   </g>
   <g id="line2d_101">
    <path clip-path="url(#pade4e7bc5d)" d="M 287.909878 152.722177 
L 263.364423 155.189319 
L 238.818969 156.179703 
L 214.273514 156.517392 
L 189.72806 156.474551 
" style="fill:none;stroke:#56b4e9;stroke-dasharray:4.918559,2.126945;stroke-dashoffset:0;stroke-width:1.32934;"/>
   </g>
   <g id="patch_13">
    <path d="M 184.818969 38.857576 
L 292.818969 38.857576 
L 292.818969 14.857576 
L 184.818969 14.857576 
z
" style="fill:none;"/>
   </g>
   <g id="patch_14">
    <path d="M 184.818969 161.737576 
L 184.818969 50.857576 
" style="fill:none;stroke:#262626;stroke-linecap:square;stroke-linejoin:miter;stroke-width:1.875;"/>
   </g>
   <g id="patch_15">
    <path d="M 292.818969 161.737576 
L 292.818969 50.857576 
" style="fill:none;stroke:#262626;stroke-linecap:square;stroke-linejoin:miter;stroke-width:1.875;"/>
   </g>
   <g id="patch_16">
    <path d="M 184.818969 161.737576 
L 292.818969 161.737576 
" style="fill:none;stroke:#262626;stroke-linecap:square;stroke-linejoin:miter;stroke-width:1.875;"/>
   </g>
   <g id="patch_17">
    <path d="M 184.818969 50.857576 
L 292.818969 50.857576 
" style="fill:none;stroke:#262626;stroke-linecap:square;stroke-linejoin:miter;stroke-width:1.875;"/>
   </g>
   <g id="text_23">
    <!-- rREGN10987 -->
    <g style="fill:#262626;" transform="translate(185.280219 20.323125)scale(0.18 -0.18)">
     <defs>
      <path d="M 17.296875 33.203125 
L 17.296875 8.203125 
L 60.296875 8.203125 
L 60.296875 0 
L 8 0 
L 8 72.90625 
L 58.5 72.90625 
L 58.5 64.703125 
L 17.296875 64.703125 
L 17.296875 41.40625 
L 57 41.40625 
L 57 33.203125 
z
" id="FreeSans-69"/>
      <path d="M 13.296875 36.203125 
Q 13.296875 32.40625 14 28.546875 
Q 14.703125 24.703125 16.5 20.5 
Q 18.296875 16.296875 21.140625 13.140625 
Q 24 10 28.703125 7.953125 
Q 33.40625 5.90625 39.40625 5.90625 
Q 49.40625 5.90625 55.84375 12.203125 
Q 62.296875 18.5 62.296875 28.296875 
L 62.296875 30.296875 
L 40.09375 30.296875 
L 40.09375 38.5 
L 70.5 38.5 
L 70.5 -0.40625 
L 64.59375 -0.40625 
L 62.296875 9.296875 
Q 51.90625 -2.296875 37.40625 -2.296875 
Q 22.59375 -2.296875 13.296875 8.296875 
Q 4 18.90625 4 35.703125 
Q 4 40.5 4.890625 45.34375 
Q 5.796875 50.203125 8.296875 55.5 
Q 10.796875 60.796875 14.546875 64.796875 
Q 18.296875 68.796875 24.640625 71.4375 
Q 31 74.09375 39 74.09375 
Q 51.5 74.09375 59.546875 68 
Q 67.59375 61.90625 69.5 50.796875 
L 60 50.796875 
Q 58.5 57.796875 52.84375 61.84375 
Q 47.203125 65.90625 38.90625 65.90625 
Q 27.296875 65.90625 20.296875 57.75 
Q 13.296875 49.59375 13.296875 36.203125 
z
" id="FreeSans-71"/>
      <path d="M 65 72.90625 
L 65 0 
L 54.5 0 
L 16.796875 59.09375 
L 16.796875 0 
L 8 0 
L 8 72.90625 
L 18.09375 72.90625 
L 56.203125 13.296875 
L 56.203125 72.90625 
z
" id="FreeSans-78"/>
      <path d="M 50.90625 36.296875 
Q 50.90625 26.90625 49.203125 19.75 
Q 47.5 12.59375 44.953125 8.5 
Q 42.40625 4.40625 38.84375 1.84375 
Q 35.296875 -0.703125 32.09375 -1.5 
Q 28.90625 -2.296875 25.40625 -2.296875 
Q 17.296875 -2.296875 11.9375 2.59375 
Q 6.59375 7.5 5.296875 16.203125 
L 14.09375 16.203125 
Q 15.203125 11.09375 18.296875 8.296875 
Q 21.40625 5.5 26 5.5 
Q 33.59375 5.5 37.640625 12.453125 
Q 41.703125 19.40625 41.796875 32.40625 
Q 35.203125 24.5 25.59375 24.5 
Q 16 24.5 9.890625 30.796875 
Q 3.796875 37.09375 3.796875 47 
Q 3.796875 57.40625 10.34375 64.15625 
Q 16.90625 70.90625 27 70.90625 
Q 50.90625 70.90625 50.90625 36.296875 
z
M 26.90625 63.203125 
Q 20.796875 63.203125 16.796875 58.796875 
Q 12.796875 54.40625 12.796875 47.703125 
Q 12.796875 40.59375 16.5 36.4375 
Q 20.203125 32.296875 26.59375 32.296875 
Q 33 32.296875 37.140625 36.5 
Q 41.296875 40.703125 41.296875 47.203125 
Q 41.296875 54.09375 37.1875 58.640625 
Q 33.09375 63.203125 26.90625 63.203125 
z
" id="FreeSans-57"/>
      <path d="M 52 70.90625 
L 52 63.5 
Q 40 47.5 33.046875 32.25 
Q 26.09375 17 23.203125 0 
L 13.796875 0 
Q 17.796875 17.5 24 30.796875 
Q 30.203125 44.09375 42.90625 62.203125 
L 4.59375 62.203125 
L 4.59375 70.90625 
z
" id="FreeSans-55"/>
     </defs>
     <use xlink:href="#FreeSans-114"/>
     <use x="33.199997" xlink:href="#FreeSans-82"/>
     <use x="104.099991" xlink:href="#FreeSans-69"/>
     <use x="167.399979" xlink:href="#FreeSans-71"/>
     <use x="243.899963" xlink:href="#FreeSans-78"/>
     <use x="316.899948" xlink:href="#FreeSans-49"/>
     <use x="372.499939" xlink:href="#FreeSans-48"/>
     <use x="428.09993" xlink:href="#FreeSans-57"/>
     <use x="483.699921" xlink:href="#FreeSans-56"/>
     <use x="539.299911" xlink:href="#FreeSans-55"/>
    </g>
    <!-- (50ug/mL) -->
    <g style="fill:#262626;" transform="translate(198.158656 39.994313)scale(0.18 -0.18)">
     <use xlink:href="#FreeSans-40"/>
     <use x="33.299988" xlink:href="#FreeSans-53"/>
     <use x="88.899979" xlink:href="#FreeSans-48"/>
     <use x="144.499969" xlink:href="#FreeSans-117"/>
     <use x="198.199966" xlink:href="#FreeSans-103"/>
     <use x="253.199951" xlink:href="#FreeSans-47"/>
     <use x="280.999939" xlink:href="#FreeSans-109"/>
     <use x="362.199921" xlink:href="#FreeSans-76"/>
     <use x="418.499908" xlink:href="#FreeSans-41"/>
    </g>
   </g>
  </g>
 </g>
 <defs>
  <clipPath id="p61882ce954">
   <rect height="110.88" width="108" x="69.618969" y="50.857576"/>
  </clipPath>
  <clipPath id="p829d8341d2">
   <path d="M 320.018969 70.577576 
L 320.018969 52.577576 
L 338.018969 52.577576 
L 338.018969 70.577576 
"/>
  </clipPath>
  <clipPath id="p1a98e82edd">
   <path d="M 320.018969 90.577576 
L 320.018969 72.577576 
L 338.018969 72.577576 
L 338.018969 90.577576 
"/>
  </clipPath>
  <clipPath id="pbf673dcb71">
   <path d="M 320.018969 163.624139 
L 320.018969 145.624139 
L 338.018969 145.624139 
L 338.018969 163.624139 
"/>
  </clipPath>
  <clipPath id="pfc45759898">
   <path d="M 320.018969 183.624139 
L 320.018969 165.624139 
L 338.018969 165.624139 
L 338.018969 183.624139 
"/>
  </clipPath>
  <clipPath id="pade4e7bc5d">
   <rect height="110.88" width="108" x="184.818969" y="50.857576"/>
  </clipPath>
 </defs>
</svg>
