<?xml version="1.0" encoding="utf-8" standalone="no"?>
<!DOCTYPE svg PUBLIC "-//W3C//DTD SVG 1.1//EN"
  "http://www.w3.org/Graphics/SVG/1.1/DTD/svg11.dtd">
<!-- Created with matplotlib (https://matplotlib.org/) -->
<svg height="236.952687pt" version="1.1" viewBox="0 0 274.208687 236.952687" width="274.208687pt" xmlns="http://www.w3.org/2000/svg" xmlns:xlink="http://www.w3.org/1999/xlink">
 <metadata>
  <rdf:RDF xmlns:cc="http://creativecommons.org/ns#" xmlns:dc="http://purl.org/dc/elements/1.1/" xmlns:rdf="http://www.w3.org/1999/02/22-rdf-syntax-ns#">
   <cc:Work>
    <dc:type rdf:resource="http://purl.org/dc/dcmitype/StillImage"/>
    <dc:date>2020-12-21T13:55:34.308908</dc:date>
    <dc:format>image/svg+xml</dc:format>
    <dc:creator>
     <cc:Agent>
      <dc:title>Matplotlib v3.3.2, https://matplotlib.org/</dc:title>
     </cc:Agent>
    </dc:creator>
   </cc:Work>
  </rdf:RDF>
 </metadata>
 <defs>
  <style type="text/css">*{stroke-linecap:butt;stroke-linejoin:round;}</style>
 </defs>
 <g id="figure_1">
  <g id="patch_1">
   <path d="M 0 236.952687 
L 274.208687 236.952687 
L 274.208687 0 
L 0 0 
z
" style="fill:#ffffff;stroke:#ffffff;stroke-linejoin:miter;"/>
  </g>
  <g id="axes_1">
   <g id="patch_2">
    <path d="M 43.808688 201.24 
L 267.008688 201.24 
L 267.008688 7.2 
L 43.808688 7.2 
z
" style="fill:#ffffff;"/>
   </g>
   <g id="matplotlib.axis_1">
    <g id="xtick_1">
     <g id="line2d_1">
      <path d="M 91.504864 201.24 
" style="fill:none;stroke:#333333;stroke-width:1.5;"/>
      <defs>
       <path d="M 0 0 
L 0 2.75 
" id="m1a4ce49116" style="stroke:#000000;"/>
      </defs>
      <g>
       <use style="fill:#333333;stroke:#000000;" x="91.504864" xlink:href="#m1a4ce49116" y="201.24"/>
      </g>
     </g>
     <g id="text_1">
      <!-- 1e2 -->
      <g style="fill:#4d4d4d;" transform="translate(83.198489 212.876625)scale(0.088 -0.088)">
       <defs>
        <path d="M 12.40625 8.296875 
L 28.515625 8.296875 
L 28.515625 63.921875 
L 10.984375 60.40625 
L 10.984375 69.390625 
L 28.421875 72.90625 
L 38.28125 72.90625 
L 38.28125 8.296875 
L 54.390625 8.296875 
L 54.390625 0 
L 12.40625 0 
z
" id="DejaVuSans-49"/>
        <path d="M 56.203125 29.59375 
L 56.203125 25.203125 
L 14.890625 25.203125 
Q 15.484375 15.921875 20.484375 11.0625 
Q 25.484375 6.203125 34.421875 6.203125 
Q 39.59375 6.203125 44.453125 7.46875 
Q 49.3125 8.734375 54.109375 11.28125 
L 54.109375 2.78125 
Q 49.265625 0.734375 44.1875 -0.34375 
Q 39.109375 -1.421875 33.890625 -1.421875 
Q 20.796875 -1.421875 13.15625 6.1875 
Q 5.515625 13.8125 5.515625 26.8125 
Q 5.515625 40.234375 12.765625 48.109375 
Q 20.015625 56 32.328125 56 
Q 43.359375 56 49.78125 48.890625 
Q 56.203125 41.796875 56.203125 29.59375 
z
M 47.21875 32.234375 
Q 47.125 39.59375 43.09375 43.984375 
Q 39.0625 48.390625 32.421875 48.390625 
Q 24.90625 48.390625 20.390625 44.140625 
Q 15.875 39.890625 15.1875 32.171875 
z
" id="DejaVuSans-101"/>
        <path d="M 19.1875 8.296875 
L 53.609375 8.296875 
L 53.609375 0 
L 7.328125 0 
L 7.328125 8.296875 
Q 12.9375 14.109375 22.625 23.890625 
Q 32.328125 33.6875 34.8125 36.53125 
Q 39.546875 41.84375 41.421875 45.53125 
Q 43.3125 49.21875 43.3125 52.78125 
Q 43.3125 58.59375 39.234375 62.25 
Q 35.15625 65.921875 28.609375 65.921875 
Q 23.96875 65.921875 18.8125 64.3125 
Q 13.671875 62.703125 7.8125 59.421875 
L 7.8125 69.390625 
Q 13.765625 71.78125 18.9375 73 
Q 24.125 74.21875 28.421875 74.21875 
Q 39.75 74.21875 46.484375 68.546875 
Q 53.21875 62.890625 53.21875 53.421875 
Q 53.21875 48.921875 51.53125 44.890625 
Q 49.859375 40.875 45.40625 35.40625 
Q 44.1875 33.984375 37.640625 27.21875 
Q 31.109375 20.453125 19.1875 8.296875 
z
" id="DejaVuSans-50"/>
       </defs>
       <use xlink:href="#DejaVuSans-49"/>
       <use x="63.623047" xlink:href="#DejaVuSans-101"/>
       <use x="125.146484" xlink:href="#DejaVuSans-50"/>
      </g>
     </g>
    </g>
    <g id="xtick_2">
     <g id="line2d_2">
      <path d="M 171.97621 201.24 
" style="fill:none;stroke:#333333;stroke-width:1.5;"/>
      <g>
       <use style="fill:#333333;stroke:#000000;" x="171.97621" xlink:href="#m1a4ce49116" y="201.24"/>
      </g>
     </g>
     <g id="text_2">
      <!-- 1e3 -->
      <g style="fill:#4d4d4d;" transform="translate(163.669835 212.876625)scale(0.088 -0.088)">
       <defs>
        <path d="M 40.578125 39.3125 
Q 47.65625 37.796875 51.625 33 
Q 55.609375 28.21875 55.609375 21.1875 
Q 55.609375 10.40625 48.1875 4.484375 
Q 40.765625 -1.421875 27.09375 -1.421875 
Q 22.515625 -1.421875 17.65625 -0.515625 
Q 12.796875 0.390625 7.625 2.203125 
L 7.625 11.71875 
Q 11.71875 9.328125 16.59375 8.109375 
Q 21.484375 6.890625 26.8125 6.890625 
Q 36.078125 6.890625 40.9375 10.546875 
Q 45.796875 14.203125 45.796875 21.1875 
Q 45.796875 27.640625 41.28125 31.265625 
Q 36.765625 34.90625 28.71875 34.90625 
L 20.21875 34.90625 
L 20.21875 43.015625 
L 29.109375 43.015625 
Q 36.375 43.015625 40.234375 45.921875 
Q 44.09375 48.828125 44.09375 54.296875 
Q 44.09375 59.90625 40.109375 62.90625 
Q 36.140625 65.921875 28.71875 65.921875 
Q 24.65625 65.921875 20.015625 65.03125 
Q 15.375 64.15625 9.8125 62.3125 
L 9.8125 71.09375 
Q 15.4375 72.65625 20.34375 73.4375 
Q 25.25 74.21875 29.59375 74.21875 
Q 40.828125 74.21875 47.359375 69.109375 
Q 53.90625 64.015625 53.90625 55.328125 
Q 53.90625 49.265625 50.4375 45.09375 
Q 46.96875 40.921875 40.578125 39.3125 
z
" id="DejaVuSans-51"/>
       </defs>
       <use xlink:href="#DejaVuSans-49"/>
       <use x="63.623047" xlink:href="#DejaVuSans-101"/>
       <use x="125.146484" xlink:href="#DejaVuSans-51"/>
      </g>
     </g>
    </g>
    <g id="xtick_3">
     <g id="line2d_3">
      <path d="M 252.447555 201.24 
" style="fill:none;stroke:#333333;stroke-width:1.5;"/>
      <g>
       <use style="fill:#333333;stroke:#000000;" x="252.447555" xlink:href="#m1a4ce49116" y="201.24"/>
      </g>
     </g>
     <g id="text_3">
      <!-- 1e4 -->
      <g style="fill:#4d4d4d;" transform="translate(244.14118 212.876625)scale(0.088 -0.088)">
       <defs>
        <path d="M 37.796875 64.3125 
L 12.890625 25.390625 
L 37.796875 25.390625 
z
M 35.203125 72.90625 
L 47.609375 72.90625 
L 47.609375 25.390625 
L 58.015625 25.390625 
L 58.015625 17.1875 
L 47.609375 17.1875 
L 47.609375 0 
L 37.796875 0 
L 37.796875 17.1875 
L 4.890625 17.1875 
L 4.890625 26.703125 
z
" id="DejaVuSans-52"/>
       </defs>
       <use xlink:href="#DejaVuSans-49"/>
       <use x="63.623047" xlink:href="#DejaVuSans-101"/>
       <use x="125.146484" xlink:href="#DejaVuSans-52"/>
      </g>
     </g>
    </g>
    <g id="xtick_4"/>
    <g id="xtick_5"/>
    <g id="xtick_6"/>
    <g id="xtick_7"/>
    <g id="xtick_8"/>
    <g id="xtick_9"/>
    <g id="xtick_10"/>
    <g id="xtick_11"/>
    <g id="xtick_12"/>
    <g id="xtick_13"/>
    <g id="xtick_14"/>
    <g id="xtick_15"/>
    <g id="xtick_16"/>
    <g id="xtick_17"/>
    <g id="xtick_18"/>
    <g id="xtick_19"/>
    <g id="xtick_20"/>
    <g id="xtick_21"/>
    <g id="xtick_22"/>
    <g id="xtick_23"/>
    <g id="xtick_24"/>
    <g id="xtick_25"/>
    <g id="xtick_26"/>
    <g id="text_4">
     <!-- Crawford et al. NT50 (D614) -->
     <g transform="translate(74.204547 227.465031)scale(0.11 -0.11)">
      <defs>
       <path d="M 64.40625 67.28125 
L 64.40625 56.890625 
Q 59.421875 61.53125 53.78125 63.8125 
Q 48.140625 66.109375 41.796875 66.109375 
Q 29.296875 66.109375 22.65625 58.46875 
Q 16.015625 50.828125 16.015625 36.375 
Q 16.015625 21.96875 22.65625 14.328125 
Q 29.296875 6.6875 41.796875 6.6875 
Q 48.140625 6.6875 53.78125 8.984375 
Q 59.421875 11.28125 64.40625 15.921875 
L 64.40625 5.609375 
Q 59.234375 2.09375 53.4375 0.328125 
Q 47.65625 -1.421875 41.21875 -1.421875 
Q 24.65625 -1.421875 15.125 8.703125 
Q 5.609375 18.84375 5.609375 36.375 
Q 5.609375 53.953125 15.125 64.078125 
Q 24.65625 74.21875 41.21875 74.21875 
Q 47.75 74.21875 53.53125 72.484375 
Q 59.328125 70.75 64.40625 67.28125 
z
" id="DejaVuSans-67"/>
       <path d="M 41.109375 46.296875 
Q 39.59375 47.171875 37.8125 47.578125 
Q 36.03125 48 33.890625 48 
Q 26.265625 48 22.1875 43.046875 
Q 18.109375 38.09375 18.109375 28.8125 
L 18.109375 0 
L 9.078125 0 
L 9.078125 54.6875 
L 18.109375 54.6875 
L 18.109375 46.1875 
Q 20.953125 51.171875 25.484375 53.578125 
Q 30.03125 56 36.53125 56 
Q 37.453125 56 38.578125 55.875 
Q 39.703125 55.765625 41.0625 55.515625 
z
" id="DejaVuSans-114"/>
       <path d="M 34.28125 27.484375 
Q 23.390625 27.484375 19.1875 25 
Q 14.984375 22.515625 14.984375 16.5 
Q 14.984375 11.71875 18.140625 8.90625 
Q 21.296875 6.109375 26.703125 6.109375 
Q 34.1875 6.109375 38.703125 11.40625 
Q 43.21875 16.703125 43.21875 25.484375 
L 43.21875 27.484375 
z
M 52.203125 31.203125 
L 52.203125 0 
L 43.21875 0 
L 43.21875 8.296875 
Q 40.140625 3.328125 35.546875 0.953125 
Q 30.953125 -1.421875 24.3125 -1.421875 
Q 15.921875 -1.421875 10.953125 3.296875 
Q 6 8.015625 6 15.921875 
Q 6 25.140625 12.171875 29.828125 
Q 18.359375 34.515625 30.609375 34.515625 
L 43.21875 34.515625 
L 43.21875 35.40625 
Q 43.21875 41.609375 39.140625 45 
Q 35.0625 48.390625 27.6875 48.390625 
Q 23 48.390625 18.546875 47.265625 
Q 14.109375 46.140625 10.015625 43.890625 
L 10.015625 52.203125 
Q 14.9375 54.109375 19.578125 55.046875 
Q 24.21875 56 28.609375 56 
Q 40.484375 56 46.34375 49.84375 
Q 52.203125 43.703125 52.203125 31.203125 
z
" id="DejaVuSans-97"/>
       <path d="M 4.203125 54.6875 
L 13.1875 54.6875 
L 24.421875 12.015625 
L 35.59375 54.6875 
L 46.1875 54.6875 
L 57.421875 12.015625 
L 68.609375 54.6875 
L 77.59375 54.6875 
L 63.28125 0 
L 52.6875 0 
L 40.921875 44.828125 
L 29.109375 0 
L 18.5 0 
z
" id="DejaVuSans-119"/>
       <path d="M 37.109375 75.984375 
L 37.109375 68.5 
L 28.515625 68.5 
Q 23.6875 68.5 21.796875 66.546875 
Q 19.921875 64.59375 19.921875 59.515625 
L 19.921875 54.6875 
L 34.71875 54.6875 
L 34.71875 47.703125 
L 19.921875 47.703125 
L 19.921875 0 
L 10.890625 0 
L 10.890625 47.703125 
L 2.296875 47.703125 
L 2.296875 54.6875 
L 10.890625 54.6875 
L 10.890625 58.5 
Q 10.890625 67.625 15.140625 71.796875 
Q 19.390625 75.984375 28.609375 75.984375 
z
" id="DejaVuSans-102"/>
       <path d="M 30.609375 48.390625 
Q 23.390625 48.390625 19.1875 42.75 
Q 14.984375 37.109375 14.984375 27.296875 
Q 14.984375 17.484375 19.15625 11.84375 
Q 23.34375 6.203125 30.609375 6.203125 
Q 37.796875 6.203125 41.984375 11.859375 
Q 46.1875 17.53125 46.1875 27.296875 
Q 46.1875 37.015625 41.984375 42.703125 
Q 37.796875 48.390625 30.609375 48.390625 
z
M 30.609375 56 
Q 42.328125 56 49.015625 48.375 
Q 55.71875 40.765625 55.71875 27.296875 
Q 55.71875 13.875 49.015625 6.21875 
Q 42.328125 -1.421875 30.609375 -1.421875 
Q 18.84375 -1.421875 12.171875 6.21875 
Q 5.515625 13.875 5.515625 27.296875 
Q 5.515625 40.765625 12.171875 48.375 
Q 18.84375 56 30.609375 56 
z
" id="DejaVuSans-111"/>
       <path d="M 45.40625 46.390625 
L 45.40625 75.984375 
L 54.390625 75.984375 
L 54.390625 0 
L 45.40625 0 
L 45.40625 8.203125 
Q 42.578125 3.328125 38.25 0.953125 
Q 33.9375 -1.421875 27.875 -1.421875 
Q 17.96875 -1.421875 11.734375 6.484375 
Q 5.515625 14.40625 5.515625 27.296875 
Q 5.515625 40.1875 11.734375 48.09375 
Q 17.96875 56 27.875 56 
Q 33.9375 56 38.25 53.625 
Q 42.578125 51.265625 45.40625 46.390625 
z
M 14.796875 27.296875 
Q 14.796875 17.390625 18.875 11.75 
Q 22.953125 6.109375 30.078125 6.109375 
Q 37.203125 6.109375 41.296875 11.75 
Q 45.40625 17.390625 45.40625 27.296875 
Q 45.40625 37.203125 41.296875 42.84375 
Q 37.203125 48.484375 30.078125 48.484375 
Q 22.953125 48.484375 18.875 42.84375 
Q 14.796875 37.203125 14.796875 27.296875 
z
" id="DejaVuSans-100"/>
       <path id="DejaVuSans-32"/>
       <path d="M 18.3125 70.21875 
L 18.3125 54.6875 
L 36.8125 54.6875 
L 36.8125 47.703125 
L 18.3125 47.703125 
L 18.3125 18.015625 
Q 18.3125 11.328125 20.140625 9.421875 
Q 21.96875 7.515625 27.59375 7.515625 
L 36.8125 7.515625 
L 36.8125 0 
L 27.59375 0 
Q 17.1875 0 13.234375 3.875 
Q 9.28125 7.765625 9.28125 18.015625 
L 9.28125 47.703125 
L 2.6875 47.703125 
L 2.6875 54.6875 
L 9.28125 54.6875 
L 9.28125 70.21875 
z
" id="DejaVuSans-116"/>
       <path d="M 9.421875 75.984375 
L 18.40625 75.984375 
L 18.40625 0 
L 9.421875 0 
z
" id="DejaVuSans-108"/>
       <path d="M 10.6875 12.40625 
L 21 12.40625 
L 21 0 
L 10.6875 0 
z
" id="DejaVuSans-46"/>
       <path d="M 9.8125 72.90625 
L 23.09375 72.90625 
L 55.421875 11.921875 
L 55.421875 72.90625 
L 64.984375 72.90625 
L 64.984375 0 
L 51.703125 0 
L 19.390625 60.984375 
L 19.390625 0 
L 9.8125 0 
z
" id="DejaVuSans-78"/>
       <path d="M -0.296875 72.90625 
L 61.375 72.90625 
L 61.375 64.59375 
L 35.5 64.59375 
L 35.5 0 
L 25.59375 0 
L 25.59375 64.59375 
L -0.296875 64.59375 
z
" id="DejaVuSans-84"/>
       <path d="M 10.796875 72.90625 
L 49.515625 72.90625 
L 49.515625 64.59375 
L 19.828125 64.59375 
L 19.828125 46.734375 
Q 21.96875 47.46875 24.109375 47.828125 
Q 26.265625 48.1875 28.421875 48.1875 
Q 40.625 48.1875 47.75 41.5 
Q 54.890625 34.8125 54.890625 23.390625 
Q 54.890625 11.625 47.5625 5.09375 
Q 40.234375 -1.421875 26.90625 -1.421875 
Q 22.3125 -1.421875 17.546875 -0.640625 
Q 12.796875 0.140625 7.71875 1.703125 
L 7.71875 11.625 
Q 12.109375 9.234375 16.796875 8.0625 
Q 21.484375 6.890625 26.703125 6.890625 
Q 35.15625 6.890625 40.078125 11.328125 
Q 45.015625 15.765625 45.015625 23.390625 
Q 45.015625 31 40.078125 35.4375 
Q 35.15625 39.890625 26.703125 39.890625 
Q 22.75 39.890625 18.8125 39.015625 
Q 14.890625 38.140625 10.796875 36.28125 
z
" id="DejaVuSans-53"/>
       <path d="M 31.78125 66.40625 
Q 24.171875 66.40625 20.328125 58.90625 
Q 16.5 51.421875 16.5 36.375 
Q 16.5 21.390625 20.328125 13.890625 
Q 24.171875 6.390625 31.78125 6.390625 
Q 39.453125 6.390625 43.28125 13.890625 
Q 47.125 21.390625 47.125 36.375 
Q 47.125 51.421875 43.28125 58.90625 
Q 39.453125 66.40625 31.78125 66.40625 
z
M 31.78125 74.21875 
Q 44.046875 74.21875 50.515625 64.515625 
Q 56.984375 54.828125 56.984375 36.375 
Q 56.984375 17.96875 50.515625 8.265625 
Q 44.046875 -1.421875 31.78125 -1.421875 
Q 19.53125 -1.421875 13.0625 8.265625 
Q 6.59375 17.96875 6.59375 36.375 
Q 6.59375 54.828125 13.0625 64.515625 
Q 19.53125 74.21875 31.78125 74.21875 
z
" id="DejaVuSans-48"/>
       <path d="M 31 75.875 
Q 24.46875 64.65625 21.28125 53.65625 
Q 18.109375 42.671875 18.109375 31.390625 
Q 18.109375 20.125 21.3125 9.0625 
Q 24.515625 -2 31 -13.1875 
L 23.1875 -13.1875 
Q 15.875 -1.703125 12.234375 9.375 
Q 8.59375 20.453125 8.59375 31.390625 
Q 8.59375 42.28125 12.203125 53.3125 
Q 15.828125 64.359375 23.1875 75.875 
z
" id="DejaVuSans-40"/>
       <path d="M 19.671875 64.796875 
L 19.671875 8.109375 
L 31.59375 8.109375 
Q 46.6875 8.109375 53.6875 14.9375 
Q 60.6875 21.78125 60.6875 36.53125 
Q 60.6875 51.171875 53.6875 57.984375 
Q 46.6875 64.796875 31.59375 64.796875 
z
M 9.8125 72.90625 
L 30.078125 72.90625 
Q 51.265625 72.90625 61.171875 64.09375 
Q 71.09375 55.28125 71.09375 36.53125 
Q 71.09375 17.671875 61.125 8.828125 
Q 51.171875 0 30.078125 0 
L 9.8125 0 
z
" id="DejaVuSans-68"/>
       <path d="M 33.015625 40.375 
Q 26.375 40.375 22.484375 35.828125 
Q 18.609375 31.296875 18.609375 23.390625 
Q 18.609375 15.53125 22.484375 10.953125 
Q 26.375 6.390625 33.015625 6.390625 
Q 39.65625 6.390625 43.53125 10.953125 
Q 47.40625 15.53125 47.40625 23.390625 
Q 47.40625 31.296875 43.53125 35.828125 
Q 39.65625 40.375 33.015625 40.375 
z
M 52.59375 71.296875 
L 52.59375 62.3125 
Q 48.875 64.0625 45.09375 64.984375 
Q 41.3125 65.921875 37.59375 65.921875 
Q 27.828125 65.921875 22.671875 59.328125 
Q 17.53125 52.734375 16.796875 39.40625 
Q 19.671875 43.65625 24.015625 45.921875 
Q 28.375 48.1875 33.59375 48.1875 
Q 44.578125 48.1875 50.953125 41.515625 
Q 57.328125 34.859375 57.328125 23.390625 
Q 57.328125 12.15625 50.6875 5.359375 
Q 44.046875 -1.421875 33.015625 -1.421875 
Q 20.359375 -1.421875 13.671875 8.265625 
Q 6.984375 17.96875 6.984375 36.375 
Q 6.984375 53.65625 15.1875 63.9375 
Q 23.390625 74.21875 37.203125 74.21875 
Q 40.921875 74.21875 44.703125 73.484375 
Q 48.484375 72.75 52.59375 71.296875 
z
" id="DejaVuSans-54"/>
       <path d="M 8.015625 75.875 
L 15.828125 75.875 
Q 23.140625 64.359375 26.78125 53.3125 
Q 30.421875 42.28125 30.421875 31.390625 
Q 30.421875 20.453125 26.78125 9.375 
Q 23.140625 -1.703125 15.828125 -13.1875 
L 8.015625 -13.1875 
Q 14.5 -2 17.703125 9.0625 
Q 20.90625 20.125 20.90625 31.390625 
Q 20.90625 42.671875 17.703125 53.65625 
Q 14.5 64.65625 8.015625 75.875 
z
" id="DejaVuSans-41"/>
      </defs>
      <use xlink:href="#DejaVuSans-67"/>
      <use x="69.824219" xlink:href="#DejaVuSans-114"/>
      <use x="110.9375" xlink:href="#DejaVuSans-97"/>
      <use x="172.216797" xlink:href="#DejaVuSans-119"/>
      <use x="254.003906" xlink:href="#DejaVuSans-102"/>
      <use x="289.208984" xlink:href="#DejaVuSans-111"/>
      <use x="350.390625" xlink:href="#DejaVuSans-114"/>
      <use x="389.753906" xlink:href="#DejaVuSans-100"/>
      <use x="453.230469" xlink:href="#DejaVuSans-32"/>
      <use x="485.017578" xlink:href="#DejaVuSans-101"/>
      <use x="546.541016" xlink:href="#DejaVuSans-116"/>
      <use x="585.75" xlink:href="#DejaVuSans-32"/>
      <use x="617.537109" xlink:href="#DejaVuSans-97"/>
      <use x="678.816406" xlink:href="#DejaVuSans-108"/>
      <use x="706.599609" xlink:href="#DejaVuSans-46"/>
      <use x="738.386719" xlink:href="#DejaVuSans-32"/>
      <use x="770.173828" xlink:href="#DejaVuSans-78"/>
      <use x="844.978516" xlink:href="#DejaVuSans-84"/>
      <use x="906.0625" xlink:href="#DejaVuSans-53"/>
      <use x="969.685547" xlink:href="#DejaVuSans-48"/>
      <use x="1033.308594" xlink:href="#DejaVuSans-32"/>
      <use x="1065.095703" xlink:href="#DejaVuSans-40"/>
      <use x="1104.109375" xlink:href="#DejaVuSans-68"/>
      <use x="1181.111328" xlink:href="#DejaVuSans-54"/>
      <use x="1244.734375" xlink:href="#DejaVuSans-49"/>
      <use x="1308.357422" xlink:href="#DejaVuSans-52"/>
      <use x="1371.980469" xlink:href="#DejaVuSans-41"/>
     </g>
    </g>
   </g>
   <g id="matplotlib.axis_2">
    <g id="ytick_1">
     <g id="line2d_4">
      <path d="M 43.808688 165.421517 
" style="fill:none;stroke:#333333;stroke-width:1.5;"/>
      <defs>
       <path d="M 0 0 
L -2.75 0 
" id="mb5f94b99cd" style="stroke:#000000;"/>
      </defs>
      <g>
       <use style="fill:#333333;stroke:#000000;" x="43.808688" xlink:href="#mb5f94b99cd" y="165.421517"/>
      </g>
     </g>
     <g id="text_5">
      <!-- 1e2 -->
      <g style="fill:#4d4d4d;" transform="translate(22.245938 167.849767)scale(0.088 -0.088)">
       <use xlink:href="#DejaVuSans-49"/>
       <use x="63.623047" xlink:href="#DejaVuSans-101"/>
       <use x="125.146484" xlink:href="#DejaVuSans-50"/>
      </g>
     </g>
    </g>
    <g id="ytick_2">
     <g id="line2d_5">
      <path d="M 43.808688 104.88261 
" style="fill:none;stroke:#333333;stroke-width:1.5;"/>
      <g>
       <use style="fill:#333333;stroke:#000000;" x="43.808688" xlink:href="#mb5f94b99cd" y="104.88261"/>
      </g>
     </g>
     <g id="text_6">
      <!-- 1e3 -->
      <g style="fill:#4d4d4d;" transform="translate(22.245938 107.31086)scale(0.088 -0.088)">
       <use xlink:href="#DejaVuSans-49"/>
       <use x="63.623047" xlink:href="#DejaVuSans-101"/>
       <use x="125.146484" xlink:href="#DejaVuSans-51"/>
      </g>
     </g>
    </g>
    <g id="ytick_3">
     <g id="line2d_6">
      <path d="M 43.808688 44.343704 
" style="fill:none;stroke:#333333;stroke-width:1.5;"/>
      <g>
       <use style="fill:#333333;stroke:#000000;" x="43.808688" xlink:href="#mb5f94b99cd" y="44.343704"/>
      </g>
     </g>
     <g id="text_7">
      <!-- 1e4 -->
      <g style="fill:#4d4d4d;" transform="translate(22.245938 46.771954)scale(0.088 -0.088)">
       <use xlink:href="#DejaVuSans-49"/>
       <use x="63.623047" xlink:href="#DejaVuSans-101"/>
       <use x="125.146484" xlink:href="#DejaVuSans-52"/>
      </g>
     </g>
    </g>
    <g id="ytick_4"/>
    <g id="ytick_5"/>
    <g id="ytick_6"/>
    <g id="ytick_7"/>
    <g id="ytick_8"/>
    <g id="ytick_9"/>
    <g id="ytick_10"/>
    <g id="ytick_11"/>
    <g id="ytick_12"/>
    <g id="ytick_13"/>
    <g id="ytick_14"/>
    <g id="ytick_15"/>
    <g id="ytick_16"/>
    <g id="ytick_17"/>
    <g id="ytick_18"/>
    <g id="ytick_19"/>
    <g id="ytick_20"/>
    <g id="ytick_21"/>
    <g id="ytick_22"/>
    <g id="ytick_23"/>
    <g id="ytick_24"/>
    <g id="ytick_25"/>
    <g id="ytick_26"/>
    <g id="ytick_27"/>
    <g id="ytick_28"/>
    <g id="ytick_29"/>
    <g id="text_8">
     <!-- pre-absorption NT50 (G614) -->
     <g transform="translate(15.558281 180.357891)rotate(-90)scale(0.11 -0.11)">
      <defs>
       <path d="M 18.109375 8.203125 
L 18.109375 -20.796875 
L 9.078125 -20.796875 
L 9.078125 54.6875 
L 18.109375 54.6875 
L 18.109375 46.390625 
Q 20.953125 51.265625 25.265625 53.625 
Q 29.59375 56 35.59375 56 
Q 45.5625 56 51.78125 48.09375 
Q 58.015625 40.1875 58.015625 27.296875 
Q 58.015625 14.40625 51.78125 6.484375 
Q 45.5625 -1.421875 35.59375 -1.421875 
Q 29.59375 -1.421875 25.265625 0.953125 
Q 20.953125 3.328125 18.109375 8.203125 
z
M 48.6875 27.296875 
Q 48.6875 37.203125 44.609375 42.84375 
Q 40.53125 48.484375 33.40625 48.484375 
Q 26.265625 48.484375 22.1875 42.84375 
Q 18.109375 37.203125 18.109375 27.296875 
Q 18.109375 17.390625 22.1875 11.75 
Q 26.265625 6.109375 33.40625 6.109375 
Q 40.53125 6.109375 44.609375 11.75 
Q 48.6875 17.390625 48.6875 27.296875 
z
" id="DejaVuSans-112"/>
       <path d="M 4.890625 31.390625 
L 31.203125 31.390625 
L 31.203125 23.390625 
L 4.890625 23.390625 
z
" id="DejaVuSans-45"/>
       <path d="M 48.6875 27.296875 
Q 48.6875 37.203125 44.609375 42.84375 
Q 40.53125 48.484375 33.40625 48.484375 
Q 26.265625 48.484375 22.1875 42.84375 
Q 18.109375 37.203125 18.109375 27.296875 
Q 18.109375 17.390625 22.1875 11.75 
Q 26.265625 6.109375 33.40625 6.109375 
Q 40.53125 6.109375 44.609375 11.75 
Q 48.6875 17.390625 48.6875 27.296875 
z
M 18.109375 46.390625 
Q 20.953125 51.265625 25.265625 53.625 
Q 29.59375 56 35.59375 56 
Q 45.5625 56 51.78125 48.09375 
Q 58.015625 40.1875 58.015625 27.296875 
Q 58.015625 14.40625 51.78125 6.484375 
Q 45.5625 -1.421875 35.59375 -1.421875 
Q 29.59375 -1.421875 25.265625 0.953125 
Q 20.953125 3.328125 18.109375 8.203125 
L 18.109375 0 
L 9.078125 0 
L 9.078125 75.984375 
L 18.109375 75.984375 
z
" id="DejaVuSans-98"/>
       <path d="M 44.28125 53.078125 
L 44.28125 44.578125 
Q 40.484375 46.53125 36.375 47.5 
Q 32.28125 48.484375 27.875 48.484375 
Q 21.1875 48.484375 17.84375 46.4375 
Q 14.5 44.390625 14.5 40.28125 
Q 14.5 37.15625 16.890625 35.375 
Q 19.28125 33.59375 26.515625 31.984375 
L 29.59375 31.296875 
Q 39.15625 29.25 43.1875 25.515625 
Q 47.21875 21.78125 47.21875 15.09375 
Q 47.21875 7.46875 41.1875 3.015625 
Q 35.15625 -1.421875 24.609375 -1.421875 
Q 20.21875 -1.421875 15.453125 -0.5625 
Q 10.6875 0.296875 5.421875 2 
L 5.421875 11.28125 
Q 10.40625 8.6875 15.234375 7.390625 
Q 20.0625 6.109375 24.8125 6.109375 
Q 31.15625 6.109375 34.5625 8.28125 
Q 37.984375 10.453125 37.984375 14.40625 
Q 37.984375 18.0625 35.515625 20.015625 
Q 33.0625 21.96875 24.703125 23.78125 
L 21.578125 24.515625 
Q 13.234375 26.265625 9.515625 29.90625 
Q 5.8125 33.546875 5.8125 39.890625 
Q 5.8125 47.609375 11.28125 51.796875 
Q 16.75 56 26.8125 56 
Q 31.78125 56 36.171875 55.265625 
Q 40.578125 54.546875 44.28125 53.078125 
z
" id="DejaVuSans-115"/>
       <path d="M 9.421875 54.6875 
L 18.40625 54.6875 
L 18.40625 0 
L 9.421875 0 
z
M 9.421875 75.984375 
L 18.40625 75.984375 
L 18.40625 64.59375 
L 9.421875 64.59375 
z
" id="DejaVuSans-105"/>
       <path d="M 54.890625 33.015625 
L 54.890625 0 
L 45.90625 0 
L 45.90625 32.71875 
Q 45.90625 40.484375 42.875 44.328125 
Q 39.84375 48.1875 33.796875 48.1875 
Q 26.515625 48.1875 22.3125 43.546875 
Q 18.109375 38.921875 18.109375 30.90625 
L 18.109375 0 
L 9.078125 0 
L 9.078125 54.6875 
L 18.109375 54.6875 
L 18.109375 46.1875 
Q 21.34375 51.125 25.703125 53.5625 
Q 30.078125 56 35.796875 56 
Q 45.21875 56 50.046875 50.171875 
Q 54.890625 44.34375 54.890625 33.015625 
z
" id="DejaVuSans-110"/>
       <path d="M 59.515625 10.40625 
L 59.515625 29.984375 
L 43.40625 29.984375 
L 43.40625 38.09375 
L 69.28125 38.09375 
L 69.28125 6.78125 
Q 63.578125 2.734375 56.6875 0.65625 
Q 49.8125 -1.421875 42 -1.421875 
Q 24.90625 -1.421875 15.25 8.5625 
Q 5.609375 18.5625 5.609375 36.375 
Q 5.609375 54.25 15.25 64.234375 
Q 24.90625 74.21875 42 74.21875 
Q 49.125 74.21875 55.546875 72.453125 
Q 61.96875 70.703125 67.390625 67.28125 
L 67.390625 56.78125 
Q 61.921875 61.421875 55.765625 63.765625 
Q 49.609375 66.109375 42.828125 66.109375 
Q 29.4375 66.109375 22.71875 58.640625 
Q 16.015625 51.171875 16.015625 36.375 
Q 16.015625 21.625 22.71875 14.15625 
Q 29.4375 6.6875 42.828125 6.6875 
Q 48.046875 6.6875 52.140625 7.59375 
Q 56.25 8.5 59.515625 10.40625 
z
" id="DejaVuSans-71"/>
      </defs>
      <use xlink:href="#DejaVuSans-112"/>
      <use x="63.476562" xlink:href="#DejaVuSans-114"/>
      <use x="102.339844" xlink:href="#DejaVuSans-101"/>
      <use x="163.863281" xlink:href="#DejaVuSans-45"/>
      <use x="199.947266" xlink:href="#DejaVuSans-97"/>
      <use x="261.226562" xlink:href="#DejaVuSans-98"/>
      <use x="324.703125" xlink:href="#DejaVuSans-115"/>
      <use x="376.802734" xlink:href="#DejaVuSans-111"/>
      <use x="437.984375" xlink:href="#DejaVuSans-114"/>
      <use x="479.097656" xlink:href="#DejaVuSans-112"/>
      <use x="542.574219" xlink:href="#DejaVuSans-116"/>
      <use x="581.783203" xlink:href="#DejaVuSans-105"/>
      <use x="609.566406" xlink:href="#DejaVuSans-111"/>
      <use x="670.748047" xlink:href="#DejaVuSans-110"/>
      <use x="734.126953" xlink:href="#DejaVuSans-32"/>
      <use x="765.914062" xlink:href="#DejaVuSans-78"/>
      <use x="840.71875" xlink:href="#DejaVuSans-84"/>
      <use x="901.802734" xlink:href="#DejaVuSans-53"/>
      <use x="965.425781" xlink:href="#DejaVuSans-48"/>
      <use x="1029.048828" xlink:href="#DejaVuSans-32"/>
      <use x="1060.835938" xlink:href="#DejaVuSans-40"/>
      <use x="1099.849609" xlink:href="#DejaVuSans-71"/>
      <use x="1177.339844" xlink:href="#DejaVuSans-54"/>
      <use x="1240.962891" xlink:href="#DejaVuSans-49"/>
      <use x="1304.585938" xlink:href="#DejaVuSans-52"/>
      <use x="1368.208984" xlink:href="#DejaVuSans-41"/>
     </g>
    </g>
   </g>
   <g id="PathCollection_1">
    <path clip-path="url(#pb5b6652b97)" d="M 126.933346 111.914237 
C 127.755952 111.914237 128.544976 111.587412 129.126646 111.005743 
C 129.708316 110.424073 130.035141 109.635048 130.035141 108.812443 
C 130.035141 107.989837 129.708316 107.200813 129.126646 106.619143 
C 128.544976 106.037473 127.755952 105.710649 126.933346 105.710649 
C 126.110741 105.710649 125.321717 106.037473 124.740047 106.619143 
C 124.158377 107.200813 123.831552 107.989837 123.831552 108.812443 
C 123.831552 109.635048 124.158377 110.424073 124.740047 111.005743 
C 125.321717 111.587412 126.110741 111.914237 126.933346 111.914237 
z
" style="fill-opacity:0.501961;stroke:#000000;stroke-opacity:0.501961;stroke-width:0.886227;"/>
    <path clip-path="url(#pb5b6652b97)" d="M 256.863233 57.273037 
C 257.685838 57.273037 258.474863 56.946213 259.056533 56.364543 
C 259.638203 55.782873 259.965027 54.993848 259.965027 54.171243 
C 259.965027 53.348638 259.638203 52.559613 259.056533 51.977943 
C 258.474863 51.396273 257.685838 51.069449 256.863233 51.069449 
C 256.040628 51.069449 255.251603 51.396273 254.669933 51.977943 
C 254.088263 52.559613 253.761439 53.348638 253.761439 54.171243 
C 253.761439 54.993848 254.088263 55.782873 254.669933 56.364543 
C 255.251603 56.946213 256.040628 57.273037 256.863233 57.273037 
z
" style="fill-opacity:0.501961;stroke:#000000;stroke-opacity:0.501961;stroke-width:0.886227;"/>
    <path clip-path="url(#pb5b6652b97)" d="M 222.889653 81.370406 
C 223.712259 81.370406 224.501283 81.043582 225.082953 80.461912 
C 225.664623 79.880242 225.991448 79.091218 225.991448 78.268612 
C 225.991448 77.446007 225.664623 76.656982 225.082953 76.075312 
C 224.501283 75.493642 223.712259 75.166818 222.889653 75.166818 
C 222.067048 75.166818 221.278023 75.493642 220.696354 76.075312 
C 220.114684 76.656982 219.787859 77.446007 219.787859 78.268612 
C 219.787859 79.091218 220.114684 79.880242 220.696354 80.461912 
C 221.278023 81.043582 222.067048 81.370406 222.889653 81.370406 
z
" style="fill-opacity:0.501961;stroke:#000000;stroke-opacity:0.501961;stroke-width:0.886227;"/>
    <path clip-path="url(#pb5b6652b97)" d="M 99.153422 141.000385 
C 99.976027 141.000385 100.765052 140.67356 101.346722 140.09189 
C 101.928392 139.51022 102.255216 138.721196 102.255216 137.898591 
C 102.255216 137.075985 101.928392 136.286961 101.346722 135.705291 
C 100.765052 135.123621 99.976027 134.796796 99.153422 134.796796 
C 98.330816 134.796796 97.541792 135.123621 96.960122 135.705291 
C 96.378452 136.286961 96.051628 137.075985 96.051628 137.898591 
C 96.051628 138.721196 96.378452 139.51022 96.960122 140.09189 
C 97.541792 140.67356 98.330816 141.000385 99.153422 141.000385 
z
" style="fill-opacity:0.501961;stroke:#000000;stroke-opacity:0.501961;stroke-width:0.886227;"/>
    <path clip-path="url(#pb5b6652b97)" d="M 155.685778 96.234986 
C 156.508384 96.234986 157.297408 95.908161 157.879078 95.326492 
C 158.460748 94.744822 158.787572 93.955797 158.787572 93.133192 
C 158.787572 92.310586 158.460748 91.521562 157.879078 90.939892 
C 157.297408 90.358222 156.508384 90.031398 155.685778 90.031398 
C 154.863173 90.031398 154.074148 90.358222 153.492478 90.939892 
C 152.910808 91.521562 152.583984 92.310586 152.583984 93.133192 
C 152.583984 93.955797 152.910808 94.744822 153.492478 95.326492 
C 154.074148 95.908161 154.863173 96.234986 155.685778 96.234986 
z
" style="fill-opacity:0.501961;stroke:#000000;stroke-opacity:0.501961;stroke-width:0.886227;"/>
    <path clip-path="url(#pb5b6652b97)" d="M 167.875111 99.458287 
C 168.697717 99.458287 169.486741 99.131463 170.068411 98.549793 
C 170.650081 97.968123 170.976906 97.179099 170.976906 96.356493 
C 170.976906 95.533888 170.650081 94.744863 170.068411 94.163193 
C 169.486741 93.581524 168.697717 93.254699 167.875111 93.254699 
C 167.052506 93.254699 166.263481 93.581524 165.681812 94.163193 
C 165.100142 94.744863 164.773317 95.533888 164.773317 96.356493 
C 164.773317 97.179099 165.100142 97.968123 165.681812 98.549793 
C 166.263481 99.131463 167.052506 99.458287 167.875111 99.458287 
z
" style="fill-opacity:0.501961;stroke:#000000;stroke-opacity:0.501961;stroke-width:0.886227;"/>
    <path clip-path="url(#pb5b6652b97)" d="M 233.176409 75.200057 
C 233.999014 75.200057 234.788039 74.873233 235.369709 74.291563 
C 235.951379 73.709893 236.278203 72.920869 236.278203 72.098263 
C 236.278203 71.275658 235.951379 70.486633 235.369709 69.904963 
C 234.788039 69.323293 233.999014 68.996469 233.176409 68.996469 
C 232.353804 68.996469 231.564779 69.323293 230.983109 69.904963 
C 230.401439 70.486633 230.074615 71.275658 230.074615 72.098263 
C 230.074615 72.920869 230.401439 73.709893 230.983109 74.291563 
C 231.564779 74.873233 232.353804 75.200057 233.176409 75.200057 
z
" style="fill-opacity:0.501961;stroke:#000000;stroke-opacity:0.501961;stroke-width:0.886227;"/>
    <path clip-path="url(#pb5b6652b97)" d="M 202.753201 112.871152 
C 203.575806 112.871152 204.364831 112.544328 204.946501 111.962658 
C 205.528171 111.380988 205.854995 110.591963 205.854995 109.769358 
C 205.854995 108.946752 205.528171 108.157728 204.946501 107.576058 
C 204.364831 106.994388 203.575806 106.667564 202.753201 106.667564 
C 201.930596 106.667564 201.141571 106.994388 200.559901 107.576058 
C 199.978231 108.157728 199.651407 108.946752 199.651407 109.769358 
C 199.651407 110.591963 199.978231 111.380988 200.559901 111.962658 
C 201.141571 112.544328 201.930596 112.871152 202.753201 112.871152 
z
" style="fill-opacity:0.501961;stroke:#000000;stroke-opacity:0.501961;stroke-width:0.886227;"/>
    <path clip-path="url(#pb5b6652b97)" d="M 149.252882 107.626383 
C 150.075487 107.626383 150.864512 107.299558 151.446182 106.717889 
C 152.027851 106.136219 152.354676 105.347194 152.354676 104.524589 
C 152.354676 103.701983 152.027851 102.912959 151.446182 102.331289 
C 150.864512 101.749619 150.075487 101.422795 149.252882 101.422795 
C 148.430276 101.422795 147.641252 101.749619 147.059582 102.331289 
C 146.477912 102.912959 146.151088 103.701983 146.151088 104.524589 
C 146.151088 105.347194 146.477912 106.136219 147.059582 106.717889 
C 147.641252 107.299558 148.430276 107.626383 149.252882 107.626383 
z
" style="fill-opacity:0.501961;stroke:#000000;stroke-opacity:0.501961;stroke-width:0.886227;"/>
    <path clip-path="url(#pb5b6652b97)" d="M 114.740479 117.123839 
C 115.563084 117.123839 116.352109 116.797014 116.933779 116.215344 
C 117.515448 115.633674 117.842273 114.84465 117.842273 114.022044 
C 117.842273 113.199439 117.515448 112.410414 116.933779 111.828745 
C 116.352109 111.247075 115.563084 110.92025 114.740479 110.92025 
C 113.917873 110.92025 113.128849 111.247075 112.547179 111.828745 
C 111.965509 112.410414 111.638685 113.199439 111.638685 114.022044 
C 111.638685 114.84465 111.965509 115.633674 112.547179 116.215344 
C 113.128849 116.797014 113.917873 117.123839 114.740479 117.123839 
z
" style="fill-opacity:0.501961;stroke:#000000;stroke-opacity:0.501961;stroke-width:0.886227;"/>
    <path clip-path="url(#pb5b6652b97)" d="M 153.447249 113.613229 
C 154.269855 113.613229 155.058879 113.286405 155.640549 112.704735 
C 156.222219 112.123065 156.549044 111.334041 156.549044 110.511435 
C 156.549044 109.68883 156.222219 108.899805 155.640549 108.318135 
C 155.058879 107.736465 154.269855 107.409641 153.447249 107.409641 
C 152.624644 107.409641 151.835619 107.736465 151.25395 108.318135 
C 150.67228 108.899805 150.345455 109.68883 150.345455 110.511435 
C 150.345455 111.334041 150.67228 112.123065 151.25395 112.704735 
C 151.835619 113.286405 152.624644 113.613229 153.447249 113.613229 
z
" style="fill-opacity:0.501961;stroke:#000000;stroke-opacity:0.501961;stroke-width:0.886227;"/>
    <path clip-path="url(#pb5b6652b97)" d="M 76.26947 159.521116 
C 77.092075 159.521116 77.8811 159.194291 78.46277 158.612621 
C 79.04444 158.030951 79.371264 157.241927 79.371264 156.419322 
C 79.371264 155.596716 79.04444 154.807692 78.46277 154.226022 
C 77.8811 153.644352 77.092075 153.317527 76.26947 153.317527 
C 75.446865 153.317527 74.65784 153.644352 74.07617 154.226022 
C 73.4945 154.807692 73.167676 155.596716 73.167676 156.419322 
C 73.167676 157.241927 73.4945 158.030951 74.07617 158.612621 
C 74.65784 159.194291 75.446865 159.521116 76.26947 159.521116 
z
" style="fill-opacity:0.501961;stroke:#000000;stroke-opacity:0.501961;stroke-width:0.886227;"/>
    <path clip-path="url(#pb5b6652b97)" d="M 116.944629 158.275239 
C 117.767234 158.275239 118.556259 157.948414 119.137928 157.366744 
C 119.719598 156.785074 120.046423 155.99605 120.046423 155.173444 
C 120.046423 154.350839 119.719598 153.561814 119.137928 152.980145 
C 118.556259 152.398475 117.767234 152.07165 116.944629 152.07165 
C 116.122023 152.07165 115.332999 152.398475 114.751329 152.980145 
C 114.169659 153.561814 113.842834 154.350839 113.842834 155.173444 
C 113.842834 155.99605 114.169659 156.785074 114.751329 157.366744 
C 115.332999 157.948414 116.122023 158.275239 116.944629 158.275239 
z
" style="fill-opacity:0.501961;stroke:#000000;stroke-opacity:0.501961;stroke-width:0.886227;"/>
    <path clip-path="url(#pb5b6652b97)" d="M 223.296169 19.121794 
C 224.118775 19.121794 224.907799 18.79497 225.489469 18.2133 
C 226.071139 17.63163 226.397964 16.842605 226.397964 16.02 
C 226.397964 15.197395 226.071139 14.40837 225.489469 13.8267 
C 224.907799 13.24503 224.118775 12.918206 223.296169 12.918206 
C 222.473564 12.918206 221.68454 13.24503 221.10287 13.8267 
C 220.5212 14.40837 220.194375 15.197395 220.194375 16.02 
C 220.194375 16.842605 220.5212 17.63163 221.10287 18.2133 
C 221.68454 18.79497 222.473564 19.121794 223.296169 19.121794 
z
" style="fill-opacity:0.501961;stroke:#000000;stroke-opacity:0.501961;stroke-width:0.886227;"/>
    <path clip-path="url(#pb5b6652b97)" d="M 95.02733 140.253392 
C 95.849935 140.253392 96.63896 139.926568 97.22063 139.344898 
C 97.802299 138.763228 98.129124 137.974204 98.129124 137.151598 
C 98.129124 136.328993 97.802299 135.539968 97.22063 134.958298 
C 96.63896 134.376629 95.849935 134.049804 95.02733 134.049804 
C 94.204724 134.049804 93.4157 134.376629 92.83403 134.958298 
C 92.25236 135.539968 91.925536 136.328993 91.925536 137.151598 
C 91.925536 137.974204 92.25236 138.763228 92.83403 139.344898 
C 93.4157 139.926568 94.204724 140.253392 95.02733 140.253392 
z
" style="fill-opacity:0.501961;stroke:#000000;stroke-opacity:0.501961;stroke-width:0.886227;"/>
    <path clip-path="url(#pb5b6652b97)" d="M 130.105626 119.688136 
C 130.928232 119.688136 131.717256 119.361311 132.298926 118.779641 
C 132.880596 118.197971 133.207421 117.408947 133.207421 116.586342 
C 133.207421 115.763736 132.880596 114.974712 132.298926 114.393042 
C 131.717256 113.811372 130.928232 113.484547 130.105626 113.484547 
C 129.283021 113.484547 128.493997 113.811372 127.912327 114.393042 
C 127.330657 114.974712 127.003832 115.763736 127.003832 116.586342 
C 127.003832 117.408947 127.330657 118.197971 127.912327 118.779641 
C 128.493997 119.361311 129.283021 119.688136 130.105626 119.688136 
z
" style="fill-opacity:0.501961;stroke:#000000;stroke-opacity:0.501961;stroke-width:0.886227;"/>
    <path clip-path="url(#pb5b6652b97)" d="M 183.540605 102.259648 
C 184.363211 102.259648 185.152235 101.932823 185.733905 101.351154 
C 186.315575 100.769484 186.6424 99.980459 186.6424 99.157854 
C 186.6424 98.335248 186.315575 97.546224 185.733905 96.964554 
C 185.152235 96.382884 184.363211 96.05606 183.540605 96.05606 
C 182.718 96.05606 181.928976 96.382884 181.347306 96.964554 
C 180.765636 97.546224 180.438811 98.335248 180.438811 99.157854 
C 180.438811 99.980459 180.765636 100.769484 181.347306 101.351154 
C 181.928976 101.932823 182.718 102.259648 183.540605 102.259648 
z
" style="fill-opacity:0.501961;stroke:#000000;stroke-opacity:0.501961;stroke-width:0.886227;"/>
    <path clip-path="url(#pb5b6652b97)" d="M 115.433504 121.972487 
C 116.256109 121.972487 117.045134 121.645662 117.626804 121.063993 
C 118.208474 120.482323 118.535298 119.693298 118.535298 118.870693 
C 118.535298 118.048087 118.208474 117.259063 117.626804 116.677393 
C 117.045134 116.095723 116.256109 115.768899 115.433504 115.768899 
C 114.610898 115.768899 113.821874 116.095723 113.240204 116.677393 
C 112.658534 117.259063 112.33171 118.048087 112.33171 118.870693 
C 112.33171 119.693298 112.658534 120.482323 113.240204 121.063993 
C 113.821874 121.645662 114.610898 121.972487 115.433504 121.972487 
z
" style="fill-opacity:0.501961;stroke:#000000;stroke-opacity:0.501961;stroke-width:0.886227;"/>
    <path clip-path="url(#pb5b6652b97)" d="M 97.36763 159.630398 
C 98.190235 159.630398 98.97926 159.303573 99.560929 158.721904 
C 100.142599 158.140234 100.469424 157.351209 100.469424 156.528604 
C 100.469424 155.705998 100.142599 154.916974 99.560929 154.335304 
C 98.97926 153.753634 98.190235 153.42681 97.36763 153.42681 
C 96.545024 153.42681 95.756 153.753634 95.17433 154.335304 
C 94.59266 154.916974 94.265835 155.705998 94.265835 156.528604 
C 94.265835 157.351209 94.59266 158.140234 95.17433 158.721904 
C 95.756 159.303573 96.545024 159.630398 97.36763 159.630398 
z
" style="fill-opacity:0.501961;stroke:#000000;stroke-opacity:0.501961;stroke-width:0.886227;"/>
    <path clip-path="url(#pb5b6652b97)" d="M 138.488167 125.990586 
C 139.310773 125.990586 140.099797 125.663761 140.681467 125.082091 
C 141.263137 124.500421 141.589962 123.711397 141.589962 122.888791 
C 141.589962 122.066186 141.263137 121.277162 140.681467 120.695492 
C 140.099797 120.113822 139.310773 119.786997 138.488167 119.786997 
C 137.665562 119.786997 136.876538 120.113822 136.294868 120.695492 
C 135.713198 121.277162 135.386373 122.066186 135.386373 122.888791 
C 135.386373 123.711397 135.713198 124.500421 136.294868 125.082091 
C 136.876538 125.663761 137.665562 125.990586 138.488167 125.990586 
z
" style="fill-opacity:0.501961;stroke:#000000;stroke-opacity:0.501961;stroke-width:0.886227;"/>
    <path clip-path="url(#pb5b6652b97)" d="M 182.846825 120.965119 
C 183.669431 120.965119 184.458455 120.638294 185.040125 120.056624 
C 185.621795 119.474954 185.948619 118.68593 185.948619 117.863324 
C 185.948619 117.040719 185.621795 116.251694 185.040125 115.670025 
C 184.458455 115.088355 183.669431 114.76153 182.846825 114.76153 
C 182.02422 114.76153 181.235195 115.088355 180.653525 115.670025 
C 180.071856 116.251694 179.745031 117.040719 179.745031 117.863324 
C 179.745031 118.68593 180.071856 119.474954 180.653525 120.056624 
C 181.235195 120.638294 182.02422 120.965119 182.846825 120.965119 
z
" style="fill-opacity:0.501961;stroke:#000000;stroke-opacity:0.501961;stroke-width:0.886227;"/>
    <path clip-path="url(#pb5b6652b97)" d="M 79.372457 131.502295 
C 80.195062 131.502295 80.984087 131.175471 81.565757 130.593801 
C 82.147427 130.012131 82.474251 129.223107 82.474251 128.400501 
C 82.474251 127.577896 82.147427 126.788871 81.565757 126.207201 
C 80.984087 125.625532 80.195062 125.298707 79.372457 125.298707 
C 78.549852 125.298707 77.760827 125.625532 77.179157 126.207201 
C 76.597487 126.788871 76.270663 127.577896 76.270663 128.400501 
C 76.270663 129.223107 76.597487 130.012131 77.179157 130.593801 
C 77.760827 131.175471 78.549852 131.502295 79.372457 131.502295 
z
" style="fill-opacity:0.501961;stroke:#000000;stroke-opacity:0.501961;stroke-width:0.886227;"/>
    <path clip-path="url(#pb5b6652b97)" d="M 134.697797 135.258916 
C 135.520402 135.258916 136.309426 134.932091 136.891096 134.350421 
C 137.472766 133.768751 137.799591 132.979727 137.799591 132.157121 
C 137.799591 131.334516 137.472766 130.545491 136.891096 129.963822 
C 136.309426 129.382152 135.520402 129.055327 134.697797 129.055327 
C 133.875191 129.055327 133.086167 129.382152 132.504497 129.963822 
C 131.922827 130.545491 131.596002 131.334516 131.596002 132.157121 
C 131.596002 132.979727 131.922827 133.768751 132.504497 134.350421 
C 133.086167 134.932091 133.875191 135.258916 134.697797 135.258916 
z
" style="fill-opacity:0.501961;stroke:#000000;stroke-opacity:0.501961;stroke-width:0.886227;"/>
    <path clip-path="url(#pb5b6652b97)" d="M 123.902632 120.797935 
C 124.725238 120.797935 125.514262 120.471111 126.095932 119.889441 
C 126.677602 119.307771 127.004427 118.518747 127.004427 117.696141 
C 127.004427 116.873536 126.677602 116.084511 126.095932 115.502841 
C 125.514262 114.921172 124.725238 114.594347 123.902632 114.594347 
C 123.080027 114.594347 122.291002 114.921172 121.709333 115.502841 
C 121.127663 116.084511 120.800838 116.873536 120.800838 117.696141 
C 120.800838 118.518747 121.127663 119.307771 121.709333 119.889441 
C 122.291002 120.471111 123.080027 120.797935 123.902632 120.797935 
z
" style="fill-opacity:0.501961;stroke:#000000;stroke-opacity:0.501961;stroke-width:0.886227;"/>
    <path clip-path="url(#pb5b6652b97)" d="M 97.711743 154.613114 
C 98.534349 154.613114 99.323373 154.286289 99.905043 153.704619 
C 100.486713 153.122949 100.813538 152.333925 100.813538 151.51132 
C 100.813538 150.688714 100.486713 149.89969 99.905043 149.31802 
C 99.323373 148.73635 98.534349 148.409525 97.711743 148.409525 
C 96.889138 148.409525 96.100113 148.73635 95.518444 149.31802 
C 94.936774 149.89969 94.609949 150.688714 94.609949 151.51132 
C 94.609949 152.333925 94.936774 153.122949 95.518444 153.704619 
C 96.100113 154.286289 96.889138 154.613114 97.711743 154.613114 
z
" style="fill-opacity:0.501961;stroke:#000000;stroke-opacity:0.501961;stroke-width:0.886227;"/>
    <path clip-path="url(#pb5b6652b97)" d="M 164.650652 88.245744 
C 165.473258 88.245744 166.262282 87.918919 166.843952 87.337249 
C 167.425622 86.75558 167.752447 85.966555 167.752447 85.14395 
C 167.752447 84.321344 167.425622 83.53232 166.843952 82.95065 
C 166.262282 82.36898 165.473258 82.042156 164.650652 82.042156 
C 163.828047 82.042156 163.039023 82.36898 162.457353 82.95065 
C 161.875683 83.53232 161.548858 84.321344 161.548858 85.14395 
C 161.548858 85.966555 161.875683 86.75558 162.457353 87.337249 
C 163.039023 87.918919 163.828047 88.245744 164.650652 88.245744 
z
" style="fill-opacity:0.501961;stroke:#000000;stroke-opacity:0.501961;stroke-width:0.886227;"/>
    <path clip-path="url(#pb5b6652b97)" d="M 103.600874 132.310838 
C 104.423479 132.310838 105.212503 131.984013 105.794173 131.402343 
C 106.375843 130.820673 106.702668 130.031649 106.702668 129.209043 
C 106.702668 128.386438 106.375843 127.597414 105.794173 127.015744 
C 105.212503 126.434074 104.423479 126.107249 103.600874 126.107249 
C 102.778268 126.107249 101.989244 126.434074 101.407574 127.015744 
C 100.825904 127.597414 100.499079 128.386438 100.499079 129.209043 
C 100.499079 130.031649 100.825904 130.820673 101.407574 131.402343 
C 101.989244 131.984013 102.778268 132.310838 103.600874 132.310838 
z
" style="fill-opacity:0.501961;stroke:#000000;stroke-opacity:0.501961;stroke-width:0.886227;"/>
    <path clip-path="url(#pb5b6652b97)" d="M 53.954142 195.521794 
C 54.776747 195.521794 55.565772 195.19497 56.147442 194.6133 
C 56.729112 194.03163 57.055936 193.242605 57.055936 192.42 
C 57.055936 191.597395 56.729112 190.80837 56.147442 190.2267 
C 55.565772 189.64503 54.776747 189.318206 53.954142 189.318206 
C 53.131537 189.318206 52.342512 189.64503 51.760842 190.2267 
C 51.179172 190.80837 50.852348 191.597395 50.852348 192.42 
C 50.852348 193.242605 51.179172 194.03163 51.760842 194.6133 
C 52.342512 195.19497 53.131537 195.521794 53.954142 195.521794 
z
" style="fill-opacity:0.501961;stroke:#000000;stroke-opacity:0.501961;stroke-width:0.886227;"/>
    <path clip-path="url(#pb5b6652b97)" d="M 88.842003 163.610052 
C 89.664608 163.610052 90.453633 163.283228 91.035303 162.701558 
C 91.616973 162.119888 91.943797 161.330863 91.943797 160.508258 
C 91.943797 159.685652 91.616973 158.896628 91.035303 158.314958 
C 90.453633 157.733288 89.664608 157.406464 88.842003 157.406464 
C 88.019398 157.406464 87.230373 157.733288 86.648703 158.314958 
C 86.067033 158.896628 85.740209 159.685652 85.740209 160.508258 
C 85.740209 161.330863 86.067033 162.119888 86.648703 162.701558 
C 87.230373 163.283228 88.019398 163.610052 88.842003 163.610052 
z
" style="fill-opacity:0.501961;stroke:#000000;stroke-opacity:0.501961;stroke-width:0.886227;"/>
    <path clip-path="url(#pb5b6652b97)" d="M 94.031122 148.1335 
C 94.853727 148.1335 95.642752 147.806676 96.224422 147.225006 
C 96.806092 146.643336 97.132916 145.854311 97.132916 145.031706 
C 97.132916 144.209101 96.806092 143.420076 96.224422 142.838406 
C 95.642752 142.256736 94.853727 141.929912 94.031122 141.929912 
C 93.208517 141.929912 92.419492 142.256736 91.837822 142.838406 
C 91.256152 143.420076 90.929328 144.209101 90.929328 145.031706 
C 90.929328 145.854311 91.256152 146.643336 91.837822 147.225006 
C 92.419492 147.806676 93.208517 148.1335 94.031122 148.1335 
z
" style="fill-opacity:0.501961;stroke:#000000;stroke-opacity:0.501961;stroke-width:0.886227;"/>
    <path clip-path="url(#pb5b6652b97)" d="M 121.970056 129.675299 
C 122.792661 129.675299 123.581686 129.348474 124.163356 128.766804 
C 124.745025 128.185134 125.07185 127.39611 125.07185 126.573505 
C 125.07185 125.750899 124.745025 124.961875 124.163356 124.380205 
C 123.581686 123.798535 122.792661 123.47171 121.970056 123.47171 
C 121.14745 123.47171 120.358426 123.798535 119.776756 124.380205 
C 119.195086 124.961875 118.868262 125.750899 118.868262 126.573505 
C 118.868262 127.39611 119.195086 128.185134 119.776756 128.766804 
C 120.358426 129.348474 121.14745 129.675299 121.970056 129.675299 
z
" style="fill-opacity:0.501961;stroke:#000000;stroke-opacity:0.501961;stroke-width:0.886227;"/>
    <path clip-path="url(#pb5b6652b97)" d="M 63.302332 149.987352 
C 64.124937 149.987352 64.913962 149.660527 65.495631 149.078858 
C 66.077301 148.497188 66.404126 147.708163 66.404126 146.885558 
C 66.404126 146.062952 66.077301 145.273928 65.495631 144.692258 
C 64.913962 144.110588 64.124937 143.783764 63.302332 143.783764 
C 62.479726 143.783764 61.690702 144.110588 61.109032 144.692258 
C 60.527362 145.273928 60.200537 146.062952 60.200537 146.885558 
C 60.200537 147.708163 60.527362 148.497188 61.109032 149.078858 
C 61.690702 149.660527 62.479726 149.987352 63.302332 149.987352 
z
" style="fill-opacity:0.501961;stroke:#000000;stroke-opacity:0.501961;stroke-width:0.886227;"/>
    <path clip-path="url(#pb5b6652b97)" d="M 127.645132 127.944979 
C 128.467737 127.944979 129.256761 127.618154 129.838431 127.036484 
C 130.420101 126.454814 130.746926 125.66579 130.746926 124.843184 
C 130.746926 124.020579 130.420101 123.231555 129.838431 122.649885 
C 129.256761 122.068215 128.467737 121.74139 127.645132 121.74139 
C 126.822526 121.74139 126.033502 122.068215 125.451832 122.649885 
C 124.870162 123.231555 124.543337 124.020579 124.543337 124.843184 
C 124.543337 125.66579 124.870162 126.454814 125.451832 127.036484 
C 126.033502 127.618154 126.822526 127.944979 127.645132 127.944979 
z
" style="fill-opacity:0.501961;stroke:#000000;stroke-opacity:0.501961;stroke-width:0.886227;"/>
    <path clip-path="url(#pb5b6652b97)" d="M 116.033711 138.974297 
C 116.856316 138.974297 117.64534 138.647473 118.22701 138.065803 
C 118.80868 137.484133 119.135505 136.695108 119.135505 135.872503 
C 119.135505 135.049898 118.80868 134.260873 118.22701 133.679203 
C 117.64534 133.097533 116.856316 132.770709 116.033711 132.770709 
C 115.211105 132.770709 114.422081 133.097533 113.840411 133.679203 
C 113.258741 134.260873 112.931916 135.049898 112.931916 135.872503 
C 112.931916 136.695108 113.258741 137.484133 113.840411 138.065803 
C 114.422081 138.647473 115.211105 138.974297 116.033711 138.974297 
z
" style="fill-opacity:0.501961;stroke:#000000;stroke-opacity:0.501961;stroke-width:0.886227;"/>
    <path clip-path="url(#pb5b6652b97)" d="M 65.666649 155.072982 
C 66.489254 155.072982 67.278279 154.746158 67.859949 154.164488 
C 68.441618 153.582818 68.768443 152.793793 68.768443 151.971188 
C 68.768443 151.148583 68.441618 150.359558 67.859949 149.777888 
C 67.278279 149.196218 66.489254 148.869394 65.666649 148.869394 
C 64.844043 148.869394 64.055019 149.196218 63.473349 149.777888 
C 62.891679 150.359558 62.564855 151.148583 62.564855 151.971188 
C 62.564855 152.793793 62.891679 153.582818 63.473349 154.164488 
C 64.055019 154.746158 64.844043 155.072982 65.666649 155.072982 
z
" style="fill-opacity:0.501961;stroke:#000000;stroke-opacity:0.501961;stroke-width:0.886227;"/>
   </g>
   <g id="text_9">
    <g clip-path="url(#pb5b6652b97)">
     <!-- Pearson's R=0.88 -->
     <g transform="translate(47.27752 18.779375)scale(0.1 -0.1)">
      <defs>
       <path d="M 19.671875 64.796875 
L 19.671875 37.40625 
L 32.078125 37.40625 
Q 38.96875 37.40625 42.71875 40.96875 
Q 46.484375 44.53125 46.484375 51.125 
Q 46.484375 57.671875 42.71875 61.234375 
Q 38.96875 64.796875 32.078125 64.796875 
z
M 9.8125 72.90625 
L 32.078125 72.90625 
Q 44.34375 72.90625 50.609375 67.359375 
Q 56.890625 61.8125 56.890625 51.125 
Q 56.890625 40.328125 50.609375 34.8125 
Q 44.34375 29.296875 32.078125 29.296875 
L 19.671875 29.296875 
L 19.671875 0 
L 9.8125 0 
z
" id="DejaVuSans-80"/>
       <path d="M 17.921875 72.90625 
L 17.921875 45.796875 
L 9.625 45.796875 
L 9.625 72.90625 
z
" id="DejaVuSans-39"/>
       <path d="M 44.390625 34.1875 
Q 47.5625 33.109375 50.5625 29.59375 
Q 53.5625 26.078125 56.59375 19.921875 
L 66.609375 0 
L 56 0 
L 46.6875 18.703125 
Q 43.0625 26.03125 39.671875 28.421875 
Q 36.28125 30.8125 30.421875 30.8125 
L 19.671875 30.8125 
L 19.671875 0 
L 9.8125 0 
L 9.8125 72.90625 
L 32.078125 72.90625 
Q 44.578125 72.90625 50.734375 67.671875 
Q 56.890625 62.453125 56.890625 51.90625 
Q 56.890625 45.015625 53.6875 40.46875 
Q 50.484375 35.9375 44.390625 34.1875 
z
M 19.671875 64.796875 
L 19.671875 38.921875 
L 32.078125 38.921875 
Q 39.203125 38.921875 42.84375 42.21875 
Q 46.484375 45.515625 46.484375 51.90625 
Q 46.484375 58.296875 42.84375 61.546875 
Q 39.203125 64.796875 32.078125 64.796875 
z
" id="DejaVuSans-82"/>
       <path d="M 10.59375 45.40625 
L 73.1875 45.40625 
L 73.1875 37.203125 
L 10.59375 37.203125 
z
M 10.59375 25.484375 
L 73.1875 25.484375 
L 73.1875 17.1875 
L 10.59375 17.1875 
z
" id="DejaVuSans-61"/>
       <path d="M 31.78125 34.625 
Q 24.75 34.625 20.71875 30.859375 
Q 16.703125 27.09375 16.703125 20.515625 
Q 16.703125 13.921875 20.71875 10.15625 
Q 24.75 6.390625 31.78125 6.390625 
Q 38.8125 6.390625 42.859375 10.171875 
Q 46.921875 13.96875 46.921875 20.515625 
Q 46.921875 27.09375 42.890625 30.859375 
Q 38.875 34.625 31.78125 34.625 
z
M 21.921875 38.8125 
Q 15.578125 40.375 12.03125 44.71875 
Q 8.5 49.078125 8.5 55.328125 
Q 8.5 64.0625 14.71875 69.140625 
Q 20.953125 74.21875 31.78125 74.21875 
Q 42.671875 74.21875 48.875 69.140625 
Q 55.078125 64.0625 55.078125 55.328125 
Q 55.078125 49.078125 51.53125 44.71875 
Q 48 40.375 41.703125 38.8125 
Q 48.828125 37.15625 52.796875 32.3125 
Q 56.78125 27.484375 56.78125 20.515625 
Q 56.78125 9.90625 50.3125 4.234375 
Q 43.84375 -1.421875 31.78125 -1.421875 
Q 19.734375 -1.421875 13.25 4.234375 
Q 6.78125 9.90625 6.78125 20.515625 
Q 6.78125 27.484375 10.78125 32.3125 
Q 14.796875 37.15625 21.921875 38.8125 
z
M 18.3125 54.390625 
Q 18.3125 48.734375 21.84375 45.5625 
Q 25.390625 42.390625 31.78125 42.390625 
Q 38.140625 42.390625 41.71875 45.5625 
Q 45.3125 48.734375 45.3125 54.390625 
Q 45.3125 60.0625 41.71875 63.234375 
Q 38.140625 66.40625 31.78125 66.40625 
Q 25.390625 66.40625 21.84375 63.234375 
Q 18.3125 60.0625 18.3125 54.390625 
z
" id="DejaVuSans-56"/>
      </defs>
      <use xlink:href="#DejaVuSans-80"/>
      <use x="56.677734" xlink:href="#DejaVuSans-101"/>
      <use x="118.201172" xlink:href="#DejaVuSans-97"/>
      <use x="179.480469" xlink:href="#DejaVuSans-114"/>
      <use x="220.59375" xlink:href="#DejaVuSans-115"/>
      <use x="272.693359" xlink:href="#DejaVuSans-111"/>
      <use x="333.875" xlink:href="#DejaVuSans-110"/>
      <use x="397.253906" xlink:href="#DejaVuSans-39"/>
      <use x="424.744141" xlink:href="#DejaVuSans-115"/>
      <use x="476.84375" xlink:href="#DejaVuSans-32"/>
      <use x="508.630859" xlink:href="#DejaVuSans-82"/>
      <use x="578.113281" xlink:href="#DejaVuSans-61"/>
      <use x="661.902344" xlink:href="#DejaVuSans-48"/>
      <use x="725.525391" xlink:href="#DejaVuSans-46"/>
      <use x="757.3125" xlink:href="#DejaVuSans-56"/>
      <use x="820.935547" xlink:href="#DejaVuSans-56"/>
     </g>
    </g>
   </g>
   <g id="patch_3">
    <path d="M 43.808688 201.24 
L 43.808688 7.2 
" style="fill:none;stroke:#000000;stroke-linecap:square;stroke-linejoin:miter;"/>
   </g>
   <g id="patch_4">
    <path d="M 43.808687 201.24 
L 267.008687 201.24 
" style="fill:none;stroke:#000000;stroke-linecap:square;stroke-linejoin:miter;"/>
   </g>
  </g>
 </g>
 <defs>
  <clipPath id="pb5b6652b97">
   <rect height="194.04" width="223.2" x="43.808688" y="7.2"/>
  </clipPath>
 </defs>
</svg>
