<?xml version="1.0" encoding="utf-8" standalone="no"?>
<!DOCTYPE svg PUBLIC "-//W3C//DTD SVG 1.1//EN"
  "http://www.w3.org/Graphics/SVG/1.1/DTD/svg11.dtd">
<!-- Created with matplotlib (https://matplotlib.org/) -->
<svg height="257.620156pt" version="1.1" viewBox="0 0 507.311875 257.620156" width="507.311875pt" xmlns="http://www.w3.org/2000/svg" xmlns:xlink="http://www.w3.org/1999/xlink">
 <metadata>
  <rdf:RDF xmlns:cc="http://creativecommons.org/ns#" xmlns:dc="http://purl.org/dc/elements/1.1/" xmlns:rdf="http://www.w3.org/1999/02/22-rdf-syntax-ns#">
   <cc:Work>
    <dc:type rdf:resource="http://purl.org/dc/dcmitype/StillImage"/>
    <dc:date>2020-12-11T17:33:34.838967</dc:date>
    <dc:format>image/svg+xml</dc:format>
    <dc:creator>
     <cc:Agent>
      <dc:title>Matplotlib v3.3.1, https://matplotlib.org/</dc:title>
     </cc:Agent>
    </dc:creator>
   </cc:Work>
  </rdf:RDF>
 </metadata>
 <defs>
  <style type="text/css">*{stroke-linecap:butt;stroke-linejoin:round;}</style>
 </defs>
 <g id="figure_1">
  <g id="patch_1">
   <path d="M 0 257.620156 
L 507.311875 257.620156 
L 507.311875 0 
L 0 0 
z
" style="fill:#ffffff;"/>
  </g>
  <g id="axes_1">
   <g id="patch_2">
    <path d="M 50.249062 184.339687 
L 157.049062 184.339687 
L 157.049062 73.459687 
L 50.249062 73.459687 
z
" style="fill:#ffffff;"/>
   </g>
   <g id="matplotlib.axis_1">
    <g id="xtick_1">
     <g id="line2d_1">
      <defs>
       <path d="M 0 0 
L 0 9 
" id="m9ceb2c1f66" style="stroke:#262626;stroke-width:1.875;"/>
      </defs>
      <g>
       <use style="fill:#262626;stroke:#262626;stroke-width:1.875;" x="62.097628" xlink:href="#m9ceb2c1f66" y="184.339687"/>
      </g>
     </g>
     <g id="text_1">
      <!-- 1e-4 -->
      <g style="fill:#262626;" transform="translate(66.314152 228.373594)rotate(-90)scale(0.165 -0.165)">
       <defs>
        <path d="M 25.90625 50.5 
L 10.203125 50.5 
L 10.203125 56.796875 
Q 20.40625 58.09375 23.5 60.390625 
Q 26.59375 62.703125 28.90625 70.90625 
L 34.703125 70.90625 
L 34.703125 0 
L 25.90625 0 
z
" id="FreeSans-49"/>
        <path d="M 50.296875 23.40625 
L 11.703125 23.40625 
Q 11.90625 15.203125 15.953125 10.296875 
Q 20 5.40625 27.09375 5.40625 
Q 37.296875 5.40625 40.796875 15.90625 
L 49.203125 15.90625 
Q 47.59375 7.296875 41.6875 2.5 
Q 35.796875 -2.296875 26.796875 -2.296875 
Q 15.796875 -2.296875 9.390625 5.140625 
Q 3 12.59375 3 25.5 
Q 3 38.40625 9.546875 46.15625 
Q 16.09375 53.90625 27 53.90625 
Q 50.296875 53.90625 50.296875 23.40625 
z
M 11.90625 30.203125 
L 41.40625 30.203125 
Q 41.40625 37 37.296875 41.59375 
Q 33.203125 46.203125 26.890625 46.203125 
Q 20.59375 46.203125 16.5 41.84375 
Q 12.40625 37.5 11.90625 30.203125 
z
" id="FreeSans-101"/>
        <path d="M 28.703125 31.203125 
L 28.703125 24 
L 4.59375 24 
L 4.59375 31.203125 
z
" id="FreeSans-45"/>
        <path d="M 32.703125 17 
L 2.796875 17 
L 2.796875 26.296875 
L 35 70.90625 
L 41.5 70.90625 
L 41.5 24.90625 
L 52 24.90625 
L 52 17 
L 41.5 17 
L 41.5 0 
L 32.703125 0 
z
M 32.703125 24.90625 
L 32.703125 55.90625 
L 10.5 24.90625 
z
" id="FreeSans-52"/>
       </defs>
       <use xlink:href="#FreeSans-49"/>
       <use x="55.599991" xlink:href="#FreeSans-101"/>
       <use x="108.899979" xlink:href="#FreeSans-45"/>
       <use x="142.199966" xlink:href="#FreeSans-52"/>
      </g>
     </g>
    </g>
    <g id="xtick_2">
     <g id="line2d_2">
      <g>
       <use style="fill:#262626;stroke:#262626;stroke-width:1.875;" x="95.479581" xlink:href="#m9ceb2c1f66" y="184.339687"/>
      </g>
     </g>
     <g id="text_2">
      <!-- 1e-3 -->
      <g style="fill:#262626;" transform="translate(99.696104 228.373594)rotate(-90)scale(0.165 -0.165)">
       <defs>
        <path d="M 27 63.203125 
Q 19.40625 63.203125 16.546875 59.046875 
Q 13.703125 54.90625 13.5 48 
L 4.703125 48 
Q 5.203125 70.90625 26.90625 70.90625 
Q 37 70.90625 42.75 65.703125 
Q 48.5 60.5 48.5 51.40625 
Q 48.5 40.59375 38.59375 36.703125 
Q 45 34.5 47.796875 30.546875 
Q 50.59375 26.59375 50.59375 19.796875 
Q 50.59375 9.703125 44.046875 3.703125 
Q 37.5 -2.296875 26.59375 -2.296875 
Q 4.796875 -2.296875 3.203125 20.59375 
L 12 20.59375 
Q 12.5 12.90625 16.09375 9.203125 
Q 19.703125 5.5 26.90625 5.5 
Q 33.796875 5.5 37.6875 9.25 
Q 41.59375 13 41.59375 19.703125 
Q 41.59375 32.59375 26.90625 32.59375 
L 23.203125 32.5 
L 22.09375 32.5 
L 22.09375 40 
Q 31.59375 40.203125 35.546875 42.390625 
Q 39.5 44.59375 39.5 51.09375 
Q 39.5 56.703125 36.140625 59.953125 
Q 32.796875 63.203125 27 63.203125 
z
" id="FreeSans-51"/>
       </defs>
       <use xlink:href="#FreeSans-49"/>
       <use x="55.599991" xlink:href="#FreeSans-101"/>
       <use x="108.899979" xlink:href="#FreeSans-45"/>
       <use x="142.199966" xlink:href="#FreeSans-51"/>
      </g>
     </g>
    </g>
    <g id="xtick_3">
     <g id="line2d_3">
      <g>
       <use style="fill:#262626;stroke:#262626;stroke-width:1.875;" x="128.861533" xlink:href="#m9ceb2c1f66" y="184.339687"/>
      </g>
     </g>
     <g id="text_3">
      <!-- 1e-2 -->
      <g style="fill:#262626;" transform="translate(133.078057 228.373594)rotate(-90)scale(0.165 -0.165)">
       <defs>
        <path d="M 5 46.296875 
Q 5.703125 70.90625 28.40625 70.90625 
Q 38.5 70.90625 44.796875 65.09375 
Q 51.09375 59.296875 51.09375 50.09375 
Q 51.09375 36.90625 36.09375 28.703125 
L 26.09375 23.296875 
Q 19.59375 19.796875 16.796875 16.5 
Q 14 13.203125 13.296875 8.703125 
L 50.59375 8.703125 
L 50.59375 0 
L 3.40625 0 
Q 4 11.703125 8.09375 18.046875 
Q 12.203125 24.40625 23.296875 30.703125 
L 32.5 35.90625 
Q 42.09375 41.40625 42.09375 49.90625 
Q 42.09375 55.59375 38.09375 59.390625 
Q 34.09375 63.203125 28.09375 63.203125 
Q 14.796875 63.203125 13.796875 46.296875 
z
" id="FreeSans-50"/>
       </defs>
       <use xlink:href="#FreeSans-49"/>
       <use x="55.599991" xlink:href="#FreeSans-101"/>
       <use x="108.899979" xlink:href="#FreeSans-45"/>
       <use x="142.199966" xlink:href="#FreeSans-50"/>
      </g>
     </g>
    </g>
    <g id="xtick_4">
     <g id="line2d_4">
      <defs>
       <path d="M 0 0 
L 0 6 
" id="m9435d39110" style="stroke:#262626;stroke-width:1.5;"/>
      </defs>
      <g>
       <use style="fill:#262626;stroke:#262626;stroke-width:1.5;" x="52.048659" xlink:href="#m9435d39110" y="184.339687"/>
      </g>
     </g>
    </g>
    <g id="xtick_5">
     <g id="line2d_5">
      <g>
       <use style="fill:#262626;stroke:#262626;stroke-width:1.5;" x="54.691884" xlink:href="#m9435d39110" y="184.339687"/>
      </g>
     </g>
    </g>
    <g id="xtick_6">
     <g id="line2d_6">
      <g>
       <use style="fill:#262626;stroke:#262626;stroke-width:1.5;" x="56.926698" xlink:href="#m9435d39110" y="184.339687"/>
      </g>
     </g>
    </g>
    <g id="xtick_7">
     <g id="line2d_7">
      <g>
       <use style="fill:#262626;stroke:#262626;stroke-width:1.5;" x="58.862583" xlink:href="#m9435d39110" y="184.339687"/>
      </g>
     </g>
    </g>
    <g id="xtick_8">
     <g id="line2d_8">
      <g>
       <use style="fill:#262626;stroke:#262626;stroke-width:1.5;" x="60.570154" xlink:href="#m9435d39110" y="184.339687"/>
      </g>
     </g>
    </g>
    <g id="xtick_9">
     <g id="line2d_9">
      <g>
       <use style="fill:#262626;stroke:#262626;stroke-width:1.5;" x="72.146597" xlink:href="#m9435d39110" y="184.339687"/>
      </g>
     </g>
    </g>
    <g id="xtick_10">
     <g id="line2d_10">
      <g>
       <use style="fill:#262626;stroke:#262626;stroke-width:1.5;" x="78.024867" xlink:href="#m9435d39110" y="184.339687"/>
      </g>
     </g>
    </g>
    <g id="xtick_11">
     <g id="line2d_11">
      <g>
       <use style="fill:#262626;stroke:#262626;stroke-width:1.5;" x="82.195566" xlink:href="#m9435d39110" y="184.339687"/>
      </g>
     </g>
    </g>
    <g id="xtick_12">
     <g id="line2d_12">
      <g>
       <use style="fill:#262626;stroke:#262626;stroke-width:1.5;" x="85.430612" xlink:href="#m9435d39110" y="184.339687"/>
      </g>
     </g>
    </g>
    <g id="xtick_13">
     <g id="line2d_13">
      <g>
       <use style="fill:#262626;stroke:#262626;stroke-width:1.5;" x="88.073836" xlink:href="#m9435d39110" y="184.339687"/>
      </g>
     </g>
    </g>
    <g id="xtick_14">
     <g id="line2d_14">
      <g>
       <use style="fill:#262626;stroke:#262626;stroke-width:1.5;" x="90.308651" xlink:href="#m9435d39110" y="184.339687"/>
      </g>
     </g>
    </g>
    <g id="xtick_15">
     <g id="line2d_15">
      <g>
       <use style="fill:#262626;stroke:#262626;stroke-width:1.5;" x="92.244535" xlink:href="#m9435d39110" y="184.339687"/>
      </g>
     </g>
    </g>
    <g id="xtick_16">
     <g id="line2d_16">
      <g>
       <use style="fill:#262626;stroke:#262626;stroke-width:1.5;" x="93.952106" xlink:href="#m9435d39110" y="184.339687"/>
      </g>
     </g>
    </g>
    <g id="xtick_17">
     <g id="line2d_17">
      <g>
       <use style="fill:#262626;stroke:#262626;stroke-width:1.5;" x="105.52855" xlink:href="#m9435d39110" y="184.339687"/>
      </g>
     </g>
    </g>
    <g id="xtick_18">
     <g id="line2d_18">
      <g>
       <use style="fill:#262626;stroke:#262626;stroke-width:1.5;" x="111.40682" xlink:href="#m9435d39110" y="184.339687"/>
      </g>
     </g>
    </g>
    <g id="xtick_19">
     <g id="line2d_19">
      <g>
       <use style="fill:#262626;stroke:#262626;stroke-width:1.5;" x="115.577519" xlink:href="#m9435d39110" y="184.339687"/>
      </g>
     </g>
    </g>
    <g id="xtick_20">
     <g id="line2d_20">
      <g>
       <use style="fill:#262626;stroke:#262626;stroke-width:1.5;" x="118.812564" xlink:href="#m9435d39110" y="184.339687"/>
      </g>
     </g>
    </g>
    <g id="xtick_21">
     <g id="line2d_21">
      <g>
       <use style="fill:#262626;stroke:#262626;stroke-width:1.5;" x="121.455789" xlink:href="#m9435d39110" y="184.339687"/>
      </g>
     </g>
    </g>
    <g id="xtick_22">
     <g id="line2d_22">
      <g>
       <use style="fill:#262626;stroke:#262626;stroke-width:1.5;" x="123.690604" xlink:href="#m9435d39110" y="184.339687"/>
      </g>
     </g>
    </g>
    <g id="xtick_23">
     <g id="line2d_23">
      <g>
       <use style="fill:#262626;stroke:#262626;stroke-width:1.5;" x="125.626488" xlink:href="#m9435d39110" y="184.339687"/>
      </g>
     </g>
    </g>
    <g id="xtick_24">
     <g id="line2d_24">
      <g>
       <use style="fill:#262626;stroke:#262626;stroke-width:1.5;" x="127.334059" xlink:href="#m9435d39110" y="184.339687"/>
      </g>
     </g>
    </g>
    <g id="xtick_25">
     <g id="line2d_25">
      <g>
       <use style="fill:#262626;stroke:#262626;stroke-width:1.5;" x="138.910503" xlink:href="#m9435d39110" y="184.339687"/>
      </g>
     </g>
    </g>
    <g id="xtick_26">
     <g id="line2d_26">
      <g>
       <use style="fill:#262626;stroke:#262626;stroke-width:1.5;" x="144.788773" xlink:href="#m9435d39110" y="184.339687"/>
      </g>
     </g>
    </g>
    <g id="xtick_27">
     <g id="line2d_27">
      <g>
       <use style="fill:#262626;stroke:#262626;stroke-width:1.5;" x="148.959472" xlink:href="#m9435d39110" y="184.339687"/>
      </g>
     </g>
    </g>
    <g id="xtick_28">
     <g id="line2d_28">
      <g>
       <use style="fill:#262626;stroke:#262626;stroke-width:1.5;" x="152.194517" xlink:href="#m9435d39110" y="184.339687"/>
      </g>
     </g>
    </g>
    <g id="xtick_29">
     <g id="line2d_29">
      <g>
       <use style="fill:#262626;stroke:#262626;stroke-width:1.5;" x="154.837742" xlink:href="#m9435d39110" y="184.339687"/>
      </g>
     </g>
    </g>
   </g>
   <g id="matplotlib.axis_2">
    <g id="ytick_1">
     <g id="line2d_30">
      <defs>
       <path d="M 0 0 
L -9 0 
" id="mc4a4e3c306" style="stroke:#262626;stroke-width:1.875;"/>
      </defs>
      <g>
       <use style="fill:#262626;stroke:#262626;stroke-width:1.875;" x="50.249062" xlink:href="#mc4a4e3c306" y="179.302208"/>
      </g>
     </g>
     <g id="text_4">
      <!-- 0 -->
      <g style="fill:#262626;" transform="translate(29.676094 185.316973)scale(0.165 -0.165)">
       <defs>
        <path d="M 4.296875 34.296875 
Q 4.296875 43.203125 5.796875 50 
Q 7.296875 56.796875 9.59375 60.640625 
Q 11.90625 64.5 15.09375 66.890625 
Q 18.296875 69.296875 21.25 70.09375 
Q 24.203125 70.90625 27.5 70.90625 
Q 50.703125 70.90625 50.703125 33.703125 
Q 50.703125 16.203125 44.75 6.953125 
Q 38.796875 -2.296875 27.5 -2.296875 
Q 16.09375 -2.296875 10.1875 7.046875 
Q 4.296875 16.40625 4.296875 34.296875 
z
M 41.703125 34.5 
Q 41.703125 63.09375 27.5 63.09375 
Q 13.296875 63.09375 13.296875 34.203125 
Q 13.296875 5 27.296875 5 
Q 34.703125 5 38.203125 12.203125 
Q 41.703125 19.40625 41.703125 34.5 
z
" id="FreeSans-48"/>
       </defs>
       <use xlink:href="#FreeSans-48"/>
      </g>
     </g>
    </g>
    <g id="ytick_2">
     <g id="line2d_31">
      <g>
       <use style="fill:#262626;stroke:#262626;stroke-width:1.875;" x="50.249062" xlink:href="#mc4a4e3c306" y="154.101578"/>
      </g>
     </g>
     <g id="text_5">
      <!-- 1 -->
      <g style="fill:#262626;" transform="translate(29.676094 160.116343)scale(0.165 -0.165)">
       <use xlink:href="#FreeSans-49"/>
      </g>
     </g>
    </g>
    <g id="ytick_3">
     <g id="line2d_32">
      <g>
       <use style="fill:#262626;stroke:#262626;stroke-width:1.875;" x="50.249062" xlink:href="#mc4a4e3c306" y="128.900948"/>
      </g>
     </g>
     <g id="text_6">
      <!-- 2 -->
      <g style="fill:#262626;" transform="translate(29.676094 134.915713)scale(0.165 -0.165)">
       <use xlink:href="#FreeSans-50"/>
      </g>
     </g>
    </g>
    <g id="ytick_4">
     <g id="line2d_33">
      <g>
       <use style="fill:#262626;stroke:#262626;stroke-width:1.875;" x="50.249062" xlink:href="#mc4a4e3c306" y="103.700318"/>
      </g>
     </g>
     <g id="text_7">
      <!-- 3 -->
      <g style="fill:#262626;" transform="translate(29.676094 109.715083)scale(0.165 -0.165)">
       <use xlink:href="#FreeSans-51"/>
      </g>
     </g>
    </g>
    <g id="ytick_5">
     <g id="line2d_34">
      <g>
       <use style="fill:#262626;stroke:#262626;stroke-width:1.875;" x="50.249062" xlink:href="#mc4a4e3c306" y="78.499687"/>
      </g>
     </g>
     <g id="text_8">
      <!-- 4 -->
      <g style="fill:#262626;" transform="translate(29.676094 84.514453)scale(0.165 -0.165)">
       <use xlink:href="#FreeSans-52"/>
      </g>
     </g>
    </g>
    <g id="ytick_6">
     <g id="line2d_35">
      <defs>
       <path d="M 0 0 
L -6 0 
" id="m107e16e7a9" style="stroke:#262626;stroke-width:1.5;"/>
      </defs>
      <g>
       <use style="fill:#262626;stroke:#262626;stroke-width:1.5;" x="50.249062" xlink:href="#m107e16e7a9" y="166.701893"/>
      </g>
     </g>
    </g>
    <g id="ytick_7">
     <g id="line2d_36">
      <g>
       <use style="fill:#262626;stroke:#262626;stroke-width:1.5;" x="50.249062" xlink:href="#m107e16e7a9" y="141.501263"/>
      </g>
     </g>
    </g>
    <g id="ytick_8">
     <g id="line2d_37">
      <g>
       <use style="fill:#262626;stroke:#262626;stroke-width:1.5;" x="50.249062" xlink:href="#m107e16e7a9" y="116.300633"/>
      </g>
     </g>
    </g>
    <g id="ytick_9">
     <g id="line2d_38">
      <g>
       <use style="fill:#262626;stroke:#262626;stroke-width:1.5;" x="50.249062" xlink:href="#m107e16e7a9" y="91.100003"/>
      </g>
     </g>
    </g>
    <g id="text_9">
     <!-- arbitrary binding units (OD450) -->
     <g style="fill:#262626;" transform="translate(20.752656 249.159375)rotate(-90)scale(0.18 -0.18)">
      <defs>
       <path d="M 5.296875 36.90625 
Q 5.90625 53.90625 26.296875 53.90625 
Q 36 53.90625 41 50.25 
Q 46 46.59375 46 39.59375 
L 46 8.796875 
Q 46 4.703125 50.5 4.703125 
Q 51.40625 4.703125 52.296875 4.90625 
L 52.296875 -1.40625 
Q 48.796875 -2.296875 46.59375 -2.296875 
Q 42.59375 -2.296875 40.546875 -0.4375 
Q 38.5 1.40625 38 5.40625 
Q 29.59375 -2.296875 20.203125 -2.296875 
Q 12.296875 -2.296875 7.640625 1.890625 
Q 3 6.09375 3 13.203125 
Q 3 15.5 3.453125 17.390625 
Q 3.90625 19.296875 4.453125 20.75 
Q 5 22.203125 6.390625 23.453125 
Q 7.796875 24.703125 8.75 25.5 
Q 9.703125 26.296875 11.953125 27.046875 
Q 14.203125 27.796875 15.390625 28.140625 
Q 16.59375 28.5 19.59375 29 
Q 22.59375 29.5 24 29.703125 
Q 25.40625 29.90625 29 30.40625 
Q 33.90625 31 35.796875 32.296875 
Q 37.703125 33.59375 37.703125 36.203125 
L 37.703125 38.40625 
Q 37.703125 42.203125 34.640625 44.203125 
Q 31.59375 46.203125 26 46.203125 
Q 20.203125 46.203125 17.203125 43.953125 
Q 14.203125 41.703125 13.703125 36.90625 
z
M 22 5 
Q 28.90625 5 33.296875 8.640625 
Q 37.703125 12.296875 37.703125 16.5 
L 37.703125 25.90625 
Q 35.203125 24.703125 30.140625 23.890625 
Q 25.09375 23.09375 21.390625 22.5 
Q 17.703125 21.90625 14.703125 19.65625 
Q 11.703125 17.40625 11.703125 13.40625 
Q 11.703125 9.40625 14.390625 7.203125 
Q 17.09375 5 22 5 
z
" id="FreeSans-97"/>
       <path d="M 31.203125 45.09375 
Q 22.796875 44.90625 18.59375 41.203125 
Q 14.40625 37.5 14.40625 27.203125 
L 14.40625 0 
L 6 0 
L 6 52.40625 
L 13.703125 52.40625 
L 13.703125 42.90625 
Q 17.296875 48.796875 20.640625 51.34375 
Q 24 53.90625 28 53.90625 
Q 29.09375 53.90625 31.203125 53.59375 
z
" id="FreeSans-114"/>
       <path d="M 6 72.90625 
L 14.296875 72.90625 
L 14.296875 45.296875 
Q 20 53.90625 30.5 53.90625 
Q 40.90625 53.90625 46.90625 46.5 
Q 52.90625 39.09375 52.90625 26.40625 
Q 52.90625 13.40625 46.703125 5.546875 
Q 40.5 -2.296875 30.09375 -2.296875 
Q 19.40625 -2.296875 13.5 6.703125 
L 13.5 0 
L 6 0 
z
M 28.90625 46.09375 
Q 22.296875 46.09375 18.296875 40.546875 
Q 14.296875 35 14.296875 25.796875 
Q 14.296875 16.59375 18.296875 11.046875 
Q 22.296875 5.5 28.90625 5.5 
Q 35.703125 5.5 39.953125 11.046875 
Q 44.203125 16.59375 44.203125 25.5 
Q 44.203125 34.90625 40.046875 40.5 
Q 35.90625 46.09375 28.90625 46.09375 
z
" id="FreeSans-98"/>
       <path d="M 15 52.40625 
L 15 0 
L 6.703125 0 
L 6.703125 52.40625 
z
M 15 72.90625 
L 15 62.40625 
L 6.59375 62.40625 
L 6.59375 72.90625 
z
" id="FreeSans-105"/>
       <path d="M 26 52.40625 
L 26 45.59375 
L 17.40625 45.59375 
L 17.40625 9.703125 
Q 17.40625 6.90625 18.34375 5.953125 
Q 19.296875 5 22 5 
Q 24.5 5 26 5.40625 
L 26 -1.59375 
Q 22.09375 -2.296875 19.203125 -2.296875 
Q 14.296875 -2.296875 11.6875 -0.140625 
Q 9.09375 2 9.09375 6 
L 9.09375 45.59375 
L 2 45.59375 
L 2 52.40625 
L 9.09375 52.40625 
L 9.09375 66.796875 
L 17.40625 66.796875 
L 17.40625 52.40625 
z
" id="FreeSans-116"/>
       <path d="M 37.796875 52.40625 
L 46.796875 52.40625 
L 23.5 -11 
Q 19.40625 -21.796875 10 -21.796875 
Q 6.90625 -21.796875 4.40625 -20.5 
L 4.40625 -13 
Q 7.09375 -13.59375 8.796875 -13.59375 
Q 11.40625 -13.59375 12.90625 -12.4375 
Q 14.40625 -11.296875 15.5 -8.5 
L 18.703125 -0.203125 
L 1 52.40625 
L 9.90625 52.40625 
L 23.296875 11.59375 
z
" id="FreeSans-121"/>
       <path id="FreeSans-32"/>
       <path d="M 6 52.40625 
L 13.703125 52.40625 
L 13.703125 43.59375 
Q 17.203125 49.09375 21.25 51.5 
Q 25.296875 53.90625 31.09375 53.90625 
Q 38.703125 53.90625 43.203125 50 
Q 47.703125 46.09375 47.703125 39.59375 
L 47.703125 0 
L 39.40625 0 
L 39.40625 36.296875 
Q 39.40625 41 36.5 43.796875 
Q 33.59375 46.59375 28.59375 46.59375 
Q 22.203125 46.59375 18.296875 41.75 
Q 14.40625 36.90625 14.40625 28.90625 
L 14.40625 0 
L 6 0 
z
" id="FreeSans-110"/>
       <path d="M 49.90625 72.90625 
L 49.90625 0 
L 42.5 0 
L 42.5 6.90625 
Q 39.09375 2 35.140625 -0.140625 
Q 31.203125 -2.296875 25.796875 -2.296875 
Q 15.203125 -2.296875 9.09375 5.34375 
Q 3 13 3 26.296875 
Q 3 38.796875 9.140625 46.34375 
Q 15.296875 53.90625 25.5 53.90625 
Q 36.296875 53.90625 41.59375 45.796875 
L 41.59375 72.90625 
z
M 26.90625 46.09375 
Q 20.09375 46.09375 15.890625 40.5 
Q 11.703125 34.90625 11.703125 25.796875 
Q 11.703125 16.59375 15.890625 11.046875 
Q 20.09375 5.5 27 5.5 
Q 33.59375 5.5 37.59375 11 
Q 41.59375 16.5 41.59375 25.59375 
Q 41.59375 35 37.59375 40.546875 
Q 33.59375 46.09375 26.90625 46.09375 
z
" id="FreeSans-100"/>
       <path d="M 24.59375 -2.296875 
Q 15.40625 -2.296875 9.203125 5.25 
Q 3 12.796875 3 25.296875 
Q 3 38.09375 9.140625 46 
Q 15.296875 53.90625 25.296875 53.90625 
Q 35.09375 53.90625 41.296875 44.796875 
L 40.296875 52.40625 
L 49 52.40625 
L 49 8.59375 
Q 49 1.09375 48.09375 -3.953125 
Q 47.203125 -9 44.796875 -13.296875 
Q 42.40625 -17.59375 37.65625 -19.6875 
Q 32.90625 -21.796875 25.59375 -21.796875 
Q 16.40625 -21.796875 10.90625 -17.59375 
Q 5.40625 -13.40625 4.703125 -6 
L 13.203125 -6 
Q 14.59375 -14.796875 25.90625 -14.796875 
Q 34.296875 -14.796875 37.390625 -10.046875 
Q 40.5 -5.296875 40.5 4.40625 
L 40.5 7.09375 
Q 37 2.09375 33.25 -0.09375 
Q 29.5 -2.296875 24.59375 -2.296875 
z
M 26.203125 46.203125 
Q 19.5 46.203125 15.59375 40.703125 
Q 11.703125 35.203125 11.703125 25.796875 
Q 11.703125 16.296875 15.59375 10.84375 
Q 19.5 5.40625 26.296875 5.40625 
Q 32.90625 5.40625 36.703125 10.75 
Q 40.5 16.09375 40.5 25.5 
Q 40.5 35.296875 36.75 40.75 
Q 33 46.203125 26.203125 46.203125 
z
" id="FreeSans-103"/>
       <path d="M 47.703125 0 
L 40.203125 0 
L 40.203125 7.296875 
Q 36.5 2.09375 32.5 -0.09375 
Q 28.5 -2.296875 22.703125 -2.296875 
Q 15.09375 -2.296875 10.546875 1.59375 
Q 6 5.5 6 12 
L 6 52.40625 
L 14.296875 52.40625 
L 14.296875 15.296875 
Q 14.296875 10.59375 17.1875 7.796875 
Q 20.09375 5 25.09375 5 
Q 31.59375 5 35.5 9.84375 
Q 39.40625 14.703125 39.40625 22.703125 
L 39.40625 52.40625 
L 47.703125 52.40625 
z
" id="FreeSans-117"/>
       <path d="M 12.203125 15.59375 
Q 12.796875 10.90625 15.4375 8.15625 
Q 18.09375 5.40625 25 5.40625 
Q 30.5 5.40625 33.84375 7.65625 
Q 37.203125 9.90625 37.203125 13.59375 
Q 37.203125 16.5 35.296875 18.203125 
Q 33.40625 19.90625 29.09375 20.90625 
L 21.296875 22.796875 
Q 12 25 8.34375 28.34375 
Q 4.703125 31.703125 4.703125 37.90625 
Q 4.703125 45.203125 10.203125 49.546875 
Q 15.703125 53.90625 24.796875 53.90625 
Q 33.90625 53.90625 38.796875 49.703125 
Q 43.703125 45.5 43.796875 37.796875 
L 35 37.796875 
Q 34.703125 46.203125 24.5 46.203125 
Q 19.40625 46.203125 16.40625 44.046875 
Q 13.40625 41.90625 13.40625 38.296875 
Q 13.40625 35.5 15.703125 33.75 
Q 18 32 23.09375 30.796875 
L 31.09375 28.90625 
Q 38.90625 27 42.40625 23.546875 
Q 45.90625 20.09375 45.90625 14.296875 
Q 45.90625 6.703125 40.046875 2.203125 
Q 34.203125 -2.296875 24.296875 -2.296875 
Q 4 -2.296875 3.40625 15.59375 
z
" id="FreeSans-115"/>
       <path d="M 23.59375 72.90625 
L 29.09375 72.90625 
Q 15.40625 50.796875 15.40625 25.90625 
Q 15.40625 1.09375 29.09375 -21.203125 
L 23.59375 -21.203125 
Q 16.09375 -11.40625 11.6875 1.34375 
Q 7.296875 14.09375 7.296875 25.890625 
Q 7.296875 37.703125 11.6875 50.390625 
Q 16.09375 63.09375 23.59375 72.90625 
z
" id="FreeSans-40"/>
       <path d="M 74.40625 35.296875 
Q 74.40625 19.09375 64.796875 8.390625 
Q 55.203125 -2.296875 39.203125 -2.296875 
Q 23.40625 -2.296875 13.703125 8.25 
Q 4 18.796875 4 35.890625 
Q 4 53 13.703125 63.546875 
Q 23.40625 74.09375 39.09375 74.09375 
Q 55.09375 74.09375 64.75 63.5 
Q 74.40625 52.90625 74.40625 35.296875 
z
M 39.09375 65.90625 
Q 27.5 65.90625 20.390625 57.65625 
Q 13.296875 49.40625 13.296875 35.90625 
Q 13.296875 22.40625 20.4375 14.15625 
Q 27.59375 5.90625 39.1875 5.90625 
Q 50.796875 5.90625 57.9375 14.09375 
Q 65.09375 22.296875 65.09375 35.5 
Q 65.09375 49.296875 58 57.59375 
Q 50.90625 65.90625 39.09375 65.90625 
z
" id="FreeSans-79"/>
       <path d="M 8 0 
L 8 72.90625 
L 36.09375 72.90625 
Q 50 72.90625 57.890625 63.203125 
Q 65.796875 53.5 65.796875 36.5 
Q 65.796875 19.5 57.84375 9.75 
Q 49.90625 0 36.09375 0 
z
M 17.296875 8.203125 
L 34.5 8.203125 
Q 45.296875 8.203125 50.890625 15.390625 
Q 56.5 22.59375 56.5 36.40625 
Q 56.5 50.296875 50.890625 57.5 
Q 45.296875 64.703125 34.5 64.703125 
L 17.296875 64.703125 
z
" id="FreeSans-68"/>
       <path d="M 47.59375 70.90625 
L 47.59375 62.203125 
L 18.09375 62.203125 
L 15.296875 42.40625 
Q 21.203125 46.703125 28.40625 46.703125 
Q 38.59375 46.703125 44.9375 40.140625 
Q 51.296875 33.59375 51.296875 23.09375 
Q 51.296875 11.90625 44.5 4.796875 
Q 37.703125 -2.296875 27 -2.296875 
Q 22.90625 -2.296875 19.453125 -1.390625 
Q 16 -0.5 13.75 0.75 
Q 11.5 2 9.640625 4.046875 
Q 7.796875 6.09375 6.84375 7.640625 
Q 5.90625 9.203125 5.046875 11.546875 
Q 4.203125 13.90625 4 14.796875 
Q 3.796875 15.703125 3.5 17.40625 
L 12.296875 17.40625 
Q 15.40625 5.5 26.796875 5.5 
Q 34 5.5 38.140625 9.890625 
Q 42.296875 14.296875 42.296875 21.90625 
Q 42.296875 29.796875 38.09375 34.34375 
Q 33.90625 38.90625 26.796875 38.90625 
Q 22.703125 38.90625 19.796875 37.453125 
Q 16.90625 36 13.796875 32.296875 
L 5.703125 32.296875 
L 11 70.90625 
z
" id="FreeSans-53"/>
       <path d="M 9.296875 -21.203125 
L 3.796875 -21.203125 
Q 17.5 0.90625 17.5 25.796875 
Q 17.5 50.59375 3.796875 72.90625 
L 9.296875 72.90625 
Q 16.796875 63.09375 21.1875 50.34375 
Q 25.59375 37.59375 25.59375 25.796875 
Q 25.59375 14 21.1875 1.296875 
Q 16.796875 -11.40625 9.296875 -21.203125 
z
" id="FreeSans-41"/>
      </defs>
      <use xlink:href="#FreeSans-97"/>
      <use x="54.299988" xlink:href="#FreeSans-114"/>
      <use x="87.499985" xlink:href="#FreeSans-98"/>
      <use x="143.399979" xlink:href="#FreeSans-105"/>
      <use x="165.599976" xlink:href="#FreeSans-116"/>
      <use x="193.59996" xlink:href="#FreeSans-114"/>
      <use x="226.799957" xlink:href="#FreeSans-97"/>
      <use x="281.099945" xlink:href="#FreeSans-114"/>
      <use x="314.299942" xlink:href="#FreeSans-121"/>
      <use x="362.09993" xlink:href="#FreeSans-32"/>
      <use x="387.099915" xlink:href="#FreeSans-98"/>
      <use x="442.999908" xlink:href="#FreeSans-105"/>
      <use x="465.199905" xlink:href="#FreeSans-110"/>
      <use x="518.899902" xlink:href="#FreeSans-100"/>
      <use x="574.799896" xlink:href="#FreeSans-105"/>
      <use x="596.999893" xlink:href="#FreeSans-110"/>
      <use x="650.69989" xlink:href="#FreeSans-103"/>
      <use x="705.699875" xlink:href="#FreeSans-32"/>
      <use x="730.69986" xlink:href="#FreeSans-117"/>
      <use x="784.399857" xlink:href="#FreeSans-110"/>
      <use x="838.099854" xlink:href="#FreeSans-105"/>
      <use x="860.29985" xlink:href="#FreeSans-116"/>
      <use x="888.299835" xlink:href="#FreeSans-115"/>
      <use x="937.599823" xlink:href="#FreeSans-32"/>
      <use x="962.599808" xlink:href="#FreeSans-40"/>
      <use x="995.899796" xlink:href="#FreeSans-79"/>
      <use x="1074.299789" xlink:href="#FreeSans-68"/>
      <use x="1144.099777" xlink:href="#FreeSans-52"/>
      <use x="1199.699768" xlink:href="#FreeSans-53"/>
      <use x="1255.299759" xlink:href="#FreeSans-48"/>
      <use x="1310.89975" xlink:href="#FreeSans-41"/>
     </g>
    </g>
   </g>
   <g id="PathCollection_1">
    <path clip-path="url(#p10ab7ba729)" d="M 118.812564 174.194443 
L 115.71077 180.398032 
L 121.914359 180.398032 
z
" style="fill:#e69f00;stroke:#e69f00;stroke-width:0.886227;"/>
    <path clip-path="url(#p10ab7ba729)" d="M 102.885325 175.467075 
L 99.783531 181.670664 
L 105.98712 181.670664 
z
" style="fill:#e69f00;stroke:#e69f00;stroke-width:0.886227;"/>
    <path clip-path="url(#p10ab7ba729)" d="M 86.958086 175.933287 
L 83.856292 182.136875 
L 90.05988 182.136875 
z
" style="fill:#e69f00;stroke:#e69f00;stroke-width:0.886227;"/>
    <path clip-path="url(#p10ab7ba729)" d="M 71.030847 176.107171 
L 67.929053 182.310759 
L 74.132641 182.310759 
z
" style="fill:#e69f00;stroke:#e69f00;stroke-width:0.886227;"/>
    <path clip-path="url(#p10ab7ba729)" d="M 55.103608 176.182773 
L 52.001814 182.386361 
L 58.205402 182.386361 
z
" style="fill:#e69f00;stroke:#e69f00;stroke-width:0.886227;"/>
    <path clip-path="url(#p10ab7ba729)" d="M 118.812564 172.222494 
L 115.71077 178.426083 
L 121.914359 178.426083 
z
" style="fill:#56b4e9;stroke:#56b4e9;stroke-width:0.886227;"/>
    <path clip-path="url(#p10ab7ba729)" d="M 102.885325 174.689636 
L 99.783531 180.893224 
L 105.98712 180.893224 
z
" style="fill:#56b4e9;stroke:#56b4e9;stroke-width:0.886227;"/>
    <path clip-path="url(#p10ab7ba729)" d="M 86.958086 175.68002 
L 83.856292 181.883609 
L 90.05988 181.883609 
z
" style="fill:#56b4e9;stroke:#56b4e9;stroke-width:0.886227;"/>
    <path clip-path="url(#p10ab7ba729)" d="M 71.030847 176.017709 
L 67.929053 182.221297 
L 74.132641 182.221297 
z
" style="fill:#56b4e9;stroke:#56b4e9;stroke-width:0.886227;"/>
    <path clip-path="url(#p10ab7ba729)" d="M 55.103608 175.974868 
L 52.001814 182.178456 
L 58.205402 182.178456 
z
" style="fill:#56b4e9;stroke:#56b4e9;stroke-width:0.886227;"/>
   </g>
   <g id="PathCollection_2">
    <path clip-path="url(#p10ab7ba729)" d="M 118.812564 93.133288 
C 119.63517 93.133288 120.424194 92.806464 121.005864 92.224794 
C 121.587534 91.643124 121.914359 90.8541 121.914359 90.031494 
C 121.914359 89.208889 121.587534 88.419864 121.005864 87.838194 
C 120.424194 87.256525 119.63517 86.9297 118.812564 86.9297 
C 117.989959 86.9297 117.200935 87.256525 116.619265 87.838194 
C 116.037595 88.419864 115.71077 89.208889 115.71077 90.031494 
C 115.71077 90.8541 116.037595 91.643124 116.619265 92.224794 
C 117.200935 92.806464 117.989959 93.133288 118.812564 93.133288 
z
" style="fill:#e69f00;stroke:#e69f00;stroke-width:0.886227;"/>
    <path clip-path="url(#p10ab7ba729)" d="M 102.885325 97.84329 
C 103.707931 97.84329 104.496955 97.516465 105.078625 96.934795 
C 105.660295 96.353125 105.98712 95.564101 105.98712 94.741495 
C 105.98712 93.91889 105.660295 93.129866 105.078625 92.548196 
C 104.496955 91.966526 103.707931 91.639701 102.885325 91.639701 
C 102.06272 91.639701 101.273695 91.966526 100.692026 92.548196 
C 100.110356 93.129866 99.783531 93.91889 99.783531 94.741495 
C 99.783531 95.564101 100.110356 96.353125 100.692026 96.934795 
C 101.273695 97.516465 102.06272 97.84329 102.885325 97.84329 
z
" style="fill:#e69f00;stroke:#e69f00;stroke-width:0.886227;"/>
    <path clip-path="url(#p10ab7ba729)" d="M 86.958086 114.881436 
C 87.780692 114.881436 88.569716 114.554611 89.151386 113.972941 
C 89.733056 113.391272 90.05988 112.602247 90.05988 111.779642 
C 90.05988 110.957036 89.733056 110.168012 89.151386 109.586342 
C 88.569716 109.004672 87.780692 108.677848 86.958086 108.677848 
C 86.135481 108.677848 85.346456 109.004672 84.764786 109.586342 
C 84.183117 110.168012 83.856292 110.957036 83.856292 111.779642 
C 83.856292 112.602247 84.183117 113.391272 84.764786 113.972941 
C 85.346456 114.554611 86.135481 114.881436 86.958086 114.881436 
z
" style="fill:#e69f00;stroke:#e69f00;stroke-width:0.886227;"/>
    <path clip-path="url(#p10ab7ba729)" d="M 71.030847 134.908374 
C 71.853453 134.908374 72.642477 134.58155 73.224147 133.99988 
C 73.805817 133.41821 74.132641 132.629186 74.132641 131.80658 
C 74.132641 130.983975 73.805817 130.19495 73.224147 129.61328 
C 72.642477 129.03161 71.853453 128.704786 71.030847 128.704786 
C 70.208242 128.704786 69.419217 129.03161 68.837547 129.61328 
C 68.255877 130.19495 67.929053 130.983975 67.929053 131.80658 
C 67.929053 132.629186 68.255877 133.41821 68.837547 133.99988 
C 69.419217 134.58155 70.208242 134.908374 71.030847 134.908374 
z
" style="fill:#e69f00;stroke:#e69f00;stroke-width:0.886227;"/>
    <path clip-path="url(#p10ab7ba729)" d="M 55.103608 154.393502 
C 55.926213 154.393502 56.715238 154.066678 57.296908 153.485008 
C 57.878578 152.903338 58.205402 152.114314 58.205402 151.291708 
C 58.205402 150.469103 57.878578 149.680078 57.296908 149.098408 
C 56.715238 148.516738 55.926213 148.189914 55.103608 148.189914 
C 54.281003 148.189914 53.491978 148.516738 52.910308 149.098408 
C 52.328638 149.680078 52.001814 150.469103 52.001814 151.291708 
C 52.001814 152.114314 52.328638 152.903338 52.910308 153.485008 
C 53.491978 154.066678 54.281003 154.393502 55.103608 154.393502 
z
" style="fill:#e69f00;stroke:#e69f00;stroke-width:0.886227;"/>
    <path clip-path="url(#p10ab7ba729)" d="M 118.812564 81.601482 
C 119.63517 81.601482 120.424194 81.274657 121.005864 80.692987 
C 121.587534 80.111317 121.914359 79.322293 121.914359 78.499687 
C 121.914359 77.677082 121.587534 76.888058 121.005864 76.306388 
C 120.424194 75.724718 119.63517 75.397893 118.812564 75.397893 
C 117.989959 75.397893 117.200935 75.724718 116.619265 76.306388 
C 116.037595 76.888058 115.71077 77.677082 115.71077 78.499687 
C 115.71077 79.322293 116.037595 80.111317 116.619265 80.692987 
C 117.200935 81.274657 117.989959 81.601482 118.812564 81.601482 
z
" style="fill:#56b4e9;stroke:#56b4e9;stroke-width:0.886227;"/>
    <path clip-path="url(#p10ab7ba729)" d="M 102.885325 96.24179 
C 103.707931 96.24179 104.496955 95.914965 105.078625 95.333295 
C 105.660295 94.751625 105.98712 93.962601 105.98712 93.139996 
C 105.98712 92.31739 105.660295 91.528366 105.078625 90.946696 
C 104.496955 90.365026 103.707931 90.038201 102.885325 90.038201 
C 102.06272 90.038201 101.273695 90.365026 100.692026 90.946696 
C 100.110356 91.528366 99.783531 92.31739 99.783531 93.139996 
C 99.783531 93.962601 100.110356 94.751625 100.692026 95.333295 
C 101.273695 95.914965 102.06272 96.24179 102.885325 96.24179 
z
" style="fill:#56b4e9;stroke:#56b4e9;stroke-width:0.886227;"/>
    <path clip-path="url(#p10ab7ba729)" d="M 86.958086 115.374105 
C 87.780692 115.374105 88.569716 115.04728 89.151386 114.46561 
C 89.733056 113.88394 90.05988 113.094916 90.05988 112.27231 
C 90.05988 111.449705 89.733056 110.660681 89.151386 110.079011 
C 88.569716 109.497341 87.780692 109.170516 86.958086 109.170516 
C 86.135481 109.170516 85.346456 109.497341 84.764786 110.079011 
C 84.183117 110.660681 83.856292 111.449705 83.856292 112.27231 
C 83.856292 113.094916 84.183117 113.88394 84.764786 114.46561 
C 85.346456 115.04728 86.135481 115.374105 86.958086 115.374105 
z
" style="fill:#56b4e9;stroke:#56b4e9;stroke-width:0.886227;"/>
    <path clip-path="url(#p10ab7ba729)" d="M 71.030847 132.165286 
C 71.853453 132.165286 72.642477 131.838461 73.224147 131.256791 
C 73.805817 130.675121 74.132641 129.886097 74.132641 129.063492 
C 74.132641 128.240886 73.805817 127.451862 73.224147 126.870192 
C 72.642477 126.288522 71.853453 125.961697 71.030847 125.961697 
C 70.208242 125.961697 69.419217 126.288522 68.837547 126.870192 
C 68.255877 127.451862 67.929053 128.240886 67.929053 129.063492 
C 67.929053 129.886097 68.255877 130.675121 68.837547 131.256791 
C 69.419217 131.838461 70.208242 132.165286 71.030847 132.165286 
z
" style="fill:#56b4e9;stroke:#56b4e9;stroke-width:0.886227;"/>
    <path clip-path="url(#p10ab7ba729)" d="M 55.103608 155.833719 
C 55.926213 155.833719 56.715238 155.506894 57.296908 154.925224 
C 57.878578 154.343554 58.205402 153.55453 58.205402 152.731924 
C 58.205402 151.909319 57.878578 151.120295 57.296908 150.538625 
C 56.715238 149.956955 55.926213 149.63013 55.103608 149.63013 
C 54.281003 149.63013 53.491978 149.956955 52.910308 150.538625 
C 52.328638 151.120295 52.001814 151.909319 52.001814 152.731924 
C 52.001814 153.55453 52.328638 154.343554 52.910308 154.925224 
C 53.491978 155.506894 54.281003 155.833719 55.103608 155.833719 
z
" style="fill:#56b4e9;stroke:#56b4e9;stroke-width:0.886227;"/>
   </g>
   <g id="line2d_39">
    <path clip-path="url(#p10ab7ba729)" d="M 118.812564 90.031494 
L 102.885325 94.741495 
L 86.958086 111.779642 
L 71.030847 131.80658 
L 55.103608 151.291708 
" style="fill:none;stroke:#e69f00;stroke-width:1.772454;"/>
   </g>
   <g id="line2d_40">
    <path clip-path="url(#p10ab7ba729)" d="M 118.812564 177.296237 
L 102.885325 178.568869 
L 86.958086 179.035081 
L 71.030847 179.208965 
L 55.103608 179.284567 
" style="fill:none;stroke:#e69f00;stroke-dasharray:6.558079,2.835926;stroke-dashoffset:0;stroke-width:1.772454;"/>
   </g>
   <g id="line2d_41">
    <path clip-path="url(#p10ab7ba729)" d="M 118.812564 78.499687 
L 102.885325 93.139996 
L 86.958086 112.27231 
L 71.030847 129.063492 
L 55.103608 152.731924 
" style="fill:none;stroke:#56b4e9;stroke-width:1.772454;"/>
   </g>
   <g id="line2d_42">
    <path clip-path="url(#p10ab7ba729)" d="M 118.812564 175.324288 
L 102.885325 177.79143 
L 86.958086 178.781814 
L 71.030847 179.119503 
L 55.103608 179.076662 
" style="fill:none;stroke:#56b4e9;stroke-dasharray:6.558079,2.835926;stroke-dashoffset:0;stroke-width:1.772454;"/>
   </g>
   <g id="patch_3">
    <path d="M 50.249062 73.459687 
L 157.049062 73.459687 
L 157.049062 49.459687 
L 50.249062 49.459687 
z
" style="fill:#d3d3d3;"/>
   </g>
   <g id="patch_4">
    <path d="M 50.249062 184.339687 
L 50.249062 73.459687 
" style="fill:none;stroke:#262626;stroke-linecap:square;stroke-linejoin:miter;stroke-width:1.875;"/>
   </g>
   <g id="patch_5">
    <path d="M 157.049062 184.339687 
L 157.049062 73.459687 
" style="fill:none;stroke:#262626;stroke-linecap:square;stroke-linejoin:miter;stroke-width:1.875;"/>
   </g>
   <g id="patch_6">
    <path d="M 50.249062 184.339687 
L 157.049062 184.339687 
" style="fill:none;stroke:#262626;stroke-linecap:square;stroke-linejoin:miter;stroke-width:1.875;"/>
   </g>
   <g id="patch_7">
    <path d="M 50.249062 73.459687 
L 157.049062 73.459687 
" style="fill:none;stroke:#262626;stroke-linecap:square;stroke-linejoin:miter;stroke-width:1.875;"/>
   </g>
   <g id="text_10">
    <!-- rREGN10987 (50ug/mL) -->
    <g style="fill:#262626;" transform="translate(7.2 66.166406)scale(0.18 -0.18)">
     <defs>
      <path d="M 52.296875 36 
Q 55.5 34.59375 57.640625 32.6875 
Q 59.796875 30.796875 60.75 28.390625 
Q 61.703125 26 62 23.890625 
Q 62.296875 21.796875 62.296875 18.90625 
Q 62.296875 18 62.25 16.296875 
Q 62.203125 14.59375 62.203125 13.796875 
Q 62.203125 9.703125 63.09375 6.890625 
Q 64 4.09375 66.59375 2.296875 
L 66.59375 0 
L 55.296875 0 
Q 53.296875 4.59375 53.296875 11.90625 
L 53.296875 18.40625 
Q 53.296875 25.09375 50.390625 28.25 
Q 47.5 31.40625 41.296875 31.40625 
L 17.296875 31.40625 
L 17.296875 0 
L 8 0 
L 8 72.90625 
L 41.59375 72.90625 
Q 52.296875 72.90625 58.046875 67.84375 
Q 63.796875 62.796875 63.796875 53.40625 
Q 63.796875 47.203125 61.09375 43.09375 
Q 58.40625 39 52.296875 36 
z
M 54.09375 52.09375 
Q 54.09375 59.296875 50.296875 62 
Q 46.5 64.703125 39.796875 64.703125 
L 17.296875 64.703125 
L 17.296875 39.59375 
L 39.796875 39.59375 
Q 47.203125 39.59375 50.640625 42.59375 
Q 54.09375 45.59375 54.09375 52.09375 
z
" id="FreeSans-82"/>
      <path d="M 17.296875 33.203125 
L 17.296875 8.203125 
L 60.296875 8.203125 
L 60.296875 0 
L 8 0 
L 8 72.90625 
L 58.5 72.90625 
L 58.5 64.703125 
L 17.296875 64.703125 
L 17.296875 41.40625 
L 57 41.40625 
L 57 33.203125 
z
" id="FreeSans-69"/>
      <path d="M 13.296875 36.203125 
Q 13.296875 32.40625 14 28.546875 
Q 14.703125 24.703125 16.5 20.5 
Q 18.296875 16.296875 21.140625 13.140625 
Q 24 10 28.703125 7.953125 
Q 33.40625 5.90625 39.40625 5.90625 
Q 49.40625 5.90625 55.84375 12.203125 
Q 62.296875 18.5 62.296875 28.296875 
L 62.296875 30.296875 
L 40.09375 30.296875 
L 40.09375 38.5 
L 70.5 38.5 
L 70.5 -0.40625 
L 64.59375 -0.40625 
L 62.296875 9.296875 
Q 51.90625 -2.296875 37.40625 -2.296875 
Q 22.59375 -2.296875 13.296875 8.296875 
Q 4 18.90625 4 35.703125 
Q 4 40.5 4.890625 45.34375 
Q 5.796875 50.203125 8.296875 55.5 
Q 10.796875 60.796875 14.546875 64.796875 
Q 18.296875 68.796875 24.640625 71.4375 
Q 31 74.09375 39 74.09375 
Q 51.5 74.09375 59.546875 68 
Q 67.59375 61.90625 69.5 50.796875 
L 60 50.796875 
Q 58.5 57.796875 52.84375 61.84375 
Q 47.203125 65.90625 38.90625 65.90625 
Q 27.296875 65.90625 20.296875 57.75 
Q 13.296875 49.59375 13.296875 36.203125 
z
" id="FreeSans-71"/>
      <path d="M 65 72.90625 
L 65 0 
L 54.5 0 
L 16.796875 59.09375 
L 16.796875 0 
L 8 0 
L 8 72.90625 
L 18.09375 72.90625 
L 56.203125 13.296875 
L 56.203125 72.90625 
z
" id="FreeSans-78"/>
      <path d="M 50.90625 36.296875 
Q 50.90625 26.90625 49.203125 19.75 
Q 47.5 12.59375 44.953125 8.5 
Q 42.40625 4.40625 38.84375 1.84375 
Q 35.296875 -0.703125 32.09375 -1.5 
Q 28.90625 -2.296875 25.40625 -2.296875 
Q 17.296875 -2.296875 11.9375 2.59375 
Q 6.59375 7.5 5.296875 16.203125 
L 14.09375 16.203125 
Q 15.203125 11.09375 18.296875 8.296875 
Q 21.40625 5.5 26 5.5 
Q 33.59375 5.5 37.640625 12.453125 
Q 41.703125 19.40625 41.796875 32.40625 
Q 35.203125 24.5 25.59375 24.5 
Q 16 24.5 9.890625 30.796875 
Q 3.796875 37.09375 3.796875 47 
Q 3.796875 57.40625 10.34375 64.15625 
Q 16.90625 70.90625 27 70.90625 
Q 50.90625 70.90625 50.90625 36.296875 
z
M 26.90625 63.203125 
Q 20.796875 63.203125 16.796875 58.796875 
Q 12.796875 54.40625 12.796875 47.703125 
Q 12.796875 40.59375 16.5 36.4375 
Q 20.203125 32.296875 26.59375 32.296875 
Q 33 32.296875 37.140625 36.5 
Q 41.296875 40.703125 41.296875 47.203125 
Q 41.296875 54.09375 37.1875 58.640625 
Q 33.09375 63.203125 26.90625 63.203125 
z
" id="FreeSans-57"/>
      <path d="M 39.09375 37.296875 
Q 51.296875 31.5 51.296875 19.59375 
Q 51.296875 9.90625 44.640625 3.796875 
Q 38 -2.296875 27.5 -2.296875 
Q 17 -2.296875 10.34375 3.84375 
Q 3.703125 10 3.703125 19.703125 
Q 3.703125 31.5 15.796875 37.296875 
Q 10.40625 40.703125 8.296875 43.890625 
Q 6.203125 47.09375 6.203125 52 
Q 6.203125 60.296875 12.140625 65.59375 
Q 18.09375 70.90625 27.5 70.90625 
Q 36.90625 70.90625 42.84375 65.59375 
Q 48.796875 60.296875 48.796875 52 
Q 48.796875 47 46.6875 43.796875 
Q 44.59375 40.59375 39.09375 37.296875 
z
M 39.796875 57 
Q 33.09375 63.09375 27.5 63.09375 
Q 21.90625 63.09375 18.546875 60.046875 
Q 15.203125 57 15.203125 51.90625 
Q 15.203125 46.90625 18.546875 43.84375 
Q 21.90625 40.796875 27.5 40.796875 
Q 33 40.796875 36.390625 43.796875 
Q 39.796875 46.796875 39.796875 51.796875 
Q 39.796875 57 33.09375 63.09375 
z
M 42.296875 25.703125 
Q 34.09375 33.40625 27.5 33.40625 
Q 20.90625 33.40625 16.796875 29.546875 
Q 12.703125 25.703125 12.703125 19.5 
Q 12.703125 13.296875 16.75 9.390625 
Q 20.796875 5.5 27.296875 5.5 
Q 34 5.5 38.140625 9.34375 
Q 42.296875 13.203125 42.296875 19.5 
Q 42.296875 25.703125 34.09375 33.40625 
z
" id="FreeSans-56"/>
      <path d="M 52 70.90625 
L 52 63.5 
Q 40 47.5 33.046875 32.25 
Q 26.09375 17 23.203125 0 
L 13.796875 0 
Q 17.796875 17.5 24 30.796875 
Q 30.203125 44.09375 42.90625 62.203125 
L 4.59375 62.203125 
L 4.59375 70.90625 
z
" id="FreeSans-55"/>
      <path d="M 22.90625 72.90625 
L 28.40625 72.90625 
L 4.703125 -2 
L -0.796875 -2 
z
" id="FreeSans-47"/>
      <path d="M 6 52.40625 
L 13.703125 52.40625 
L 13.703125 45 
Q 17.09375 49.703125 20.84375 51.796875 
Q 24.59375 53.90625 29.796875 53.90625 
Q 39.5 53.90625 43.90625 45.90625 
Q 47.59375 50.296875 51.1875 52.09375 
Q 54.796875 53.90625 60 53.90625 
Q 67.296875 53.90625 71.25 50.15625 
Q 75.203125 46.40625 75.203125 39.296875 
L 75.203125 0 
L 66.796875 0 
L 66.796875 36.09375 
Q 66.796875 41.09375 64.25 43.84375 
Q 61.703125 46.59375 57.09375 46.59375 
Q 52 46.59375 48.390625 42.59375 
Q 44.796875 38.59375 44.796875 32.90625 
L 44.796875 0 
L 36.40625 0 
L 36.40625 36.09375 
Q 36.40625 41.09375 33.84375 43.84375 
Q 31.296875 46.59375 26.703125 46.59375 
Q 21.59375 46.59375 18 42.59375 
Q 14.40625 38.59375 14.40625 32.90625 
L 14.40625 0 
L 6 0 
z
" id="FreeSans-109"/>
      <path d="M 17.296875 72.90625 
L 17.296875 8.203125 
L 53.296875 8.203125 
L 53.296875 0 
L 8 0 
L 8 72.90625 
z
" id="FreeSans-76"/>
     </defs>
     <use xlink:href="#FreeSans-114"/>
     <use x="33.199997" xlink:href="#FreeSans-82"/>
     <use x="104.099991" xlink:href="#FreeSans-69"/>
     <use x="167.399979" xlink:href="#FreeSans-71"/>
     <use x="243.899963" xlink:href="#FreeSans-78"/>
     <use x="316.899948" xlink:href="#FreeSans-49"/>
     <use x="372.499939" xlink:href="#FreeSans-48"/>
     <use x="428.09993" xlink:href="#FreeSans-57"/>
     <use x="483.699921" xlink:href="#FreeSans-56"/>
     <use x="539.299911" xlink:href="#FreeSans-55"/>
     <use x="594.899902" xlink:href="#FreeSans-32"/>
     <use x="619.899887" xlink:href="#FreeSans-40"/>
     <use x="653.199875" xlink:href="#FreeSans-53"/>
     <use x="708.799866" xlink:href="#FreeSans-48"/>
     <use x="764.399857" xlink:href="#FreeSans-117"/>
     <use x="818.099854" xlink:href="#FreeSans-103"/>
     <use x="873.099838" xlink:href="#FreeSans-47"/>
     <use x="900.899826" xlink:href="#FreeSans-109"/>
     <use x="982.099808" xlink:href="#FreeSans-76"/>
     <use x="1038.399796" xlink:href="#FreeSans-41"/>
    </g>
   </g>
   <g id="text_11">
    <!-- ligand -->
    <g transform="translate(412.249063 63.25625)scale(0.18 -0.18)">
     <defs>
      <path d="M 14.40625 72.90625 
L 14.40625 0 
L 6 0 
L 6 72.90625 
z
" id="FreeSans-108"/>
     </defs>
     <use xlink:href="#FreeSans-108"/>
     <use x="21.399994" xlink:href="#FreeSans-105"/>
     <use x="43.599991" xlink:href="#FreeSans-103"/>
     <use x="98.599976" xlink:href="#FreeSans-97"/>
     <use x="152.899963" xlink:href="#FreeSans-110"/>
     <use x="206.59996" xlink:href="#FreeSans-100"/>
    </g>
   </g>
   <g id="patch_8">
    <path clip-path="url(#p59b625c63e)" d="M 412.249063 93.179688 
L 430.249063 93.179688 
L 430.249063 75.179688 
L 412.249063 75.179688 
z
" style="fill:#ffffff;"/>
   </g>
   <g id="line2d_43">
    <path clip-path="url(#p59b625c63e)" d="M 421.249063 84.179688 
" style="fill:none;stroke:#1f77b4;stroke-linecap:round;stroke-width:2.25;"/>
    <defs>
     <path d="M 0 3.101794 
C 0.822605 3.101794 1.61163 2.77497 2.1933 2.1933 
C 2.77497 1.61163 3.101794 0.822605 3.101794 0 
C 3.101794 -0.822605 2.77497 -1.61163 2.1933 -2.1933 
C 1.61163 -2.77497 0.822605 -3.101794 0 -3.101794 
C -0.822605 -3.101794 -1.61163 -2.77497 -2.1933 -2.1933 
C -2.77497 -1.61163 -3.101794 -0.822605 -3.101794 0 
C -3.101794 0.822605 -2.77497 1.61163 -2.1933 2.1933 
C -1.61163 2.77497 -0.822605 3.101794 0 3.101794 
z
" id="mf56703299e" style="stroke:#e69f00;stroke-width:0.886227;"/>
    </defs>
    <g clip-path="url(#p59b625c63e)">
     <use style="fill:#e69f00;stroke:#e69f00;stroke-width:0.886227;" x="421.249063" xlink:href="#mf56703299e" y="84.179688"/>
    </g>
   </g>
   <g id="line2d_44">
    <path clip-path="url(#p59b625c63e)" d="M 412.249063 84.179688 
L 430.249063 84.179688 
" style="fill:none;stroke:#e69f00;stroke-width:1.772454;"/>
   </g>
   <g id="text_12">
    <!-- RBD -->
    <g transform="translate(433.249063 88.779531)scale(0.18 -0.18)">
     <defs>
      <path d="M 62.40625 20.796875 
Q 62.40625 11.40625 56.5 5.703125 
Q 50.59375 0 40.90625 0 
L 8 0 
L 8 72.90625 
L 37.59375 72.90625 
Q 43.703125 72.90625 48.203125 71.09375 
Q 52.703125 69.296875 54.953125 66.34375 
Q 57.203125 63.40625 58.203125 60.453125 
Q 59.203125 57.5 59.203125 54.40625 
Q 59.203125 43.203125 49.09375 38.5 
Q 56.09375 35.796875 59.25 31.59375 
Q 62.40625 27.40625 62.40625 20.796875 
z
M 35.296875 41.5 
Q 49.90625 41.5 49.90625 53.09375 
Q 49.90625 64.703125 35.296875 64.703125 
L 17.296875 64.703125 
L 17.296875 41.5 
L 35.296875 41.5 
z
M 40 8.203125 
Q 44.90625 8.203125 48 10.34375 
Q 51.09375 12.5 52.09375 15.09375 
Q 53.09375 17.703125 53.09375 20.703125 
Q 53.09375 26.40625 49.6875 29.84375 
Q 46.296875 33.296875 40 33.296875 
L 17.296875 33.296875 
L 17.296875 8.203125 
z
" id="FreeSans-66"/>
     </defs>
     <use xlink:href="#FreeSans-82"/>
     <use x="70.899994" xlink:href="#FreeSans-66"/>
     <use x="137.299988" xlink:href="#FreeSans-68"/>
    </g>
   </g>
   <g id="patch_9">
    <path clip-path="url(#pdfb12a8aa7)" d="M 412.249063 113.179688 
L 430.249063 113.179688 
L 430.249063 95.179688 
L 412.249063 95.179688 
z
" style="fill:#ffffff;"/>
   </g>
   <g id="line2d_45">
    <path clip-path="url(#pdfb12a8aa7)" d="M 421.249063 104.179688 
" style="fill:none;stroke:#1f77b4;stroke-linecap:round;stroke-width:2.25;"/>
    <defs>
     <path d="M 0 3.101794 
C 0.822605 3.101794 1.61163 2.77497 2.1933 2.1933 
C 2.77497 1.61163 3.101794 0.822605 3.101794 0 
C 3.101794 -0.822605 2.77497 -1.61163 2.1933 -2.1933 
C 1.61163 -2.77497 0.822605 -3.101794 0 -3.101794 
C -0.822605 -3.101794 -1.61163 -2.77497 -2.1933 -2.1933 
C -2.77497 -1.61163 -3.101794 -0.822605 -3.101794 0 
C -3.101794 0.822605 -2.77497 1.61163 -2.1933 2.1933 
C -1.61163 2.77497 -0.822605 3.101794 0 3.101794 
z
" id="mf0ff814385" style="stroke:#56b4e9;stroke-width:0.886227;"/>
    </defs>
    <g clip-path="url(#pdfb12a8aa7)">
     <use style="fill:#56b4e9;stroke:#56b4e9;stroke-width:0.886227;" x="421.249063" xlink:href="#mf0ff814385" y="104.179688"/>
    </g>
   </g>
   <g id="line2d_46">
    <path clip-path="url(#pdfb12a8aa7)" d="M 412.249063 104.179688 
L 430.249063 104.179688 
" style="fill:none;stroke:#56b4e9;stroke-width:1.772454;"/>
   </g>
   <g id="text_13">
    <!-- spike -->
    <g transform="translate(433.249063 108.779531)scale(0.18 -0.18)">
     <defs>
      <path d="M 6 -21.796875 
L 6 52.40625 
L 13.703125 52.40625 
L 13.703125 44.5 
Q 19.59375 53.90625 30.40625 53.90625 
Q 40.796875 53.90625 46.84375 46.203125 
Q 52.90625 38.5 52.90625 25.296875 
Q 52.90625 12.796875 46.75 5.25 
Q 40.59375 -2.296875 30.5 -2.296875 
Q 20.796875 -2.296875 14.40625 5.5 
L 14.40625 -21.796875 
z
M 29 46.09375 
Q 22.40625 46.09375 18.40625 40.546875 
Q 14.40625 35 14.40625 25.796875 
Q 14.40625 16.59375 18.40625 11.046875 
Q 22.40625 5.5 29 5.5 
Q 35.796875 5.5 40 11.046875 
Q 44.203125 16.59375 44.203125 25.5 
Q 44.203125 34.90625 40.046875 40.5 
Q 35.90625 46.09375 29 46.09375 
z
" id="FreeSans-112"/>
      <path d="M 14.296875 72.90625 
L 14.296875 30.203125 
L 36.5 52.40625 
L 47.203125 52.40625 
L 29 34.296875 
L 50.40625 0 
L 40.09375 0 
L 22.40625 28.40625 
L 14.296875 20.40625 
L 14.296875 0 
L 6 0 
L 6 72.90625 
z
" id="FreeSans-107"/>
     </defs>
     <use xlink:href="#FreeSans-115"/>
     <use x="49.299988" xlink:href="#FreeSans-112"/>
     <use x="105.199982" xlink:href="#FreeSans-105"/>
     <use x="127.399979" xlink:href="#FreeSans-107"/>
     <use x="178.799973" xlink:href="#FreeSans-101"/>
    </g>
   </g>
   <g id="text_14">
    <!-- depleted -->
    <g transform="translate(412.249063 156.302812)scale(0.18 -0.18)">
     <use xlink:href="#FreeSans-100"/>
     <use x="55.899994" xlink:href="#FreeSans-101"/>
     <use x="109.199982" xlink:href="#FreeSans-112"/>
     <use x="165.099976" xlink:href="#FreeSans-108"/>
     <use x="186.499969" xlink:href="#FreeSans-101"/>
     <use x="239.799957" xlink:href="#FreeSans-116"/>
     <use x="267.799942" xlink:href="#FreeSans-101"/>
     <use x="321.09993" xlink:href="#FreeSans-100"/>
    </g>
   </g>
   <g id="patch_10">
    <path clip-path="url(#p1d57285451)" d="M 412.249063 186.22625 
L 430.249063 186.22625 
L 430.249063 168.22625 
L 412.249063 168.22625 
z
" style="fill:#ffffff;"/>
   </g>
   <g id="line2d_47">
    <path clip-path="url(#p1d57285451)" d="M 421.249063 177.22625 
" style="fill:none;stroke:#1f77b4;stroke-linecap:round;stroke-width:2.25;"/>
    <defs>
     <path d="M 0 3.101794 
C 0.822605 3.101794 1.61163 2.77497 2.1933 2.1933 
C 2.77497 1.61163 3.101794 0.822605 3.101794 0 
C 3.101794 -0.822605 2.77497 -1.61163 2.1933 -2.1933 
C 1.61163 -2.77497 0.822605 -3.101794 0 -3.101794 
C -0.822605 -3.101794 -1.61163 -2.77497 -2.1933 -2.1933 
C -2.77497 -1.61163 -3.101794 -0.822605 -3.101794 0 
C -3.101794 0.822605 -2.77497 1.61163 -2.1933 2.1933 
C -1.61163 2.77497 -0.822605 3.101794 0 3.101794 
z
" id="m5ba9186354" style="stroke:#000000;stroke-width:0.886227;"/>
    </defs>
    <g clip-path="url(#p1d57285451)">
     <use style="stroke:#000000;stroke-width:0.886227;" x="421.249063" xlink:href="#m5ba9186354" y="177.22625"/>
    </g>
   </g>
   <g id="line2d_48">
    <path clip-path="url(#p1d57285451)" d="M 412.249063 177.22625 
L 430.249063 177.22625 
" style="fill:none;stroke:#000000;stroke-width:1.772454;"/>
   </g>
   <g id="text_15">
    <!-- pre -->
    <g transform="translate(433.249063 181.826094)scale(0.18 -0.18)">
     <use xlink:href="#FreeSans-112"/>
     <use x="55.899994" xlink:href="#FreeSans-114"/>
     <use x="89.099991" xlink:href="#FreeSans-101"/>
    </g>
   </g>
   <g id="patch_11">
    <path clip-path="url(#pef5a4ecbb7)" d="M 412.249063 206.22625 
L 430.249063 206.22625 
L 430.249063 188.22625 
L 412.249063 188.22625 
z
" style="fill:#ffffff;"/>
   </g>
   <g id="line2d_49">
    <path clip-path="url(#pef5a4ecbb7)" d="M 421.249063 197.22625 
" style="fill:none;stroke:#1f77b4;stroke-linecap:round;stroke-width:2.25;"/>
    <defs>
     <path d="M 0 -3.101794 
L -3.101794 3.101794 
L 3.101794 3.101794 
z
" id="m5e9dd6ee60" style="stroke:#000000;stroke-linejoin:miter;stroke-width:0.886227;"/>
    </defs>
    <g clip-path="url(#pef5a4ecbb7)">
     <use style="stroke:#000000;stroke-linejoin:miter;stroke-width:0.886227;" x="421.249063" xlink:href="#m5e9dd6ee60" y="197.22625"/>
    </g>
   </g>
   <g id="line2d_50">
    <path clip-path="url(#pef5a4ecbb7)" d="M 412.249063 197.22625 
L 430.249063 197.22625 
" style="fill:none;stroke:#000000;stroke-dasharray:6.558079,2.835926;stroke-dashoffset:0;stroke-width:1.772454;"/>
   </g>
   <g id="text_16">
    <!-- post -->
    <g transform="translate(433.249063 201.826094)scale(0.18 -0.18)">
     <defs>
      <path d="M 26.59375 53.90625 
Q 37.90625 53.90625 44.15625 46.453125 
Q 50.40625 39 50.40625 25.40625 
Q 50.40625 12.5 44.046875 5.09375 
Q 37.703125 -2.296875 26.703125 -2.296875 
Q 15.5 -2.296875 9.25 5.140625 
Q 3 12.59375 3 25.796875 
Q 3 39 9.296875 46.453125 
Q 15.59375 53.90625 26.59375 53.90625 
z
M 26.703125 46.203125 
Q 19.703125 46.203125 15.703125 40.75 
Q 11.703125 35.296875 11.703125 25.796875 
Q 11.703125 16.296875 15.703125 10.84375 
Q 19.703125 5.40625 26.703125 5.40625 
Q 33.59375 5.40625 37.640625 10.84375 
Q 41.703125 16.296875 41.703125 25.5 
Q 41.703125 35.203125 37.75 40.703125 
Q 33.796875 46.203125 26.703125 46.203125 
z
" id="FreeSans-111"/>
     </defs>
     <use xlink:href="#FreeSans-112"/>
     <use x="55.899994" xlink:href="#FreeSans-111"/>
     <use x="109.299988" xlink:href="#FreeSans-115"/>
     <use x="158.599976" xlink:href="#FreeSans-116"/>
    </g>
   </g>
  </g>
  <g id="axes_2">
   <g id="patch_12">
    <path d="M 164.249062 184.339687 
L 271.049062 184.339687 
L 271.049062 73.459687 
L 164.249062 73.459687 
z
" style="fill:#ffffff;"/>
   </g>
   <g id="matplotlib.axis_3">
    <g id="xtick_30">
     <g id="line2d_51">
      <g>
       <use style="fill:#262626;stroke:#262626;stroke-width:1.875;" x="176.097628" xlink:href="#m9ceb2c1f66" y="184.339687"/>
      </g>
     </g>
     <g id="text_17">
      <!-- 1e-4 -->
      <g style="fill:#262626;" transform="translate(180.314152 228.373594)rotate(-90)scale(0.165 -0.165)">
       <use xlink:href="#FreeSans-49"/>
       <use x="55.599991" xlink:href="#FreeSans-101"/>
       <use x="108.899979" xlink:href="#FreeSans-45"/>
       <use x="142.199966" xlink:href="#FreeSans-52"/>
      </g>
     </g>
    </g>
    <g id="xtick_31">
     <g id="line2d_52">
      <g>
       <use style="fill:#262626;stroke:#262626;stroke-width:1.875;" x="209.479581" xlink:href="#m9ceb2c1f66" y="184.339687"/>
      </g>
     </g>
     <g id="text_18">
      <!-- 1e-3 -->
      <g style="fill:#262626;" transform="translate(213.696104 228.373594)rotate(-90)scale(0.165 -0.165)">
       <use xlink:href="#FreeSans-49"/>
       <use x="55.599991" xlink:href="#FreeSans-101"/>
       <use x="108.899979" xlink:href="#FreeSans-45"/>
       <use x="142.199966" xlink:href="#FreeSans-51"/>
      </g>
     </g>
    </g>
    <g id="xtick_32">
     <g id="line2d_53">
      <g>
       <use style="fill:#262626;stroke:#262626;stroke-width:1.875;" x="242.861533" xlink:href="#m9ceb2c1f66" y="184.339687"/>
      </g>
     </g>
     <g id="text_19">
      <!-- 1e-2 -->
      <g style="fill:#262626;" transform="translate(247.078057 228.373594)rotate(-90)scale(0.165 -0.165)">
       <use xlink:href="#FreeSans-49"/>
       <use x="55.599991" xlink:href="#FreeSans-101"/>
       <use x="108.899979" xlink:href="#FreeSans-45"/>
       <use x="142.199966" xlink:href="#FreeSans-50"/>
      </g>
     </g>
    </g>
    <g id="xtick_33">
     <g id="line2d_54">
      <g>
       <use style="fill:#262626;stroke:#262626;stroke-width:1.5;" x="166.048659" xlink:href="#m9435d39110" y="184.339687"/>
      </g>
     </g>
    </g>
    <g id="xtick_34">
     <g id="line2d_55">
      <g>
       <use style="fill:#262626;stroke:#262626;stroke-width:1.5;" x="168.691884" xlink:href="#m9435d39110" y="184.339687"/>
      </g>
     </g>
    </g>
    <g id="xtick_35">
     <g id="line2d_56">
      <g>
       <use style="fill:#262626;stroke:#262626;stroke-width:1.5;" x="170.926698" xlink:href="#m9435d39110" y="184.339687"/>
      </g>
     </g>
    </g>
    <g id="xtick_36">
     <g id="line2d_57">
      <g>
       <use style="fill:#262626;stroke:#262626;stroke-width:1.5;" x="172.862583" xlink:href="#m9435d39110" y="184.339687"/>
      </g>
     </g>
    </g>
    <g id="xtick_37">
     <g id="line2d_58">
      <g>
       <use style="fill:#262626;stroke:#262626;stroke-width:1.5;" x="174.570154" xlink:href="#m9435d39110" y="184.339687"/>
      </g>
     </g>
    </g>
    <g id="xtick_38">
     <g id="line2d_59">
      <g>
       <use style="fill:#262626;stroke:#262626;stroke-width:1.5;" x="186.146597" xlink:href="#m9435d39110" y="184.339687"/>
      </g>
     </g>
    </g>
    <g id="xtick_39">
     <g id="line2d_60">
      <g>
       <use style="fill:#262626;stroke:#262626;stroke-width:1.5;" x="192.024867" xlink:href="#m9435d39110" y="184.339687"/>
      </g>
     </g>
    </g>
    <g id="xtick_40">
     <g id="line2d_61">
      <g>
       <use style="fill:#262626;stroke:#262626;stroke-width:1.5;" x="196.195566" xlink:href="#m9435d39110" y="184.339687"/>
      </g>
     </g>
    </g>
    <g id="xtick_41">
     <g id="line2d_62">
      <g>
       <use style="fill:#262626;stroke:#262626;stroke-width:1.5;" x="199.430612" xlink:href="#m9435d39110" y="184.339687"/>
      </g>
     </g>
    </g>
    <g id="xtick_42">
     <g id="line2d_63">
      <g>
       <use style="fill:#262626;stroke:#262626;stroke-width:1.5;" x="202.073836" xlink:href="#m9435d39110" y="184.339687"/>
      </g>
     </g>
    </g>
    <g id="xtick_43">
     <g id="line2d_64">
      <g>
       <use style="fill:#262626;stroke:#262626;stroke-width:1.5;" x="204.308651" xlink:href="#m9435d39110" y="184.339687"/>
      </g>
     </g>
    </g>
    <g id="xtick_44">
     <g id="line2d_65">
      <g>
       <use style="fill:#262626;stroke:#262626;stroke-width:1.5;" x="206.244535" xlink:href="#m9435d39110" y="184.339687"/>
      </g>
     </g>
    </g>
    <g id="xtick_45">
     <g id="line2d_66">
      <g>
       <use style="fill:#262626;stroke:#262626;stroke-width:1.5;" x="207.952106" xlink:href="#m9435d39110" y="184.339687"/>
      </g>
     </g>
    </g>
    <g id="xtick_46">
     <g id="line2d_67">
      <g>
       <use style="fill:#262626;stroke:#262626;stroke-width:1.5;" x="219.52855" xlink:href="#m9435d39110" y="184.339687"/>
      </g>
     </g>
    </g>
    <g id="xtick_47">
     <g id="line2d_68">
      <g>
       <use style="fill:#262626;stroke:#262626;stroke-width:1.5;" x="225.40682" xlink:href="#m9435d39110" y="184.339687"/>
      </g>
     </g>
    </g>
    <g id="xtick_48">
     <g id="line2d_69">
      <g>
       <use style="fill:#262626;stroke:#262626;stroke-width:1.5;" x="229.577519" xlink:href="#m9435d39110" y="184.339687"/>
      </g>
     </g>
    </g>
    <g id="xtick_49">
     <g id="line2d_70">
      <g>
       <use style="fill:#262626;stroke:#262626;stroke-width:1.5;" x="232.812564" xlink:href="#m9435d39110" y="184.339687"/>
      </g>
     </g>
    </g>
    <g id="xtick_50">
     <g id="line2d_71">
      <g>
       <use style="fill:#262626;stroke:#262626;stroke-width:1.5;" x="235.455789" xlink:href="#m9435d39110" y="184.339687"/>
      </g>
     </g>
    </g>
    <g id="xtick_51">
     <g id="line2d_72">
      <g>
       <use style="fill:#262626;stroke:#262626;stroke-width:1.5;" x="237.690604" xlink:href="#m9435d39110" y="184.339687"/>
      </g>
     </g>
    </g>
    <g id="xtick_52">
     <g id="line2d_73">
      <g>
       <use style="fill:#262626;stroke:#262626;stroke-width:1.5;" x="239.626488" xlink:href="#m9435d39110" y="184.339687"/>
      </g>
     </g>
    </g>
    <g id="xtick_53">
     <g id="line2d_74">
      <g>
       <use style="fill:#262626;stroke:#262626;stroke-width:1.5;" x="241.334059" xlink:href="#m9435d39110" y="184.339687"/>
      </g>
     </g>
    </g>
    <g id="xtick_54">
     <g id="line2d_75">
      <g>
       <use style="fill:#262626;stroke:#262626;stroke-width:1.5;" x="252.910503" xlink:href="#m9435d39110" y="184.339687"/>
      </g>
     </g>
    </g>
    <g id="xtick_55">
     <g id="line2d_76">
      <g>
       <use style="fill:#262626;stroke:#262626;stroke-width:1.5;" x="258.788773" xlink:href="#m9435d39110" y="184.339687"/>
      </g>
     </g>
    </g>
    <g id="xtick_56">
     <g id="line2d_77">
      <g>
       <use style="fill:#262626;stroke:#262626;stroke-width:1.5;" x="262.959472" xlink:href="#m9435d39110" y="184.339687"/>
      </g>
     </g>
    </g>
    <g id="xtick_57">
     <g id="line2d_78">
      <g>
       <use style="fill:#262626;stroke:#262626;stroke-width:1.5;" x="266.194517" xlink:href="#m9435d39110" y="184.339687"/>
      </g>
     </g>
    </g>
    <g id="xtick_58">
     <g id="line2d_79">
      <g>
       <use style="fill:#262626;stroke:#262626;stroke-width:1.5;" x="268.837742" xlink:href="#m9435d39110" y="184.339687"/>
      </g>
     </g>
    </g>
   </g>
   <g id="matplotlib.axis_4">
    <g id="ytick_10"/>
    <g id="ytick_11"/>
    <g id="ytick_12"/>
    <g id="ytick_13"/>
    <g id="ytick_14"/>
    <g id="ytick_15"/>
    <g id="ytick_16"/>
    <g id="ytick_17"/>
    <g id="ytick_18"/>
   </g>
   <g id="PathCollection_3">
    <path clip-path="url(#p5e5c1fee46)" d="M 266.194517 171.741162 
L 263.092723 177.94475 
L 269.296311 177.94475 
z
" style="fill:#e69f00;stroke:#e69f00;stroke-width:0.886227;"/>
    <path clip-path="url(#p5e5c1fee46)" d="M 250.267278 174.104981 
L 247.165484 180.308569 
L 253.369072 180.308569 
z
" style="fill:#e69f00;stroke:#e69f00;stroke-width:0.886227;"/>
    <path clip-path="url(#p5e5c1fee46)" d="M 234.340039 175.516216 
L 231.238245 181.719805 
L 237.441833 181.719805 
z
" style="fill:#e69f00;stroke:#e69f00;stroke-width:0.886227;"/>
    <path clip-path="url(#p5e5c1fee46)" d="M 218.4128 175.896746 
L 215.311005 182.100334 
L 221.514594 182.100334 
z
" style="fill:#e69f00;stroke:#e69f00;stroke-width:0.886227;"/>
    <path clip-path="url(#p5e5c1fee46)" d="M 202.485561 176.07567 
L 199.383766 182.279259 
L 205.587355 182.279259 
z
" style="fill:#e69f00;stroke:#e69f00;stroke-width:0.886227;"/>
    <path clip-path="url(#p5e5c1fee46)" d="M 266.194517 151.72304 
L 263.092723 157.926629 
L 269.296311 157.926629 
z
" style="fill:#56b4e9;stroke:#56b4e9;stroke-width:0.886227;"/>
    <path clip-path="url(#p5e5c1fee46)" d="M 250.267278 166.349487 
L 247.165484 172.553076 
L 253.369072 172.553076 
z
" style="fill:#56b4e9;stroke:#56b4e9;stroke-width:0.886227;"/>
    <path clip-path="url(#p5e5c1fee46)" d="M 234.340039 172.596723 
L 231.238245 178.800312 
L 237.441833 178.800312 
z
" style="fill:#56b4e9;stroke:#56b4e9;stroke-width:0.886227;"/>
    <path clip-path="url(#p5e5c1fee46)" d="M 218.4128 174.826979 
L 215.311005 181.030567 
L 221.514594 181.030567 
z
" style="fill:#56b4e9;stroke:#56b4e9;stroke-width:0.886227;"/>
    <path clip-path="url(#p5e5c1fee46)" d="M 202.485561 175.565357 
L 199.383766 181.768946 
L 205.587355 181.768946 
z
" style="fill:#56b4e9;stroke:#56b4e9;stroke-width:0.886227;"/>
   </g>
   <g id="PathCollection_4">
    <path clip-path="url(#p5e5c1fee46)" d="M 266.194517 92.502015 
C 267.017122 92.502015 267.806147 92.17519 268.387817 91.59352 
C 268.969487 91.01185 269.296311 90.222826 269.296311 89.40022 
C 269.296311 88.577615 268.969487 87.78859 268.387817 87.206921 
C 267.806147 86.625251 267.017122 86.298426 266.194517 86.298426 
C 265.371912 86.298426 264.582887 86.625251 264.001217 87.206921 
C 263.419547 87.78859 263.092723 88.577615 263.092723 89.40022 
C 263.092723 90.222826 263.419547 91.01185 264.001217 91.59352 
C 264.582887 92.17519 265.371912 92.502015 266.194517 92.502015 
z
" style="fill:#e69f00;stroke:#e69f00;stroke-width:0.886227;"/>
    <path clip-path="url(#p5e5c1fee46)" d="M 250.267278 100.031963 
C 251.089883 100.031963 251.878908 99.705138 252.460578 99.123468 
C 253.042248 98.541798 253.369072 97.752774 253.369072 96.930168 
C 253.369072 96.107563 253.042248 95.318538 252.460578 94.736869 
C 251.878908 94.155199 251.089883 93.828374 250.267278 93.828374 
C 249.444672 93.828374 248.655648 94.155199 248.073978 94.736869 
C 247.492308 95.318538 247.165484 96.107563 247.165484 96.930168 
C 247.165484 97.752774 247.492308 98.541798 248.073978 99.123468 
C 248.655648 99.705138 249.444672 100.031963 250.267278 100.031963 
z
" style="fill:#e69f00;stroke:#e69f00;stroke-width:0.886227;"/>
    <path clip-path="url(#p5e5c1fee46)" d="M 234.340039 110.25334 
C 235.162644 110.25334 235.951669 109.926515 236.533339 109.344845 
C 237.115008 108.763176 237.441833 107.974151 237.441833 107.151546 
C 237.441833 106.32894 237.115008 105.539916 236.533339 104.958246 
C 235.951669 104.376576 235.162644 104.049751 234.340039 104.049751 
C 233.517433 104.049751 232.728409 104.376576 232.146739 104.958246 
C 231.565069 105.539916 231.238245 106.32894 231.238245 107.151546 
C 231.238245 107.974151 231.565069 108.763176 232.146739 109.344845 
C 232.728409 109.926515 233.517433 110.25334 234.340039 110.25334 
z
" style="fill:#e69f00;stroke:#e69f00;stroke-width:0.886227;"/>
    <path clip-path="url(#p5e5c1fee46)" d="M 218.4128 129.433535 
C 219.235405 129.433535 220.02443 129.10671 220.606099 128.52504 
C 221.187769 127.94337 221.514594 127.154346 221.514594 126.331741 
C 221.514594 125.509135 221.187769 124.720111 220.606099 124.138441 
C 220.02443 123.556771 219.235405 123.229946 218.4128 123.229946 
C 217.590194 123.229946 216.80117 123.556771 216.2195 124.138441 
C 215.63783 124.720111 215.311005 125.509135 215.311005 126.331741 
C 215.311005 127.154346 215.63783 127.94337 216.2195 128.52504 
C 216.80117 129.10671 217.590194 129.433535 218.4128 129.433535 
z
" style="fill:#e69f00;stroke:#e69f00;stroke-width:0.886227;"/>
    <path clip-path="url(#p5e5c1fee46)" d="M 202.485561 153.94115 
C 203.308166 153.94115 204.09719 153.614325 204.67886 153.032655 
C 205.26053 152.450985 205.587355 151.661961 205.587355 150.839355 
C 205.587355 150.01675 205.26053 149.227726 204.67886 148.646056 
C 204.09719 148.064386 203.308166 147.737561 202.485561 147.737561 
C 201.662955 147.737561 200.873931 148.064386 200.292261 148.646056 
C 199.710591 149.227726 199.383766 150.01675 199.383766 150.839355 
C 199.383766 151.661961 199.710591 152.450985 200.292261 153.032655 
C 200.873931 153.614325 201.662955 153.94115 202.485561 153.94115 
z
" style="fill:#e69f00;stroke:#e69f00;stroke-width:0.886227;"/>
    <path clip-path="url(#p5e5c1fee46)" d="M 266.194517 96.273289 
C 267.017122 96.273289 267.806147 95.946464 268.387817 95.364794 
C 268.969487 94.783124 269.296311 93.9941 269.296311 93.171495 
C 269.296311 92.348889 268.969487 91.559865 268.387817 90.978195 
C 267.806147 90.396525 267.017122 90.0697 266.194517 90.0697 
C 265.371912 90.0697 264.582887 90.396525 264.001217 90.978195 
C 263.419547 91.559865 263.092723 92.348889 263.092723 93.171495 
C 263.092723 93.9941 263.419547 94.783124 264.001217 95.364794 
C 264.582887 95.946464 265.371912 96.273289 266.194517 96.273289 
z
" style="fill:#56b4e9;stroke:#56b4e9;stroke-width:0.886227;"/>
    <path clip-path="url(#p5e5c1fee46)" d="M 250.267278 99.194043 
C 251.089883 99.194043 251.878908 98.867218 252.460578 98.285548 
C 253.042248 97.703878 253.369072 96.914854 253.369072 96.092249 
C 253.369072 95.269643 253.042248 94.480619 252.460578 93.898949 
C 251.878908 93.317279 251.089883 92.990454 250.267278 92.990454 
C 249.444672 92.990454 248.655648 93.317279 248.073978 93.898949 
C 247.492308 94.480619 247.165484 95.269643 247.165484 96.092249 
C 247.165484 96.914854 247.492308 97.703878 248.073978 98.285548 
C 248.655648 98.867218 249.444672 99.194043 250.267278 99.194043 
z
" style="fill:#56b4e9;stroke:#56b4e9;stroke-width:0.886227;"/>
    <path clip-path="url(#p5e5c1fee46)" d="M 234.340039 115.745817 
C 235.162644 115.745817 235.951669 115.418993 236.533339 114.837323 
C 237.115008 114.255653 237.441833 113.466629 237.441833 112.644023 
C 237.441833 111.821418 237.115008 111.032393 236.533339 110.450723 
C 235.951669 109.869054 235.162644 109.542229 234.340039 109.542229 
C 233.517433 109.542229 232.728409 109.869054 232.146739 110.450723 
C 231.565069 111.032393 231.238245 111.821418 231.238245 112.644023 
C 231.238245 113.466629 231.565069 114.255653 232.146739 114.837323 
C 232.728409 115.418993 233.517433 115.745817 234.340039 115.745817 
z
" style="fill:#56b4e9;stroke:#56b4e9;stroke-width:0.886227;"/>
    <path clip-path="url(#p5e5c1fee46)" d="M 218.4128 131.50377 
C 219.235405 131.50377 220.02443 131.176945 220.606099 130.595275 
C 221.187769 130.013605 221.514594 129.224581 221.514594 128.401975 
C 221.514594 127.57937 221.187769 126.790346 220.606099 126.208676 
C 220.02443 125.627006 219.235405 125.300181 218.4128 125.300181 
C 217.590194 125.300181 216.80117 125.627006 216.2195 126.208676 
C 215.63783 126.790346 215.311005 127.57937 215.311005 128.401975 
C 215.311005 129.224581 215.63783 130.013605 216.2195 130.595275 
C 216.80117 131.176945 217.590194 131.50377 218.4128 131.50377 
z
" style="fill:#56b4e9;stroke:#56b4e9;stroke-width:0.886227;"/>
    <path clip-path="url(#p5e5c1fee46)" d="M 202.485561 156.928683 
C 203.308166 156.928683 204.09719 156.601859 204.67886 156.020189 
C 205.26053 155.438519 205.587355 154.649495 205.587355 153.826889 
C 205.587355 153.004284 205.26053 152.215259 204.67886 151.633589 
C 204.09719 151.05192 203.308166 150.725095 202.485561 150.725095 
C 201.662955 150.725095 200.873931 151.05192 200.292261 151.633589 
C 199.710591 152.215259 199.383766 153.004284 199.383766 153.826889 
C 199.383766 154.649495 199.710591 155.438519 200.292261 156.020189 
C 200.873931 156.601859 201.662955 156.928683 202.485561 156.928683 
z
" style="fill:#56b4e9;stroke:#56b4e9;stroke-width:0.886227;"/>
   </g>
   <g id="line2d_80">
    <path clip-path="url(#p5e5c1fee46)" d="M 266.194517 89.40022 
L 250.267278 96.930168 
L 234.340039 107.151546 
L 218.4128 126.331741 
L 202.485561 150.839355 
" style="fill:none;stroke:#e69f00;stroke-width:1.772454;"/>
   </g>
   <g id="line2d_81">
    <path clip-path="url(#p5e5c1fee46)" d="M 266.194517 174.842956 
L 250.267278 177.206775 
L 234.340039 178.61801 
L 218.4128 178.99854 
L 202.485561 179.177464 
" style="fill:none;stroke:#e69f00;stroke-dasharray:6.558079,2.835926;stroke-dashoffset:0;stroke-width:1.772454;"/>
   </g>
   <g id="line2d_82">
    <path clip-path="url(#p5e5c1fee46)" d="M 266.194517 93.171495 
L 250.267278 96.092249 
L 234.340039 112.644023 
L 218.4128 128.401975 
L 202.485561 153.826889 
" style="fill:none;stroke:#56b4e9;stroke-width:1.772454;"/>
   </g>
   <g id="line2d_83">
    <path clip-path="url(#p5e5c1fee46)" d="M 266.194517 154.824835 
L 250.267278 169.451281 
L 234.340039 175.698517 
L 218.4128 177.928773 
L 202.485561 178.667152 
" style="fill:none;stroke:#56b4e9;stroke-dasharray:6.558079,2.835926;stroke-dashoffset:0;stroke-width:1.772454;"/>
   </g>
   <g id="patch_13">
    <path d="M 164.249062 73.459687 
L 271.049062 73.459687 
L 271.049062 49.459687 
L 164.249062 49.459687 
z
" style="fill:#d3d3d3;"/>
   </g>
   <g id="patch_14">
    <path d="M 164.249062 184.339687 
L 164.249062 73.459687 
" style="fill:none;stroke:#262626;stroke-linecap:square;stroke-linejoin:miter;stroke-width:1.875;"/>
   </g>
   <g id="patch_15">
    <path d="M 271.049062 184.339687 
L 271.049062 73.459687 
" style="fill:none;stroke:#262626;stroke-linecap:square;stroke-linejoin:miter;stroke-width:1.875;"/>
   </g>
   <g id="patch_16">
    <path d="M 164.249062 184.339687 
L 271.049062 184.339687 
" style="fill:none;stroke:#262626;stroke-linecap:square;stroke-linejoin:miter;stroke-width:1.875;"/>
   </g>
   <g id="patch_17">
    <path d="M 164.249062 73.459687 
L 271.049062 73.459687 
" style="fill:none;stroke:#262626;stroke-linecap:square;stroke-linejoin:miter;stroke-width:1.875;"/>
   </g>
   <g id="text_20">
    <!-- rREGN10987 (5ug/mL) -->
    <g style="fill:#262626;" transform="translate(126.203437 66.166406)scale(0.18 -0.18)">
     <use xlink:href="#FreeSans-114"/>
     <use x="33.199997" xlink:href="#FreeSans-82"/>
     <use x="104.099991" xlink:href="#FreeSans-69"/>
     <use x="167.399979" xlink:href="#FreeSans-71"/>
     <use x="243.899963" xlink:href="#FreeSans-78"/>
     <use x="316.899948" xlink:href="#FreeSans-49"/>
     <use x="372.499939" xlink:href="#FreeSans-48"/>
     <use x="428.09993" xlink:href="#FreeSans-57"/>
     <use x="483.699921" xlink:href="#FreeSans-56"/>
     <use x="539.299911" xlink:href="#FreeSans-55"/>
     <use x="594.899902" xlink:href="#FreeSans-32"/>
     <use x="619.899887" xlink:href="#FreeSans-40"/>
     <use x="653.199875" xlink:href="#FreeSans-53"/>
     <use x="708.799866" xlink:href="#FreeSans-117"/>
     <use x="762.499863" xlink:href="#FreeSans-103"/>
     <use x="817.499847" xlink:href="#FreeSans-47"/>
     <use x="845.299835" xlink:href="#FreeSans-109"/>
     <use x="926.499817" xlink:href="#FreeSans-76"/>
     <use x="982.799805" xlink:href="#FreeSans-41"/>
    </g>
   </g>
  </g>
  <g id="axes_3">
   <g id="patch_18">
    <path d="M 278.249062 184.339687 
L 385.049062 184.339687 
L 385.049062 73.459687 
L 278.249062 73.459687 
z
" style="fill:#ffffff;"/>
   </g>
   <g id="matplotlib.axis_5">
    <g id="xtick_59">
     <g id="line2d_84">
      <g>
       <use style="fill:#262626;stroke:#262626;stroke-width:1.875;" x="290.097628" xlink:href="#m9ceb2c1f66" y="184.339687"/>
      </g>
     </g>
     <g id="text_21">
      <!-- 1e-4 -->
      <g style="fill:#262626;" transform="translate(294.314152 228.373594)rotate(-90)scale(0.165 -0.165)">
       <use xlink:href="#FreeSans-49"/>
       <use x="55.599991" xlink:href="#FreeSans-101"/>
       <use x="108.899979" xlink:href="#FreeSans-45"/>
       <use x="142.199966" xlink:href="#FreeSans-52"/>
      </g>
     </g>
    </g>
    <g id="xtick_60">
     <g id="line2d_85">
      <g>
       <use style="fill:#262626;stroke:#262626;stroke-width:1.875;" x="323.479581" xlink:href="#m9ceb2c1f66" y="184.339687"/>
      </g>
     </g>
     <g id="text_22">
      <!-- 1e-3 -->
      <g style="fill:#262626;" transform="translate(327.696104 228.373594)rotate(-90)scale(0.165 -0.165)">
       <use xlink:href="#FreeSans-49"/>
       <use x="55.599991" xlink:href="#FreeSans-101"/>
       <use x="108.899979" xlink:href="#FreeSans-45"/>
       <use x="142.199966" xlink:href="#FreeSans-51"/>
      </g>
     </g>
    </g>
    <g id="xtick_61">
     <g id="line2d_86">
      <g>
       <use style="fill:#262626;stroke:#262626;stroke-width:1.875;" x="356.861533" xlink:href="#m9ceb2c1f66" y="184.339687"/>
      </g>
     </g>
     <g id="text_23">
      <!-- 1e-2 -->
      <g style="fill:#262626;" transform="translate(361.078057 228.373594)rotate(-90)scale(0.165 -0.165)">
       <use xlink:href="#FreeSans-49"/>
       <use x="55.599991" xlink:href="#FreeSans-101"/>
       <use x="108.899979" xlink:href="#FreeSans-45"/>
       <use x="142.199966" xlink:href="#FreeSans-50"/>
      </g>
     </g>
    </g>
    <g id="xtick_62">
     <g id="line2d_87">
      <g>
       <use style="fill:#262626;stroke:#262626;stroke-width:1.5;" x="280.048659" xlink:href="#m9435d39110" y="184.339687"/>
      </g>
     </g>
    </g>
    <g id="xtick_63">
     <g id="line2d_88">
      <g>
       <use style="fill:#262626;stroke:#262626;stroke-width:1.5;" x="282.691884" xlink:href="#m9435d39110" y="184.339687"/>
      </g>
     </g>
    </g>
    <g id="xtick_64">
     <g id="line2d_89">
      <g>
       <use style="fill:#262626;stroke:#262626;stroke-width:1.5;" x="284.926698" xlink:href="#m9435d39110" y="184.339687"/>
      </g>
     </g>
    </g>
    <g id="xtick_65">
     <g id="line2d_90">
      <g>
       <use style="fill:#262626;stroke:#262626;stroke-width:1.5;" x="286.862583" xlink:href="#m9435d39110" y="184.339687"/>
      </g>
     </g>
    </g>
    <g id="xtick_66">
     <g id="line2d_91">
      <g>
       <use style="fill:#262626;stroke:#262626;stroke-width:1.5;" x="288.570154" xlink:href="#m9435d39110" y="184.339687"/>
      </g>
     </g>
    </g>
    <g id="xtick_67">
     <g id="line2d_92">
      <g>
       <use style="fill:#262626;stroke:#262626;stroke-width:1.5;" x="300.146597" xlink:href="#m9435d39110" y="184.339687"/>
      </g>
     </g>
    </g>
    <g id="xtick_68">
     <g id="line2d_93">
      <g>
       <use style="fill:#262626;stroke:#262626;stroke-width:1.5;" x="306.024867" xlink:href="#m9435d39110" y="184.339687"/>
      </g>
     </g>
    </g>
    <g id="xtick_69">
     <g id="line2d_94">
      <g>
       <use style="fill:#262626;stroke:#262626;stroke-width:1.5;" x="310.195566" xlink:href="#m9435d39110" y="184.339687"/>
      </g>
     </g>
    </g>
    <g id="xtick_70">
     <g id="line2d_95">
      <g>
       <use style="fill:#262626;stroke:#262626;stroke-width:1.5;" x="313.430612" xlink:href="#m9435d39110" y="184.339687"/>
      </g>
     </g>
    </g>
    <g id="xtick_71">
     <g id="line2d_96">
      <g>
       <use style="fill:#262626;stroke:#262626;stroke-width:1.5;" x="316.073836" xlink:href="#m9435d39110" y="184.339687"/>
      </g>
     </g>
    </g>
    <g id="xtick_72">
     <g id="line2d_97">
      <g>
       <use style="fill:#262626;stroke:#262626;stroke-width:1.5;" x="318.308651" xlink:href="#m9435d39110" y="184.339687"/>
      </g>
     </g>
    </g>
    <g id="xtick_73">
     <g id="line2d_98">
      <g>
       <use style="fill:#262626;stroke:#262626;stroke-width:1.5;" x="320.244535" xlink:href="#m9435d39110" y="184.339687"/>
      </g>
     </g>
    </g>
    <g id="xtick_74">
     <g id="line2d_99">
      <g>
       <use style="fill:#262626;stroke:#262626;stroke-width:1.5;" x="321.952106" xlink:href="#m9435d39110" y="184.339687"/>
      </g>
     </g>
    </g>
    <g id="xtick_75">
     <g id="line2d_100">
      <g>
       <use style="fill:#262626;stroke:#262626;stroke-width:1.5;" x="333.52855" xlink:href="#m9435d39110" y="184.339687"/>
      </g>
     </g>
    </g>
    <g id="xtick_76">
     <g id="line2d_101">
      <g>
       <use style="fill:#262626;stroke:#262626;stroke-width:1.5;" x="339.40682" xlink:href="#m9435d39110" y="184.339687"/>
      </g>
     </g>
    </g>
    <g id="xtick_77">
     <g id="line2d_102">
      <g>
       <use style="fill:#262626;stroke:#262626;stroke-width:1.5;" x="343.577519" xlink:href="#m9435d39110" y="184.339687"/>
      </g>
     </g>
    </g>
    <g id="xtick_78">
     <g id="line2d_103">
      <g>
       <use style="fill:#262626;stroke:#262626;stroke-width:1.5;" x="346.812564" xlink:href="#m9435d39110" y="184.339687"/>
      </g>
     </g>
    </g>
    <g id="xtick_79">
     <g id="line2d_104">
      <g>
       <use style="fill:#262626;stroke:#262626;stroke-width:1.5;" x="349.455789" xlink:href="#m9435d39110" y="184.339687"/>
      </g>
     </g>
    </g>
    <g id="xtick_80">
     <g id="line2d_105">
      <g>
       <use style="fill:#262626;stroke:#262626;stroke-width:1.5;" x="351.690604" xlink:href="#m9435d39110" y="184.339687"/>
      </g>
     </g>
    </g>
    <g id="xtick_81">
     <g id="line2d_106">
      <g>
       <use style="fill:#262626;stroke:#262626;stroke-width:1.5;" x="353.626488" xlink:href="#m9435d39110" y="184.339687"/>
      </g>
     </g>
    </g>
    <g id="xtick_82">
     <g id="line2d_107">
      <g>
       <use style="fill:#262626;stroke:#262626;stroke-width:1.5;" x="355.334059" xlink:href="#m9435d39110" y="184.339687"/>
      </g>
     </g>
    </g>
    <g id="xtick_83">
     <g id="line2d_108">
      <g>
       <use style="fill:#262626;stroke:#262626;stroke-width:1.5;" x="366.910503" xlink:href="#m9435d39110" y="184.339687"/>
      </g>
     </g>
    </g>
    <g id="xtick_84">
     <g id="line2d_109">
      <g>
       <use style="fill:#262626;stroke:#262626;stroke-width:1.5;" x="372.788773" xlink:href="#m9435d39110" y="184.339687"/>
      </g>
     </g>
    </g>
    <g id="xtick_85">
     <g id="line2d_110">
      <g>
       <use style="fill:#262626;stroke:#262626;stroke-width:1.5;" x="376.959472" xlink:href="#m9435d39110" y="184.339687"/>
      </g>
     </g>
    </g>
    <g id="xtick_86">
     <g id="line2d_111">
      <g>
       <use style="fill:#262626;stroke:#262626;stroke-width:1.5;" x="380.194517" xlink:href="#m9435d39110" y="184.339687"/>
      </g>
     </g>
    </g>
    <g id="xtick_87">
     <g id="line2d_112">
      <g>
       <use style="fill:#262626;stroke:#262626;stroke-width:1.5;" x="382.837742" xlink:href="#m9435d39110" y="184.339687"/>
      </g>
     </g>
    </g>
    <g id="text_24">
     <!-- serum dilution -->
     <g style="fill:#262626;" transform="translate(157.687969 246.496719)scale(0.18 -0.18)">
      <use xlink:href="#FreeSans-115"/>
      <use x="49.299988" xlink:href="#FreeSans-101"/>
      <use x="102.599976" xlink:href="#FreeSans-114"/>
      <use x="135.799973" xlink:href="#FreeSans-117"/>
      <use x="189.499969" xlink:href="#FreeSans-109"/>
      <use x="270.699951" xlink:href="#FreeSans-32"/>
      <use x="295.699936" xlink:href="#FreeSans-100"/>
      <use x="351.59993" xlink:href="#FreeSans-105"/>
      <use x="373.799927" xlink:href="#FreeSans-108"/>
      <use x="395.199921" xlink:href="#FreeSans-117"/>
      <use x="448.899918" xlink:href="#FreeSans-116"/>
      <use x="476.899902" xlink:href="#FreeSans-105"/>
      <use x="499.099899" xlink:href="#FreeSans-111"/>
      <use x="552.499893" xlink:href="#FreeSans-110"/>
     </g>
    </g>
   </g>
   <g id="matplotlib.axis_6">
    <g id="ytick_19"/>
    <g id="ytick_20"/>
    <g id="ytick_21"/>
    <g id="ytick_22"/>
    <g id="ytick_23"/>
    <g id="ytick_24"/>
    <g id="ytick_25"/>
    <g id="ytick_26"/>
    <g id="ytick_27"/>
   </g>
   <g id="PathCollection_5">
    <path clip-path="url(#p3f5c02a6e2)" d="M 346.812564 175.842564 
L 343.71077 182.046153 
L 349.914359 182.046153 
z
" style="fill:#e69f00;stroke:#e69f00;stroke-width:0.886227;"/>
    <path clip-path="url(#p3f5c02a6e2)" d="M 330.885325 176.044169 
L 327.783531 182.247758 
L 333.98712 182.247758 
z
" style="fill:#e69f00;stroke:#e69f00;stroke-width:0.886227;"/>
    <path clip-path="url(#p3f5c02a6e2)" d="M 314.958086 176.132372 
L 311.856292 182.33596 
L 318.05988 182.33596 
z
" style="fill:#e69f00;stroke:#e69f00;stroke-width:0.886227;"/>
    <path clip-path="url(#p3f5c02a6e2)" d="M 299.030847 176.187813 
L 295.929053 182.391401 
L 302.132641 182.391401 
z
" style="fill:#e69f00;stroke:#e69f00;stroke-width:0.886227;"/>
    <path clip-path="url(#p3f5c02a6e2)" d="M 283.103608 176.155052 
L 280.001814 182.358641 
L 286.205402 182.358641 
z
" style="fill:#e69f00;stroke:#e69f00;stroke-width:0.886227;"/>
    <path clip-path="url(#p3f5c02a6e2)" d="M 346.812564 115.59794 
L 343.71077 121.801529 
L 349.914359 121.801529 
z
" style="fill:#56b4e9;stroke:#56b4e9;stroke-width:0.886227;"/>
    <path clip-path="url(#p3f5c02a6e2)" d="M 330.885325 124.367755 
L 327.783531 130.571343 
L 333.98712 130.571343 
z
" style="fill:#56b4e9;stroke:#56b4e9;stroke-width:0.886227;"/>
    <path clip-path="url(#p3f5c02a6e2)" d="M 314.958086 143.593318 
L 311.856292 149.796907 
L 318.05988 149.796907 
z
" style="fill:#56b4e9;stroke:#56b4e9;stroke-width:0.886227;"/>
    <path clip-path="url(#p3f5c02a6e2)" d="M 299.030847 161.057354 
L 295.929053 167.260943 
L 302.132641 167.260943 
z
" style="fill:#56b4e9;stroke:#56b4e9;stroke-width:0.886227;"/>
    <path clip-path="url(#p3f5c02a6e2)" d="M 283.103608 168.667945 
L 280.001814 174.871533 
L 286.205402 174.871533 
z
" style="fill:#56b4e9;stroke:#56b4e9;stroke-width:0.886227;"/>
   </g>
   <g id="PathCollection_6">
    <path clip-path="url(#p3f5c02a6e2)" d="M 346.812564 182.078914 
C 347.63517 182.078914 348.424194 181.752089 349.005864 181.170419 
C 349.587534 180.588749 349.914359 179.799725 349.914359 178.977119 
C 349.914359 178.154514 349.587534 177.36549 349.005864 176.78382 
C 348.424194 176.20215 347.63517 175.875325 346.812564 175.875325 
C 345.989959 175.875325 345.200935 176.20215 344.619265 176.78382 
C 344.037595 177.36549 343.71077 178.154514 343.71077 178.977119 
C 343.71077 179.799725 344.037595 180.588749 344.619265 181.170419 
C 345.200935 181.752089 345.989959 182.078914 346.812564 182.078914 
z
" style="fill:#e69f00;stroke:#e69f00;stroke-width:0.886227;"/>
    <path clip-path="url(#p3f5c02a6e2)" d="M 330.885325 182.225077 
C 331.707931 182.225077 332.496955 181.898253 333.078625 181.316583 
C 333.660295 180.734913 333.98712 179.945888 333.98712 179.123283 
C 333.98712 178.300678 333.660295 177.511653 333.078625 176.929983 
C 332.496955 176.348313 331.707931 176.021489 330.885325 176.021489 
C 330.06272 176.021489 329.273695 176.348313 328.692026 176.929983 
C 328.110356 177.511653 327.783531 178.300678 327.783531 179.123283 
C 327.783531 179.945888 328.110356 180.734913 328.692026 181.316583 
C 329.273695 181.898253 330.06272 182.225077 330.885325 182.225077 
z
" style="fill:#e69f00;stroke:#e69f00;stroke-width:0.886227;"/>
    <path clip-path="url(#p3f5c02a6e2)" d="M 314.958086 182.35108 
C 315.780692 182.35108 316.569716 182.024256 317.151386 181.442586 
C 317.733056 180.860916 318.05988 180.071892 318.05988 179.249286 
C 318.05988 178.426681 317.733056 177.637656 317.151386 177.055986 
C 316.569716 176.474317 315.780692 176.147492 314.958086 176.147492 
C 314.135481 176.147492 313.346456 176.474317 312.764786 177.055986 
C 312.183117 177.637656 311.856292 178.426681 311.856292 179.249286 
C 311.856292 180.071892 312.183117 180.860916 312.764786 181.442586 
C 313.346456 182.024256 314.135481 182.35108 314.958086 182.35108 
z
" style="fill:#e69f00;stroke:#e69f00;stroke-width:0.886227;"/>
    <path clip-path="url(#p3f5c02a6e2)" d="M 299.030847 182.381321 
C 299.853453 182.381321 300.642477 182.054497 301.224147 181.472827 
C 301.805817 180.891157 302.132641 180.102132 302.132641 179.279527 
C 302.132641 178.456921 301.805817 177.667897 301.224147 177.086227 
C 300.642477 176.504557 299.853453 176.177733 299.030847 176.177733 
C 298.208242 176.177733 297.419217 176.504557 296.837547 177.086227 
C 296.255877 177.667897 295.929053 178.456921 295.929053 179.279527 
C 295.929053 180.102132 296.255877 180.891157 296.837547 181.472827 
C 297.419217 182.054497 298.208242 182.381321 299.030847 182.381321 
z
" style="fill:#e69f00;stroke:#e69f00;stroke-width:0.886227;"/>
    <path clip-path="url(#p3f5c02a6e2)" d="M 283.103608 182.401482 
C 283.926213 182.401482 284.715238 182.074657 285.296908 181.492987 
C 285.878578 180.911317 286.205402 180.122293 286.205402 179.299688 
C 286.205402 178.477082 285.878578 177.688058 285.296908 177.106388 
C 284.715238 176.524718 283.926213 176.197893 283.103608 176.197893 
C 282.281003 176.197893 281.491978 176.524718 280.910308 177.106388 
C 280.328638 177.688058 280.001814 178.477082 280.001814 179.299688 
C 280.001814 180.122293 280.328638 180.911317 280.910308 181.492987 
C 281.491978 182.074657 282.281003 182.401482 283.103608 182.401482 
z
" style="fill:#e69f00;stroke:#e69f00;stroke-width:0.886227;"/>
    <path clip-path="url(#p3f5c02a6e2)" d="M 346.812564 117.638385 
C 347.63517 117.638385 348.424194 117.31156 349.005864 116.729891 
C 349.587534 116.148221 349.914359 115.359196 349.914359 114.536591 
C 349.914359 113.713985 349.587534 112.924961 349.005864 112.343291 
C 348.424194 111.761621 347.63517 111.434797 346.812564 111.434797 
C 345.989959 111.434797 345.200935 111.761621 344.619265 112.343291 
C 344.037595 112.924961 343.71077 113.713985 343.71077 114.536591 
C 343.71077 115.359196 344.037595 116.148221 344.619265 116.729891 
C 345.200935 117.31156 345.989959 117.638385 346.812564 117.638385 
z
" style="fill:#56b4e9;stroke:#56b4e9;stroke-width:0.886227;"/>
    <path clip-path="url(#p3f5c02a6e2)" d="M 330.885325 135.127619 
C 331.707931 135.127619 332.496955 134.800795 333.078625 134.219125 
C 333.660295 133.637455 333.98712 132.848431 333.98712 132.025825 
C 333.98712 131.20322 333.660295 130.414195 333.078625 129.832525 
C 332.496955 129.250855 331.707931 128.924031 330.885325 128.924031 
C 330.06272 128.924031 329.273695 129.250855 328.692026 129.832525 
C 328.110356 130.414195 327.783531 131.20322 327.783531 132.025825 
C 327.783531 132.848431 328.110356 133.637455 328.692026 134.219125 
C 329.273695 134.800795 330.06272 135.127619 330.885325 135.127619 
z
" style="fill:#56b4e9;stroke:#56b4e9;stroke-width:0.886227;"/>
    <path clip-path="url(#p3f5c02a6e2)" d="M 314.958086 143.358147 
C 315.780692 143.358147 316.569716 143.031322 317.151386 142.449653 
C 317.733056 141.867983 318.05988 141.078958 318.05988 140.256353 
C 318.05988 139.433747 317.733056 138.644723 317.151386 138.063053 
C 316.569716 137.481383 315.780692 137.154559 314.958086 137.154559 
C 314.135481 137.154559 313.346456 137.481383 312.764786 138.063053 
C 312.183117 138.644723 311.856292 139.433747 311.856292 140.256353 
C 311.856292 141.078958 312.183117 141.867983 312.764786 142.449653 
C 313.346456 143.031322 314.135481 143.358147 314.958086 143.358147 
z
" style="fill:#56b4e9;stroke:#56b4e9;stroke-width:0.886227;"/>
    <path clip-path="url(#p3f5c02a6e2)" d="M 299.030847 162.674428 
C 299.853453 162.674428 300.642477 162.347604 301.224147 161.765934 
C 301.805817 161.184264 302.132641 160.39524 302.132641 159.572634 
C 302.132641 158.750029 301.805817 157.961004 301.224147 157.379334 
C 300.642477 156.797664 299.853453 156.47084 299.030847 156.47084 
C 298.208242 156.47084 297.419217 156.797664 296.837547 157.379334 
C 296.255877 157.961004 295.929053 158.750029 295.929053 159.572634 
C 295.929053 160.39524 296.255877 161.184264 296.837547 161.765934 
C 297.419217 162.347604 298.208242 162.674428 299.030847 162.674428 
z
" style="fill:#56b4e9;stroke:#56b4e9;stroke-width:0.886227;"/>
    <path clip-path="url(#p3f5c02a6e2)" d="M 283.103608 174.236478 
C 283.926213 174.236478 284.715238 173.909653 285.296908 173.327983 
C 285.878578 172.746313 286.205402 171.957289 286.205402 171.134684 
C 286.205402 170.312078 285.878578 169.523054 285.296908 168.941384 
C 284.715238 168.359714 283.926213 168.032889 283.103608 168.032889 
C 282.281003 168.032889 281.491978 168.359714 280.910308 168.941384 
C 280.328638 169.523054 280.001814 170.312078 280.001814 171.134684 
C 280.001814 171.957289 280.328638 172.746313 280.910308 173.327983 
C 281.491978 173.909653 282.281003 174.236478 283.103608 174.236478 
z
" style="fill:#56b4e9;stroke:#56b4e9;stroke-width:0.886227;"/>
   </g>
   <g id="line2d_113">
    <path clip-path="url(#p3f5c02a6e2)" d="M 346.812564 178.977119 
L 330.885325 179.123283 
L 314.958086 179.249286 
L 299.030847 179.279527 
L 283.103608 179.299687 
" style="fill:none;stroke:#e69f00;stroke-width:1.772454;"/>
   </g>
   <g id="line2d_114">
    <path clip-path="url(#p3f5c02a6e2)" d="M 346.812564 178.944359 
L 330.885325 179.145964 
L 314.958086 179.234166 
L 299.030847 179.289607 
L 283.103608 179.256846 
" style="fill:none;stroke:#e69f00;stroke-dasharray:6.558079,2.835926;stroke-dashoffset:0;stroke-width:1.772454;"/>
   </g>
   <g id="line2d_115">
    <path clip-path="url(#p3f5c02a6e2)" d="M 346.812564 114.536591 
L 330.885325 132.025825 
L 314.958086 140.256353 
L 299.030847 159.572634 
L 283.103608 171.134684 
" style="fill:none;stroke:#56b4e9;stroke-width:1.772454;"/>
   </g>
   <g id="line2d_116">
    <path clip-path="url(#p3f5c02a6e2)" d="M 346.812564 118.699735 
L 330.885325 127.469549 
L 314.958086 146.695113 
L 299.030847 164.159148 
L 283.103608 171.769739 
" style="fill:none;stroke:#56b4e9;stroke-dasharray:6.558079,2.835926;stroke-dashoffset:0;stroke-width:1.772454;"/>
   </g>
   <g id="patch_19">
    <path d="M 278.249062 73.459687 
L 385.049062 73.459687 
L 385.049062 49.459687 
L 278.249062 49.459687 
z
" style="fill:#d3d3d3;"/>
   </g>
   <g id="patch_20">
    <path d="M 278.249062 184.339687 
L 278.249062 73.459687 
" style="fill:none;stroke:#262626;stroke-linecap:square;stroke-linejoin:miter;stroke-width:1.875;"/>
   </g>
   <g id="patch_21">
    <path d="M 385.049062 184.339687 
L 385.049062 73.459687 
" style="fill:none;stroke:#262626;stroke-linecap:square;stroke-linejoin:miter;stroke-width:1.875;"/>
   </g>
   <g id="patch_22">
    <path d="M 278.249062 184.339687 
L 385.049062 184.339687 
" style="fill:none;stroke:#262626;stroke-linecap:square;stroke-linejoin:miter;stroke-width:1.875;"/>
   </g>
   <g id="patch_23">
    <path d="M 278.249062 73.459687 
L 385.049062 73.459687 
" style="fill:none;stroke:#262626;stroke-linecap:square;stroke-linejoin:miter;stroke-width:1.875;"/>
   </g>
   <g id="text_25">
    <!-- r4A8 (50ug/mL) -->
    <g style="fill:#262626;" transform="translate(269.750156 66.059531)scale(0.18 -0.18)">
     <defs>
      <path d="M 47.203125 21.90625 
L 19.09375 21.90625 
L 11.40625 0 
L 1.5 0 
L 27.5 72.90625 
L 39.5 72.90625 
L 65.09375 0 
L 54.703125 0 
z
M 44.59375 29.703125 
L 33.40625 62.90625 
L 21.40625 29.703125 
z
" id="FreeSans-65"/>
     </defs>
     <use xlink:href="#FreeSans-114"/>
     <use x="33.199997" xlink:href="#FreeSans-52"/>
     <use x="88.799988" xlink:href="#FreeSans-65"/>
     <use x="155.399979" xlink:href="#FreeSans-56"/>
     <use x="210.999969" xlink:href="#FreeSans-32"/>
     <use x="235.999954" xlink:href="#FreeSans-40"/>
     <use x="269.299942" xlink:href="#FreeSans-53"/>
     <use x="324.899933" xlink:href="#FreeSans-48"/>
     <use x="380.499924" xlink:href="#FreeSans-117"/>
     <use x="434.199921" xlink:href="#FreeSans-103"/>
     <use x="489.199905" xlink:href="#FreeSans-47"/>
     <use x="516.999893" xlink:href="#FreeSans-109"/>
     <use x="598.199875" xlink:href="#FreeSans-76"/>
     <use x="654.499863" xlink:href="#FreeSans-41"/>
    </g>
   </g>
  </g>
 </g>
 <defs>
  <clipPath id="p10ab7ba729">
   <rect height="110.88" width="106.8" x="50.249062" y="73.459687"/>
  </clipPath>
  <clipPath id="p59b625c63e">
   <path d="M 412.249063 93.179688 
L 412.249063 75.179688 
L 430.249063 75.179688 
L 430.249063 93.179688 
"/>
  </clipPath>
  <clipPath id="pdfb12a8aa7">
   <path d="M 412.249063 113.179688 
L 412.249063 95.179688 
L 430.249063 95.179688 
L 430.249063 113.179688 
"/>
  </clipPath>
  <clipPath id="p1d57285451">
   <path d="M 412.249063 186.22625 
L 412.249063 168.22625 
L 430.249063 168.22625 
L 430.249063 186.22625 
"/>
  </clipPath>
  <clipPath id="pef5a4ecbb7">
   <path d="M 412.249063 206.22625 
L 412.249063 188.22625 
L 430.249063 188.22625 
L 430.249063 206.22625 
"/>
  </clipPath>
  <clipPath id="p5e5c1fee46">
   <rect height="110.88" width="106.8" x="164.249062" y="73.459687"/>
  </clipPath>
  <clipPath id="p3f5c02a6e2">
   <rect height="110.88" width="106.8" x="278.249062" y="73.459687"/>
  </clipPath>
 </defs>
</svg>
