<?xml version="1.0" encoding="utf-8" standalone="no"?>
<!DOCTYPE svg PUBLIC "-//W3C//DTD SVG 1.1//EN"
  "http://www.w3.org/Graphics/SVG/1.1/DTD/svg11.dtd">
<!-- Created with matplotlib (https://matplotlib.org/) -->
<svg height="215.068482pt" version="1.1" viewBox="0 0 718.323629 215.068482" width="718.323629pt" xmlns="http://www.w3.org/2000/svg" xmlns:xlink="http://www.w3.org/1999/xlink">
 <metadata>
  <rdf:RDF xmlns:cc="http://creativecommons.org/ns#" xmlns:dc="http://purl.org/dc/elements/1.1/" xmlns:rdf="http://www.w3.org/1999/02/22-rdf-syntax-ns#">
   <cc:Work>
    <dc:type rdf:resource="http://purl.org/dc/dcmitype/StillImage"/>
    <dc:date>2020-12-10T18:08:41.764119</dc:date>
    <dc:format>image/svg+xml</dc:format>
    <dc:creator>
     <cc:Agent>
      <dc:title>Matplotlib v3.3.2, https://matplotlib.org/</dc:title>
     </cc:Agent>
    </dc:creator>
   </cc:Work>
  </rdf:RDF>
 </metadata>
 <defs>
  <style type="text/css">*{stroke-linecap:butt;stroke-linejoin:round;}</style>
 </defs>
 <g id="figure_1">
  <g id="patch_1">
   <path d="M 0 215.068482 
L 718.323629 215.068482 
L 718.323629 0 
L 0 0 
z
" style="fill:#ffffff;"/>
  </g>
  <g id="axes_1">
   <g id="patch_2">
    <path d="M 195.423281 146.846241 
L 530.223281 146.846241 
L 530.223281 69.230241 
L 195.423281 69.230241 
z
" style="fill:#ffffff;"/>
   </g>
   <g id="matplotlib.axis_1">
    <g id="xtick_1">
     <g id="line2d_1">
      <defs>
       <path d="M 0 0 
L 0 9 
" id="m14b541bc15" style="stroke:#262626;stroke-width:1.875;"/>
      </defs>
      <g>
       <use style="fill:#262626;stroke:#262626;stroke-width:1.875;" x="275.886094" xlink:href="#m14b541bc15" y="146.846241"/>
      </g>
     </g>
     <g id="text_1">
      <!-- 1e2 -->
      <g style="fill:#262626;" transform="translate(262.316133 170.275772)scale(0.165 -0.165)">
       <defs>
        <path d="M 25.90625 50.5 
L 10.203125 50.5 
L 10.203125 56.796875 
Q 20.40625 58.09375 23.5 60.390625 
Q 26.59375 62.703125 28.90625 70.90625 
L 34.703125 70.90625 
L 34.703125 0 
L 25.90625 0 
z
" id="FreeSans-49"/>
        <path d="M 50.296875 23.40625 
L 11.703125 23.40625 
Q 11.90625 15.203125 15.953125 10.296875 
Q 20 5.40625 27.09375 5.40625 
Q 37.296875 5.40625 40.796875 15.90625 
L 49.203125 15.90625 
Q 47.59375 7.296875 41.6875 2.5 
Q 35.796875 -2.296875 26.796875 -2.296875 
Q 15.796875 -2.296875 9.390625 5.140625 
Q 3 12.59375 3 25.5 
Q 3 38.40625 9.546875 46.15625 
Q 16.09375 53.90625 27 53.90625 
Q 50.296875 53.90625 50.296875 23.40625 
z
M 11.90625 30.203125 
L 41.40625 30.203125 
Q 41.40625 37 37.296875 41.59375 
Q 33.203125 46.203125 26.890625 46.203125 
Q 20.59375 46.203125 16.5 41.84375 
Q 12.40625 37.5 11.90625 30.203125 
z
" id="FreeSans-101"/>
        <path d="M 5 46.296875 
Q 5.703125 70.90625 28.40625 70.90625 
Q 38.5 70.90625 44.796875 65.09375 
Q 51.09375 59.296875 51.09375 50.09375 
Q 51.09375 36.90625 36.09375 28.703125 
L 26.09375 23.296875 
Q 19.59375 19.796875 16.796875 16.5 
Q 14 13.203125 13.296875 8.703125 
L 50.59375 8.703125 
L 50.59375 0 
L 3.40625 0 
Q 4 11.703125 8.09375 18.046875 
Q 12.203125 24.40625 23.296875 30.703125 
L 32.5 35.90625 
Q 42.09375 41.40625 42.09375 49.90625 
Q 42.09375 55.59375 38.09375 59.390625 
Q 34.09375 63.203125 28.09375 63.203125 
Q 14.796875 63.203125 13.796875 46.296875 
z
" id="FreeSans-50"/>
       </defs>
       <use xlink:href="#FreeSans-49"/>
       <use x="55.599991" xlink:href="#FreeSans-101"/>
       <use x="108.899979" xlink:href="#FreeSans-50"/>
      </g>
     </g>
    </g>
    <g id="xtick_2">
     <g id="line2d_2">
      <g>
       <use style="fill:#262626;stroke:#262626;stroke-width:1.875;" x="369.230058" xlink:href="#m14b541bc15" y="146.846241"/>
      </g>
     </g>
     <g id="text_2">
      <!-- 1e3 -->
      <g style="fill:#262626;" transform="translate(355.660097 170.275772)scale(0.165 -0.165)">
       <defs>
        <path d="M 27 63.203125 
Q 19.40625 63.203125 16.546875 59.046875 
Q 13.703125 54.90625 13.5 48 
L 4.703125 48 
Q 5.203125 70.90625 26.90625 70.90625 
Q 37 70.90625 42.75 65.703125 
Q 48.5 60.5 48.5 51.40625 
Q 48.5 40.59375 38.59375 36.703125 
Q 45 34.5 47.796875 30.546875 
Q 50.59375 26.59375 50.59375 19.796875 
Q 50.59375 9.703125 44.046875 3.703125 
Q 37.5 -2.296875 26.59375 -2.296875 
Q 4.796875 -2.296875 3.203125 20.59375 
L 12 20.59375 
Q 12.5 12.90625 16.09375 9.203125 
Q 19.703125 5.5 26.90625 5.5 
Q 33.796875 5.5 37.6875 9.25 
Q 41.59375 13 41.59375 19.703125 
Q 41.59375 32.59375 26.90625 32.59375 
L 23.203125 32.5 
L 22.09375 32.5 
L 22.09375 40 
Q 31.59375 40.203125 35.546875 42.390625 
Q 39.5 44.59375 39.5 51.09375 
Q 39.5 56.703125 36.140625 59.953125 
Q 32.796875 63.203125 27 63.203125 
z
" id="FreeSans-51"/>
       </defs>
       <use xlink:href="#FreeSans-49"/>
       <use x="55.599991" xlink:href="#FreeSans-101"/>
       <use x="108.899979" xlink:href="#FreeSans-51"/>
      </g>
     </g>
    </g>
    <g id="xtick_3">
     <g id="line2d_3">
      <g>
       <use style="fill:#262626;stroke:#262626;stroke-width:1.875;" x="462.574022" xlink:href="#m14b541bc15" y="146.846241"/>
      </g>
     </g>
     <g id="text_3">
      <!-- 1e4 -->
      <g style="fill:#262626;" transform="translate(449.004061 170.275772)scale(0.165 -0.165)">
       <defs>
        <path d="M 32.703125 17 
L 2.796875 17 
L 2.796875 26.296875 
L 35 70.90625 
L 41.5 70.90625 
L 41.5 24.90625 
L 52 24.90625 
L 52 17 
L 41.5 17 
L 41.5 0 
L 32.703125 0 
z
M 32.703125 24.90625 
L 32.703125 55.90625 
L 10.5 24.90625 
z
" id="FreeSans-52"/>
       </defs>
       <use xlink:href="#FreeSans-49"/>
       <use x="55.599991" xlink:href="#FreeSans-101"/>
       <use x="108.899979" xlink:href="#FreeSans-52"/>
      </g>
     </g>
    </g>
    <g id="xtick_4">
     <g id="line2d_4">
      <defs>
       <path d="M 0 0 
L 0 6 
" id="mb1b0c145a9" style="stroke:#262626;stroke-width:1.5;"/>
      </defs>
      <g>
       <use style="fill:#262626;stroke:#262626;stroke-width:1.5;" x="210.641463" xlink:href="#mb1b0c145a9" y="146.846241"/>
      </g>
     </g>
    </g>
    <g id="xtick_5">
     <g id="line2d_5">
      <g>
       <use style="fill:#262626;stroke:#262626;stroke-width:1.5;" x="227.078519" xlink:href="#mb1b0c145a9" y="146.846241"/>
      </g>
     </g>
    </g>
    <g id="xtick_6">
     <g id="line2d_6">
      <g>
       <use style="fill:#262626;stroke:#262626;stroke-width:1.5;" x="238.740796" xlink:href="#mb1b0c145a9" y="146.846241"/>
      </g>
     </g>
    </g>
    <g id="xtick_7">
     <g id="line2d_7">
      <g>
       <use style="fill:#262626;stroke:#262626;stroke-width:1.5;" x="247.786761" xlink:href="#mb1b0c145a9" y="146.846241"/>
      </g>
     </g>
    </g>
    <g id="xtick_8">
     <g id="line2d_8">
      <g>
       <use style="fill:#262626;stroke:#262626;stroke-width:1.5;" x="255.177852" xlink:href="#mb1b0c145a9" y="146.846241"/>
      </g>
     </g>
    </g>
    <g id="xtick_9">
     <g id="line2d_9">
      <g>
       <use style="fill:#262626;stroke:#262626;stroke-width:1.5;" x="261.426931" xlink:href="#mb1b0c145a9" y="146.846241"/>
      </g>
     </g>
    </g>
    <g id="xtick_10">
     <g id="line2d_10">
      <g>
       <use style="fill:#262626;stroke:#262626;stroke-width:1.5;" x="266.840129" xlink:href="#mb1b0c145a9" y="146.846241"/>
      </g>
     </g>
    </g>
    <g id="xtick_11">
     <g id="line2d_11">
      <g>
       <use style="fill:#262626;stroke:#262626;stroke-width:1.5;" x="271.614908" xlink:href="#mb1b0c145a9" y="146.846241"/>
      </g>
     </g>
    </g>
    <g id="xtick_12">
     <g id="line2d_12">
      <g>
       <use style="fill:#262626;stroke:#262626;stroke-width:1.5;" x="303.985427" xlink:href="#mb1b0c145a9" y="146.846241"/>
      </g>
     </g>
    </g>
    <g id="xtick_13">
     <g id="line2d_13">
      <g>
       <use style="fill:#262626;stroke:#262626;stroke-width:1.5;" x="320.422483" xlink:href="#mb1b0c145a9" y="146.846241"/>
      </g>
     </g>
    </g>
    <g id="xtick_14">
     <g id="line2d_14">
      <g>
       <use style="fill:#262626;stroke:#262626;stroke-width:1.5;" x="332.08476" xlink:href="#mb1b0c145a9" y="146.846241"/>
      </g>
     </g>
    </g>
    <g id="xtick_15">
     <g id="line2d_15">
      <g>
       <use style="fill:#262626;stroke:#262626;stroke-width:1.5;" x="341.130725" xlink:href="#mb1b0c145a9" y="146.846241"/>
      </g>
     </g>
    </g>
    <g id="xtick_16">
     <g id="line2d_16">
      <g>
       <use style="fill:#262626;stroke:#262626;stroke-width:1.5;" x="348.521816" xlink:href="#mb1b0c145a9" y="146.846241"/>
      </g>
     </g>
    </g>
    <g id="xtick_17">
     <g id="line2d_17">
      <g>
       <use style="fill:#262626;stroke:#262626;stroke-width:1.5;" x="354.770895" xlink:href="#mb1b0c145a9" y="146.846241"/>
      </g>
     </g>
    </g>
    <g id="xtick_18">
     <g id="line2d_18">
      <g>
       <use style="fill:#262626;stroke:#262626;stroke-width:1.5;" x="360.184093" xlink:href="#mb1b0c145a9" y="146.846241"/>
      </g>
     </g>
    </g>
    <g id="xtick_19">
     <g id="line2d_19">
      <g>
       <use style="fill:#262626;stroke:#262626;stroke-width:1.5;" x="364.958872" xlink:href="#mb1b0c145a9" y="146.846241"/>
      </g>
     </g>
    </g>
    <g id="xtick_20">
     <g id="line2d_20">
      <g>
       <use style="fill:#262626;stroke:#262626;stroke-width:1.5;" x="397.329391" xlink:href="#mb1b0c145a9" y="146.846241"/>
      </g>
     </g>
    </g>
    <g id="xtick_21">
     <g id="line2d_21">
      <g>
       <use style="fill:#262626;stroke:#262626;stroke-width:1.5;" x="413.766447" xlink:href="#mb1b0c145a9" y="146.846241"/>
      </g>
     </g>
    </g>
    <g id="xtick_22">
     <g id="line2d_22">
      <g>
       <use style="fill:#262626;stroke:#262626;stroke-width:1.5;" x="425.428724" xlink:href="#mb1b0c145a9" y="146.846241"/>
      </g>
     </g>
    </g>
    <g id="xtick_23">
     <g id="line2d_23">
      <g>
       <use style="fill:#262626;stroke:#262626;stroke-width:1.5;" x="434.474689" xlink:href="#mb1b0c145a9" y="146.846241"/>
      </g>
     </g>
    </g>
    <g id="xtick_24">
     <g id="line2d_24">
      <g>
       <use style="fill:#262626;stroke:#262626;stroke-width:1.5;" x="441.86578" xlink:href="#mb1b0c145a9" y="146.846241"/>
      </g>
     </g>
    </g>
    <g id="xtick_25">
     <g id="line2d_25">
      <g>
       <use style="fill:#262626;stroke:#262626;stroke-width:1.5;" x="448.114859" xlink:href="#mb1b0c145a9" y="146.846241"/>
      </g>
     </g>
    </g>
    <g id="xtick_26">
     <g id="line2d_26">
      <g>
       <use style="fill:#262626;stroke:#262626;stroke-width:1.5;" x="453.528057" xlink:href="#mb1b0c145a9" y="146.846241"/>
      </g>
     </g>
    </g>
    <g id="xtick_27">
     <g id="line2d_27">
      <g>
       <use style="fill:#262626;stroke:#262626;stroke-width:1.5;" x="458.302836" xlink:href="#mb1b0c145a9" y="146.846241"/>
      </g>
     </g>
    </g>
    <g id="xtick_28">
     <g id="line2d_28">
      <g>
       <use style="fill:#262626;stroke:#262626;stroke-width:1.5;" x="490.673355" xlink:href="#mb1b0c145a9" y="146.846241"/>
      </g>
     </g>
    </g>
    <g id="xtick_29">
     <g id="line2d_29">
      <g>
       <use style="fill:#262626;stroke:#262626;stroke-width:1.5;" x="507.110411" xlink:href="#mb1b0c145a9" y="146.846241"/>
      </g>
     </g>
    </g>
    <g id="xtick_30">
     <g id="line2d_30">
      <g>
       <use style="fill:#262626;stroke:#262626;stroke-width:1.5;" x="518.772688" xlink:href="#mb1b0c145a9" y="146.846241"/>
      </g>
     </g>
    </g>
    <g id="xtick_31">
     <g id="line2d_31">
      <g>
       <use style="fill:#262626;stroke:#262626;stroke-width:1.5;" x="527.818653" xlink:href="#mb1b0c145a9" y="146.846241"/>
      </g>
     </g>
    </g>
    <g id="text_4">
     <!-- NT50 -->
     <g style="fill:#262626;" transform="translate(335.158125 191.995382)scale(0.18 -0.18)">
      <defs>
       <path d="M 65 72.90625 
L 65 0 
L 54.5 0 
L 16.796875 59.09375 
L 16.796875 0 
L 8 0 
L 8 72.90625 
L 18.09375 72.90625 
L 56.203125 13.296875 
L 56.203125 72.90625 
z
" id="FreeSans-78"/>
       <path d="M 36.296875 64.703125 
L 36.296875 0 
L 27 0 
L 27 64.703125 
L 3 64.703125 
L 3 72.90625 
L 60.203125 72.90625 
L 60.203125 64.703125 
z
" id="FreeSans-84"/>
       <path d="M 47.59375 70.90625 
L 47.59375 62.203125 
L 18.09375 62.203125 
L 15.296875 42.40625 
Q 21.203125 46.703125 28.40625 46.703125 
Q 38.59375 46.703125 44.9375 40.140625 
Q 51.296875 33.59375 51.296875 23.09375 
Q 51.296875 11.90625 44.5 4.796875 
Q 37.703125 -2.296875 27 -2.296875 
Q 22.90625 -2.296875 19.453125 -1.390625 
Q 16 -0.5 13.75 0.75 
Q 11.5 2 9.640625 4.046875 
Q 7.796875 6.09375 6.84375 7.640625 
Q 5.90625 9.203125 5.046875 11.546875 
Q 4.203125 13.90625 4 14.796875 
Q 3.796875 15.703125 3.5 17.40625 
L 12.296875 17.40625 
Q 15.40625 5.5 26.796875 5.5 
Q 34 5.5 38.140625 9.890625 
Q 42.296875 14.296875 42.296875 21.90625 
Q 42.296875 29.796875 38.09375 34.34375 
Q 33.90625 38.90625 26.796875 38.90625 
Q 22.703125 38.90625 19.796875 37.453125 
Q 16.90625 36 13.796875 32.296875 
L 5.703125 32.296875 
L 11 70.90625 
z
" id="FreeSans-53"/>
       <path d="M 4.296875 34.296875 
Q 4.296875 43.203125 5.796875 50 
Q 7.296875 56.796875 9.59375 60.640625 
Q 11.90625 64.5 15.09375 66.890625 
Q 18.296875 69.296875 21.25 70.09375 
Q 24.203125 70.90625 27.5 70.90625 
Q 50.703125 70.90625 50.703125 33.703125 
Q 50.703125 16.203125 44.75 6.953125 
Q 38.796875 -2.296875 27.5 -2.296875 
Q 16.09375 -2.296875 10.1875 7.046875 
Q 4.296875 16.40625 4.296875 34.296875 
z
M 41.703125 34.5 
Q 41.703125 63.09375 27.5 63.09375 
Q 13.296875 63.09375 13.296875 34.203125 
Q 13.296875 5 27.296875 5 
Q 34.703125 5 38.203125 12.203125 
Q 41.703125 19.40625 41.703125 34.5 
z
" id="FreeSans-48"/>
      </defs>
      <use xlink:href="#FreeSans-78"/>
      <use x="72.999985" xlink:href="#FreeSans-84"/>
      <use x="136.199982" xlink:href="#FreeSans-53"/>
      <use x="191.799973" xlink:href="#FreeSans-48"/>
     </g>
    </g>
   </g>
   <g id="matplotlib.axis_2">
    <g id="ytick_1">
     <g id="line2d_32">
      <defs>
       <path d="M 0 0 
L -9 0 
" id="m983f4d66e9" style="stroke:#262626;stroke-width:1.875;"/>
      </defs>
      <g>
       <use style="fill:#262626;stroke:#262626;stroke-width:1.875;" x="195.423281" xlink:href="#m983f4d66e9" y="135.758241"/>
      </g>
     </g>
     <g id="text_5">
      <!-- r4A8 (50ug/mL) -->
      <g style="fill:#262626;" transform="translate(70.541953 141.773007)scale(0.165 -0.165)">
       <defs>
        <path d="M 31.203125 45.09375 
Q 22.796875 44.90625 18.59375 41.203125 
Q 14.40625 37.5 14.40625 27.203125 
L 14.40625 0 
L 6 0 
L 6 52.40625 
L 13.703125 52.40625 
L 13.703125 42.90625 
Q 17.296875 48.796875 20.640625 51.34375 
Q 24 53.90625 28 53.90625 
Q 29.09375 53.90625 31.203125 53.59375 
z
" id="FreeSans-114"/>
        <path d="M 47.203125 21.90625 
L 19.09375 21.90625 
L 11.40625 0 
L 1.5 0 
L 27.5 72.90625 
L 39.5 72.90625 
L 65.09375 0 
L 54.703125 0 
z
M 44.59375 29.703125 
L 33.40625 62.90625 
L 21.40625 29.703125 
z
" id="FreeSans-65"/>
        <path d="M 39.09375 37.296875 
Q 51.296875 31.5 51.296875 19.59375 
Q 51.296875 9.90625 44.640625 3.796875 
Q 38 -2.296875 27.5 -2.296875 
Q 17 -2.296875 10.34375 3.84375 
Q 3.703125 10 3.703125 19.703125 
Q 3.703125 31.5 15.796875 37.296875 
Q 10.40625 40.703125 8.296875 43.890625 
Q 6.203125 47.09375 6.203125 52 
Q 6.203125 60.296875 12.140625 65.59375 
Q 18.09375 70.90625 27.5 70.90625 
Q 36.90625 70.90625 42.84375 65.59375 
Q 48.796875 60.296875 48.796875 52 
Q 48.796875 47 46.6875 43.796875 
Q 44.59375 40.59375 39.09375 37.296875 
z
M 39.796875 57 
Q 33.09375 63.09375 27.5 63.09375 
Q 21.90625 63.09375 18.546875 60.046875 
Q 15.203125 57 15.203125 51.90625 
Q 15.203125 46.90625 18.546875 43.84375 
Q 21.90625 40.796875 27.5 40.796875 
Q 33 40.796875 36.390625 43.796875 
Q 39.796875 46.796875 39.796875 51.796875 
Q 39.796875 57 33.09375 63.09375 
z
M 42.296875 25.703125 
Q 34.09375 33.40625 27.5 33.40625 
Q 20.90625 33.40625 16.796875 29.546875 
Q 12.703125 25.703125 12.703125 19.5 
Q 12.703125 13.296875 16.75 9.390625 
Q 20.796875 5.5 27.296875 5.5 
Q 34 5.5 38.140625 9.34375 
Q 42.296875 13.203125 42.296875 19.5 
Q 42.296875 25.703125 34.09375 33.40625 
z
" id="FreeSans-56"/>
        <path id="FreeSans-32"/>
        <path d="M 23.59375 72.90625 
L 29.09375 72.90625 
Q 15.40625 50.796875 15.40625 25.90625 
Q 15.40625 1.09375 29.09375 -21.203125 
L 23.59375 -21.203125 
Q 16.09375 -11.40625 11.6875 1.34375 
Q 7.296875 14.09375 7.296875 25.890625 
Q 7.296875 37.703125 11.6875 50.390625 
Q 16.09375 63.09375 23.59375 72.90625 
z
" id="FreeSans-40"/>
        <path d="M 47.703125 0 
L 40.203125 0 
L 40.203125 7.296875 
Q 36.5 2.09375 32.5 -0.09375 
Q 28.5 -2.296875 22.703125 -2.296875 
Q 15.09375 -2.296875 10.546875 1.59375 
Q 6 5.5 6 12 
L 6 52.40625 
L 14.296875 52.40625 
L 14.296875 15.296875 
Q 14.296875 10.59375 17.1875 7.796875 
Q 20.09375 5 25.09375 5 
Q 31.59375 5 35.5 9.84375 
Q 39.40625 14.703125 39.40625 22.703125 
L 39.40625 52.40625 
L 47.703125 52.40625 
z
" id="FreeSans-117"/>
        <path d="M 24.59375 -2.296875 
Q 15.40625 -2.296875 9.203125 5.25 
Q 3 12.796875 3 25.296875 
Q 3 38.09375 9.140625 46 
Q 15.296875 53.90625 25.296875 53.90625 
Q 35.09375 53.90625 41.296875 44.796875 
L 40.296875 52.40625 
L 49 52.40625 
L 49 8.59375 
Q 49 1.09375 48.09375 -3.953125 
Q 47.203125 -9 44.796875 -13.296875 
Q 42.40625 -17.59375 37.65625 -19.6875 
Q 32.90625 -21.796875 25.59375 -21.796875 
Q 16.40625 -21.796875 10.90625 -17.59375 
Q 5.40625 -13.40625 4.703125 -6 
L 13.203125 -6 
Q 14.59375 -14.796875 25.90625 -14.796875 
Q 34.296875 -14.796875 37.390625 -10.046875 
Q 40.5 -5.296875 40.5 4.40625 
L 40.5 7.09375 
Q 37 2.09375 33.25 -0.09375 
Q 29.5 -2.296875 24.59375 -2.296875 
z
M 26.203125 46.203125 
Q 19.5 46.203125 15.59375 40.703125 
Q 11.703125 35.203125 11.703125 25.796875 
Q 11.703125 16.296875 15.59375 10.84375 
Q 19.5 5.40625 26.296875 5.40625 
Q 32.90625 5.40625 36.703125 10.75 
Q 40.5 16.09375 40.5 25.5 
Q 40.5 35.296875 36.75 40.75 
Q 33 46.203125 26.203125 46.203125 
z
" id="FreeSans-103"/>
        <path d="M 22.90625 72.90625 
L 28.40625 72.90625 
L 4.703125 -2 
L -0.796875 -2 
z
" id="FreeSans-47"/>
        <path d="M 6 52.40625 
L 13.703125 52.40625 
L 13.703125 45 
Q 17.09375 49.703125 20.84375 51.796875 
Q 24.59375 53.90625 29.796875 53.90625 
Q 39.5 53.90625 43.90625 45.90625 
Q 47.59375 50.296875 51.1875 52.09375 
Q 54.796875 53.90625 60 53.90625 
Q 67.296875 53.90625 71.25 50.15625 
Q 75.203125 46.40625 75.203125 39.296875 
L 75.203125 0 
L 66.796875 0 
L 66.796875 36.09375 
Q 66.796875 41.09375 64.25 43.84375 
Q 61.703125 46.59375 57.09375 46.59375 
Q 52 46.59375 48.390625 42.59375 
Q 44.796875 38.59375 44.796875 32.90625 
L 44.796875 0 
L 36.40625 0 
L 36.40625 36.09375 
Q 36.40625 41.09375 33.84375 43.84375 
Q 31.296875 46.59375 26.703125 46.59375 
Q 21.59375 46.59375 18 42.59375 
Q 14.40625 38.59375 14.40625 32.90625 
L 14.40625 0 
L 6 0 
z
" id="FreeSans-109"/>
        <path d="M 17.296875 72.90625 
L 17.296875 8.203125 
L 53.296875 8.203125 
L 53.296875 0 
L 8 0 
L 8 72.90625 
z
" id="FreeSans-76"/>
        <path d="M 9.296875 -21.203125 
L 3.796875 -21.203125 
Q 17.5 0.90625 17.5 25.796875 
Q 17.5 50.59375 3.796875 72.90625 
L 9.296875 72.90625 
Q 16.796875 63.09375 21.1875 50.34375 
Q 25.59375 37.59375 25.59375 25.796875 
Q 25.59375 14 21.1875 1.296875 
Q 16.796875 -11.40625 9.296875 -21.203125 
z
" id="FreeSans-41"/>
       </defs>
       <use xlink:href="#FreeSans-114"/>
       <use x="33.199997" xlink:href="#FreeSans-52"/>
       <use x="88.799988" xlink:href="#FreeSans-65"/>
       <use x="155.399979" xlink:href="#FreeSans-56"/>
       <use x="210.999969" xlink:href="#FreeSans-32"/>
       <use x="235.999954" xlink:href="#FreeSans-40"/>
       <use x="269.299942" xlink:href="#FreeSans-53"/>
       <use x="324.899933" xlink:href="#FreeSans-48"/>
       <use x="380.499924" xlink:href="#FreeSans-117"/>
       <use x="434.199921" xlink:href="#FreeSans-103"/>
       <use x="489.199905" xlink:href="#FreeSans-47"/>
       <use x="516.999893" xlink:href="#FreeSans-109"/>
       <use x="598.199875" xlink:href="#FreeSans-76"/>
       <use x="654.499863" xlink:href="#FreeSans-41"/>
      </g>
     </g>
    </g>
    <g id="ytick_2">
     <g id="line2d_33">
      <g>
       <use style="fill:#262626;stroke:#262626;stroke-width:1.875;" x="195.423281" xlink:href="#m983f4d66e9" y="117.278241"/>
      </g>
     </g>
     <g id="text_6">
      <!-- rREGN10987 (50ug/mL) -->
      <g style="fill:#262626;" transform="translate(7.2 123.390975)scale(0.165 -0.165)">
       <defs>
        <path d="M 52.296875 36 
Q 55.5 34.59375 57.640625 32.6875 
Q 59.796875 30.796875 60.75 28.390625 
Q 61.703125 26 62 23.890625 
Q 62.296875 21.796875 62.296875 18.90625 
Q 62.296875 18 62.25 16.296875 
Q 62.203125 14.59375 62.203125 13.796875 
Q 62.203125 9.703125 63.09375 6.890625 
Q 64 4.09375 66.59375 2.296875 
L 66.59375 0 
L 55.296875 0 
Q 53.296875 4.59375 53.296875 11.90625 
L 53.296875 18.40625 
Q 53.296875 25.09375 50.390625 28.25 
Q 47.5 31.40625 41.296875 31.40625 
L 17.296875 31.40625 
L 17.296875 0 
L 8 0 
L 8 72.90625 
L 41.59375 72.90625 
Q 52.296875 72.90625 58.046875 67.84375 
Q 63.796875 62.796875 63.796875 53.40625 
Q 63.796875 47.203125 61.09375 43.09375 
Q 58.40625 39 52.296875 36 
z
M 54.09375 52.09375 
Q 54.09375 59.296875 50.296875 62 
Q 46.5 64.703125 39.796875 64.703125 
L 17.296875 64.703125 
L 17.296875 39.59375 
L 39.796875 39.59375 
Q 47.203125 39.59375 50.640625 42.59375 
Q 54.09375 45.59375 54.09375 52.09375 
z
" id="FreeSans-82"/>
        <path d="M 17.296875 33.203125 
L 17.296875 8.203125 
L 60.296875 8.203125 
L 60.296875 0 
L 8 0 
L 8 72.90625 
L 58.5 72.90625 
L 58.5 64.703125 
L 17.296875 64.703125 
L 17.296875 41.40625 
L 57 41.40625 
L 57 33.203125 
z
" id="FreeSans-69"/>
        <path d="M 13.296875 36.203125 
Q 13.296875 32.40625 14 28.546875 
Q 14.703125 24.703125 16.5 20.5 
Q 18.296875 16.296875 21.140625 13.140625 
Q 24 10 28.703125 7.953125 
Q 33.40625 5.90625 39.40625 5.90625 
Q 49.40625 5.90625 55.84375 12.203125 
Q 62.296875 18.5 62.296875 28.296875 
L 62.296875 30.296875 
L 40.09375 30.296875 
L 40.09375 38.5 
L 70.5 38.5 
L 70.5 -0.40625 
L 64.59375 -0.40625 
L 62.296875 9.296875 
Q 51.90625 -2.296875 37.40625 -2.296875 
Q 22.59375 -2.296875 13.296875 8.296875 
Q 4 18.90625 4 35.703125 
Q 4 40.5 4.890625 45.34375 
Q 5.796875 50.203125 8.296875 55.5 
Q 10.796875 60.796875 14.546875 64.796875 
Q 18.296875 68.796875 24.640625 71.4375 
Q 31 74.09375 39 74.09375 
Q 51.5 74.09375 59.546875 68 
Q 67.59375 61.90625 69.5 50.796875 
L 60 50.796875 
Q 58.5 57.796875 52.84375 61.84375 
Q 47.203125 65.90625 38.90625 65.90625 
Q 27.296875 65.90625 20.296875 57.75 
Q 13.296875 49.59375 13.296875 36.203125 
z
" id="FreeSans-71"/>
        <path d="M 50.90625 36.296875 
Q 50.90625 26.90625 49.203125 19.75 
Q 47.5 12.59375 44.953125 8.5 
Q 42.40625 4.40625 38.84375 1.84375 
Q 35.296875 -0.703125 32.09375 -1.5 
Q 28.90625 -2.296875 25.40625 -2.296875 
Q 17.296875 -2.296875 11.9375 2.59375 
Q 6.59375 7.5 5.296875 16.203125 
L 14.09375 16.203125 
Q 15.203125 11.09375 18.296875 8.296875 
Q 21.40625 5.5 26 5.5 
Q 33.59375 5.5 37.640625 12.453125 
Q 41.703125 19.40625 41.796875 32.40625 
Q 35.203125 24.5 25.59375 24.5 
Q 16 24.5 9.890625 30.796875 
Q 3.796875 37.09375 3.796875 47 
Q 3.796875 57.40625 10.34375 64.15625 
Q 16.90625 70.90625 27 70.90625 
Q 50.90625 70.90625 50.90625 36.296875 
z
M 26.90625 63.203125 
Q 20.796875 63.203125 16.796875 58.796875 
Q 12.796875 54.40625 12.796875 47.703125 
Q 12.796875 40.59375 16.5 36.4375 
Q 20.203125 32.296875 26.59375 32.296875 
Q 33 32.296875 37.140625 36.5 
Q 41.296875 40.703125 41.296875 47.203125 
Q 41.296875 54.09375 37.1875 58.640625 
Q 33.09375 63.203125 26.90625 63.203125 
z
" id="FreeSans-57"/>
        <path d="M 52 70.90625 
L 52 63.5 
Q 40 47.5 33.046875 32.25 
Q 26.09375 17 23.203125 0 
L 13.796875 0 
Q 17.796875 17.5 24 30.796875 
Q 30.203125 44.09375 42.90625 62.203125 
L 4.59375 62.203125 
L 4.59375 70.90625 
z
" id="FreeSans-55"/>
       </defs>
       <use xlink:href="#FreeSans-114"/>
       <use x="33.199997" xlink:href="#FreeSans-82"/>
       <use x="104.099991" xlink:href="#FreeSans-69"/>
       <use x="167.399979" xlink:href="#FreeSans-71"/>
       <use x="243.899963" xlink:href="#FreeSans-78"/>
       <use x="316.899948" xlink:href="#FreeSans-49"/>
       <use x="372.499939" xlink:href="#FreeSans-48"/>
       <use x="428.09993" xlink:href="#FreeSans-57"/>
       <use x="483.699921" xlink:href="#FreeSans-56"/>
       <use x="539.299911" xlink:href="#FreeSans-55"/>
       <use x="594.899902" xlink:href="#FreeSans-32"/>
       <use x="619.899887" xlink:href="#FreeSans-40"/>
       <use x="653.199875" xlink:href="#FreeSans-53"/>
       <use x="708.799866" xlink:href="#FreeSans-48"/>
       <use x="764.399857" xlink:href="#FreeSans-117"/>
       <use x="818.099854" xlink:href="#FreeSans-103"/>
       <use x="873.099838" xlink:href="#FreeSans-47"/>
       <use x="900.899826" xlink:href="#FreeSans-109"/>
       <use x="982.099808" xlink:href="#FreeSans-76"/>
       <use x="1038.399796" xlink:href="#FreeSans-41"/>
      </g>
     </g>
    </g>
    <g id="ytick_3">
     <g id="line2d_34">
      <g>
       <use style="fill:#262626;stroke:#262626;stroke-width:1.875;" x="195.423281" xlink:href="#m983f4d66e9" y="98.798241"/>
      </g>
     </g>
     <g id="text_7">
      <!-- rREGN10987 (25ug/mL) -->
      <g style="fill:#262626;" transform="translate(7.2 104.910975)scale(0.165 -0.165)">
       <use xlink:href="#FreeSans-114"/>
       <use x="33.199997" xlink:href="#FreeSans-82"/>
       <use x="104.099991" xlink:href="#FreeSans-69"/>
       <use x="167.399979" xlink:href="#FreeSans-71"/>
       <use x="243.899963" xlink:href="#FreeSans-78"/>
       <use x="316.899948" xlink:href="#FreeSans-49"/>
       <use x="372.499939" xlink:href="#FreeSans-48"/>
       <use x="428.09993" xlink:href="#FreeSans-57"/>
       <use x="483.699921" xlink:href="#FreeSans-56"/>
       <use x="539.299911" xlink:href="#FreeSans-55"/>
       <use x="594.899902" xlink:href="#FreeSans-32"/>
       <use x="619.899887" xlink:href="#FreeSans-40"/>
       <use x="653.199875" xlink:href="#FreeSans-50"/>
       <use x="708.799866" xlink:href="#FreeSans-53"/>
       <use x="764.399857" xlink:href="#FreeSans-117"/>
       <use x="818.099854" xlink:href="#FreeSans-103"/>
       <use x="873.099838" xlink:href="#FreeSans-47"/>
       <use x="900.899826" xlink:href="#FreeSans-109"/>
       <use x="982.099808" xlink:href="#FreeSans-76"/>
       <use x="1038.399796" xlink:href="#FreeSans-41"/>
      </g>
     </g>
    </g>
    <g id="ytick_4">
     <g id="line2d_35">
      <g>
       <use style="fill:#262626;stroke:#262626;stroke-width:1.875;" x="195.423281" xlink:href="#m983f4d66e9" y="80.318241"/>
      </g>
     </g>
     <g id="text_8">
      <!-- rREGN10987 (5ug/mL) -->
      <g style="fill:#262626;" transform="translate(16.372969 86.430975)scale(0.165 -0.165)">
       <use xlink:href="#FreeSans-114"/>
       <use x="33.199997" xlink:href="#FreeSans-82"/>
       <use x="104.099991" xlink:href="#FreeSans-69"/>
       <use x="167.399979" xlink:href="#FreeSans-71"/>
       <use x="243.899963" xlink:href="#FreeSans-78"/>
       <use x="316.899948" xlink:href="#FreeSans-49"/>
       <use x="372.499939" xlink:href="#FreeSans-48"/>
       <use x="428.09993" xlink:href="#FreeSans-57"/>
       <use x="483.699921" xlink:href="#FreeSans-56"/>
       <use x="539.299911" xlink:href="#FreeSans-55"/>
       <use x="594.899902" xlink:href="#FreeSans-32"/>
       <use x="619.899887" xlink:href="#FreeSans-40"/>
       <use x="653.199875" xlink:href="#FreeSans-53"/>
       <use x="708.799866" xlink:href="#FreeSans-117"/>
       <use x="762.499863" xlink:href="#FreeSans-103"/>
       <use x="817.499847" xlink:href="#FreeSans-47"/>
       <use x="845.299835" xlink:href="#FreeSans-109"/>
       <use x="926.499817" xlink:href="#FreeSans-76"/>
       <use x="982.799805" xlink:href="#FreeSans-41"/>
      </g>
     </g>
    </g>
   </g>
   <g id="LineCollection_1">
    <path clip-path="url(#pdd2ec7771e)" d="M 210.641463 146.846241 
L 210.641463 69.230241 
" style="fill:none;stroke:#56b4e9;stroke-dasharray:6.558079,2.835926;stroke-dashoffset:0;stroke-opacity:0.6;stroke-width:1.772454;"/>
   </g>
   <g id="line2d_36">
    <path clip-path="url(#pdd2ec7771e)" d="M 451.322773 135.758241 
L 477.859802 135.758241 
" style="fill:none;stroke:#999999;stroke-width:0.886227;"/>
   </g>
   <g id="line2d_37">
    <path clip-path="url(#pdd2ec7771e)" d="M 303.985427 117.278241 
L 431.537646 117.278241 
" style="fill:none;stroke:#999999;stroke-width:0.886227;"/>
   </g>
   <g id="line2d_38">
    <path clip-path="url(#pdd2ec7771e)" d="M 275.886094 98.798241 
L 406.719159 98.798241 
" style="fill:none;stroke:#999999;stroke-width:0.886227;"/>
   </g>
   <g id="line2d_39">
    <path clip-path="url(#pdd2ec7771e)" d="M 210.641463 80.318241 
L 352.316647 80.318241 
" style="fill:none;stroke:#999999;stroke-width:0.886227;"/>
   </g>
   <g id="patch_3">
    <path d="M 195.423281 146.846241 
L 195.423281 69.230241 
" style="fill:none;stroke:#262626;stroke-linecap:square;stroke-linejoin:miter;stroke-width:1.875;"/>
   </g>
   <g id="patch_4">
    <path d="M 530.223281 146.846241 
L 530.223281 69.230241 
" style="fill:none;stroke:#262626;stroke-linecap:square;stroke-linejoin:miter;stroke-width:1.875;"/>
   </g>
   <g id="patch_5">
    <path d="M 195.423281 146.846241 
L 530.223281 146.846241 
" style="fill:none;stroke:#262626;stroke-linecap:square;stroke-linejoin:miter;stroke-width:1.875;"/>
   </g>
   <g id="patch_6">
    <path d="M 195.423281 69.230241 
L 530.223281 69.230241 
" style="fill:none;stroke:#262626;stroke-linecap:square;stroke-linejoin:miter;stroke-width:1.875;"/>
   </g>
   <g id="PathCollection_1">
    <path clip-path="url(#pdd2ec7771e)" d="M 451.322773 140.632489 
C 452.615439 140.632489 453.855334 140.118907 454.769387 139.204855 
C 455.68344 138.290802 456.197021 137.050907 456.197021 135.758241 
C 456.197021 134.465575 455.68344 133.22568 454.769387 132.311627 
C 453.855334 131.397574 452.615439 130.883993 451.322773 130.883993 
C 450.030108 130.883993 448.790212 131.397574 447.876159 132.311627 
C 446.962107 133.22568 446.448525 134.465575 446.448525 135.758241 
C 446.448525 137.050907 446.962107 138.290802 447.876159 139.204855 
C 448.790212 140.118907 450.030108 140.632489 451.322773 140.632489 
z
" style="fill:#ffffff;stroke:#999999;stroke-width:0.886227;"/>
    <path clip-path="url(#pdd2ec7771e)" d="M 477.859802 140.632489 
C 479.152467 140.632489 480.392363 140.118907 481.306415 139.204855 
C 482.220468 138.290802 482.73405 137.050907 482.73405 135.758241 
C 482.73405 134.465575 482.220468 133.22568 481.306415 132.311627 
C 480.392363 131.397574 479.152467 130.883993 477.859802 130.883993 
C 476.567136 130.883993 475.32724 131.397574 474.413188 132.311627 
C 473.499135 133.22568 472.985554 134.465575 472.985554 135.758241 
C 472.985554 137.050907 473.499135 138.290802 474.413188 139.204855 
C 475.32724 140.118907 476.567136 140.632489 477.859802 140.632489 
z
" style="fill:#e69f00;stroke:#999999;stroke-width:0.886227;"/>
    <path clip-path="url(#pdd2ec7771e)" d="M 406.719159 103.672489 
C 408.011824 103.672489 409.25172 103.158907 410.165772 102.244855 
C 411.079825 101.330802 411.593407 100.090907 411.593407 98.798241 
C 411.593407 97.505575 411.079825 96.26568 410.165772 95.351627 
C 409.25172 94.437574 408.011824 93.923993 406.719159 93.923993 
C 405.426493 93.923993 404.186597 94.437574 403.272545 95.351627 
C 402.358492 96.26568 401.84491 97.505575 401.84491 98.798241 
C 401.84491 100.090907 402.358492 101.330802 403.272545 102.244855 
C 404.186597 103.158907 405.426493 103.672489 406.719159 103.672489 
z
" style="fill:#ffffff;stroke:#999999;stroke-width:0.886227;"/>
    <path clip-path="url(#pdd2ec7771e)" d="M 275.886094 103.672489 
C 277.17876 103.672489 278.418655 103.158907 279.332708 102.244855 
C 280.246761 101.330802 280.760342 100.090907 280.760342 98.798241 
C 280.760342 97.505575 280.246761 96.26568 279.332708 95.351627 
C 278.418655 94.437574 277.17876 93.923993 275.886094 93.923993 
C 274.593428 93.923993 273.353533 94.437574 272.43948 95.351627 
C 271.525427 96.26568 271.011846 97.505575 271.011846 98.798241 
C 271.011846 100.090907 271.525427 101.330802 272.43948 102.244855 
C 273.353533 103.158907 274.593428 103.672489 275.886094 103.672489 
z
" style="fill:#e69f00;stroke:#999999;stroke-width:0.886227;"/>
    <path clip-path="url(#pdd2ec7771e)" d="M 431.537646 122.152489 
C 432.830311 122.152489 434.070207 121.638907 434.984259 120.724855 
C 435.898312 119.810802 436.411894 118.570907 436.411894 117.278241 
C 436.411894 115.985575 435.898312 114.74568 434.984259 113.831627 
C 434.070207 112.917574 432.830311 112.403993 431.537646 112.403993 
C 430.24498 112.403993 429.005084 112.917574 428.091032 113.831627 
C 427.176979 114.74568 426.663398 115.985575 426.663398 117.278241 
C 426.663398 118.570907 427.176979 119.810802 428.091032 120.724855 
C 429.005084 121.638907 430.24498 122.152489 431.537646 122.152489 
z
" style="fill:#ffffff;stroke:#999999;stroke-width:0.886227;"/>
    <path clip-path="url(#pdd2ec7771e)" d="M 303.985427 122.152489 
C 305.278093 122.152489 306.517988 121.638907 307.432041 120.724855 
C 308.346094 119.810802 308.859675 118.570907 308.859675 117.278241 
C 308.859675 115.985575 308.346094 114.74568 307.432041 113.831627 
C 306.517988 112.917574 305.278093 112.403993 303.985427 112.403993 
C 302.692761 112.403993 301.452866 112.917574 300.538813 113.831627 
C 299.62476 114.74568 299.111179 115.985575 299.111179 117.278241 
C 299.111179 118.570907 299.62476 119.810802 300.538813 120.724855 
C 301.452866 121.638907 302.692761 122.152489 303.985427 122.152489 
z
" style="fill:#e69f00;stroke:#999999;stroke-width:0.886227;"/>
    <path clip-path="url(#pdd2ec7771e)" d="M 352.316647 85.192489 
C 353.609313 85.192489 354.849208 84.678907 355.763261 83.764855 
C 356.677314 82.850802 357.190895 81.610907 357.190895 80.318241 
C 357.190895 79.025575 356.677314 77.78568 355.763261 76.871627 
C 354.849208 75.957574 353.609313 75.443993 352.316647 75.443993 
C 351.023981 75.443993 349.784086 75.957574 348.870033 76.871627 
C 347.95598 77.78568 347.442399 79.025575 347.442399 80.318241 
C 347.442399 81.610907 347.95598 82.850802 348.870033 83.764855 
C 349.784086 84.678907 351.023981 85.192489 352.316647 85.192489 
z
" style="fill:#ffffff;stroke:#999999;stroke-width:0.886227;"/>
    <path clip-path="url(#pdd2ec7771e)" d="M 210.641463 85.192489 
C 211.934129 85.192489 213.174024 84.678907 214.088077 83.764855 
C 215.00213 82.850802 215.515711 81.610907 215.515711 80.318241 
C 215.515711 79.025575 215.00213 77.78568 214.088077 76.871627 
C 213.174024 75.957574 211.934129 75.443993 210.641463 75.443993 
C 209.348797 75.443993 208.108902 75.957574 207.194849 76.871627 
C 206.280797 77.78568 205.767215 79.025575 205.767215 80.318241 
C 205.767215 81.610907 206.280797 82.850802 207.194849 83.764855 
C 208.108902 84.678907 209.348797 85.192489 210.641463 85.192489 
z
" style="fill:#e69f00;stroke:#999999;stroke-width:0.886227;"/>
   </g>
   <g id="text_9">
    <!-- mapped -->
    <g transform="translate(557.423281 40.323125)scale(0.18 -0.18)">
     <defs>
      <path d="M 5.296875 36.90625 
Q 5.90625 53.90625 26.296875 53.90625 
Q 36 53.90625 41 50.25 
Q 46 46.59375 46 39.59375 
L 46 8.796875 
Q 46 4.703125 50.5 4.703125 
Q 51.40625 4.703125 52.296875 4.90625 
L 52.296875 -1.40625 
Q 48.796875 -2.296875 46.59375 -2.296875 
Q 42.59375 -2.296875 40.546875 -0.4375 
Q 38.5 1.40625 38 5.40625 
Q 29.59375 -2.296875 20.203125 -2.296875 
Q 12.296875 -2.296875 7.640625 1.890625 
Q 3 6.09375 3 13.203125 
Q 3 15.5 3.453125 17.390625 
Q 3.90625 19.296875 4.453125 20.75 
Q 5 22.203125 6.390625 23.453125 
Q 7.796875 24.703125 8.75 25.5 
Q 9.703125 26.296875 11.953125 27.046875 
Q 14.203125 27.796875 15.390625 28.140625 
Q 16.59375 28.5 19.59375 29 
Q 22.59375 29.5 24 29.703125 
Q 25.40625 29.90625 29 30.40625 
Q 33.90625 31 35.796875 32.296875 
Q 37.703125 33.59375 37.703125 36.203125 
L 37.703125 38.40625 
Q 37.703125 42.203125 34.640625 44.203125 
Q 31.59375 46.203125 26 46.203125 
Q 20.203125 46.203125 17.203125 43.953125 
Q 14.203125 41.703125 13.703125 36.90625 
z
M 22 5 
Q 28.90625 5 33.296875 8.640625 
Q 37.703125 12.296875 37.703125 16.5 
L 37.703125 25.90625 
Q 35.203125 24.703125 30.140625 23.890625 
Q 25.09375 23.09375 21.390625 22.5 
Q 17.703125 21.90625 14.703125 19.65625 
Q 11.703125 17.40625 11.703125 13.40625 
Q 11.703125 9.40625 14.390625 7.203125 
Q 17.09375 5 22 5 
z
" id="FreeSans-97"/>
      <path d="M 6 -21.796875 
L 6 52.40625 
L 13.703125 52.40625 
L 13.703125 44.5 
Q 19.59375 53.90625 30.40625 53.90625 
Q 40.796875 53.90625 46.84375 46.203125 
Q 52.90625 38.5 52.90625 25.296875 
Q 52.90625 12.796875 46.75 5.25 
Q 40.59375 -2.296875 30.5 -2.296875 
Q 20.796875 -2.296875 14.40625 5.5 
L 14.40625 -21.796875 
z
M 29 46.09375 
Q 22.40625 46.09375 18.40625 40.546875 
Q 14.40625 35 14.40625 25.796875 
Q 14.40625 16.59375 18.40625 11.046875 
Q 22.40625 5.5 29 5.5 
Q 35.796875 5.5 40 11.046875 
Q 44.203125 16.59375 44.203125 25.5 
Q 44.203125 34.90625 40.046875 40.5 
Q 35.90625 46.09375 29 46.09375 
z
" id="FreeSans-112"/>
      <path d="M 49.90625 72.90625 
L 49.90625 0 
L 42.5 0 
L 42.5 6.90625 
Q 39.09375 2 35.140625 -0.140625 
Q 31.203125 -2.296875 25.796875 -2.296875 
Q 15.203125 -2.296875 9.09375 5.34375 
Q 3 13 3 26.296875 
Q 3 38.796875 9.140625 46.34375 
Q 15.296875 53.90625 25.5 53.90625 
Q 36.296875 53.90625 41.59375 45.796875 
L 41.59375 72.90625 
z
M 26.90625 46.09375 
Q 20.09375 46.09375 15.890625 40.5 
Q 11.703125 34.90625 11.703125 25.796875 
Q 11.703125 16.59375 15.890625 11.046875 
Q 20.09375 5.5 27 5.5 
Q 33.59375 5.5 37.59375 11 
Q 41.59375 16.5 41.59375 25.59375 
Q 41.59375 35 37.59375 40.546875 
Q 33.59375 46.09375 26.90625 46.09375 
z
" id="FreeSans-100"/>
     </defs>
     <use xlink:href="#FreeSans-109"/>
     <use x="81.199982" xlink:href="#FreeSans-97"/>
     <use x="135.499969" xlink:href="#FreeSans-112"/>
     <use x="191.399963" xlink:href="#FreeSans-112"/>
     <use x="247.299957" xlink:href="#FreeSans-101"/>
     <use x="300.599945" xlink:href="#FreeSans-100"/>
    </g>
   </g>
   <g id="patch_7">
    <path clip-path="url(#p58bbae3f74)" d="M 557.423281 71.881286 
L 577.058004 71.881286 
L 577.058004 52.246563 
L 557.423281 52.246563 
z
" style="fill:#ffffff;"/>
   </g>
   <g id="line2d_40">
    <path clip-path="url(#p58bbae3f74)" d="M 557.423281 62.063924 
L 577.058004 62.063924 
" style="fill:none;stroke:#999999;stroke-width:0.886227;"/>
   </g>
   <g id="line2d_41">
    <path clip-path="url(#p58bbae3f74)" d="M 567.240643 62.063924 
" style="fill:none;stroke:#1f77b4;stroke-linecap:round;stroke-width:2.25;"/>
    <defs>
     <path d="M 0 4.874248 
C 1.292666 4.874248 2.532561 4.360667 3.446614 3.446614 
C 4.360667 2.532561 4.874248 1.292666 4.874248 0 
C 4.874248 -1.292666 4.360667 -2.532561 3.446614 -3.446614 
C 2.532561 -4.360667 1.292666 -4.874248 0 -4.874248 
C -1.292666 -4.874248 -2.532561 -4.360667 -3.446614 -3.446614 
C -4.360667 -2.532561 -4.874248 -1.292666 -4.874248 0 
C -4.874248 1.292666 -4.360667 2.532561 -3.446614 3.446614 
C -2.532561 4.360667 -1.292666 4.874248 0 4.874248 
z
" id="m0b20384007" style="stroke:#999999;stroke-width:0.886227;"/>
    </defs>
    <g clip-path="url(#p58bbae3f74)">
     <use style="fill:#999999;stroke:#999999;stroke-width:0.886227;" x="567.240643" xlink:href="#m0b20384007" y="62.063924"/>
    </g>
   </g>
   <g id="text_10">
    <!-- False -->
    <g transform="translate(580.058004 66.663768)scale(0.18 -0.18)">
     <defs>
      <path d="M 17.296875 33.203125 
L 17.296875 0 
L 8 0 
L 8 72.90625 
L 56.90625 72.90625 
L 56.90625 64.703125 
L 17.296875 64.703125 
L 17.296875 41.40625 
L 52.09375 41.40625 
L 52.09375 33.203125 
z
" id="FreeSans-70"/>
      <path d="M 14.40625 72.90625 
L 14.40625 0 
L 6 0 
L 6 72.90625 
z
" id="FreeSans-108"/>
      <path d="M 12.203125 15.59375 
Q 12.796875 10.90625 15.4375 8.15625 
Q 18.09375 5.40625 25 5.40625 
Q 30.5 5.40625 33.84375 7.65625 
Q 37.203125 9.90625 37.203125 13.59375 
Q 37.203125 16.5 35.296875 18.203125 
Q 33.40625 19.90625 29.09375 20.90625 
L 21.296875 22.796875 
Q 12 25 8.34375 28.34375 
Q 4.703125 31.703125 4.703125 37.90625 
Q 4.703125 45.203125 10.203125 49.546875 
Q 15.703125 53.90625 24.796875 53.90625 
Q 33.90625 53.90625 38.796875 49.703125 
Q 43.703125 45.5 43.796875 37.796875 
L 35 37.796875 
Q 34.703125 46.203125 24.5 46.203125 
Q 19.40625 46.203125 16.40625 44.046875 
Q 13.40625 41.90625 13.40625 38.296875 
Q 13.40625 35.5 15.703125 33.75 
Q 18 32 23.09375 30.796875 
L 31.09375 28.90625 
Q 38.90625 27 42.40625 23.546875 
Q 45.90625 20.09375 45.90625 14.296875 
Q 45.90625 6.703125 40.046875 2.203125 
Q 34.203125 -2.296875 24.296875 -2.296875 
Q 4 -2.296875 3.40625 15.59375 
z
" id="FreeSans-115"/>
     </defs>
     <use xlink:href="#FreeSans-70"/>
     <use x="59.899994" xlink:href="#FreeSans-97"/>
     <use x="114.199982" xlink:href="#FreeSans-108"/>
     <use x="135.599976" xlink:href="#FreeSans-115"/>
     <use x="184.899963" xlink:href="#FreeSans-101"/>
    </g>
   </g>
   <g id="text_11">
    <!-- pre- or post- -->
    <g transform="translate(557.423281 115.004411)scale(0.18 -0.18)">
     <defs>
      <path d="M 28.703125 31.203125 
L 28.703125 24 
L 4.59375 24 
L 4.59375 31.203125 
z
" id="FreeSans-45"/>
      <path d="M 26.59375 53.90625 
Q 37.90625 53.90625 44.15625 46.453125 
Q 50.40625 39 50.40625 25.40625 
Q 50.40625 12.5 44.046875 5.09375 
Q 37.703125 -2.296875 26.703125 -2.296875 
Q 15.5 -2.296875 9.25 5.140625 
Q 3 12.59375 3 25.796875 
Q 3 39 9.296875 46.453125 
Q 15.59375 53.90625 26.59375 53.90625 
z
M 26.703125 46.203125 
Q 19.703125 46.203125 15.703125 40.75 
Q 11.703125 35.296875 11.703125 25.796875 
Q 11.703125 16.296875 15.703125 10.84375 
Q 19.703125 5.40625 26.703125 5.40625 
Q 33.59375 5.40625 37.640625 10.84375 
Q 41.703125 16.296875 41.703125 25.5 
Q 41.703125 35.203125 37.75 40.703125 
Q 33.796875 46.203125 26.703125 46.203125 
z
" id="FreeSans-111"/>
      <path d="M 26 52.40625 
L 26 45.59375 
L 17.40625 45.59375 
L 17.40625 9.703125 
Q 17.40625 6.90625 18.34375 5.953125 
Q 19.296875 5 22 5 
Q 24.5 5 26 5.40625 
L 26 -1.59375 
Q 22.09375 -2.296875 19.203125 -2.296875 
Q 14.296875 -2.296875 11.6875 -0.140625 
Q 9.09375 2 9.09375 6 
L 9.09375 45.59375 
L 2 45.59375 
L 2 52.40625 
L 9.09375 52.40625 
L 9.09375 66.796875 
L 17.40625 66.796875 
L 17.40625 52.40625 
z
" id="FreeSans-116"/>
     </defs>
     <use xlink:href="#FreeSans-112"/>
     <use x="55.899994" xlink:href="#FreeSans-114"/>
     <use x="89.099991" xlink:href="#FreeSans-101"/>
     <use x="142.399979" xlink:href="#FreeSans-45"/>
     <use x="175.699966" xlink:href="#FreeSans-32"/>
     <use x="200.699951" xlink:href="#FreeSans-111"/>
     <use x="254.099945" xlink:href="#FreeSans-114"/>
     <use x="287.299942" xlink:href="#FreeSans-32"/>
     <use x="312.299927" xlink:href="#FreeSans-112"/>
     <use x="368.199921" xlink:href="#FreeSans-111"/>
     <use x="421.599915" xlink:href="#FreeSans-115"/>
     <use x="470.899902" xlink:href="#FreeSans-116"/>
     <use x="498.899887" xlink:href="#FreeSans-45"/>
    </g>
    <!-- depletion -->
    <g transform="translate(557.423281 134.675598)scale(0.18 -0.18)">
     <defs>
      <path d="M 15 52.40625 
L 15 0 
L 6.703125 0 
L 6.703125 52.40625 
z
M 15 72.90625 
L 15 62.40625 
L 6.59375 62.40625 
L 6.59375 72.90625 
z
" id="FreeSans-105"/>
      <path d="M 6 52.40625 
L 13.703125 52.40625 
L 13.703125 43.59375 
Q 17.203125 49.09375 21.25 51.5 
Q 25.296875 53.90625 31.09375 53.90625 
Q 38.703125 53.90625 43.203125 50 
Q 47.703125 46.09375 47.703125 39.59375 
L 47.703125 0 
L 39.40625 0 
L 39.40625 36.296875 
Q 39.40625 41 36.5 43.796875 
Q 33.59375 46.59375 28.59375 46.59375 
Q 22.203125 46.59375 18.296875 41.75 
Q 14.40625 36.90625 14.40625 28.90625 
L 14.40625 0 
L 6 0 
z
" id="FreeSans-110"/>
     </defs>
     <use xlink:href="#FreeSans-100"/>
     <use x="55.899994" xlink:href="#FreeSans-101"/>
     <use x="109.199982" xlink:href="#FreeSans-112"/>
     <use x="165.099976" xlink:href="#FreeSans-108"/>
     <use x="186.499969" xlink:href="#FreeSans-101"/>
     <use x="239.799957" xlink:href="#FreeSans-116"/>
     <use x="267.799942" xlink:href="#FreeSans-105"/>
     <use x="289.999939" xlink:href="#FreeSans-111"/>
     <use x="343.399933" xlink:href="#FreeSans-110"/>
    </g>
   </g>
   <g id="patch_8">
    <path clip-path="url(#pe6795b0591)" d="M 557.423281 166.233759 
L 577.058004 166.233759 
L 577.058004 146.599036 
L 557.423281 146.599036 
z
" style="fill:#ffffff;"/>
   </g>
   <g id="line2d_42">
    <path clip-path="url(#pe6795b0591)" d="M 567.240643 156.416397 
" style="fill:none;stroke:#1f77b4;stroke-linecap:round;stroke-width:2.25;"/>
    <defs>
     <path d="M 0 4.874248 
C 1.292666 4.874248 2.532561 4.360667 3.446614 3.446614 
C 4.360667 2.532561 4.874248 1.292666 4.874248 0 
C 4.874248 -1.292666 4.360667 -2.532561 3.446614 -3.446614 
C 2.532561 -4.360667 1.292666 -4.874248 0 -4.874248 
C -1.292666 -4.874248 -2.532561 -4.360667 -3.446614 -3.446614 
C -4.360667 -2.532561 -4.874248 -1.292666 -4.874248 0 
C -4.874248 1.292666 -4.360667 2.532561 -3.446614 3.446614 
C -2.532561 4.360667 -1.292666 4.874248 0 4.874248 
z
" id="m0b95786528" style="stroke:#000000;stroke-width:0.886227;"/>
    </defs>
    <g clip-path="url(#pe6795b0591)">
     <use style="fill:#e69f00;stroke:#000000;stroke-width:0.886227;" x="567.240643" xlink:href="#m0b95786528" y="156.416397"/>
    </g>
   </g>
   <g id="text_12">
    <!-- post-depletion -->
    <g transform="translate(580.058004 161.016241)scale(0.18 -0.18)">
     <use xlink:href="#FreeSans-112"/>
     <use x="55.899994" xlink:href="#FreeSans-111"/>
     <use x="109.299988" xlink:href="#FreeSans-115"/>
     <use x="158.599976" xlink:href="#FreeSans-116"/>
     <use x="186.59996" xlink:href="#FreeSans-45"/>
     <use x="219.899948" xlink:href="#FreeSans-100"/>
     <use x="275.799942" xlink:href="#FreeSans-101"/>
     <use x="329.09993" xlink:href="#FreeSans-112"/>
     <use x="384.999924" xlink:href="#FreeSans-108"/>
     <use x="406.399918" xlink:href="#FreeSans-101"/>
     <use x="459.699905" xlink:href="#FreeSans-116"/>
     <use x="487.69989" xlink:href="#FreeSans-105"/>
     <use x="509.899887" xlink:href="#FreeSans-111"/>
     <use x="563.299881" xlink:href="#FreeSans-110"/>
    </g>
   </g>
   <g id="patch_9">
    <path clip-path="url(#p5e9816a9ac)" d="M 557.423281 187.868482 
L 577.058004 187.868482 
L 577.058004 168.233759 
L 557.423281 168.233759 
z
" style="fill:#ffffff;"/>
   </g>
   <g id="line2d_43">
    <path clip-path="url(#p5e9816a9ac)" d="M 567.240643 178.05112 
" style="fill:none;stroke:#1f77b4;stroke-linecap:round;stroke-width:2.25;"/>
    <defs>
     <path d="M 0 4.874248 
C 1.292666 4.874248 2.532561 4.360667 3.446614 3.446614 
C 4.360667 2.532561 4.874248 1.292666 4.874248 0 
C 4.874248 -1.292666 4.360667 -2.532561 3.446614 -3.446614 
C 2.532561 -4.360667 1.292666 -4.874248 0 -4.874248 
C -1.292666 -4.874248 -2.532561 -4.360667 -3.446614 -3.446614 
C -4.360667 -2.532561 -4.874248 -1.292666 -4.874248 0 
C -4.874248 1.292666 -4.360667 2.532561 -3.446614 3.446614 
C -2.532561 4.360667 -1.292666 4.874248 0 4.874248 
z
" id="m2edb413fb4" style="stroke:#000000;stroke-width:0.886227;"/>
    </defs>
    <g clip-path="url(#p5e9816a9ac)">
     <use style="fill:#ffffff;stroke:#000000;stroke-width:0.886227;" x="567.240643" xlink:href="#m2edb413fb4" y="178.05112"/>
    </g>
   </g>
   <g id="text_13">
    <!-- pre-depletion -->
    <g transform="translate(580.058004 182.650964)scale(0.18 -0.18)">
     <use xlink:href="#FreeSans-112"/>
     <use x="55.899994" xlink:href="#FreeSans-114"/>
     <use x="89.099991" xlink:href="#FreeSans-101"/>
     <use x="142.399979" xlink:href="#FreeSans-45"/>
     <use x="175.699966" xlink:href="#FreeSans-100"/>
     <use x="231.59996" xlink:href="#FreeSans-101"/>
     <use x="284.899948" xlink:href="#FreeSans-112"/>
     <use x="340.799942" xlink:href="#FreeSans-108"/>
     <use x="362.199936" xlink:href="#FreeSans-101"/>
     <use x="415.499924" xlink:href="#FreeSans-116"/>
     <use x="443.499908" xlink:href="#FreeSans-105"/>
     <use x="465.699905" xlink:href="#FreeSans-111"/>
     <use x="519.099899" xlink:href="#FreeSans-110"/>
    </g>
   </g>
  </g>
 </g>
 <defs>
  <clipPath id="pdd2ec7771e">
   <rect height="77.616" width="334.8" x="195.423281" y="69.230241"/>
  </clipPath>
  <clipPath id="p58bbae3f74">
   <path d="M 557.423281 71.881286 
L 557.423281 52.246563 
L 577.058004 52.246563 
L 577.058004 71.881286 
"/>
  </clipPath>
  <clipPath id="pe6795b0591">
   <path d="M 557.423281 166.233759 
L 557.423281 146.599036 
L 577.058004 146.599036 
L 577.058004 166.233759 
"/>
  </clipPath>
  <clipPath id="p5e9816a9ac">
   <path d="M 557.423281 187.868482 
L 557.423281 168.233759 
L 577.058004 168.233759 
L 577.058004 187.868482 
"/>
  </clipPath>
 </defs>
</svg>
