<?xml version="1.0" encoding="utf-8" standalone="no"?>
<!DOCTYPE svg PUBLIC "-//W3C//DTD SVG 1.1//EN"
  "http://www.w3.org/Graphics/SVG/1.1/DTD/svg11.dtd">
<!-- Created with matplotlib (https://matplotlib.org/) -->
<svg height="158.666125pt" version="1.1" viewBox="0 0 309.6025 158.666125" width="309.6025pt" xmlns="http://www.w3.org/2000/svg" xmlns:xlink="http://www.w3.org/1999/xlink">
 <metadata>
  <rdf:RDF xmlns:cc="http://creativecommons.org/ns#" xmlns:dc="http://purl.org/dc/elements/1.1/" xmlns:rdf="http://www.w3.org/1999/02/22-rdf-syntax-ns#">
   <cc:Work>
    <dc:type rdf:resource="http://purl.org/dc/dcmitype/StillImage"/>
    <dc:date>2021-01-21T09:40:17.921545</dc:date>
    <dc:format>image/svg+xml</dc:format>
    <dc:creator>
     <cc:Agent>
      <dc:title>Matplotlib v3.3.2, https://matplotlib.org/</dc:title>
     </cc:Agent>
    </dc:creator>
   </cc:Work>
  </rdf:RDF>
 </metadata>
 <defs>
  <style type="text/css">*{stroke-linecap:butt;stroke-linejoin:round;}</style>
 </defs>
 <g id="figure_1">
  <g id="patch_1">
   <path d="M 0 158.666125 
L 309.6025 158.666125 
L 309.6025 0 
L 0 0 
z
" style="fill:#ffffff;"/>
  </g>
  <g id="axes_1">
   <g id="patch_2">
    <path d="M 40.604688 121.048 
L 115.124688 121.048 
L 115.124688 23.2 
L 40.604688 23.2 
z
" style="fill:#ffffff;"/>
   </g>
   <g id="matplotlib.axis_1">
    <g id="xtick_1">
     <g id="line2d_1"/>
     <g id="text_1">
      <!-- E484K -->
      <g style="fill:#262626;" transform="translate(53.577746 150.469094)rotate(-90)scale(0.09 -0.09)">
       <defs>
        <path d="M 8.203125 0 
L 8.203125 68.796875 
L 60.40625 68.796875 
L 60.40625 61.1875 
L 17.53125 61.1875 
L 17.53125 39.109375 
L 57.46875 39.109375 
L 57.46875 31.59375 
L 17.53125 31.59375 
L 17.53125 7.625 
L 62.40625 7.625 
L 62.40625 0 
z
" id="LiberationSans-69"/>
        <path d="M 43.015625 15.578125 
L 43.015625 0 
L 34.71875 0 
L 34.71875 15.578125 
L 2.296875 15.578125 
L 2.296875 22.40625 
L 33.796875 68.796875 
L 43.015625 68.796875 
L 43.015625 22.515625 
L 52.6875 22.515625 
L 52.6875 15.578125 
z
M 34.71875 58.890625 
Q 34.625 58.59375 33.34375 56.296875 
Q 32.078125 54 31.453125 53.078125 
L 13.8125 27.09375 
L 11.1875 23.484375 
L 10.40625 22.515625 
L 34.71875 22.515625 
z
" id="LiberationSans-52"/>
        <path d="M 51.265625 19.1875 
Q 51.265625 9.671875 45.203125 4.34375 
Q 39.15625 -0.984375 27.828125 -0.984375 
Q 16.796875 -0.984375 10.5625 4.234375 
Q 4.34375 9.46875 4.34375 19.09375 
Q 4.34375 25.828125 8.203125 30.421875 
Q 12.0625 35.015625 18.0625 35.984375 
L 18.0625 36.1875 
Q 12.453125 37.5 9.203125 41.890625 
Q 5.953125 46.296875 5.953125 52.203125 
Q 5.953125 60.0625 11.828125 64.9375 
Q 17.71875 69.828125 27.640625 69.828125 
Q 37.796875 69.828125 43.671875 65.03125 
Q 49.5625 60.25 49.5625 52.09375 
Q 49.5625 46.1875 46.28125 41.796875 
Q 43.015625 37.40625 37.359375 36.28125 
L 37.359375 36.078125 
Q 43.953125 35.015625 47.609375 30.5 
Q 51.265625 25.984375 51.265625 19.1875 
z
M 40.4375 51.609375 
Q 40.4375 63.28125 27.640625 63.28125 
Q 21.4375 63.28125 18.1875 60.34375 
Q 14.9375 57.421875 14.9375 51.609375 
Q 14.9375 45.703125 18.28125 42.59375 
Q 21.625 39.5 27.734375 39.5 
Q 33.9375 39.5 37.1875 42.359375 
Q 40.4375 45.21875 40.4375 51.609375 
z
M 42.140625 20.015625 
Q 42.140625 26.421875 38.328125 29.65625 
Q 34.515625 32.90625 27.640625 32.90625 
Q 20.953125 32.90625 17.1875 29.40625 
Q 13.421875 25.921875 13.421875 19.828125 
Q 13.421875 5.609375 27.9375 5.609375 
Q 35.109375 5.609375 38.625 9.046875 
Q 42.140625 12.5 42.140625 20.015625 
z
" id="LiberationSans-56"/>
        <path d="M 54 0 
L 26.515625 33.203125 
L 17.53125 26.375 
L 17.53125 0 
L 8.203125 0 
L 8.203125 68.796875 
L 17.53125 68.796875 
L 17.53125 34.328125 
L 50.6875 68.796875 
L 61.671875 68.796875 
L 32.375 38.921875 
L 65.578125 0 
z
" id="LiberationSans-75"/>
       </defs>
       <use xlink:href="#LiberationSans-69"/>
       <use x="66.699219" xlink:href="#LiberationSans-52"/>
       <use x="122.314453" xlink:href="#LiberationSans-56"/>
       <use x="177.929688" xlink:href="#LiberationSans-52"/>
       <use x="233.544922" xlink:href="#LiberationSans-75"/>
      </g>
     </g>
    </g>
    <g id="xtick_2">
     <g id="line2d_2"/>
     <g id="text_2">
      <!-- E484P -->
      <g style="fill:#262626;" transform="translate(71.320603 150.469094)rotate(-90)scale(0.09 -0.09)">
       <defs>
        <path d="M 61.421875 48.09375 
Q 61.421875 38.328125 55.046875 32.5625 
Q 48.6875 26.8125 37.75 26.8125 
L 17.53125 26.8125 
L 17.53125 0 
L 8.203125 0 
L 8.203125 68.796875 
L 37.15625 68.796875 
Q 48.734375 68.796875 55.078125 63.375 
Q 61.421875 57.953125 61.421875 48.09375 
z
M 52.046875 48 
Q 52.046875 61.328125 36.03125 61.328125 
L 17.53125 61.328125 
L 17.53125 34.1875 
L 36.421875 34.1875 
Q 52.046875 34.1875 52.046875 48 
z
" id="LiberationSans-80"/>
       </defs>
       <use xlink:href="#LiberationSans-69"/>
       <use x="66.699219" xlink:href="#LiberationSans-52"/>
       <use x="122.314453" xlink:href="#LiberationSans-56"/>
       <use x="177.929688" xlink:href="#LiberationSans-52"/>
       <use x="233.544922" xlink:href="#LiberationSans-80"/>
      </g>
     </g>
    </g>
    <g id="xtick_3">
     <g id="line2d_3"/>
     <g id="text_3">
      <!-- E484Q -->
      <g style="fill:#262626;" transform="translate(89.06346 151.466125)rotate(-90)scale(0.09 -0.09)">
       <defs>
        <path d="M 73 34.71875 
Q 73 20.171875 65.671875 10.796875 
Q 58.34375 1.421875 45.3125 -0.296875 
Q 47.3125 -6.453125 50.5625 -9.1875 
Q 53.8125 -11.921875 58.796875 -11.921875 
Q 61.46875 -11.921875 64.40625 -11.28125 
L 64.40625 -17.828125 
Q 59.859375 -18.890625 55.71875 -18.890625 
Q 48.34375 -18.890625 43.578125 -14.71875 
Q 38.8125 -10.546875 35.796875 -0.78125 
Q 26.125 -0.296875 19.109375 4.125 
Q 12.109375 8.546875 8.421875 16.421875 
Q 4.734375 24.3125 4.734375 34.71875 
Q 4.734375 51.21875 13.765625 60.515625 
Q 22.796875 69.828125 38.921875 69.828125 
Q 49.421875 69.828125 57.125 65.640625 
Q 64.84375 61.46875 68.921875 53.515625 
Q 73 45.5625 73 34.71875 
z
M 63.484375 34.71875 
Q 63.484375 47.5625 57.0625 54.875 
Q 50.640625 62.203125 38.921875 62.203125 
Q 27.09375 62.203125 20.640625 54.96875 
Q 14.203125 47.75 14.203125 34.71875 
Q 14.203125 21.78125 20.71875 14.1875 
Q 27.25 6.59375 38.8125 6.59375 
Q 50.734375 6.59375 57.109375 13.9375 
Q 63.484375 21.296875 63.484375 34.71875 
z
" id="LiberationSans-81"/>
       </defs>
       <use xlink:href="#LiberationSans-69"/>
       <use x="66.699219" xlink:href="#LiberationSans-52"/>
       <use x="122.314453" xlink:href="#LiberationSans-56"/>
       <use x="177.929688" xlink:href="#LiberationSans-52"/>
       <use x="233.544922" xlink:href="#LiberationSans-81"/>
      </g>
     </g>
    </g>
    <g id="xtick_4">
     <g id="line2d_4"/>
     <g id="text_4">
      <!-- F456K -->
      <g style="fill:#262626;" transform="translate(106.806317 149.962844)rotate(-90)scale(0.09 -0.09)">
       <defs>
        <path d="M 17.53125 61.1875 
L 17.53125 35.59375 
L 55.90625 35.59375 
L 55.90625 27.875 
L 17.53125 27.875 
L 17.53125 0 
L 8.203125 0 
L 8.203125 68.796875 
L 57.078125 68.796875 
L 57.078125 61.1875 
z
" id="LiberationSans-70"/>
        <path d="M 51.421875 22.40625 
Q 51.421875 11.53125 44.953125 5.265625 
Q 38.484375 -0.984375 27 -0.984375 
Q 17.390625 -0.984375 11.46875 3.21875 
Q 5.5625 7.421875 4 15.375 
L 12.890625 16.40625 
Q 15.671875 6.203125 27.203125 6.203125 
Q 34.28125 6.203125 38.28125 10.46875 
Q 42.28125 14.75 42.28125 22.21875 
Q 42.28125 28.71875 38.25 32.71875 
Q 34.234375 36.71875 27.390625 36.71875 
Q 23.828125 36.71875 20.75 35.59375 
Q 17.671875 34.46875 14.59375 31.78125 
L 6 31.78125 
L 8.296875 68.796875 
L 47.40625 68.796875 
L 47.40625 61.328125 
L 16.3125 61.328125 
L 14.984375 39.5 
Q 20.703125 43.890625 29.203125 43.890625 
Q 39.359375 43.890625 45.390625 37.9375 
Q 51.421875 31.984375 51.421875 22.40625 
z
" id="LiberationSans-53"/>
        <path d="M 51.21875 22.515625 
Q 51.21875 11.625 45.3125 5.3125 
Q 39.40625 -0.984375 29 -0.984375 
Q 17.390625 -0.984375 11.234375 7.65625 
Q 5.078125 16.3125 5.078125 32.8125 
Q 5.078125 50.6875 11.46875 60.25 
Q 17.875 69.828125 29.6875 69.828125 
Q 45.265625 69.828125 49.3125 55.8125 
L 40.921875 54.296875 
Q 38.328125 62.703125 29.59375 62.703125 
Q 22.078125 62.703125 17.9375 55.6875 
Q 13.8125 48.6875 13.8125 35.40625 
Q 16.21875 39.84375 20.5625 42.15625 
Q 24.90625 44.484375 30.515625 44.484375 
Q 40.046875 44.484375 45.625 38.515625 
Q 51.21875 32.5625 51.21875 22.515625 
z
M 42.28125 22.125 
Q 42.28125 29.59375 38.625 33.640625 
Q 34.96875 37.703125 28.421875 37.703125 
Q 22.265625 37.703125 18.484375 34.109375 
Q 14.703125 30.515625 14.703125 24.21875 
Q 14.703125 16.265625 18.625 11.1875 
Q 22.5625 6.109375 28.71875 6.109375 
Q 35.0625 6.109375 38.671875 10.375 
Q 42.28125 14.65625 42.28125 22.125 
z
" id="LiberationSans-54"/>
       </defs>
       <use xlink:href="#LiberationSans-70"/>
       <use x="61.083984" xlink:href="#LiberationSans-52"/>
       <use x="116.699219" xlink:href="#LiberationSans-53"/>
       <use x="172.314453" xlink:href="#LiberationSans-54"/>
       <use x="227.929688" xlink:href="#LiberationSans-75"/>
      </g>
     </g>
    </g>
   </g>
   <g id="matplotlib.axis_2">
    <g id="ytick_1">
     <g id="line2d_5"/>
     <g id="text_5">
      <!-- 1 -->
      <g style="fill:#262626;" transform="translate(32.64375 104.738785)scale(0.1 -0.1)">
       <defs>
        <path d="M 7.625 0 
L 7.625 7.46875 
L 25.140625 7.46875 
L 25.140625 60.40625 
L 9.625 49.3125 
L 9.625 57.625 
L 25.875 68.796875 
L 33.984375 68.796875 
L 33.984375 7.46875 
L 50.734375 7.46875 
L 50.734375 0 
z
" id="LiberationSans-49"/>
       </defs>
       <use xlink:href="#LiberationSans-49"/>
      </g>
     </g>
    </g>
    <g id="ytick_2">
     <g id="line2d_6"/>
     <g id="text_6">
      <!-- 10 -->
      <g style="fill:#262626;" transform="translate(27.082813 68.00493)scale(0.1 -0.1)">
       <defs>
        <path d="M 51.703125 34.421875 
Q 51.703125 17.1875 45.625 8.09375 
Q 39.546875 -0.984375 27.6875 -0.984375 
Q 15.828125 -0.984375 9.859375 8.046875 
Q 3.90625 17.09375 3.90625 34.421875 
Q 3.90625 52.15625 9.6875 60.984375 
Q 15.484375 69.828125 27.984375 69.828125 
Q 40.140625 69.828125 45.921875 60.890625 
Q 51.703125 51.953125 51.703125 34.421875 
z
M 42.78125 34.421875 
Q 42.78125 49.3125 39.328125 56 
Q 35.890625 62.703125 27.984375 62.703125 
Q 19.875 62.703125 16.328125 56.109375 
Q 12.796875 49.515625 12.796875 34.421875 
Q 12.796875 19.78125 16.375 12.984375 
Q 19.96875 6.203125 27.78125 6.203125 
Q 35.546875 6.203125 39.15625 13.125 
Q 42.78125 20.0625 42.78125 34.421875 
z
" id="LiberationSans-48"/>
       </defs>
       <use xlink:href="#LiberationSans-49"/>
       <use x="55.615234" xlink:href="#LiberationSans-48"/>
      </g>
     </g>
    </g>
    <g id="ytick_3">
     <g id="line2d_7"/>
     <g id="text_7">
      <!-- 100 -->
      <g style="fill:#262626;" transform="translate(21.521875 31.271074)scale(0.1 -0.1)">
       <use xlink:href="#LiberationSans-49"/>
       <use x="55.615234" xlink:href="#LiberationSans-48"/>
       <use x="111.230469" xlink:href="#LiberationSans-48"/>
      </g>
     </g>
    </g>
    <g id="ytick_4">
     <g id="line2d_8"/>
    </g>
    <g id="ytick_5">
     <g id="line2d_9"/>
    </g>
    <g id="ytick_6">
     <g id="line2d_10"/>
    </g>
    <g id="ytick_7">
     <g id="line2d_11"/>
    </g>
    <g id="ytick_8">
     <g id="line2d_12"/>
    </g>
    <g id="ytick_9">
     <g id="line2d_13"/>
    </g>
    <g id="ytick_10">
     <g id="line2d_14"/>
    </g>
    <g id="ytick_11">
     <g id="line2d_15"/>
    </g>
    <g id="ytick_12">
     <g id="line2d_16"/>
    </g>
    <g id="ytick_13">
     <g id="line2d_17"/>
    </g>
    <g id="ytick_14">
     <g id="line2d_18"/>
    </g>
    <g id="ytick_15">
     <g id="line2d_19"/>
    </g>
    <g id="ytick_16">
     <g id="line2d_20"/>
    </g>
    <g id="ytick_17">
     <g id="line2d_21"/>
    </g>
    <g id="ytick_18">
     <g id="line2d_22"/>
    </g>
    <g id="ytick_19">
     <g id="line2d_23"/>
    </g>
    <g id="ytick_20">
     <g id="line2d_24"/>
    </g>
    <g id="ytick_21">
     <g id="line2d_25"/>
    </g>
    <g id="ytick_22">
     <g id="line2d_26"/>
    </g>
    <g id="ytick_23">
     <g id="line2d_27"/>
    </g>
    <g id="ytick_24">
     <g id="line2d_28"/>
    </g>
    <g id="ytick_25">
     <g id="line2d_29"/>
    </g>
    <g id="ytick_26">
     <g id="line2d_30"/>
    </g>
    <g id="text_8">
     <!-- fold change IC50 -->
     <g style="fill:#262626;" transform="translate(14.446875 110.250344)rotate(-90)scale(0.1 -0.1)">
      <defs>
       <path d="M 17.625 46.4375 
L 17.625 0 
L 8.84375 0 
L 8.84375 46.4375 
L 1.421875 46.4375 
L 1.421875 52.828125 
L 8.84375 52.828125 
L 8.84375 58.796875 
Q 8.84375 66.015625 12.015625 69.1875 
Q 15.1875 72.359375 21.734375 72.359375 
Q 25.390625 72.359375 27.9375 71.78125 
L 27.9375 65.09375 
Q 25.734375 65.484375 24.03125 65.484375 
Q 20.65625 65.484375 19.140625 63.765625 
Q 17.625 62.0625 17.625 57.5625 
L 17.625 52.828125 
L 27.9375 52.828125 
L 27.9375 46.4375 
z
" id="LiberationSans-102"/>
       <path d="M 51.421875 26.46875 
Q 51.421875 12.59375 45.3125 5.796875 
Q 39.203125 -0.984375 27.59375 -0.984375 
Q 16.015625 -0.984375 10.109375 6.078125 
Q 4.203125 13.140625 4.203125 26.46875 
Q 4.203125 53.8125 27.875 53.8125 
Q 39.984375 53.8125 45.703125 47.140625 
Q 51.421875 40.484375 51.421875 26.46875 
z
M 42.1875 26.46875 
Q 42.1875 37.40625 38.9375 42.359375 
Q 35.6875 47.3125 28.03125 47.3125 
Q 20.3125 47.3125 16.859375 42.25 
Q 13.421875 37.203125 13.421875 26.46875 
Q 13.421875 16.015625 16.8125 10.765625 
Q 20.21875 5.515625 27.484375 5.515625 
Q 35.40625 5.515625 38.796875 10.59375 
Q 42.1875 15.671875 42.1875 26.46875 
z
" id="LiberationSans-111"/>
       <path d="M 6.734375 0 
L 6.734375 72.46875 
L 15.53125 72.46875 
L 15.53125 0 
z
" id="LiberationSans-108"/>
       <path d="M 40.09375 8.5 
Q 37.640625 3.421875 33.609375 1.21875 
Q 29.59375 -0.984375 23.640625 -0.984375 
Q 13.625 -0.984375 8.90625 5.75 
Q 4.203125 12.5 4.203125 26.171875 
Q 4.203125 53.8125 23.640625 53.8125 
Q 29.640625 53.8125 33.640625 51.609375 
Q 37.640625 49.421875 40.09375 44.625 
L 40.1875 44.625 
L 40.09375 50.53125 
L 40.09375 72.46875 
L 48.875 72.46875 
L 48.875 10.890625 
Q 48.875 2.640625 49.171875 0 
L 40.765625 0 
Q 40.625 0.78125 40.453125 3.609375 
Q 40.28125 6.453125 40.28125 8.5 
z
M 13.421875 26.46875 
Q 13.421875 15.375 16.34375 10.59375 
Q 19.28125 5.8125 25.875 5.8125 
Q 33.34375 5.8125 36.71875 10.984375 
Q 40.09375 16.15625 40.09375 27.046875 
Q 40.09375 37.546875 36.71875 42.421875 
Q 33.34375 47.3125 25.984375 47.3125 
Q 19.34375 47.3125 16.375 42.40625 
Q 13.421875 37.5 13.421875 26.46875 
z
" id="LiberationSans-100"/>
       <path id="LiberationSans-32"/>
       <path d="M 13.421875 26.65625 
Q 13.421875 16.109375 16.734375 11.03125 
Q 20.0625 5.953125 26.765625 5.953125 
Q 31.453125 5.953125 34.59375 8.484375 
Q 37.75 11.03125 38.484375 16.3125 
L 47.359375 15.71875 
Q 46.34375 8.109375 40.875 3.5625 
Q 35.40625 -0.984375 27 -0.984375 
Q 15.921875 -0.984375 10.078125 6.015625 
Q 4.25 13.03125 4.25 26.46875 
Q 4.25 39.796875 10.109375 46.796875 
Q 15.96875 53.8125 26.90625 53.8125 
Q 35.015625 53.8125 40.359375 49.609375 
Q 45.703125 45.40625 47.078125 38.03125 
L 38.03125 37.359375 
Q 37.359375 41.75 34.5625 44.328125 
Q 31.78125 46.921875 26.65625 46.921875 
Q 19.671875 46.921875 16.546875 42.28125 
Q 13.421875 37.640625 13.421875 26.65625 
z
" id="LiberationSans-99"/>
       <path d="M 15.484375 43.796875 
Q 18.3125 48.96875 22.28125 51.390625 
Q 26.265625 53.8125 32.375 53.8125 
Q 40.96875 53.8125 45.046875 49.53125 
Q 49.125 45.265625 49.125 35.203125 
L 49.125 0 
L 40.28125 0 
L 40.28125 33.5 
Q 40.28125 39.0625 39.25 41.765625 
Q 38.234375 44.484375 35.890625 45.75 
Q 33.546875 47.015625 29.390625 47.015625 
Q 23.1875 47.015625 19.453125 42.71875 
Q 15.71875 38.421875 15.71875 31.15625 
L 15.71875 0 
L 6.9375 0 
L 6.9375 72.46875 
L 15.71875 72.46875 
L 15.71875 53.609375 
Q 15.71875 50.640625 15.546875 47.453125 
Q 15.375 44.28125 15.328125 43.796875 
z
" id="LiberationSans-104"/>
       <path d="M 20.21875 -0.984375 
Q 12.25 -0.984375 8.25 3.21875 
Q 4.25 7.421875 4.25 14.75 
Q 4.25 22.953125 9.640625 27.34375 
Q 15.046875 31.734375 27.046875 32.03125 
L 38.921875 32.234375 
L 38.921875 35.109375 
Q 38.921875 41.546875 36.1875 44.328125 
Q 33.453125 47.125 27.59375 47.125 
Q 21.6875 47.125 19 45.109375 
Q 16.3125 43.109375 15.765625 38.71875 
L 6.59375 39.546875 
Q 8.84375 53.8125 27.78125 53.8125 
Q 37.75 53.8125 42.765625 49.234375 
Q 47.796875 44.671875 47.796875 36.03125 
L 47.796875 13.28125 
Q 47.796875 9.375 48.828125 7.390625 
Q 49.859375 5.421875 52.734375 5.421875 
Q 54 5.421875 55.609375 5.765625 
L 55.609375 0.296875 
Q 52.296875 -0.484375 48.828125 -0.484375 
Q 43.953125 -0.484375 41.71875 2.078125 
Q 39.5 4.640625 39.203125 10.109375 
L 38.921875 10.109375 
Q 35.546875 4.046875 31.078125 1.53125 
Q 26.609375 -0.984375 20.21875 -0.984375 
z
M 22.21875 5.609375 
Q 27.046875 5.609375 30.8125 7.8125 
Q 34.578125 10.015625 36.75 13.84375 
Q 38.921875 17.671875 38.921875 21.734375 
L 38.921875 26.078125 
L 29.296875 25.875 
Q 23.09375 25.78125 19.890625 24.609375 
Q 16.703125 23.4375 14.984375 21 
Q 13.28125 18.5625 13.28125 14.59375 
Q 13.28125 10.296875 15.59375 7.953125 
Q 17.921875 5.609375 22.21875 5.609375 
z
" id="LiberationSans-97"/>
       <path d="M 40.28125 0 
L 40.28125 33.5 
Q 40.28125 38.71875 39.25 41.59375 
Q 38.234375 44.484375 35.984375 45.75 
Q 33.734375 47.015625 29.390625 47.015625 
Q 23.046875 47.015625 19.375 42.671875 
Q 15.71875 38.328125 15.71875 30.609375 
L 15.71875 0 
L 6.9375 0 
L 6.9375 41.546875 
Q 6.9375 50.78125 6.640625 52.828125 
L 14.9375 52.828125 
Q 14.984375 52.59375 15.03125 51.515625 
Q 15.09375 50.4375 15.15625 49.046875 
Q 15.234375 47.65625 15.328125 43.796875 
L 15.484375 43.796875 
Q 18.5 49.265625 22.484375 51.53125 
Q 26.46875 53.8125 32.375 53.8125 
Q 41.0625 53.8125 45.09375 49.484375 
Q 49.125 45.171875 49.125 35.203125 
L 49.125 0 
z
" id="LiberationSans-110"/>
       <path d="M 26.765625 -20.75 
Q 18.109375 -20.75 12.984375 -17.359375 
Q 7.859375 -13.96875 6.390625 -7.71875 
L 15.234375 -6.453125 
Q 16.109375 -10.109375 19.109375 -12.078125 
Q 22.125 -14.0625 27 -14.0625 
Q 40.140625 -14.0625 40.140625 1.3125 
L 40.140625 9.8125 
L 40.046875 9.8125 
Q 37.546875 4.734375 33.203125 2.171875 
Q 28.859375 -0.390625 23.046875 -0.390625 
Q 13.328125 -0.390625 8.765625 6.046875 
Q 4.203125 12.5 4.203125 26.3125 
Q 4.203125 40.328125 9.109375 46.984375 
Q 14.015625 53.65625 24.03125 53.65625 
Q 29.640625 53.65625 33.765625 51.09375 
Q 37.890625 48.53125 40.140625 43.796875 
L 40.234375 43.796875 
Q 40.234375 45.265625 40.421875 48.875 
Q 40.625 52.484375 40.828125 52.828125 
L 49.171875 52.828125 
Q 48.875 50.203125 48.875 41.890625 
L 48.875 1.515625 
Q 48.875 -20.75 26.765625 -20.75 
z
M 40.140625 26.421875 
Q 40.140625 32.859375 38.375 37.515625 
Q 36.625 42.1875 33.421875 44.65625 
Q 30.21875 47.125 26.171875 47.125 
Q 19.4375 47.125 16.359375 42.234375 
Q 13.28125 37.359375 13.28125 26.421875 
Q 13.28125 15.578125 16.15625 10.84375 
Q 19.046875 6.109375 26.03125 6.109375 
Q 30.171875 6.109375 33.390625 8.546875 
Q 36.625 10.984375 38.375 15.546875 
Q 40.140625 20.125 40.140625 26.421875 
z
" id="LiberationSans-103"/>
       <path d="M 13.484375 24.5625 
Q 13.484375 15.484375 17.234375 10.546875 
Q 21 5.609375 28.21875 5.609375 
Q 33.9375 5.609375 37.375 7.90625 
Q 40.828125 10.203125 42.046875 13.71875 
L 49.75 11.53125 
Q 45.015625 -0.984375 28.21875 -0.984375 
Q 16.5 -0.984375 10.375 6 
Q 4.25 12.984375 4.25 26.765625 
Q 4.25 39.84375 10.375 46.828125 
Q 16.5 53.8125 27.875 53.8125 
Q 51.171875 53.8125 51.171875 25.734375 
L 51.171875 24.5625 
z
M 42.09375 31.296875 
Q 41.359375 39.65625 37.84375 43.484375 
Q 34.328125 47.3125 27.734375 47.3125 
Q 21.34375 47.3125 17.609375 43.03125 
Q 13.875 38.765625 13.578125 31.296875 
z
" id="LiberationSans-101"/>
       <path d="M 9.234375 0 
L 9.234375 68.796875 
L 18.5625 68.796875 
L 18.5625 0 
z
" id="LiberationSans-73"/>
       <path d="M 38.671875 62.203125 
Q 27.25 62.203125 20.890625 54.859375 
Q 14.546875 47.515625 14.546875 34.71875 
Q 14.546875 22.078125 21.15625 14.375 
Q 27.78125 6.6875 39.0625 6.6875 
Q 53.515625 6.6875 60.796875 21 
L 68.40625 17.1875 
Q 64.15625 8.296875 56.46875 3.65625 
Q 48.78125 -0.984375 38.625 -0.984375 
Q 28.21875 -0.984375 20.625 3.34375 
Q 13.03125 7.671875 9.046875 15.703125 
Q 5.078125 23.734375 5.078125 34.71875 
Q 5.078125 51.171875 13.96875 60.5 
Q 22.859375 69.828125 38.578125 69.828125 
Q 49.5625 69.828125 56.9375 65.53125 
Q 64.3125 61.234375 67.78125 52.78125 
L 58.9375 49.859375 
Q 56.546875 55.859375 51.25 59.03125 
Q 45.953125 62.203125 38.671875 62.203125 
z
" id="LiberationSans-67"/>
      </defs>
      <use xlink:href="#LiberationSans-102"/>
      <use x="27.783203" xlink:href="#LiberationSans-111"/>
      <use x="83.398438" xlink:href="#LiberationSans-108"/>
      <use x="105.615234" xlink:href="#LiberationSans-100"/>
      <use x="161.230469" xlink:href="#LiberationSans-32"/>
      <use x="189.013672" xlink:href="#LiberationSans-99"/>
      <use x="239.013672" xlink:href="#LiberationSans-104"/>
      <use x="294.628906" xlink:href="#LiberationSans-97"/>
      <use x="350.244141" xlink:href="#LiberationSans-110"/>
      <use x="405.859375" xlink:href="#LiberationSans-103"/>
      <use x="461.474609" xlink:href="#LiberationSans-101"/>
      <use x="517.089844" xlink:href="#LiberationSans-32"/>
      <use x="544.873047" xlink:href="#LiberationSans-73"/>
      <use x="572.65625" xlink:href="#LiberationSans-67"/>
      <use x="644.873047" xlink:href="#LiberationSans-53"/>
      <use x="700.488281" xlink:href="#LiberationSans-48"/>
     </g>
    </g>
   </g>
   <g id="PathCollection_1">
    <defs>
     <path d="M 0 -2.215567 
L -2.215567 2.215567 
L 2.215567 2.215567 
z
" id="mfc79c5d346" style="stroke:#0072b2;stroke-width:0.886227;"/>
    </defs>
    <g clip-path="url(#p77fb16f23e)">
     <use style="fill:#0072b2;stroke:#0072b2;stroke-width:0.886227;" x="104.478973" xlink:href="#mfc79c5d346" y="95.174773"/>
    </g>
   </g>
   <g id="PathCollection_2">
    <path clip-path="url(#p77fb16f23e)" d="M 51.250402 62.673401 
C 51.837977 62.673401 52.401566 62.439955 52.817044 62.024477 
C 53.232523 61.608998 53.465969 61.045409 53.465969 60.457834 
C 53.465969 59.870259 53.232523 59.30667 52.817044 58.891191 
C 52.401566 58.475713 51.837977 58.242267 51.250402 58.242267 
C 50.662826 58.242267 50.099238 58.475713 49.683759 58.891191 
C 49.268281 59.30667 49.034834 59.870259 49.034834 60.457834 
C 49.034834 61.045409 49.268281 61.608998 49.683759 62.024477 
C 50.099238 62.439955 50.662826 62.673401 51.250402 62.673401 
z
" style="fill:#d55e00;stroke:#d55e00;stroke-width:0.886227;"/>
    <path clip-path="url(#p77fb16f23e)" d="M 68.993259 78.036344 
C 69.580834 78.036344 70.144423 77.802898 70.559902 77.387419 
C 70.97538 76.971941 71.208826 76.408352 71.208826 75.820777 
C 71.208826 75.233201 70.97538 74.669613 70.559902 74.254134 
C 70.144423 73.838656 69.580834 73.605209 68.993259 73.605209 
C 68.405684 73.605209 67.842095 73.838656 67.426616 74.254134 
C 67.011138 74.669613 66.777692 75.233201 66.777692 75.820777 
C 66.777692 76.408352 67.011138 76.971941 67.426616 77.387419 
C 67.842095 77.802898 68.405684 78.036344 68.993259 78.036344 
z
" style="fill:#d55e00;stroke:#d55e00;stroke-width:0.886227;"/>
    <path clip-path="url(#p77fb16f23e)" d="M 86.736116 62.486194 
C 87.323691 62.486194 87.88728 62.252748 88.302759 61.837269 
C 88.718237 61.421791 88.951683 60.858202 88.951683 60.270627 
C 88.951683 59.683051 88.718237 59.119463 88.302759 58.703984 
C 87.88728 58.288506 87.323691 58.055059 86.736116 58.055059 
C 86.148541 58.055059 85.584952 58.288506 85.169473 58.703984 
C 84.753995 59.119463 84.520549 59.683051 84.520549 60.270627 
C 84.520549 60.858202 84.753995 61.421791 85.169473 61.837269 
C 85.584952 62.252748 86.148541 62.486194 86.736116 62.486194 
z
" style="fill:#d55e00;stroke:#d55e00;stroke-width:0.886227;"/>
   </g>
   <g id="patch_3">
    <path d="M 40.604688 23.2 
L 115.124688 23.2 
L 115.124688 7.2 
L 40.604688 7.2 
z
" style="fill:none;"/>
   </g>
   <g id="patch_4">
    <path d="M 40.604688 121.048 
L 40.604688 23.2 
" style="fill:none;stroke:#262626;stroke-linecap:square;stroke-linejoin:miter;stroke-width:1.25;"/>
   </g>
   <g id="patch_5">
    <path d="M 115.124688 121.048 
L 115.124688 23.2 
" style="fill:none;stroke:#262626;stroke-linecap:square;stroke-linejoin:miter;stroke-width:1.25;"/>
   </g>
   <g id="patch_6">
    <path d="M 40.604687 121.048 
L 115.124688 121.048 
" style="fill:none;stroke:#262626;stroke-linecap:square;stroke-linejoin:miter;stroke-width:1.25;"/>
   </g>
   <g id="patch_7">
    <path d="M 40.604687 23.2 
L 115.124688 23.2 
" style="fill:none;stroke:#262626;stroke-linecap:square;stroke-linejoin:miter;stroke-width:1.25;"/>
   </g>
   <g id="LineCollection_1">
    <path clip-path="url(#p77fb16f23e)" d="M 40.604687 101.115348 
L 115.124688 101.115348 
" style="fill:none;stroke:#808080;stroke-dasharray:6.558079,2.835926;stroke-dashoffset:0;stroke-opacity:0.501961;stroke-width:1.772454;"/>
   </g>
   <g id="text_9">
    <!-- day 26 -->
    <g style="fill:#262626;" transform="translate(62.85375 17.785938)scale(0.1 -0.1)">
     <defs>
      <path d="M 9.328125 -20.75 
Q 5.71875 -20.75 3.265625 -20.21875 
L 3.265625 -13.625 
Q 5.125 -13.921875 7.375 -13.921875 
Q 15.578125 -13.921875 20.359375 -1.859375 
L 21.1875 0.25 
L 0.25 52.828125 
L 9.625 52.828125 
L 20.75 23.640625 
Q 21 22.953125 21.34375 22 
Q 21.6875 21.046875 23.53125 15.625 
Q 25.390625 10.203125 25.53125 9.578125 
L 28.953125 19.1875 
L 40.53125 52.828125 
L 49.8125 52.828125 
L 29.5 0 
Q 26.21875 -8.453125 23.390625 -12.578125 
Q 20.5625 -16.703125 17.109375 -18.71875 
Q 13.671875 -20.75 9.328125 -20.75 
z
" id="LiberationSans-121"/>
      <path d="M 5.03125 0 
L 5.03125 6.203125 
Q 7.515625 11.921875 11.109375 16.28125 
Q 14.703125 20.65625 18.65625 24.1875 
Q 22.609375 27.734375 26.484375 30.765625 
Q 30.375 33.796875 33.5 36.8125 
Q 36.625 39.84375 38.546875 43.15625 
Q 40.484375 46.484375 40.484375 50.6875 
Q 40.484375 56.34375 37.15625 59.46875 
Q 33.84375 62.59375 27.9375 62.59375 
Q 22.3125 62.59375 18.671875 59.546875 
Q 15.046875 56.5 14.40625 50.984375 
L 5.421875 51.8125 
Q 6.390625 60.0625 12.421875 64.9375 
Q 18.453125 69.828125 27.9375 69.828125 
Q 38.328125 69.828125 43.921875 64.921875 
Q 49.515625 60.015625 49.515625 50.984375 
Q 49.515625 46.96875 47.671875 43.015625 
Q 45.84375 39.0625 42.234375 35.109375 
Q 38.625 31.15625 28.421875 22.859375 
Q 22.796875 18.265625 19.46875 14.578125 
Q 16.15625 10.890625 14.703125 7.46875 
L 50.59375 7.46875 
L 50.59375 0 
z
" id="LiberationSans-50"/>
     </defs>
     <use xlink:href="#LiberationSans-100"/>
     <use x="55.615234" xlink:href="#LiberationSans-97"/>
     <use x="111.230469" xlink:href="#LiberationSans-121"/>
     <use x="161.230469" xlink:href="#LiberationSans-32"/>
     <use x="189.013672" xlink:href="#LiberationSans-50"/>
     <use x="244.628906" xlink:href="#LiberationSans-54"/>
    </g>
   </g>
   <g id="LineCollection_2">
    <path clip-path="url(#p77fb16f23e)" d="M 40.604687 62.173601 
L 115.124688 62.173601 
" style="fill:none;stroke:#e69f00;stroke-dasharray:1.772454,2.924549;stroke-dashoffset:0;stroke-opacity:0.698039;stroke-width:1.772454;"/>
   </g>
   <g id="text_10">
    <!-- accessible -->
    <g transform="translate(224.044688 48.648313)scale(0.1 -0.1)">
     <defs>
      <path d="M 46.390625 14.59375 
Q 46.390625 7.125 40.75 3.0625 
Q 35.109375 -0.984375 24.953125 -0.984375 
Q 15.09375 -0.984375 9.734375 2.265625 
Q 4.390625 5.515625 2.78125 12.40625 
L 10.546875 13.921875 
Q 11.671875 9.671875 15.1875 7.6875 
Q 18.703125 5.71875 24.953125 5.71875 
Q 31.640625 5.71875 34.734375 7.765625 
Q 37.84375 9.8125 37.84375 13.921875 
Q 37.84375 17.046875 35.6875 19 
Q 33.546875 20.953125 28.765625 22.21875 
L 22.46875 23.875 
Q 14.890625 25.828125 11.6875 27.703125 
Q 8.5 29.59375 6.6875 32.28125 
Q 4.890625 34.96875 4.890625 38.875 
Q 4.890625 46.09375 10.03125 49.875 
Q 15.1875 53.65625 25.046875 53.65625 
Q 33.796875 53.65625 38.9375 50.578125 
Q 44.09375 47.515625 45.453125 40.71875 
L 37.546875 39.75 
Q 36.8125 43.265625 33.609375 45.140625 
Q 30.421875 47.015625 25.046875 47.015625 
Q 19.09375 47.015625 16.25 45.203125 
Q 13.421875 43.40625 13.421875 39.75 
Q 13.421875 37.5 14.59375 36.03125 
Q 15.765625 34.578125 18.0625 33.546875 
Q 20.359375 32.515625 27.734375 30.71875 
Q 34.71875 28.953125 37.796875 27.46875 
Q 40.875 25.984375 42.65625 24.171875 
Q 44.4375 22.359375 45.40625 19.984375 
Q 46.390625 17.625 46.390625 14.59375 
z
" id="LiberationSans-115"/>
      <path d="M 6.6875 64.0625 
L 6.6875 72.46875 
L 15.484375 72.46875 
L 15.484375 64.0625 
z
M 6.6875 0 
L 6.6875 52.828125 
L 15.484375 52.828125 
L 15.484375 0 
z
" id="LiberationSans-105"/>
      <path d="M 51.421875 26.65625 
Q 51.421875 -0.984375 31.984375 -0.984375 
Q 25.984375 -0.984375 22 1.1875 
Q 18.015625 3.375 15.53125 8.203125 
L 15.4375 8.203125 
Q 15.4375 6.6875 15.234375 3.578125 
Q 15.046875 0.484375 14.9375 0 
L 6.453125 0 
Q 6.734375 2.640625 6.734375 10.890625 
L 6.734375 72.46875 
L 15.53125 72.46875 
L 15.53125 51.8125 
Q 15.53125 48.640625 15.328125 44.34375 
L 15.53125 44.34375 
Q 17.96875 49.421875 22 51.609375 
Q 26.03125 53.8125 31.984375 53.8125 
Q 42 53.8125 46.703125 47.0625 
Q 51.421875 40.328125 51.421875 26.65625 
z
M 42.1875 26.375 
Q 42.1875 37.453125 39.25 42.234375 
Q 36.328125 47.015625 29.734375 47.015625 
Q 22.3125 47.015625 18.921875 41.9375 
Q 15.53125 36.859375 15.53125 25.828125 
Q 15.53125 15.4375 18.84375 10.46875 
Q 22.171875 5.515625 29.640625 5.515625 
Q 36.28125 5.515625 39.234375 10.421875 
Q 42.1875 15.328125 42.1875 26.375 
z
" id="LiberationSans-98"/>
     </defs>
     <use xlink:href="#LiberationSans-97"/>
     <use x="55.615234" xlink:href="#LiberationSans-99"/>
     <use x="105.615234" xlink:href="#LiberationSans-99"/>
     <use x="155.615234" xlink:href="#LiberationSans-101"/>
     <use x="211.230469" xlink:href="#LiberationSans-115"/>
     <use x="261.230469" xlink:href="#LiberationSans-115"/>
     <use x="311.230469" xlink:href="#LiberationSans-105"/>
     <use x="333.447266" xlink:href="#LiberationSans-98"/>
     <use x="389.0625" xlink:href="#LiberationSans-108"/>
     <use x="411.279297" xlink:href="#LiberationSans-101"/>
    </g>
    <!-- in down RBD -->
    <g transform="translate(224.044688 59.419563)scale(0.1 -0.1)">
     <defs>
      <path d="M 57.328125 0 
L 47.125 0 
L 37.890625 37.359375 
L 36.140625 45.609375 
Q 35.6875 43.40625 34.765625 39.28125 
Q 33.84375 35.15625 24.8125 0 
L 14.65625 0 
L -0.140625 52.828125 
L 8.546875 52.828125 
L 17.484375 16.9375 
Q 17.828125 15.765625 19.578125 7.28125 
L 20.40625 10.890625 
L 31.453125 52.828125 
L 40.875 52.828125 
L 50.09375 16.546875 
L 52.34375 7.28125 
L 53.859375 14.0625 
L 63.875 52.828125 
L 72.46875 52.828125 
z
" id="LiberationSans-119"/>
      <path d="M 56.84375 0 
L 38.96875 28.5625 
L 17.53125 28.5625 
L 17.53125 0 
L 8.203125 0 
L 8.203125 68.796875 
L 40.578125 68.796875 
Q 52.203125 68.796875 58.515625 63.59375 
Q 64.84375 58.40625 64.84375 49.125 
Q 64.84375 41.453125 60.375 36.21875 
Q 55.90625 31 48.046875 29.640625 
L 67.578125 0 
z
M 55.46875 49.03125 
Q 55.46875 55.03125 51.390625 58.171875 
Q 47.3125 61.328125 39.65625 61.328125 
L 17.53125 61.328125 
L 17.53125 35.9375 
L 40.046875 35.9375 
Q 47.40625 35.9375 51.4375 39.375 
Q 55.46875 42.828125 55.46875 49.03125 
z
" id="LiberationSans-82"/>
      <path d="M 61.421875 19.390625 
Q 61.421875 10.203125 54.734375 5.09375 
Q 48.046875 0 36.140625 0 
L 8.203125 0 
L 8.203125 68.796875 
L 33.203125 68.796875 
Q 57.421875 68.796875 57.421875 52.09375 
Q 57.421875 46 54 41.84375 
Q 50.59375 37.703125 44.34375 36.28125 
Q 52.546875 35.296875 56.984375 30.78125 
Q 61.421875 26.265625 61.421875 19.390625 
z
M 48.046875 50.984375 
Q 48.046875 56.546875 44.234375 58.9375 
Q 40.4375 61.328125 33.203125 61.328125 
L 17.53125 61.328125 
L 17.53125 39.546875 
L 33.203125 39.546875 
Q 40.671875 39.546875 44.359375 42.359375 
Q 48.046875 45.171875 48.046875 50.984375 
z
M 52 20.125 
Q 52 32.28125 34.90625 32.28125 
L 17.53125 32.28125 
L 17.53125 7.46875 
L 35.640625 7.46875 
Q 44.1875 7.46875 48.09375 10.640625 
Q 52 13.8125 52 20.125 
z
" id="LiberationSans-66"/>
      <path d="M 67.4375 35.109375 
Q 67.4375 24.46875 63.28125 16.484375 
Q 59.125 8.5 51.5 4.25 
Q 43.890625 0 33.9375 0 
L 8.203125 0 
L 8.203125 68.796875 
L 30.953125 68.796875 
Q 48.4375 68.796875 57.9375 60.03125 
Q 67.4375 51.265625 67.4375 35.109375 
z
M 58.0625 35.109375 
Q 58.0625 47.90625 51.046875 54.609375 
Q 44.046875 61.328125 30.765625 61.328125 
L 17.53125 61.328125 
L 17.53125 7.46875 
L 32.859375 7.46875 
Q 40.4375 7.46875 46.171875 10.78125 
Q 51.90625 14.109375 54.984375 20.359375 
Q 58.0625 26.609375 58.0625 35.109375 
z
" id="LiberationSans-68"/>
     </defs>
     <use xlink:href="#LiberationSans-105"/>
     <use x="22.216797" xlink:href="#LiberationSans-110"/>
     <use x="77.832031" xlink:href="#LiberationSans-32"/>
     <use x="105.615234" xlink:href="#LiberationSans-100"/>
     <use x="161.230469" xlink:href="#LiberationSans-111"/>
     <use x="216.845703" xlink:href="#LiberationSans-119"/>
     <use x="289.0625" xlink:href="#LiberationSans-110"/>
     <use x="344.677734" xlink:href="#LiberationSans-32"/>
     <use x="372.460938" xlink:href="#LiberationSans-82"/>
     <use x="444.677734" xlink:href="#LiberationSans-66"/>
     <use x="511.376953" xlink:href="#LiberationSans-68"/>
    </g>
   </g>
   <g id="patch_8">
    <path clip-path="url(#p9ccef4044b)" d="M 224.044688 85.494563 
L 240.044688 85.494563 
L 240.044688 69.494563 
L 224.044688 69.494563 
z
" style="fill:none;"/>
   </g>
   <g id="line2d_31">
    <path clip-path="url(#p9ccef4044b)" d="M 232.044688 77.494563 
" style="fill:none;stroke:#1f77b4;stroke-linecap:round;stroke-width:1.5;"/>
    <defs>
     <path d="M 0 -2.215567 
L -2.215567 2.215567 
L 2.215567 2.215567 
z
" id="me17e6669c0" style="stroke:#0072b2;stroke-linejoin:miter;stroke-width:0.886227;"/>
    </defs>
    <g clip-path="url(#p9ccef4044b)">
     <use style="fill:#0072b2;stroke:#0072b2;stroke-linejoin:miter;stroke-width:0.886227;" x="232.044688" xlink:href="#me17e6669c0" y="77.494563"/>
    </g>
   </g>
   <g id="text_11">
    <!-- no -->
    <g transform="translate(243.044688 80.0805)scale(0.1 -0.1)">
     <use xlink:href="#LiberationSans-110"/>
     <use x="55.615234" xlink:href="#LiberationSans-111"/>
    </g>
   </g>
   <g id="patch_9">
    <path clip-path="url(#p3ab66a42a6)" d="M 224.044688 103.494563 
L 240.044688 103.494563 
L 240.044688 87.494563 
L 224.044688 87.494563 
z
" style="fill:none;"/>
   </g>
   <g id="line2d_32">
    <path clip-path="url(#p3ab66a42a6)" d="M 232.044688 95.494563 
" style="fill:none;stroke:#1f77b4;stroke-linecap:round;stroke-width:1.5;"/>
    <defs>
     <path d="M 0 2.215567 
C 0.587575 2.215567 1.151164 1.982121 1.566643 1.566643 
C 1.982121 1.151164 2.215567 0.587575 2.215567 0 
C 2.215567 -0.587575 1.982121 -1.151164 1.566643 -1.566643 
C 1.151164 -1.982121 0.587575 -2.215567 0 -2.215567 
C -0.587575 -2.215567 -1.151164 -1.982121 -1.566643 -1.566643 
C -1.982121 -1.151164 -2.215567 -0.587575 -2.215567 0 
C -2.215567 0.587575 -1.982121 1.151164 -1.566643 1.566643 
C -1.151164 1.982121 -0.587575 2.215567 0 2.215567 
z
" id="mc7c226bbf8" style="stroke:#d55e00;stroke-width:0.886227;"/>
    </defs>
    <g clip-path="url(#p3ab66a42a6)">
     <use style="fill:#d55e00;stroke:#d55e00;stroke-width:0.886227;" x="232.044688" xlink:href="#mc7c226bbf8" y="95.494563"/>
    </g>
   </g>
   <g id="text_12">
    <!-- yes -->
    <g transform="translate(243.044688 98.0805)scale(0.1 -0.1)">
     <use xlink:href="#LiberationSans-121"/>
     <use x="50" xlink:href="#LiberationSans-101"/>
     <use x="105.615234" xlink:href="#LiberationSans-115"/>
    </g>
   </g>
  </g>
  <g id="axes_2">
   <g id="patch_10">
    <path d="M 122.324688 121.048 
L 196.844688 121.048 
L 196.844688 23.2 
L 122.324688 23.2 
z
" style="fill:#ffffff;"/>
   </g>
   <g id="matplotlib.axis_3">
    <g id="xtick_5">
     <g id="line2d_33"/>
     <g id="text_13">
      <!-- E484P -->
      <g style="fill:#262626;" transform="translate(138.624531 150.469094)rotate(-90)scale(0.09 -0.09)">
       <use xlink:href="#LiberationSans-69"/>
       <use x="66.699219" xlink:href="#LiberationSans-52"/>
       <use x="122.314453" xlink:href="#LiberationSans-56"/>
       <use x="177.929688" xlink:href="#LiberationSans-52"/>
       <use x="233.544922" xlink:href="#LiberationSans-80"/>
      </g>
     </g>
    </g>
    <g id="xtick_6">
     <g id="line2d_34"/>
     <g id="text_14">
      <!-- E484Q -->
      <g style="fill:#262626;" transform="translate(161.912031 151.466125)rotate(-90)scale(0.09 -0.09)">
       <use xlink:href="#LiberationSans-69"/>
       <use x="66.699219" xlink:href="#LiberationSans-52"/>
       <use x="122.314453" xlink:href="#LiberationSans-56"/>
       <use x="177.929688" xlink:href="#LiberationSans-52"/>
       <use x="233.544922" xlink:href="#LiberationSans-81"/>
      </g>
     </g>
    </g>
    <g id="xtick_7">
     <g id="line2d_35"/>
     <g id="text_15">
      <!-- F456K -->
      <g style="fill:#262626;" transform="translate(185.199531 149.962844)rotate(-90)scale(0.09 -0.09)">
       <use xlink:href="#LiberationSans-70"/>
       <use x="61.083984" xlink:href="#LiberationSans-52"/>
       <use x="116.699219" xlink:href="#LiberationSans-53"/>
       <use x="172.314453" xlink:href="#LiberationSans-54"/>
       <use x="227.929688" xlink:href="#LiberationSans-75"/>
      </g>
     </g>
    </g>
   </g>
   <g id="matplotlib.axis_4">
    <g id="ytick_27"/>
    <g id="ytick_28"/>
    <g id="ytick_29"/>
    <g id="ytick_30"/>
    <g id="ytick_31"/>
    <g id="ytick_32"/>
    <g id="ytick_33"/>
    <g id="ytick_34"/>
    <g id="ytick_35"/>
    <g id="ytick_36"/>
    <g id="ytick_37"/>
    <g id="ytick_38"/>
    <g id="ytick_39"/>
    <g id="ytick_40"/>
    <g id="ytick_41"/>
    <g id="ytick_42"/>
    <g id="ytick_43"/>
    <g id="ytick_44"/>
    <g id="ytick_45"/>
    <g id="ytick_46"/>
    <g id="ytick_47"/>
    <g id="ytick_48"/>
    <g id="ytick_49"/>
    <g id="ytick_50"/>
    <g id="ytick_51"/>
    <g id="ytick_52"/>
   </g>
   <g id="PathCollection_3">
    <g clip-path="url(#p5ca79d83ee)">
     <use style="fill:#0072b2;stroke:#0072b2;stroke-width:0.886227;" x="182.872188" xlink:href="#mfc79c5d346" y="116.600364"/>
    </g>
   </g>
   <g id="PathCollection_4">
    <path clip-path="url(#p5ca79d83ee)" d="M 136.297188 92.446496 
C 136.884763 92.446496 137.448352 92.21305 137.86383 91.797571 
C 138.279309 91.382093 138.512755 90.818504 138.512755 90.230928 
C 138.512755 89.643353 138.279309 89.079764 137.86383 88.664286 
C 137.448352 88.248807 136.884763 88.015361 136.297188 88.015361 
C 135.709612 88.015361 135.146023 88.248807 134.730545 88.664286 
C 134.315066 89.079764 134.08162 89.643353 134.08162 90.230928 
C 134.08162 90.818504 134.315066 91.382093 134.730545 91.797571 
C 135.146023 92.21305 135.709612 92.446496 136.297188 92.446496 
z
" style="fill:#d55e00;stroke:#d55e00;stroke-width:0.886227;"/>
    <path clip-path="url(#p5ca79d83ee)" d="M 159.584688 78.573845 
C 160.172263 78.573845 160.735852 78.340399 161.15133 77.92492 
C 161.566809 77.509442 161.800255 76.945853 161.800255 76.358278 
C 161.800255 75.770702 161.566809 75.207113 161.15133 74.791635 
C 160.735852 74.376156 160.172263 74.14271 159.584688 74.14271 
C 158.997112 74.14271 158.433523 74.376156 158.018045 74.791635 
C 157.602566 75.207113 157.36912 75.770702 157.36912 76.358278 
C 157.36912 76.945853 157.602566 77.509442 158.018045 77.92492 
C 158.433523 78.340399 158.997112 78.573845 159.584688 78.573845 
z
" style="fill:#d55e00;stroke:#d55e00;stroke-width:0.886227;"/>
   </g>
   <g id="patch_11">
    <path d="M 122.324688 23.2 
L 196.844688 23.2 
L 196.844688 7.2 
L 122.324688 7.2 
z
" style="fill:none;"/>
   </g>
   <g id="patch_12">
    <path d="M 122.324688 121.048 
L 122.324688 23.2 
" style="fill:none;stroke:#262626;stroke-linecap:square;stroke-linejoin:miter;stroke-width:1.25;"/>
   </g>
   <g id="patch_13">
    <path d="M 196.844688 121.048 
L 196.844688 23.2 
" style="fill:none;stroke:#262626;stroke-linecap:square;stroke-linejoin:miter;stroke-width:1.25;"/>
   </g>
   <g id="patch_14">
    <path d="M 122.324688 121.048 
L 196.844688 121.048 
" style="fill:none;stroke:#262626;stroke-linecap:square;stroke-linejoin:miter;stroke-width:1.25;"/>
   </g>
   <g id="patch_15">
    <path d="M 122.324688 23.2 
L 196.844688 23.2 
" style="fill:none;stroke:#262626;stroke-linecap:square;stroke-linejoin:miter;stroke-width:1.25;"/>
   </g>
   <g id="LineCollection_3">
    <path clip-path="url(#p5ca79d83ee)" d="M 122.324688 101.115348 
L 196.844688 101.115348 
" style="fill:none;stroke:#808080;stroke-dasharray:6.558079,2.835926;stroke-dashoffset:0;stroke-opacity:0.501961;stroke-width:1.772454;"/>
   </g>
   <g id="text_16">
    <!-- day 113 -->
    <g style="fill:#262626;" transform="translate(142.162031 17.785938)scale(0.1 -0.1)">
     <defs>
      <path d="M 51.21875 19 
Q 51.21875 9.46875 45.15625 4.234375 
Q 39.109375 -0.984375 27.875 -0.984375 
Q 17.4375 -0.984375 11.203125 3.734375 
Q 4.984375 8.453125 3.8125 17.671875 
L 12.890625 18.5 
Q 14.65625 6.296875 27.875 6.296875 
Q 34.515625 6.296875 38.296875 9.5625 
Q 42.09375 12.84375 42.09375 19.28125 
Q 42.09375 24.90625 37.765625 28.046875 
Q 33.453125 31.203125 25.296875 31.203125 
L 20.3125 31.203125 
L 20.3125 38.8125 
L 25.09375 38.8125 
Q 32.328125 38.8125 36.296875 41.96875 
Q 40.28125 45.125 40.28125 50.6875 
Q 40.28125 56.203125 37.03125 59.390625 
Q 33.796875 62.59375 27.390625 62.59375 
Q 21.578125 62.59375 17.984375 59.609375 
Q 14.40625 56.640625 13.8125 51.21875 
L 4.984375 51.90625 
Q 5.953125 60.359375 11.984375 65.09375 
Q 18.015625 69.828125 27.484375 69.828125 
Q 37.84375 69.828125 43.578125 65.015625 
Q 49.3125 60.203125 49.3125 51.609375 
Q 49.3125 45.015625 45.625 40.890625 
Q 41.9375 36.765625 34.90625 35.296875 
L 34.90625 35.109375 
Q 42.625 34.28125 46.921875 29.9375 
Q 51.21875 25.59375 51.21875 19 
z
" id="LiberationSans-51"/>
     </defs>
     <use xlink:href="#LiberationSans-100"/>
     <use x="55.615234" xlink:href="#LiberationSans-97"/>
     <use x="111.230469" xlink:href="#LiberationSans-121"/>
     <use x="161.230469" xlink:href="#LiberationSans-32"/>
     <use x="189.013672" xlink:href="#LiberationSans-49"/>
     <use x="237.253906" xlink:href="#LiberationSans-49"/>
     <use x="292.869141" xlink:href="#LiberationSans-51"/>
    </g>
   </g>
   <g id="LineCollection_4">
    <path clip-path="url(#p5ca79d83ee)" d="M 122.324688 58.739097 
L 196.844688 58.739097 
" style="fill:none;stroke:#e69f00;stroke-dasharray:1.772454,2.924549;stroke-dashoffset:0;stroke-opacity:0.698039;stroke-width:1.772454;"/>
   </g>
  </g>
 </g>
 <defs>
  <clipPath id="p77fb16f23e">
   <rect height="97.848" width="74.52" x="40.604688" y="23.2"/>
  </clipPath>
  <clipPath id="p9ccef4044b">
   <path d="M 224.044688 85.494563 
L 224.044688 69.494563 
L 240.044688 69.494563 
L 240.044688 85.494563 
"/>
  </clipPath>
  <clipPath id="p3ab66a42a6">
   <path d="M 224.044688 103.494563 
L 224.044688 87.494563 
L 240.044688 87.494563 
L 240.044688 103.494563 
"/>
  </clipPath>
  <clipPath id="p5ca79d83ee">
   <rect height="97.848" width="74.52" x="122.324688" y="23.2"/>
  </clipPath>
 </defs>
</svg>
