<?xml version="1.0" encoding="utf-8" standalone="no"?>
<!DOCTYPE svg PUBLIC "-//W3C//DTD SVG 1.1//EN"
  "http://www.w3.org/Graphics/SVG/1.1/DTD/svg11.dtd">
<!-- Created with matplotlib (https://matplotlib.org/) -->
<svg height="164.598531pt" version="1.1" viewBox="0 0 226.364688 164.598531" width="226.364688pt" xmlns="http://www.w3.org/2000/svg" xmlns:xlink="http://www.w3.org/1999/xlink">
 <metadata>
  <rdf:RDF xmlns:cc="http://creativecommons.org/ns#" xmlns:dc="http://purl.org/dc/elements/1.1/" xmlns:rdf="http://www.w3.org/1999/02/22-rdf-syntax-ns#">
   <cc:Work>
    <dc:type rdf:resource="http://purl.org/dc/dcmitype/StillImage"/>
    <dc:date>2020-12-23T20:29:24.272349</dc:date>
    <dc:format>image/svg+xml</dc:format>
    <dc:creator>
     <cc:Agent>
      <dc:title>Matplotlib v3.3.2, https://matplotlib.org/</dc:title>
     </cc:Agent>
    </dc:creator>
   </cc:Work>
  </rdf:RDF>
 </metadata>
 <defs>
  <style type="text/css">*{stroke-linecap:butt;stroke-linejoin:round;}</style>
 </defs>
 <g id="figure_1">
  <g id="patch_1">
   <path d="M 0 164.598531 
L 226.364688 164.598531 
L 226.364688 0 
L 0 0 
z
" style="fill:#ffffff;"/>
  </g>
  <g id="axes_1">
   <g id="patch_2">
    <path d="M 40.604688 126.484 
L 126.284688 126.484 
L 126.284688 23.2 
L 40.604688 23.2 
z
" style="fill:#ffffff;"/>
   </g>
   <g id="matplotlib.axis_1">
    <g id="xtick_1">
     <g id="line2d_1"/>
     <g id="text_1">
      <!-- G446V -->
      <g style="fill:#262626;" transform="translate(55.172031 156.902125)rotate(-90)scale(0.09 -0.09)">
       <defs>
        <path d="M 5.03125 34.71875 
Q 5.03125 51.46875 14.015625 60.640625 
Q 23 69.828125 39.265625 69.828125 
Q 50.6875 69.828125 57.8125 65.96875 
Q 64.9375 62.109375 68.796875 53.609375 
L 59.90625 50.984375 
Q 56.984375 56.84375 51.828125 59.515625 
Q 46.6875 62.203125 39.015625 62.203125 
Q 27.09375 62.203125 20.796875 55 
Q 14.5 47.796875 14.5 34.71875 
Q 14.5 21.6875 21.1875 14.140625 
Q 27.875 6.59375 39.703125 6.59375 
Q 46.4375 6.59375 52.265625 8.640625 
Q 58.109375 10.6875 61.71875 14.203125 
L 61.71875 26.609375 
L 41.15625 26.609375 
L 41.15625 34.421875 
L 70.3125 34.421875 
L 70.3125 10.6875 
Q 64.84375 5.125 56.90625 2.0625 
Q 48.96875 -0.984375 39.703125 -0.984375 
Q 28.90625 -0.984375 21.09375 3.3125 
Q 13.28125 7.625 9.15625 15.703125 
Q 5.03125 23.78125 5.03125 34.71875 
z
" id="LiberationSans-71"/>
        <path d="M 43.015625 15.578125 
L 43.015625 0 
L 34.71875 0 
L 34.71875 15.578125 
L 2.296875 15.578125 
L 2.296875 22.40625 
L 33.796875 68.796875 
L 43.015625 68.796875 
L 43.015625 22.515625 
L 52.6875 22.515625 
L 52.6875 15.578125 
z
M 34.71875 58.890625 
Q 34.625 58.59375 33.34375 56.296875 
Q 32.078125 54 31.453125 53.078125 
L 13.8125 27.09375 
L 11.1875 23.484375 
L 10.40625 22.515625 
L 34.71875 22.515625 
z
" id="LiberationSans-52"/>
        <path d="M 51.21875 22.515625 
Q 51.21875 11.625 45.3125 5.3125 
Q 39.40625 -0.984375 29 -0.984375 
Q 17.390625 -0.984375 11.234375 7.65625 
Q 5.078125 16.3125 5.078125 32.8125 
Q 5.078125 50.6875 11.46875 60.25 
Q 17.875 69.828125 29.6875 69.828125 
Q 45.265625 69.828125 49.3125 55.8125 
L 40.921875 54.296875 
Q 38.328125 62.703125 29.59375 62.703125 
Q 22.078125 62.703125 17.9375 55.6875 
Q 13.8125 48.6875 13.8125 35.40625 
Q 16.21875 39.84375 20.5625 42.15625 
Q 24.90625 44.484375 30.515625 44.484375 
Q 40.046875 44.484375 45.625 38.515625 
Q 51.21875 32.5625 51.21875 22.515625 
z
M 42.28125 22.125 
Q 42.28125 29.59375 38.625 33.640625 
Q 34.96875 37.703125 28.421875 37.703125 
Q 22.265625 37.703125 18.484375 34.109375 
Q 14.703125 30.515625 14.703125 24.21875 
Q 14.703125 16.265625 18.625 11.1875 
Q 22.5625 6.109375 28.71875 6.109375 
Q 35.0625 6.109375 38.671875 10.375 
Q 42.28125 14.65625 42.28125 22.125 
z
" id="LiberationSans-54"/>
        <path d="M 38.1875 0 
L 28.515625 0 
L 0.4375 68.796875 
L 10.25 68.796875 
L 29.296875 20.359375 
L 33.40625 8.203125 
L 37.5 20.359375 
L 56.453125 68.796875 
L 66.265625 68.796875 
z
" id="LiberationSans-86"/>
       </defs>
       <use xlink:href="#LiberationSans-71"/>
       <use x="77.783203" xlink:href="#LiberationSans-52"/>
       <use x="133.398438" xlink:href="#LiberationSans-52"/>
       <use x="189.013672" xlink:href="#LiberationSans-54"/>
       <use x="244.628906" xlink:href="#LiberationSans-86"/>
      </g>
     </g>
    </g>
    <g id="xtick_2">
     <g id="line2d_2"/>
     <g id="text_2">
      <!-- E484Q -->
      <g style="fill:#262626;" transform="translate(75.572031 156.902125)rotate(-90)scale(0.09 -0.09)">
       <defs>
        <path d="M 8.203125 0 
L 8.203125 68.796875 
L 60.40625 68.796875 
L 60.40625 61.1875 
L 17.53125 61.1875 
L 17.53125 39.109375 
L 57.46875 39.109375 
L 57.46875 31.59375 
L 17.53125 31.59375 
L 17.53125 7.625 
L 62.40625 7.625 
L 62.40625 0 
z
" id="LiberationSans-69"/>
        <path d="M 51.265625 19.1875 
Q 51.265625 9.671875 45.203125 4.34375 
Q 39.15625 -0.984375 27.828125 -0.984375 
Q 16.796875 -0.984375 10.5625 4.234375 
Q 4.34375 9.46875 4.34375 19.09375 
Q 4.34375 25.828125 8.203125 30.421875 
Q 12.0625 35.015625 18.0625 35.984375 
L 18.0625 36.1875 
Q 12.453125 37.5 9.203125 41.890625 
Q 5.953125 46.296875 5.953125 52.203125 
Q 5.953125 60.0625 11.828125 64.9375 
Q 17.71875 69.828125 27.640625 69.828125 
Q 37.796875 69.828125 43.671875 65.03125 
Q 49.5625 60.25 49.5625 52.09375 
Q 49.5625 46.1875 46.28125 41.796875 
Q 43.015625 37.40625 37.359375 36.28125 
L 37.359375 36.078125 
Q 43.953125 35.015625 47.609375 30.5 
Q 51.265625 25.984375 51.265625 19.1875 
z
M 40.4375 51.609375 
Q 40.4375 63.28125 27.640625 63.28125 
Q 21.4375 63.28125 18.1875 60.34375 
Q 14.9375 57.421875 14.9375 51.609375 
Q 14.9375 45.703125 18.28125 42.59375 
Q 21.625 39.5 27.734375 39.5 
Q 33.9375 39.5 37.1875 42.359375 
Q 40.4375 45.21875 40.4375 51.609375 
z
M 42.140625 20.015625 
Q 42.140625 26.421875 38.328125 29.65625 
Q 34.515625 32.90625 27.640625 32.90625 
Q 20.953125 32.90625 17.1875 29.40625 
Q 13.421875 25.921875 13.421875 19.828125 
Q 13.421875 5.609375 27.9375 5.609375 
Q 35.109375 5.609375 38.625 9.046875 
Q 42.140625 12.5 42.140625 20.015625 
z
" id="LiberationSans-56"/>
        <path d="M 73 34.71875 
Q 73 20.171875 65.671875 10.796875 
Q 58.34375 1.421875 45.3125 -0.296875 
Q 47.3125 -6.453125 50.5625 -9.1875 
Q 53.8125 -11.921875 58.796875 -11.921875 
Q 61.46875 -11.921875 64.40625 -11.28125 
L 64.40625 -17.828125 
Q 59.859375 -18.890625 55.71875 -18.890625 
Q 48.34375 -18.890625 43.578125 -14.71875 
Q 38.8125 -10.546875 35.796875 -0.78125 
Q 26.125 -0.296875 19.109375 4.125 
Q 12.109375 8.546875 8.421875 16.421875 
Q 4.734375 24.3125 4.734375 34.71875 
Q 4.734375 51.21875 13.765625 60.515625 
Q 22.796875 69.828125 38.921875 69.828125 
Q 49.421875 69.828125 57.125 65.640625 
Q 64.84375 61.46875 68.921875 53.515625 
Q 73 45.5625 73 34.71875 
z
M 63.484375 34.71875 
Q 63.484375 47.5625 57.0625 54.875 
Q 50.640625 62.203125 38.921875 62.203125 
Q 27.09375 62.203125 20.640625 54.96875 
Q 14.203125 47.75 14.203125 34.71875 
Q 14.203125 21.78125 20.71875 14.1875 
Q 27.25 6.59375 38.8125 6.59375 
Q 50.734375 6.59375 57.109375 13.9375 
Q 63.484375 21.296875 63.484375 34.71875 
z
" id="LiberationSans-81"/>
       </defs>
       <use xlink:href="#LiberationSans-69"/>
       <use x="66.699219" xlink:href="#LiberationSans-52"/>
       <use x="122.314453" xlink:href="#LiberationSans-56"/>
       <use x="177.929688" xlink:href="#LiberationSans-52"/>
       <use x="233.544922" xlink:href="#LiberationSans-81"/>
      </g>
     </g>
    </g>
    <g id="xtick_3">
     <g id="line2d_3"/>
     <g id="text_3">
      <!-- G485R -->
      <g style="fill:#262626;" transform="translate(95.972031 157.398531)rotate(-90)scale(0.09 -0.09)">
       <defs>
        <path d="M 51.421875 22.40625 
Q 51.421875 11.53125 44.953125 5.265625 
Q 38.484375 -0.984375 27 -0.984375 
Q 17.390625 -0.984375 11.46875 3.21875 
Q 5.5625 7.421875 4 15.375 
L 12.890625 16.40625 
Q 15.671875 6.203125 27.203125 6.203125 
Q 34.28125 6.203125 38.28125 10.46875 
Q 42.28125 14.75 42.28125 22.21875 
Q 42.28125 28.71875 38.25 32.71875 
Q 34.234375 36.71875 27.390625 36.71875 
Q 23.828125 36.71875 20.75 35.59375 
Q 17.671875 34.46875 14.59375 31.78125 
L 6 31.78125 
L 8.296875 68.796875 
L 47.40625 68.796875 
L 47.40625 61.328125 
L 16.3125 61.328125 
L 14.984375 39.5 
Q 20.703125 43.890625 29.203125 43.890625 
Q 39.359375 43.890625 45.390625 37.9375 
Q 51.421875 31.984375 51.421875 22.40625 
z
" id="LiberationSans-53"/>
        <path d="M 56.84375 0 
L 38.96875 28.5625 
L 17.53125 28.5625 
L 17.53125 0 
L 8.203125 0 
L 8.203125 68.796875 
L 40.578125 68.796875 
Q 52.203125 68.796875 58.515625 63.59375 
Q 64.84375 58.40625 64.84375 49.125 
Q 64.84375 41.453125 60.375 36.21875 
Q 55.90625 31 48.046875 29.640625 
L 67.578125 0 
z
M 55.46875 49.03125 
Q 55.46875 55.03125 51.390625 58.171875 
Q 47.3125 61.328125 39.65625 61.328125 
L 17.53125 61.328125 
L 17.53125 35.9375 
L 40.046875 35.9375 
Q 47.40625 35.9375 51.4375 39.375 
Q 55.46875 42.828125 55.46875 49.03125 
z
" id="LiberationSans-82"/>
       </defs>
       <use xlink:href="#LiberationSans-71"/>
       <use x="77.783203" xlink:href="#LiberationSans-52"/>
       <use x="133.398438" xlink:href="#LiberationSans-56"/>
       <use x="189.013672" xlink:href="#LiberationSans-53"/>
       <use x="244.628906" xlink:href="#LiberationSans-82"/>
      </g>
     </g>
    </g>
    <g id="xtick_4">
     <g id="line2d_4"/>
     <g id="text_4">
      <!-- S494P -->
      <g style="fill:#262626;" transform="translate(116.372031 155.905094)rotate(-90)scale(0.09 -0.09)">
       <defs>
        <path d="M 62.109375 19 
Q 62.109375 9.46875 54.65625 4.234375 
Q 47.21875 -0.984375 33.6875 -0.984375 
Q 8.546875 -0.984375 4.546875 16.5 
L 13.578125 18.3125 
Q 15.140625 12.109375 20.21875 9.203125 
Q 25.296875 6.296875 34.03125 6.296875 
Q 43.0625 6.296875 47.96875 9.390625 
Q 52.875 12.5 52.875 18.5 
Q 52.875 21.875 51.34375 23.96875 
Q 49.8125 26.078125 47.015625 27.4375 
Q 44.234375 28.8125 40.375 29.734375 
Q 36.53125 30.671875 31.84375 31.734375 
Q 23.6875 33.546875 19.453125 35.34375 
Q 15.234375 37.15625 12.796875 39.375 
Q 10.359375 41.609375 9.0625 44.578125 
Q 7.765625 47.5625 7.765625 51.421875 
Q 7.765625 60.25 14.53125 65.03125 
Q 21.296875 69.828125 33.890625 69.828125 
Q 45.609375 69.828125 51.8125 66.234375 
Q 58.015625 62.640625 60.5 54 
L 51.3125 52.390625 
Q 49.8125 57.859375 45.5625 60.328125 
Q 41.3125 62.796875 33.796875 62.796875 
Q 25.53125 62.796875 21.1875 60.0625 
Q 16.84375 57.328125 16.84375 51.90625 
Q 16.84375 48.734375 18.53125 46.65625 
Q 20.21875 44.578125 23.390625 43.140625 
Q 26.5625 41.703125 36.03125 39.59375 
Q 39.203125 38.875 42.359375 38.109375 
Q 45.515625 37.359375 48.390625 36.296875 
Q 51.265625 35.25 53.78125 33.828125 
Q 56.296875 32.421875 58.15625 30.375 
Q 60.015625 28.328125 61.0625 25.53125 
Q 62.109375 22.75 62.109375 19 
z
" id="LiberationSans-83"/>
        <path d="M 50.875 35.796875 
Q 50.875 18.0625 44.40625 8.53125 
Q 37.9375 -0.984375 25.984375 -0.984375 
Q 17.921875 -0.984375 13.0625 2.40625 
Q 8.203125 5.8125 6.109375 13.375 
L 14.5 14.703125 
Q 17.140625 6.109375 26.125 6.109375 
Q 33.6875 6.109375 37.84375 13.140625 
Q 42 20.171875 42.1875 33.203125 
Q 40.234375 28.8125 35.5 26.140625 
Q 30.765625 23.484375 25.09375 23.484375 
Q 15.828125 23.484375 10.25 29.828125 
Q 4.6875 36.1875 4.6875 46.6875 
Q 4.6875 57.46875 10.734375 63.640625 
Q 16.796875 69.828125 27.59375 69.828125 
Q 39.0625 69.828125 44.96875 61.328125 
Q 50.875 52.828125 50.875 35.796875 
z
M 41.3125 44.28125 
Q 41.3125 52.59375 37.5 57.640625 
Q 33.6875 62.703125 27.296875 62.703125 
Q 20.953125 62.703125 17.28125 58.375 
Q 13.625 54.046875 13.625 46.6875 
Q 13.625 39.15625 17.28125 34.78125 
Q 20.953125 30.421875 27.203125 30.421875 
Q 31 30.421875 34.265625 32.15625 
Q 37.546875 33.890625 39.421875 37.0625 
Q 41.3125 40.234375 41.3125 44.28125 
z
" id="LiberationSans-57"/>
        <path d="M 61.421875 48.09375 
Q 61.421875 38.328125 55.046875 32.5625 
Q 48.6875 26.8125 37.75 26.8125 
L 17.53125 26.8125 
L 17.53125 0 
L 8.203125 0 
L 8.203125 68.796875 
L 37.15625 68.796875 
Q 48.734375 68.796875 55.078125 63.375 
Q 61.421875 57.953125 61.421875 48.09375 
z
M 52.046875 48 
Q 52.046875 61.328125 36.03125 61.328125 
L 17.53125 61.328125 
L 17.53125 34.1875 
L 36.421875 34.1875 
Q 52.046875 34.1875 52.046875 48 
z
" id="LiberationSans-80"/>
       </defs>
       <use xlink:href="#LiberationSans-83"/>
       <use x="66.699219" xlink:href="#LiberationSans-52"/>
       <use x="122.314453" xlink:href="#LiberationSans-57"/>
       <use x="177.929688" xlink:href="#LiberationSans-52"/>
       <use x="233.544922" xlink:href="#LiberationSans-80"/>
      </g>
     </g>
    </g>
   </g>
   <g id="matplotlib.axis_2">
    <g id="ytick_1">
     <g id="line2d_5"/>
     <g id="text_5">
      <!-- 1 -->
      <g style="fill:#262626;" transform="translate(32.64375 113.129048)scale(0.1 -0.1)">
       <defs>
        <path d="M 7.625 0 
L 7.625 7.46875 
L 25.140625 7.46875 
L 25.140625 60.40625 
L 9.625 49.3125 
L 9.625 57.625 
L 25.875 68.796875 
L 33.984375 68.796875 
L 33.984375 7.46875 
L 50.734375 7.46875 
L 50.734375 0 
z
" id="LiberationSans-49"/>
       </defs>
       <use xlink:href="#LiberationSans-49"/>
      </g>
     </g>
    </g>
    <g id="ytick_2">
     <g id="line2d_6"/>
     <g id="text_6">
      <!-- 10 -->
      <g style="fill:#262626;" transform="translate(27.082813 72.323607)scale(0.1 -0.1)">
       <defs>
        <path d="M 51.703125 34.421875 
Q 51.703125 17.1875 45.625 8.09375 
Q 39.546875 -0.984375 27.6875 -0.984375 
Q 15.828125 -0.984375 9.859375 8.046875 
Q 3.90625 17.09375 3.90625 34.421875 
Q 3.90625 52.15625 9.6875 60.984375 
Q 15.484375 69.828125 27.984375 69.828125 
Q 40.140625 69.828125 45.921875 60.890625 
Q 51.703125 51.953125 51.703125 34.421875 
z
M 42.78125 34.421875 
Q 42.78125 49.3125 39.328125 56 
Q 35.890625 62.703125 27.984375 62.703125 
Q 19.875 62.703125 16.328125 56.109375 
Q 12.796875 49.515625 12.796875 34.421875 
Q 12.796875 19.78125 16.375 12.984375 
Q 19.96875 6.203125 27.78125 6.203125 
Q 35.546875 6.203125 39.15625 13.125 
Q 42.78125 20.0625 42.78125 34.421875 
z
" id="LiberationSans-48"/>
       </defs>
       <use xlink:href="#LiberationSans-49"/>
       <use x="55.615234" xlink:href="#LiberationSans-48"/>
      </g>
     </g>
    </g>
    <g id="ytick_3">
     <g id="line2d_7"/>
     <g id="text_7">
      <!-- 100 -->
      <g style="fill:#262626;" transform="translate(21.521875 31.518165)scale(0.1 -0.1)">
       <use xlink:href="#LiberationSans-49"/>
       <use x="55.615234" xlink:href="#LiberationSans-48"/>
       <use x="111.230469" xlink:href="#LiberationSans-48"/>
      </g>
     </g>
    </g>
    <g id="ytick_4">
     <g id="line2d_8"/>
    </g>
    <g id="ytick_5">
     <g id="line2d_9"/>
    </g>
    <g id="ytick_6">
     <g id="line2d_10"/>
    </g>
    <g id="ytick_7">
     <g id="line2d_11"/>
    </g>
    <g id="ytick_8">
     <g id="line2d_12"/>
    </g>
    <g id="ytick_9">
     <g id="line2d_13"/>
    </g>
    <g id="ytick_10">
     <g id="line2d_14"/>
    </g>
    <g id="ytick_11">
     <g id="line2d_15"/>
    </g>
    <g id="ytick_12">
     <g id="line2d_16"/>
    </g>
    <g id="ytick_13">
     <g id="line2d_17"/>
    </g>
    <g id="ytick_14">
     <g id="line2d_18"/>
    </g>
    <g id="ytick_15">
     <g id="line2d_19"/>
    </g>
    <g id="ytick_16">
     <g id="line2d_20"/>
    </g>
    <g id="ytick_17">
     <g id="line2d_21"/>
    </g>
    <g id="ytick_18">
     <g id="line2d_22"/>
    </g>
    <g id="ytick_19">
     <g id="line2d_23"/>
    </g>
    <g id="ytick_20">
     <g id="line2d_24"/>
    </g>
    <g id="ytick_21">
     <g id="line2d_25"/>
    </g>
    <g id="ytick_22">
     <g id="line2d_26"/>
    </g>
    <g id="ytick_23">
     <g id="line2d_27"/>
    </g>
    <g id="ytick_24">
     <g id="line2d_28"/>
    </g>
    <g id="ytick_25">
     <g id="line2d_29"/>
    </g>
    <g id="text_8">
     <!-- fold change IC50 -->
     <g style="fill:#262626;" transform="translate(14.446875 112.986344)rotate(-90)scale(0.1 -0.1)">
      <defs>
       <path d="M 17.625 46.4375 
L 17.625 0 
L 8.84375 0 
L 8.84375 46.4375 
L 1.421875 46.4375 
L 1.421875 52.828125 
L 8.84375 52.828125 
L 8.84375 58.796875 
Q 8.84375 66.015625 12.015625 69.1875 
Q 15.1875 72.359375 21.734375 72.359375 
Q 25.390625 72.359375 27.9375 71.78125 
L 27.9375 65.09375 
Q 25.734375 65.484375 24.03125 65.484375 
Q 20.65625 65.484375 19.140625 63.765625 
Q 17.625 62.0625 17.625 57.5625 
L 17.625 52.828125 
L 27.9375 52.828125 
L 27.9375 46.4375 
z
" id="LiberationSans-102"/>
       <path d="M 51.421875 26.46875 
Q 51.421875 12.59375 45.3125 5.796875 
Q 39.203125 -0.984375 27.59375 -0.984375 
Q 16.015625 -0.984375 10.109375 6.078125 
Q 4.203125 13.140625 4.203125 26.46875 
Q 4.203125 53.8125 27.875 53.8125 
Q 39.984375 53.8125 45.703125 47.140625 
Q 51.421875 40.484375 51.421875 26.46875 
z
M 42.1875 26.46875 
Q 42.1875 37.40625 38.9375 42.359375 
Q 35.6875 47.3125 28.03125 47.3125 
Q 20.3125 47.3125 16.859375 42.25 
Q 13.421875 37.203125 13.421875 26.46875 
Q 13.421875 16.015625 16.8125 10.765625 
Q 20.21875 5.515625 27.484375 5.515625 
Q 35.40625 5.515625 38.796875 10.59375 
Q 42.1875 15.671875 42.1875 26.46875 
z
" id="LiberationSans-111"/>
       <path d="M 6.734375 0 
L 6.734375 72.46875 
L 15.53125 72.46875 
L 15.53125 0 
z
" id="LiberationSans-108"/>
       <path d="M 40.09375 8.5 
Q 37.640625 3.421875 33.609375 1.21875 
Q 29.59375 -0.984375 23.640625 -0.984375 
Q 13.625 -0.984375 8.90625 5.75 
Q 4.203125 12.5 4.203125 26.171875 
Q 4.203125 53.8125 23.640625 53.8125 
Q 29.640625 53.8125 33.640625 51.609375 
Q 37.640625 49.421875 40.09375 44.625 
L 40.1875 44.625 
L 40.09375 50.53125 
L 40.09375 72.46875 
L 48.875 72.46875 
L 48.875 10.890625 
Q 48.875 2.640625 49.171875 0 
L 40.765625 0 
Q 40.625 0.78125 40.453125 3.609375 
Q 40.28125 6.453125 40.28125 8.5 
z
M 13.421875 26.46875 
Q 13.421875 15.375 16.34375 10.59375 
Q 19.28125 5.8125 25.875 5.8125 
Q 33.34375 5.8125 36.71875 10.984375 
Q 40.09375 16.15625 40.09375 27.046875 
Q 40.09375 37.546875 36.71875 42.421875 
Q 33.34375 47.3125 25.984375 47.3125 
Q 19.34375 47.3125 16.375 42.40625 
Q 13.421875 37.5 13.421875 26.46875 
z
" id="LiberationSans-100"/>
       <path id="LiberationSans-32"/>
       <path d="M 13.421875 26.65625 
Q 13.421875 16.109375 16.734375 11.03125 
Q 20.0625 5.953125 26.765625 5.953125 
Q 31.453125 5.953125 34.59375 8.484375 
Q 37.75 11.03125 38.484375 16.3125 
L 47.359375 15.71875 
Q 46.34375 8.109375 40.875 3.5625 
Q 35.40625 -0.984375 27 -0.984375 
Q 15.921875 -0.984375 10.078125 6.015625 
Q 4.25 13.03125 4.25 26.46875 
Q 4.25 39.796875 10.109375 46.796875 
Q 15.96875 53.8125 26.90625 53.8125 
Q 35.015625 53.8125 40.359375 49.609375 
Q 45.703125 45.40625 47.078125 38.03125 
L 38.03125 37.359375 
Q 37.359375 41.75 34.5625 44.328125 
Q 31.78125 46.921875 26.65625 46.921875 
Q 19.671875 46.921875 16.546875 42.28125 
Q 13.421875 37.640625 13.421875 26.65625 
z
" id="LiberationSans-99"/>
       <path d="M 15.484375 43.796875 
Q 18.3125 48.96875 22.28125 51.390625 
Q 26.265625 53.8125 32.375 53.8125 
Q 40.96875 53.8125 45.046875 49.53125 
Q 49.125 45.265625 49.125 35.203125 
L 49.125 0 
L 40.28125 0 
L 40.28125 33.5 
Q 40.28125 39.0625 39.25 41.765625 
Q 38.234375 44.484375 35.890625 45.75 
Q 33.546875 47.015625 29.390625 47.015625 
Q 23.1875 47.015625 19.453125 42.71875 
Q 15.71875 38.421875 15.71875 31.15625 
L 15.71875 0 
L 6.9375 0 
L 6.9375 72.46875 
L 15.71875 72.46875 
L 15.71875 53.609375 
Q 15.71875 50.640625 15.546875 47.453125 
Q 15.375 44.28125 15.328125 43.796875 
z
" id="LiberationSans-104"/>
       <path d="M 20.21875 -0.984375 
Q 12.25 -0.984375 8.25 3.21875 
Q 4.25 7.421875 4.25 14.75 
Q 4.25 22.953125 9.640625 27.34375 
Q 15.046875 31.734375 27.046875 32.03125 
L 38.921875 32.234375 
L 38.921875 35.109375 
Q 38.921875 41.546875 36.1875 44.328125 
Q 33.453125 47.125 27.59375 47.125 
Q 21.6875 47.125 19 45.109375 
Q 16.3125 43.109375 15.765625 38.71875 
L 6.59375 39.546875 
Q 8.84375 53.8125 27.78125 53.8125 
Q 37.75 53.8125 42.765625 49.234375 
Q 47.796875 44.671875 47.796875 36.03125 
L 47.796875 13.28125 
Q 47.796875 9.375 48.828125 7.390625 
Q 49.859375 5.421875 52.734375 5.421875 
Q 54 5.421875 55.609375 5.765625 
L 55.609375 0.296875 
Q 52.296875 -0.484375 48.828125 -0.484375 
Q 43.953125 -0.484375 41.71875 2.078125 
Q 39.5 4.640625 39.203125 10.109375 
L 38.921875 10.109375 
Q 35.546875 4.046875 31.078125 1.53125 
Q 26.609375 -0.984375 20.21875 -0.984375 
z
M 22.21875 5.609375 
Q 27.046875 5.609375 30.8125 7.8125 
Q 34.578125 10.015625 36.75 13.84375 
Q 38.921875 17.671875 38.921875 21.734375 
L 38.921875 26.078125 
L 29.296875 25.875 
Q 23.09375 25.78125 19.890625 24.609375 
Q 16.703125 23.4375 14.984375 21 
Q 13.28125 18.5625 13.28125 14.59375 
Q 13.28125 10.296875 15.59375 7.953125 
Q 17.921875 5.609375 22.21875 5.609375 
z
" id="LiberationSans-97"/>
       <path d="M 40.28125 0 
L 40.28125 33.5 
Q 40.28125 38.71875 39.25 41.59375 
Q 38.234375 44.484375 35.984375 45.75 
Q 33.734375 47.015625 29.390625 47.015625 
Q 23.046875 47.015625 19.375 42.671875 
Q 15.71875 38.328125 15.71875 30.609375 
L 15.71875 0 
L 6.9375 0 
L 6.9375 41.546875 
Q 6.9375 50.78125 6.640625 52.828125 
L 14.9375 52.828125 
Q 14.984375 52.59375 15.03125 51.515625 
Q 15.09375 50.4375 15.15625 49.046875 
Q 15.234375 47.65625 15.328125 43.796875 
L 15.484375 43.796875 
Q 18.5 49.265625 22.484375 51.53125 
Q 26.46875 53.8125 32.375 53.8125 
Q 41.0625 53.8125 45.09375 49.484375 
Q 49.125 45.171875 49.125 35.203125 
L 49.125 0 
z
" id="LiberationSans-110"/>
       <path d="M 26.765625 -20.75 
Q 18.109375 -20.75 12.984375 -17.359375 
Q 7.859375 -13.96875 6.390625 -7.71875 
L 15.234375 -6.453125 
Q 16.109375 -10.109375 19.109375 -12.078125 
Q 22.125 -14.0625 27 -14.0625 
Q 40.140625 -14.0625 40.140625 1.3125 
L 40.140625 9.8125 
L 40.046875 9.8125 
Q 37.546875 4.734375 33.203125 2.171875 
Q 28.859375 -0.390625 23.046875 -0.390625 
Q 13.328125 -0.390625 8.765625 6.046875 
Q 4.203125 12.5 4.203125 26.3125 
Q 4.203125 40.328125 9.109375 46.984375 
Q 14.015625 53.65625 24.03125 53.65625 
Q 29.640625 53.65625 33.765625 51.09375 
Q 37.890625 48.53125 40.140625 43.796875 
L 40.234375 43.796875 
Q 40.234375 45.265625 40.421875 48.875 
Q 40.625 52.484375 40.828125 52.828125 
L 49.171875 52.828125 
Q 48.875 50.203125 48.875 41.890625 
L 48.875 1.515625 
Q 48.875 -20.75 26.765625 -20.75 
z
M 40.140625 26.421875 
Q 40.140625 32.859375 38.375 37.515625 
Q 36.625 42.1875 33.421875 44.65625 
Q 30.21875 47.125 26.171875 47.125 
Q 19.4375 47.125 16.359375 42.234375 
Q 13.28125 37.359375 13.28125 26.421875 
Q 13.28125 15.578125 16.15625 10.84375 
Q 19.046875 6.109375 26.03125 6.109375 
Q 30.171875 6.109375 33.390625 8.546875 
Q 36.625 10.984375 38.375 15.546875 
Q 40.140625 20.125 40.140625 26.421875 
z
" id="LiberationSans-103"/>
       <path d="M 13.484375 24.5625 
Q 13.484375 15.484375 17.234375 10.546875 
Q 21 5.609375 28.21875 5.609375 
Q 33.9375 5.609375 37.375 7.90625 
Q 40.828125 10.203125 42.046875 13.71875 
L 49.75 11.53125 
Q 45.015625 -0.984375 28.21875 -0.984375 
Q 16.5 -0.984375 10.375 6 
Q 4.25 12.984375 4.25 26.765625 
Q 4.25 39.84375 10.375 46.828125 
Q 16.5 53.8125 27.875 53.8125 
Q 51.171875 53.8125 51.171875 25.734375 
L 51.171875 24.5625 
z
M 42.09375 31.296875 
Q 41.359375 39.65625 37.84375 43.484375 
Q 34.328125 47.3125 27.734375 47.3125 
Q 21.34375 47.3125 17.609375 43.03125 
Q 13.875 38.765625 13.578125 31.296875 
z
" id="LiberationSans-101"/>
       <path d="M 9.234375 0 
L 9.234375 68.796875 
L 18.5625 68.796875 
L 18.5625 0 
z
" id="LiberationSans-73"/>
       <path d="M 38.671875 62.203125 
Q 27.25 62.203125 20.890625 54.859375 
Q 14.546875 47.515625 14.546875 34.71875 
Q 14.546875 22.078125 21.15625 14.375 
Q 27.78125 6.6875 39.0625 6.6875 
Q 53.515625 6.6875 60.796875 21 
L 68.40625 17.1875 
Q 64.15625 8.296875 56.46875 3.65625 
Q 48.78125 -0.984375 38.625 -0.984375 
Q 28.21875 -0.984375 20.625 3.34375 
Q 13.03125 7.671875 9.046875 15.703125 
Q 5.078125 23.734375 5.078125 34.71875 
Q 5.078125 51.171875 13.96875 60.5 
Q 22.859375 69.828125 38.578125 69.828125 
Q 49.5625 69.828125 56.9375 65.53125 
Q 64.3125 61.234375 67.78125 52.78125 
L 58.9375 49.859375 
Q 56.546875 55.859375 51.25 59.03125 
Q 45.953125 62.203125 38.671875 62.203125 
z
" id="LiberationSans-67"/>
      </defs>
      <use xlink:href="#LiberationSans-102"/>
      <use x="27.783203" xlink:href="#LiberationSans-111"/>
      <use x="83.398438" xlink:href="#LiberationSans-108"/>
      <use x="105.615234" xlink:href="#LiberationSans-100"/>
      <use x="161.230469" xlink:href="#LiberationSans-32"/>
      <use x="189.013672" xlink:href="#LiberationSans-99"/>
      <use x="239.013672" xlink:href="#LiberationSans-104"/>
      <use x="294.628906" xlink:href="#LiberationSans-97"/>
      <use x="350.244141" xlink:href="#LiberationSans-110"/>
      <use x="405.859375" xlink:href="#LiberationSans-103"/>
      <use x="461.474609" xlink:href="#LiberationSans-101"/>
      <use x="517.089844" xlink:href="#LiberationSans-32"/>
      <use x="544.873047" xlink:href="#LiberationSans-73"/>
      <use x="572.65625" xlink:href="#LiberationSans-67"/>
      <use x="644.873047" xlink:href="#LiberationSans-53"/>
      <use x="700.488281" xlink:href="#LiberationSans-48"/>
     </g>
    </g>
   </g>
   <g id="PathCollection_1">
    <path clip-path="url(#p0e127cc123)" d="M 52.844688 86.132787 
C 53.432263 86.132787 53.995852 85.899341 54.41133 85.483862 
C 54.826809 85.068384 55.060255 84.504795 55.060255 83.917219 
C 55.060255 83.329644 54.826809 82.766055 54.41133 82.350577 
C 53.995852 81.935098 53.432263 81.701652 52.844688 81.701652 
C 52.257112 81.701652 51.693523 81.935098 51.278045 82.350577 
C 50.862566 82.766055 50.62912 83.329644 50.62912 83.917219 
C 50.62912 84.504795 50.862566 85.068384 51.278045 85.483862 
C 51.693523 85.899341 52.257112 86.132787 52.844688 86.132787 
z
" style="fill:#d55e00;stroke:#d55e00;stroke-width:0.886227;"/>
    <path clip-path="url(#p0e127cc123)" d="M 73.244688 59.942507 
C 73.832263 59.942507 74.395852 59.70906 74.81133 59.293582 
C 75.226809 58.878103 75.460255 58.314515 75.460255 57.726939 
C 75.460255 57.139364 75.226809 56.575775 74.81133 56.160297 
C 74.395852 55.744818 73.832263 55.511372 73.244688 55.511372 
C 72.657112 55.511372 72.093523 55.744818 71.678045 56.160297 
C 71.262566 56.575775 71.02912 57.139364 71.02912 57.726939 
C 71.02912 58.314515 71.262566 58.878103 71.678045 59.293582 
C 72.093523 59.70906 72.657112 59.942507 73.244688 59.942507 
z
" style="fill:#d55e00;stroke:#d55e00;stroke-width:0.886227;"/>
    <path clip-path="url(#p0e127cc123)" d="M 93.644688 81.609231 
C 94.232263 81.609231 94.795852 81.375785 95.21133 80.960306 
C 95.626809 80.544828 95.860255 79.981239 95.860255 79.393663 
C 95.860255 78.806088 95.626809 78.242499 95.21133 77.827021 
C 94.795852 77.411542 94.232263 77.178096 93.644688 77.178096 
C 93.057112 77.178096 92.493523 77.411542 92.078045 77.827021 
C 91.662566 78.242499 91.42912 78.806088 91.42912 79.393663 
C 91.42912 79.981239 91.662566 80.544828 92.078045 80.960306 
C 92.493523 81.375785 93.057112 81.609231 93.644688 81.609231 
z
" style="fill:#d55e00;stroke:#d55e00;stroke-width:0.886227;"/>
    <path clip-path="url(#p0e127cc123)" d="M 114.044688 105.834533 
C 114.632263 105.834533 115.195852 105.601087 115.61133 105.185608 
C 116.026809 104.77013 116.260255 104.206541 116.260255 103.618966 
C 116.260255 103.03139 116.026809 102.467801 115.61133 102.052323 
C 115.195852 101.636844 114.632263 101.403398 114.044688 101.403398 
C 113.457112 101.403398 112.893523 101.636844 112.478045 102.052323 
C 112.062566 102.467801 111.82912 103.03139 111.82912 103.618966 
C 111.82912 104.206541 112.062566 104.77013 112.478045 105.185608 
C 112.893523 105.601087 113.457112 105.834533 114.044688 105.834533 
z
" style="fill:#d55e00;stroke:#d55e00;stroke-width:0.886227;"/>
   </g>
   <g id="patch_3">
    <path d="M 40.604688 23.2 
L 126.284688 23.2 
L 126.284688 7.2 
L 40.604688 7.2 
z
" style="fill:none;"/>
   </g>
   <g id="patch_4">
    <path d="M 40.604688 126.484 
L 40.604688 23.2 
" style="fill:none;stroke:#262626;stroke-linecap:square;stroke-linejoin:miter;stroke-width:1.25;"/>
   </g>
   <g id="patch_5">
    <path d="M 126.284688 126.484 
L 126.284688 23.2 
" style="fill:none;stroke:#262626;stroke-linecap:square;stroke-linejoin:miter;stroke-width:1.25;"/>
   </g>
   <g id="patch_6">
    <path d="M 40.604688 126.484 
L 126.284688 126.484 
" style="fill:none;stroke:#262626;stroke-linecap:square;stroke-linejoin:miter;stroke-width:1.25;"/>
   </g>
   <g id="patch_7">
    <path d="M 40.604688 23.2 
L 126.284688 23.2 
" style="fill:none;stroke:#262626;stroke-linecap:square;stroke-linejoin:miter;stroke-width:1.25;"/>
   </g>
   <g id="LineCollection_1">
    <path clip-path="url(#p0e127cc123)" d="M 40.604688 109.505611 
L 126.284688 109.505611 
" style="fill:none;stroke:#808080;stroke-dasharray:6.558079,2.835926;stroke-dashoffset:0;stroke-opacity:0.501961;stroke-width:1.772454;"/>
   </g>
   <g id="text_9">
    <!-- day 26 -->
    <g style="fill:#262626;" transform="translate(68.43375 17.785937)scale(0.1 -0.1)">
     <defs>
      <path d="M 9.328125 -20.75 
Q 5.71875 -20.75 3.265625 -20.21875 
L 3.265625 -13.625 
Q 5.125 -13.921875 7.375 -13.921875 
Q 15.578125 -13.921875 20.359375 -1.859375 
L 21.1875 0.25 
L 0.25 52.828125 
L 9.625 52.828125 
L 20.75 23.640625 
Q 21 22.953125 21.34375 22 
Q 21.6875 21.046875 23.53125 15.625 
Q 25.390625 10.203125 25.53125 9.578125 
L 28.953125 19.1875 
L 40.53125 52.828125 
L 49.8125 52.828125 
L 29.5 0 
Q 26.21875 -8.453125 23.390625 -12.578125 
Q 20.5625 -16.703125 17.109375 -18.71875 
Q 13.671875 -20.75 9.328125 -20.75 
z
" id="LiberationSans-121"/>
      <path d="M 5.03125 0 
L 5.03125 6.203125 
Q 7.515625 11.921875 11.109375 16.28125 
Q 14.703125 20.65625 18.65625 24.1875 
Q 22.609375 27.734375 26.484375 30.765625 
Q 30.375 33.796875 33.5 36.8125 
Q 36.625 39.84375 38.546875 43.15625 
Q 40.484375 46.484375 40.484375 50.6875 
Q 40.484375 56.34375 37.15625 59.46875 
Q 33.84375 62.59375 27.9375 62.59375 
Q 22.3125 62.59375 18.671875 59.546875 
Q 15.046875 56.5 14.40625 50.984375 
L 5.421875 51.8125 
Q 6.390625 60.0625 12.421875 64.9375 
Q 18.453125 69.828125 27.9375 69.828125 
Q 38.328125 69.828125 43.921875 64.921875 
Q 49.515625 60.015625 49.515625 50.984375 
Q 49.515625 46.96875 47.671875 43.015625 
Q 45.84375 39.0625 42.234375 35.109375 
Q 38.625 31.15625 28.421875 22.859375 
Q 22.796875 18.265625 19.46875 14.578125 
Q 16.15625 10.890625 14.703125 7.46875 
L 50.59375 7.46875 
L 50.59375 0 
z
" id="LiberationSans-50"/>
     </defs>
     <use xlink:href="#LiberationSans-100"/>
     <use x="55.615234" xlink:href="#LiberationSans-97"/>
     <use x="111.230469" xlink:href="#LiberationSans-121"/>
     <use x="161.230469" xlink:href="#LiberationSans-32"/>
     <use x="189.013672" xlink:href="#LiberationSans-50"/>
     <use x="244.628906" xlink:href="#LiberationSans-54"/>
    </g>
   </g>
   <g id="LineCollection_2">
    <path clip-path="url(#p0e127cc123)" d="M 40.604688 76.114093 
L 126.284688 76.114093 
" style="fill:none;stroke:#e69f00;stroke-dasharray:1.772454,2.924549;stroke-dashoffset:0;stroke-opacity:0.698039;stroke-width:1.772454;"/>
   </g>
  </g>
  <g id="axes_2">
   <g id="patch_8">
    <path d="M 133.484688 126.484 
L 219.164688 126.484 
L 219.164688 23.2 
L 133.484688 23.2 
z
" style="fill:#ffffff;"/>
   </g>
   <g id="matplotlib.axis_3">
    <g id="xtick_5">
     <g id="line2d_30"/>
     <g id="text_10">
      <!-- G446V -->
      <g style="fill:#262626;" transform="translate(148.052031 156.902125)rotate(-90)scale(0.09 -0.09)">
       <use xlink:href="#LiberationSans-71"/>
       <use x="77.783203" xlink:href="#LiberationSans-52"/>
       <use x="133.398438" xlink:href="#LiberationSans-52"/>
       <use x="189.013672" xlink:href="#LiberationSans-54"/>
       <use x="244.628906" xlink:href="#LiberationSans-86"/>
      </g>
     </g>
    </g>
    <g id="xtick_6">
     <g id="line2d_31"/>
     <g id="text_11">
      <!-- E484Q -->
      <g style="fill:#262626;" transform="translate(168.452031 156.902125)rotate(-90)scale(0.09 -0.09)">
       <use xlink:href="#LiberationSans-69"/>
       <use x="66.699219" xlink:href="#LiberationSans-52"/>
       <use x="122.314453" xlink:href="#LiberationSans-56"/>
       <use x="177.929688" xlink:href="#LiberationSans-52"/>
       <use x="233.544922" xlink:href="#LiberationSans-81"/>
      </g>
     </g>
    </g>
    <g id="xtick_7">
     <g id="line2d_32"/>
     <g id="text_12">
      <!-- G485R -->
      <g style="fill:#262626;" transform="translate(188.852031 157.398531)rotate(-90)scale(0.09 -0.09)">
       <use xlink:href="#LiberationSans-71"/>
       <use x="77.783203" xlink:href="#LiberationSans-52"/>
       <use x="133.398438" xlink:href="#LiberationSans-56"/>
       <use x="189.013672" xlink:href="#LiberationSans-53"/>
       <use x="244.628906" xlink:href="#LiberationSans-82"/>
      </g>
     </g>
    </g>
    <g id="xtick_8">
     <g id="line2d_33"/>
     <g id="text_13">
      <!-- S494P -->
      <g style="fill:#262626;" transform="translate(209.252031 155.905094)rotate(-90)scale(0.09 -0.09)">
       <use xlink:href="#LiberationSans-83"/>
       <use x="66.699219" xlink:href="#LiberationSans-52"/>
       <use x="122.314453" xlink:href="#LiberationSans-57"/>
       <use x="177.929688" xlink:href="#LiberationSans-52"/>
       <use x="233.544922" xlink:href="#LiberationSans-80"/>
      </g>
     </g>
    </g>
   </g>
   <g id="matplotlib.axis_4">
    <g id="ytick_26"/>
    <g id="ytick_27"/>
    <g id="ytick_28"/>
    <g id="ytick_29"/>
    <g id="ytick_30"/>
    <g id="ytick_31"/>
    <g id="ytick_32"/>
    <g id="ytick_33"/>
    <g id="ytick_34"/>
    <g id="ytick_35"/>
    <g id="ytick_36"/>
    <g id="ytick_37"/>
    <g id="ytick_38"/>
    <g id="ytick_39"/>
    <g id="ytick_40"/>
    <g id="ytick_41"/>
    <g id="ytick_42"/>
    <g id="ytick_43"/>
    <g id="ytick_44"/>
    <g id="ytick_45"/>
    <g id="ytick_46"/>
    <g id="ytick_47"/>
    <g id="ytick_48"/>
    <g id="ytick_49"/>
    <g id="ytick_50"/>
   </g>
   <g id="PathCollection_2">
    <path clip-path="url(#peb00c9e8a2)" d="M 145.724688 95.726395 
C 146.312263 95.726395 146.875852 95.492949 147.29133 95.07747 
C 147.706809 94.661992 147.940255 94.098403 147.940255 93.510828 
C 147.940255 92.923252 147.706809 92.359664 147.29133 91.944185 
C 146.875852 91.528707 146.312263 91.29526 145.724688 91.29526 
C 145.137112 91.29526 144.573523 91.528707 144.158045 91.944185 
C 143.742566 92.359664 143.50912 92.923252 143.50912 93.510828 
C 143.50912 94.098403 143.742566 94.661992 144.158045 95.07747 
C 144.573523 95.492949 145.137112 95.726395 145.724688 95.726395 
z
" style="fill:#d55e00;stroke:#d55e00;stroke-width:0.886227;"/>
    <path clip-path="url(#peb00c9e8a2)" d="M 166.124688 58.997483 
C 166.712263 58.997483 167.275852 58.764037 167.69133 58.348559 
C 168.106809 57.93308 168.340255 57.369491 168.340255 56.781916 
C 168.340255 56.194341 168.106809 55.630752 167.69133 55.215273 
C 167.275852 54.799795 166.712263 54.566349 166.124688 54.566349 
C 165.537112 54.566349 164.973523 54.799795 164.558045 55.215273 
C 164.142566 55.630752 163.90912 56.194341 163.90912 56.781916 
C 163.90912 57.369491 164.142566 57.93308 164.558045 58.348559 
C 164.973523 58.764037 165.537112 58.997483 166.124688 58.997483 
z
" style="fill:#d55e00;stroke:#d55e00;stroke-width:0.886227;"/>
    <path clip-path="url(#peb00c9e8a2)" d="M 186.524688 92.114215 
C 187.112263 92.114215 187.675852 91.880769 188.09133 91.46529 
C 188.506809 91.049812 188.740255 90.486223 188.740255 89.898648 
C 188.740255 89.311072 188.506809 88.747483 188.09133 88.332005 
C 187.675852 87.916526 187.112263 87.68308 186.524688 87.68308 
C 185.937112 87.68308 185.373523 87.916526 184.958045 88.332005 
C 184.542566 88.747483 184.30912 89.311072 184.30912 89.898648 
C 184.30912 90.486223 184.542566 91.049812 184.958045 91.46529 
C 185.373523 91.880769 185.937112 92.114215 186.524688 92.114215 
z
" style="fill:#d55e00;stroke:#d55e00;stroke-width:0.886227;"/>
    <path clip-path="url(#peb00c9e8a2)" d="M 206.924688 91.708364 
C 207.512263 91.708364 208.075852 91.474918 208.49133 91.05944 
C 208.906809 90.643961 209.140255 90.080372 209.140255 89.492797 
C 209.140255 88.905222 208.906809 88.341633 208.49133 87.926154 
C 208.075852 87.510676 207.512263 87.27723 206.924688 87.27723 
C 206.337112 87.27723 205.773523 87.510676 205.358045 87.926154 
C 204.942566 88.341633 204.70912 88.905222 204.70912 89.492797 
C 204.70912 90.080372 204.942566 90.643961 205.358045 91.05944 
C 205.773523 91.474918 206.337112 91.708364 206.924688 91.708364 
z
" style="fill:#d55e00;stroke:#d55e00;stroke-width:0.886227;"/>
   </g>
   <g id="patch_9">
    <path d="M 133.484688 23.2 
L 219.164688 23.2 
L 219.164688 7.2 
L 133.484688 7.2 
z
" style="fill:none;"/>
   </g>
   <g id="patch_10">
    <path d="M 133.484688 126.484 
L 133.484688 23.2 
" style="fill:none;stroke:#262626;stroke-linecap:square;stroke-linejoin:miter;stroke-width:1.25;"/>
   </g>
   <g id="patch_11">
    <path d="M 219.164688 126.484 
L 219.164688 23.2 
" style="fill:none;stroke:#262626;stroke-linecap:square;stroke-linejoin:miter;stroke-width:1.25;"/>
   </g>
   <g id="patch_12">
    <path d="M 133.484688 126.484 
L 219.164688 126.484 
" style="fill:none;stroke:#262626;stroke-linecap:square;stroke-linejoin:miter;stroke-width:1.25;"/>
   </g>
   <g id="patch_13">
    <path d="M 133.484688 23.2 
L 219.164688 23.2 
" style="fill:none;stroke:#262626;stroke-linecap:square;stroke-linejoin:miter;stroke-width:1.25;"/>
   </g>
   <g id="LineCollection_3">
    <path clip-path="url(#peb00c9e8a2)" d="M 133.484688 109.505611 
L 219.164688 109.505611 
" style="fill:none;stroke:#808080;stroke-dasharray:6.558079,2.835926;stroke-dashoffset:0;stroke-opacity:0.501961;stroke-width:1.772454;"/>
   </g>
   <g id="text_14">
    <!-- day 102 -->
    <g style="fill:#262626;" transform="translate(158.533281 17.785937)scale(0.1 -0.1)">
     <use xlink:href="#LiberationSans-100"/>
     <use x="55.615234" xlink:href="#LiberationSans-97"/>
     <use x="111.230469" xlink:href="#LiberationSans-121"/>
     <use x="161.230469" xlink:href="#LiberationSans-32"/>
     <use x="189.013672" xlink:href="#LiberationSans-49"/>
     <use x="244.628906" xlink:href="#LiberationSans-48"/>
     <use x="300.244141" xlink:href="#LiberationSans-50"/>
    </g>
   </g>
   <g id="LineCollection_4">
    <path clip-path="url(#peb00c9e8a2)" d="M 133.484688 65.924403 
L 219.164688 65.924403 
" style="fill:none;stroke:#e69f00;stroke-dasharray:1.772454,2.924549;stroke-dashoffset:0;stroke-opacity:0.698039;stroke-width:1.772454;"/>
   </g>
  </g>
 </g>
 <defs>
  <clipPath id="p0e127cc123">
   <rect height="103.284" width="85.68" x="40.604688" y="23.2"/>
  </clipPath>
  <clipPath id="peb00c9e8a2">
   <rect height="103.284" width="85.68" x="133.484688" y="23.2"/>
  </clipPath>
 </defs>
</svg>
